<svg xmlns="http://www.w3.org/2000/svg" width="36" height="36" viewBox="0 0 36 36">
    <g fill="none" fill-rule="evenodd">
        <path fill="#309250" fill-rule="nonzero" d="M17.9265306,35.3387755 C8.30204082,35.3387755 0.440816327,27.477551 0.440816327,17.8530612 C0.440816327,8.22857143 8.30204082,0.367346939 17.9265306,0.367346939 C27.5510204,0.367346939 35.4122449,8.22857143 35.4122449,17.8530612 C35.4122449,27.477551 27.6244898,35.3387755 17.9265306,35.3387755 Z M17.9265306,2.49795918 C9.47755102,2.49795918 2.64489796,9.33061224 2.64489796,17.7795918 C2.64489796,26.2285714 9.47755102,33.0612245 17.9265306,33.0612245 C26.3755102,33.0612245 33.2081633,26.2285714 33.2081633,17.7795918 C33.2816327,9.33061224 26.3755102,2.49795918 17.9265306,2.49795918 Z" opacity=".3"/>
        <path fill="#309250" d="M16.3102041,22.9959184 L16.3102041,22.9959184 C16.0163265,22.9959184 15.722449,22.8489796 15.5020408,22.7020408 L11.9020408,19.1020408 C11.4612245,18.6612245 11.4612245,18 11.9020408,17.5591837 C12.3428571,17.1183673 13.0040816,17.1183673 13.444898,17.5591837 L16.2367347,20.3510204 L22.7755102,13.9591837 C23.2163265,13.5183673 23.877551,13.5183673 24.3183673,13.9591837 C24.7591837,14.4 24.7591837,15.0612245 24.3183673,15.5020408 L17.1183673,22.7020408 C16.8979592,22.922449 16.6040816,22.9959184 16.3102041,22.9959184 Z"/>
    </g>
</svg>
