<svg xmlns="http://www.w3.org/2000/svg" width="36" height="36" viewBox="0 0 36 36">
    <g fill="none" fill-rule="evenodd">
        <path fill="#FF492D" fill-rule="nonzero" d="M17.85,36.3204082 C8.025,36.3204082 -8.52651283e-14,28.2408163 -8.52651283e-14,18.2734694 C-8.52651283e-14,8.30612245 8.025,0.302040816 17.85,0.302040816 C27.675,0.302040816 35.7,8.38163265 35.7,18.2734694 C35.7,28.1653061 27.75,36.3204082 17.85,36.3204082 Z M17.85,2.56734694 C9.225,2.56734694 2.25,9.58979592 2.25,18.2734694 C2.25,26.9571429 9.225,33.9795918 17.85,33.9795918 C26.475,33.9795918 33.45,26.9571429 33.45,18.2734694 C33.525,9.58979592 26.475,2.56734694 17.85,2.56734694 Z" opacity=".3"/>
        <path fill="#FF492D" fill-rule="nonzero" d="M17.85,19.9346939 L13.35,24.4653061 C13.2,24.6163265 12.9,24.6918367 12.6,24.6918367 C12.3,24.6918367 12,24.6163265 11.775,24.3897959 C11.325,23.9367347 11.325,23.2571429 11.775,22.8040816 L16.2,18.3489796 L11.775,13.8938776 C11.325,13.4408163 11.325,12.7612245 11.775,12.3081633 C12.225,11.855102 12.9,11.855102 13.35,12.3081633 L17.775,16.7632653 L22.275,12.2326531 C22.725,11.7795918 23.4,11.7795918 23.85,12.2326531 C24.3,12.6857143 24.3,13.3653061 23.85,13.8183673 L19.425,18.2734694 L23.85,22.7285714 C24.3,23.1816327 24.3,23.8612245 23.85,24.3142857 C23.7,24.6163265 23.4,24.6918367 23.1,24.6918367 C22.8,24.6918367 22.5,24.6163265 22.275,24.3897959 L17.85,19.9346939 Z"/>
    </g>
</svg>
