<svg xmlns="http://www.w3.org/2000/svg" width="24" height="24" viewBox="0 0 24 24">
    <path d="M14.71922,18.7369 C14.549,18.9053 14.31801,19.0000001 14.07715,19.0000001 C13.83628,19.0000001 13.6053,18.9053 13.43507,18.7369 L7.266165,12.64255 C7.0957527,12.47426 7,12.2459 7,12.00777 C7,11.76964 7.0957527,11.54128 7.266165,11.37299 L13.43507,5.278676 C13.66242,5.0425223 14.00145,4.9468754 14.32062,5.0288448 C14.6398,5.110814 14.88888,5.357499 14.97122,5.673188 C15.05357,5.988878 14.95622,6.32388 14.71695,6.54823 L9.19012,12.00777 L14.71695,17.4673 C14.88767,17.6353 14.98383,17.8635 14.98426,18.1016 C14.98468,18.3397 14.88934,18.5683 14.71922,18.7369 Z"/>
</svg>
