<svg xmlns="http://www.w3.org/2000/svg" width="24" height="24" viewBox="0 0 24 24">
    <path d="M9.280777,18.7369 C9.451,18.9053 9.681985,19.0000002 9.922851,19.0000002 C10.16372,19.0000002 10.3947,18.9053 10.56493,18.7369 L16.73383,12.64255 C16.90425,12.47426 17.0000021,12.2459 17.0000021,12.00777 C17.0000021,11.76964 16.90425,11.54128 16.73383,11.37299 L10.56493,5.278676 C10.33758,5.0425224 9.998548,4.9468756 9.679376,5.0288448 C9.360203,5.110814 9.111124,5.357499 9.0287762,5.673188 C8.9464293,5.988877 9.0437751,6.32388 9.283045,6.54823 L14.80988,12.00777 L9.283045,17.4673 C9.112331,17.6353 9.01617,17.8635 9.0157447,18.1016 C9.0153193,18.3397 9.110664,18.5683 9.280777,18.7369 Z"/>
</svg>
