<svg width="30" height="28" viewBox="0 0 30 28" fill="none" xmlns="http://www.w3.org/2000/svg">
<path fill-rule="evenodd" clip-rule="evenodd" d="M20.0417 4.98611H17.9861V3.44444C17.9861 3.30815 17.932 3.17744 17.8356 3.08107C17.7392 2.9847 17.6085 2.93056 17.4722 2.93056H15.4167V1.38889C15.4167 1.2526 15.3625 1.12189 15.2661 1.02551C15.1698 0.929142 15.0391 0.875 14.9028 0.875H5.10805C5.06264 0.878104 5.01777 0.886732 4.97444 0.900695H4.92819C4.87214 0.925207 4.82015 0.958133 4.77403 0.998333L0.149028 5.62333C0.108827 5.66946 0.0759019 5.72144 0.0513891 5.7775C0.0494544 5.79286 0.0494544 5.80839 0.0513891 5.82375C0.0374269 5.86708 0.0287984 5.91195 0.0256945 5.95736L0 6.01389V19.375C0 19.5113 0.0541418 19.642 0.150515 19.7384C0.246887 19.8347 0.377597 19.8889 0.513889 19.8889H2.56944V21.4306C2.56944 21.5668 2.62359 21.6976 2.71996 21.7939C2.81633 21.8903 2.94704 21.9444 3.08333 21.9444H5.13889V23.4861C5.13889 23.6224 5.19303 23.7531 5.2894 23.8495C5.38577 23.9459 5.51648 24 5.65278 24H20.0417C20.178 24 20.3087 23.9459 20.405 23.8495C20.5014 23.7531 20.5556 23.6224 20.5556 23.4861V5.5C20.5556 5.36371 20.5014 5.233 20.405 5.13663C20.3087 5.04025 20.178 4.98611 20.0417 4.98611ZM4.625 2.62736V5.5H1.75236L4.625 2.62736ZM1.02778 6.52778H5.13889C5.27518 6.52778 5.40589 6.47364 5.50226 6.37726C5.59864 6.28089 5.65278 6.15018 5.65278 6.01389V1.90278H14.3889V18.8611H1.02778V6.52778ZM3.59722 19.8889H14.9028C15.0391 19.8889 15.1698 19.8347 15.2661 19.7384C15.3625 19.642 15.4167 19.5113 15.4167 19.375V3.95833H16.9583V20.9167H3.59722V19.8889ZM19.5278 22.9722H6.16667V21.9444H17.4722C17.6085 21.9444 17.7392 21.8903 17.8356 21.7939C17.932 21.6976 17.9861 21.5668 17.9861 21.4306V6.01389H19.5278V22.9722ZM4.97445 11.385L5.39583 11.5237V13.2093C5.39583 13.3456 5.44998 13.4763 5.54635 13.5726C5.64272 13.669 5.77343 13.7232 5.90972 13.7232H10.0208C10.1571 13.7232 10.2878 13.669 10.3842 13.5726C10.4806 13.4763 10.5347 13.3456 10.5347 13.2093V11.5237L10.9561 11.385C11.0439 11.3559 11.1222 11.3036 11.1828 11.2337C11.2433 11.1638 11.2839 11.0789 11.3002 10.9878C11.3165 10.8968 11.308 10.8031 11.2754 10.7165C11.2429 10.6299 11.1876 10.5537 11.1154 10.4959L10.2778 9.82274V8.53802C10.2778 8.40173 10.2236 8.27102 10.1273 8.17465C10.0309 8.07828 9.90018 8.02413 9.76389 8.02413C9.6276 8.02413 9.49689 8.07828 9.40052 8.17465C9.30414 8.27102 9.25 8.40173 9.25 8.53802V8.99025L8.25306 8.18344C8.16111 8.10786 8.04577 8.06654 7.92674 8.06654C7.80771 8.06654 7.69237 8.10786 7.60042 8.18344L4.81 10.4959C4.74021 10.5545 4.68725 10.6306 4.65655 10.7164C4.62585 10.8022 4.61851 10.8946 4.63528 10.9841C4.65055 11.0753 4.69011 11.1606 4.7498 11.2311C4.80949 11.3017 4.8871 11.3548 4.97445 11.385ZM7.93445 9.24719L9.38875 10.424C9.41271 10.4502 9.44042 10.4727 9.47097 10.4908L9.74847 10.7169C9.67442 10.7632 9.61338 10.8276 9.57112 10.904C9.52886 10.9804 9.50677 11.0664 9.50695 11.1537V12.6954H6.42361V11.1537C6.42307 11.064 6.39907 10.9761 6.35399 10.8985C6.30892 10.821 6.24434 10.7566 6.16667 10.7118L7.93445 9.24719ZM12.8472 3.95795H10.7917C10.6554 3.95795 10.5246 3.90381 10.4283 3.80744C10.3319 3.71106 10.2778 3.58035 10.2778 3.44406C10.2778 3.30777 10.3319 3.17706 10.4283 3.08069C10.5246 2.98431 10.6554 2.93017 10.7917 2.93017H12.8472C12.9835 2.93017 13.1142 2.98431 13.2106 3.08069C13.307 3.17706 13.3611 3.30777 13.3611 3.44406C13.3611 3.58035 13.307 3.71106 13.2106 3.80744C13.1142 3.90381 12.9835 3.95795 12.8472 3.95795ZM4.11112 17.3198C4.11112 17.1835 4.05697 17.0528 3.9606 16.9564C3.86423 16.8601 3.73352 16.8059 3.59723 16.8059H2.56945C2.43316 16.8059 2.30245 16.8601 2.20608 16.9564C2.1097 17.0528 2.05556 17.1835 2.05556 17.3198C2.05556 17.4561 2.1097 17.5868 2.20608 17.6832C2.30245 17.7796 2.43316 17.8337 2.56945 17.8337H3.59723C3.73352 17.8337 3.86423 17.7796 3.9606 17.6832C4.05697 17.5868 4.11112 17.4561 4.11112 17.3198ZM4.94362 17.7923L4.85112 17.7461L4.77403 17.6844C4.68013 17.5859 4.6269 17.4556 4.62501 17.3195C4.62582 17.2524 4.63978 17.1861 4.66612 17.1243C4.69214 17.062 4.72864 17.0046 4.77403 16.9547C4.83386 16.8954 4.90732 16.8518 4.98797 16.8276C5.06862 16.8034 5.15397 16.7994 5.23653 16.8159C5.27057 16.8207 5.30357 16.8311 5.33417 16.8468L5.42667 16.893L5.50375 16.9547C5.54915 17.0046 5.58565 17.062 5.61167 17.1243C5.638 17.1861 5.65197 17.2524 5.65278 17.3195C5.65351 17.4592 5.60009 17.5936 5.50375 17.6947C5.45488 17.7415 5.39725 17.7781 5.33417 17.8026C5.30357 17.8183 5.27057 17.8287 5.23653 17.8334H5.13889L5.04125 17.8232C5.00722 17.8184 4.97422 17.808 4.94362 17.7923Z" fill="black"/>
</svg>
