<svg width="30" height="29" viewBox="0 0 30 29" fill="none" xmlns="http://www.w3.org/2000/svg">
<path fill-rule="evenodd" clip-rule="evenodd" d="M6.27667 7.67748C6.27382 7.629 6.27382 7.5804 6.27667 7.53192C5.98539 7.40516 5.74266 7.18798 5.58442 6.91253C5.42619 6.63708 5.36085 6.31799 5.39808 6.00252C5.43531 5.68704 5.57313 5.39193 5.79114 5.16088C6.00915 4.92983 6.29576 4.77512 6.60855 4.71965C6.85801 4.01475 7.27169 3.37937 7.81538 2.86605C8.35908 2.35272 9.01717 1.97621 9.73523 1.76765C9.83692 1.50268 10.0166 1.27477 10.2505 1.11401C10.4843 0.953248 10.7615 0.867188 11.0453 0.867188C11.3291 0.867188 11.6062 0.953248 11.8401 1.11401C12.074 1.27477 12.2537 1.50268 12.3554 1.76765C13.0745 1.97541 13.7337 2.35156 14.2785 2.86493C14.8233 3.3783 15.2378 4.0141 15.4879 4.71965C15.8267 4.77622 16.1344 4.95126 16.3562 5.21358C16.578 5.4759 16.6995 5.80846 16.6989 6.15199C16.7012 6.39378 16.6446 6.6325 16.534 6.84755C16.4235 7.0626 16.2623 7.24752 16.0643 7.38635C16.0855 7.4819 16.0953 7.57963 16.0934 7.67748V8.25973C16.093 8.54578 16.0091 8.8255 15.8518 9.06446C15.6946 9.30342 15.4709 9.49121 15.2084 9.60472C15.138 10.3116 14.9155 10.9948 14.5563 11.6077L13.7469 12.9585C13.5933 13.2175 13.3754 13.4325 13.1142 13.5825C12.853 13.7324 12.5575 13.8123 12.2564 13.8144H10.102C9.79891 13.8143 9.50101 13.7354 9.23762 13.5853C8.97424 13.4353 8.75444 13.2192 8.59984 12.9585L7.80216 11.6077C7.44903 10.9934 7.23255 10.3102 7.16751 9.60472C6.9034 9.49272 6.6781 9.30546 6.51969 9.06628C6.36128 8.82711 6.27676 8.54661 6.27667 8.25973V7.67748ZM15.2375 5.86086H6.85892L6.84727 5.87833C6.77393 5.87809 6.70321 5.90555 6.64923 5.9552C6.59526 6.00486 6.56202 6.07306 6.55615 6.14616C6.55215 6.18734 6.55663 6.2289 6.56931 6.26827C6.58199 6.30765 6.60261 6.34401 6.62989 6.37511C6.65717 6.40621 6.69053 6.43138 6.72792 6.44909C6.76531 6.46679 6.80593 6.47665 6.84727 6.47805H15.2433C15.319 6.47805 15.3915 6.44799 15.445 6.39448C15.4986 6.34098 15.5286 6.26841 15.5286 6.19274C15.5326 6.15157 15.5281 6.11001 15.5155 6.07063C15.5028 6.03126 15.4822 5.9949 15.4549 5.9638C15.4276 5.9327 15.3942 5.90752 15.3568 5.88982C15.3195 5.87211 15.2788 5.86226 15.2375 5.86086ZM14.9152 8.37518C14.9289 8.34027 14.9355 8.30302 14.9347 8.26555L14.9173 7.68912C14.92 7.67962 14.92 7.66952 14.9173 7.66001H7.4237V7.68912V8.27137C7.42369 8.34759 7.45356 8.42077 7.5069 8.4752C7.56024 8.52963 7.6328 8.56097 7.709 8.5625C7.86342 8.5625 8.01152 8.62384 8.12072 8.73304C8.22991 8.84223 8.29125 8.99033 8.29125 9.14475C8.29075 9.80618 8.46769 10.4556 8.80363 11.0254L9.60714 12.3821C9.65888 12.467 9.73153 12.5374 9.81817 12.5863C9.90481 12.6352 10.0025 12.6611 10.102 12.6615H12.2564C12.3554 12.6595 12.4523 12.6323 12.5379 12.5823C12.6235 12.5324 12.6949 12.4615 12.7455 12.3762L13.5431 11.0254C13.8859 10.4556 14.069 9.80392 14.073 9.13893C14.073 8.9845 14.1343 8.83641 14.2435 8.72721C14.3527 8.61802 14.5008 8.55668 14.6552 8.55668C14.6927 8.55592 14.7297 8.54779 14.764 8.53275C14.7983 8.5177 14.8293 8.49605 14.8553 8.46901C14.8812 8.44198 14.9016 8.41009 14.9152 8.37518ZM9.64789 3.25238V3.02531L9.63625 3.0486C8.87233 3.38149 8.24843 3.97038 7.87203 4.71383H14.2069C13.8349 3.97336 13.2176 3.38484 12.4602 3.0486V3.2815C12.4602 3.43592 12.3988 3.58402 12.2896 3.69321C12.1804 3.8024 12.0323 3.86375 11.8779 3.86375C11.7235 3.86375 11.5754 3.8024 11.4662 3.69321C11.357 3.58402 11.2957 3.43592 11.2957 3.2815V2.29167C11.2957 2.25983 11.2893 2.2283 11.2769 2.19895C11.2646 2.1696 11.2465 2.14302 11.2237 2.12078C11.2009 2.09853 11.1739 2.08107 11.1443 2.06942C11.1146 2.05777 11.083 2.05217 11.0511 2.05295C10.9878 2.05295 10.9271 2.0781 10.8823 2.12287C10.8375 2.16764 10.8124 2.22836 10.8124 2.29167V3.25238C10.8124 3.40681 10.751 3.5549 10.6419 3.6641C10.5327 3.77329 10.3846 3.83463 10.2301 3.83463C10.0757 3.83463 9.92762 3.77329 9.81843 3.6641C9.70924 3.5549 9.64789 3.40681 9.64789 3.25238ZM21.5025 25.0001H0.58225C0.427827 25.0001 0.27973 24.9387 0.170537 24.8295C0.0613441 24.7203 0 24.5722 0 24.4178V20.8312C0 20.5167 0 19.69 7.48773 14.7874C7.59878 14.7142 7.73155 14.6811 7.86397 14.6939C7.99639 14.7066 8.12046 14.7642 8.21554 14.8573L9.21701 15.8355L9.79926 15.2532C9.85319 15.1982 9.91749 15.1544 9.98845 15.1244C10.0594 15.0945 10.1356 15.0789 10.2127 15.0785H12.1399C12.2935 15.0807 12.44 15.1435 12.5475 15.2532L13.0773 15.7772L13.9682 14.8573C14.0626 14.7596 14.1881 14.6979 14.3232 14.683C14.4582 14.6681 14.5942 14.7009 14.7076 14.7758C22.0847 19.6667 22.0847 20.5226 22.0847 20.8312V24.4178C22.0847 24.5722 22.0234 24.7203 21.9142 24.8295C21.805 24.9387 21.6569 25.0001 21.5025 25.0001ZM10.6901 19.6143L9.89824 23.8356H12.4485L11.645 19.6143H10.6901ZM11.9245 16.2663H10.4805L10.0962 16.6564L10.4805 17.0291H11.9186L12.2971 16.639L11.9245 16.2663ZM7.75557 16.0043C4.79774 17.9607 1.58954 20.2897 1.1645 20.9243V23.8356H8.73374L9.63041 18.933C9.65521 18.7974 9.72735 18.675 9.83397 18.5875C9.9406 18.5001 10.0748 18.4533 10.2127 18.4556H12.1283C12.2661 18.4533 12.4003 18.5001 12.5069 18.5875C12.6136 18.675 12.6857 18.7974 12.7105 18.933L13.6305 23.8414H20.9202V20.9301C20.5068 20.2955 17.3802 17.9723 14.4689 16.0218L13.5897 16.9301C13.57 16.9722 13.5445 17.0114 13.514 17.0465L13.4209 17.1048L12.5591 17.9956C12.505 18.0524 12.44 18.0976 12.3679 18.1286C12.2959 18.1597 12.2183 18.1758 12.1399 18.1761H10.2127C10.0607 18.177 9.91447 18.1185 9.80508 18.0131L7.75557 16.0043Z" fill="black"/>
</svg>
