<svg width="30" height="28" viewBox="0 0 30 28" fill="none" xmlns="http://www.w3.org/2000/svg">
<path fill-rule="evenodd" clip-rule="evenodd" d="M16.865 4.57871H20.655C20.7942 4.57871 20.9277 4.63402 21.0261 4.73245C21.1246 4.83089 21.1799 4.9644 21.1799 5.10361V7.20321C21.1799 7.34242 21.1246 7.47593 21.0261 7.57437C20.9277 7.67281 20.7942 7.72811 20.655 7.72811H14.1723C14.0331 7.72811 13.8996 7.67281 13.8011 7.57437C13.7027 7.47593 13.6474 7.34242 13.6474 7.20321C13.6474 7.064 13.7027 6.93049 13.8011 6.83205C13.8996 6.73361 14.0331 6.67831 14.1723 6.67831H20.1301V5.62851H11.5478V22.9502H14.6972V21.9004H13.6474C13.5082 21.9004 13.3747 21.8451 13.2762 21.7467C13.1778 21.6482 13.1225 21.5147 13.1225 21.3755C13.1225 21.2363 13.1778 21.1028 13.2762 21.0043C13.3747 20.9059 13.5082 20.8506 13.6474 20.8506H14.6972V19.2759C14.6972 19.1367 14.7525 19.0032 14.8509 18.9047C14.9494 18.8063 15.0829 18.751 15.2221 18.751C15.3613 18.751 15.4948 18.8063 15.5932 18.9047C15.6917 19.0032 15.747 19.1367 15.747 19.2759V22.9502H16.996C17.1352 22.9502 17.2687 23.0055 17.3671 23.1039C17.4656 23.2024 17.5209 23.3359 17.5209 23.4751C17.5209 23.6143 17.4656 23.7478 17.3671 23.8463C17.2687 23.9447 17.1352 24 16.996 24H0.524899C0.385687 24 0.252177 23.9447 0.15374 23.8463C0.0553019 23.7478 0 23.6143 0 23.4751V20.3257C0 20.1865 0.0553019 20.053 0.15374 19.9545C0.252177 19.8561 0.385687 19.8008 0.524899 19.8008H1.5747V18.751H0.524899C0.385687 18.751 0.252177 18.6957 0.15374 18.5973C0.0553019 18.4988 0 18.3653 0 18.2261V16.1265C0 15.9873 0.0553019 15.8538 0.15374 15.7553C0.252177 15.6569 0.385687 15.6016 0.524899 15.6016H1.5747V14.5518H0.524899C0.385687 14.5518 0.252177 14.4965 0.15374 14.3981C0.0553019 14.2996 0 14.1661 0 14.0269V11.9273C0 11.7881 0.0553019 11.6546 0.15374 11.5561C0.252177 11.4577 0.385687 11.4024 0.524899 11.4024H1.5747V10.3526H0.524899C0.385687 10.3526 0.252177 10.2973 0.15374 10.1989C0.0553019 10.1004 0 9.96692 0 9.82771V7.72811C0 7.5889 0.0553019 7.45539 0.15374 7.35695C0.252177 7.25851 0.385687 7.20321 0.524899 7.20321H1.5747V6.15341H0.524899C0.385687 6.15341 0.252177 6.09811 0.15374 5.99967C0.0553019 5.90124 0 5.76773 0 5.62851V3.52891C0 3.3897 0.0553019 3.25619 0.15374 3.15775C0.252177 3.05932 0.385687 3.00402 0.524899 3.00402H11.0229C11.0455 3.00105 11.0685 3.00105 11.0911 3.00402C11.1136 2.99866 11.1369 2.99866 11.1594 3.00402L16.865 4.57871ZM6.82369 6.15341H2.6245V7.20321H6.82369V6.15341ZM6.82369 10.3526H2.6245V11.4024H6.82369V10.3526ZM6.82369 14.5518H2.6245V15.6016H6.82369V14.5518ZM6.82369 18.751H2.6245V19.8008H6.82369V18.751ZM7.34859 20.8506H1.0498V22.9502H10.498V4.05381H1.0498V5.10361H7.34859C7.48781 5.10361 7.62132 5.15891 7.71975 5.25735C7.81819 5.35579 7.87349 5.4893 7.87349 5.62851V7.72811C7.87349 7.86732 7.81819 8.00083 7.71975 8.09927C7.62132 8.19771 7.48781 8.25301 7.34859 8.25301H1.0498V9.30281H7.34859C7.48781 9.30281 7.62132 9.35811 7.71975 9.45655C7.81819 9.55499 7.87349 9.6885 7.87349 9.82771V11.9273C7.87349 12.0665 7.81819 12.2 7.71975 12.2985C7.62132 12.3969 7.48781 12.4522 7.34859 12.4522H1.0498V13.502H7.34859C7.48781 13.502 7.62132 13.5573 7.71975 13.6557C7.81819 13.7542 7.87349 13.8877 7.87349 14.0269V16.1265C7.87349 16.2657 7.81819 16.3992 7.71975 16.4977C7.62132 16.5961 7.48781 16.6514 7.34859 16.6514H1.0498V17.7012H7.34859C7.48781 17.7012 7.62132 17.7565 7.71975 17.8549C7.81819 17.9534 7.87349 18.0869 7.87349 18.2261V20.3257C7.87349 20.4649 7.81819 20.5984 7.71975 20.6969C7.62132 20.7953 7.48781 20.8506 7.34859 20.8506ZM12.8758 4.57871L11.5478 4.21653V4.57871H12.8758ZM20.8534 11.5386C21.7829 10.7788 22.9448 10.3607 24.1454 10.3538C25.3504 10.3487 26.5205 10.7583 27.4592 11.5139C28.398 12.2695 29.0481 13.325 29.3005 14.5033C29.5529 15.6817 29.3922 16.9109 28.8454 17.9848C28.2985 19.0586 27.3989 19.9115 26.2975 20.4004L24.6388 23.7125C24.5947 23.7985 24.5278 23.8707 24.4454 23.9211C24.363 23.9714 24.2682 23.9981 24.1716 23.9981C24.075 23.9981 23.9803 23.9714 23.8979 23.9211C23.8154 23.8707 23.7485 23.7985 23.7045 23.7125L22.0458 20.4004C20.9484 19.9134 20.0512 19.0649 19.5038 17.9965C18.9563 16.928 18.7916 15.7042 19.0372 14.529C19.2828 13.3538 19.9238 12.2984 20.8534 11.5386ZM25.4471 19.7548C25.5044 19.6404 25.6014 19.5508 25.7201 19.5028H25.6938C26.6019 19.1426 27.356 18.477 27.8262 17.6207C28.2964 16.7644 28.4533 15.7709 28.2699 14.8113C28.0865 13.8518 27.5743 12.9862 26.8215 12.3636C26.0687 11.741 25.1223 11.4004 24.1454 11.4004C23.1684 11.4004 22.2221 11.741 21.4692 12.3636C20.7164 12.9862 20.2042 13.8518 20.0208 14.8113C19.8374 15.7709 19.9944 16.7644 20.4646 17.6207C20.9348 18.477 21.6888 19.1426 22.5969 19.5028C22.7156 19.5508 22.8126 19.6404 22.8699 19.7548L24.1454 22.3006L25.4471 19.7548ZM24.1454 12.9786C23.6263 12.9786 23.1189 13.1325 22.6873 13.4209C22.2557 13.7093 21.9193 14.1192 21.7207 14.5988C21.522 15.0783 21.47 15.606 21.5713 16.1151C21.6726 16.6242 21.9225 17.0919 22.2896 17.4589C22.6566 17.826 23.1243 18.0759 23.6334 18.1772C24.1425 18.2785 24.6702 18.2265 25.1497 18.0278C25.6293 17.8292 26.0392 17.4928 26.3276 17.0612C26.6159 16.6296 26.7699 16.1222 26.7699 15.6031C26.7699 14.9071 26.4934 14.2395 26.0012 13.7473C25.509 13.2551 24.8414 12.9786 24.1454 12.9786ZM24.1454 17.1778C23.8339 17.1778 23.5295 17.0855 23.2705 16.9124C23.0116 16.7394 22.8097 16.4935 22.6905 16.2057C22.5714 15.918 22.5402 15.6014 22.6009 15.2959C22.6617 14.9904 22.8117 14.7099 23.0319 14.4896C23.2521 14.2694 23.5327 14.1194 23.8382 14.0587C24.1436 13.9979 24.4602 14.0291 24.748 14.1483C25.0357 14.2675 25.2817 14.4693 25.4547 14.7283C25.6277 14.9872 25.7201 15.2917 25.7201 15.6031C25.7201 16.0208 25.5542 16.4213 25.2589 16.7166C24.9635 17.0119 24.563 17.1778 24.1454 17.1778ZM14.1723 9.7793H19.9462C20.0854 9.7793 20.2189 9.72662 20.3173 9.63285C20.4158 9.53908 20.4711 9.41191 20.4711 9.2793C20.4711 9.14669 20.4158 9.01951 20.3173 8.92574C20.2189 8.83197 20.0854 8.7793 19.9462 8.7793H14.1723C14.0331 8.7793 13.8996 8.83197 13.8011 8.92574C13.7027 9.01951 13.6474 9.14669 13.6474 9.2793C13.6474 9.41191 13.7027 9.53908 13.8011 9.63285C13.8996 9.72662 14.0331 9.7793 14.1723 9.7793ZM18.8964 11.3779C18.8964 11.2453 18.8411 11.1181 18.7426 11.0244C18.6442 10.9306 18.5107 10.8779 18.3715 10.8779H14.1723C14.0331 10.8779 13.8996 10.9306 13.8011 11.0244C13.7027 11.1181 13.6474 11.2453 13.6474 11.3779C13.6474 11.5105 13.7027 11.6377 13.8011 11.7315C13.8996 11.8253 14.0331 11.8779 14.1723 11.8779H18.3715C18.5107 11.8779 18.6442 11.8253 18.7426 11.7315C18.8411 11.6377 18.8964 11.5105 18.8964 11.3779ZM14.1723 12.9785H16.7968C16.936 12.9785 17.0695 13.0312 17.1679 13.125C17.2664 13.2187 17.3217 13.3459 17.3217 13.4785C17.3217 13.6111 17.2664 13.7383 17.1679 13.8321C17.0695 13.9258 16.936 13.9785 16.7968 13.9785H14.1723C14.0331 13.9785 13.8996 13.9258 13.8011 13.8321C13.7027 13.7383 13.6474 13.6111 13.6474 13.4785C13.6474 13.3459 13.7027 13.2187 13.8011 13.125C13.8996 13.0312 14.0331 12.9785 14.1723 12.9785ZM16.7968 15.0781H14.1723C14.0331 15.0781 13.8996 15.1308 13.8011 15.2246C13.7027 15.3183 13.6474 15.4455 13.6474 15.5781C13.6474 15.7107 13.7027 15.8379 13.8011 15.9317C13.8996 16.0254 14.0331 16.0781 14.1723 16.0781H16.7968C16.936 16.0781 17.0695 16.0254 17.1679 15.9317C17.2664 15.8379 17.3217 15.7107 17.3217 15.5781C17.3217 15.4455 17.2664 15.3183 17.1679 15.2246C17.0695 15.1308 16.936 15.0781 16.7968 15.0781Z" fill="black"/>
</svg>
