<svg xmlns="http://www.w3.org/2000/svg" width="24" height="24" viewBox="0 0 24 24">
    <path d="M17.6150415,16.7666667 C17.8036129,17.2333333 17.7521844,17.75 17.4436129,18.15 C17.1693272,18.5666667 16.6893272,18.8166667 16.1750415,18.8166667 L7.51789866,18.8166667 C7.00361294,18.8166667 6.5407558,18.5666667 6.24932723,18.15 C5.97504151,17.7333333 5.92361294,17.2166667 6.11218437,16.75 L7.22647008,14.1333333 C7.46647008,13.5833333 8.03218437,13.2166667 8.64932723,13.2166667 L8.85504151,13.2166667 C8.03218437,12.1833333 7.29504151,11.2 7.00361294,10.6333333 C6.36932723,9.43333333 6.26647008,7.96666667 6.71218437,6.63333333 C7.15789866,5.28333333 8.11789866,4.2 9.40361294,3.56666667 C10.1750415,3.18333333 10.9807558,3 11.8378987,3 C13.9121844,3 15.7636129,4.11666667 16.6893272,5.9 C17.4950415,7.46666667 17.4950415,9.2 16.6721844,10.6666667 C16.3464701,11.2333333 15.5921844,12.2333333 14.8036129,13.2333333 L15.0778987,13.2333333 C15.7121844,13.2333333 16.2607558,13.5833333 16.5007558,14.15 L17.6150415,16.7666667 Z M9.9007558,4.5 C7.75789866,5.55 6.91789866,8.16666667 7.9807558,10.1833333 C8.47789866,11.1166667 10.5178987,13.5833333 11.4264701,14.6666667 C11.5293272,14.8 11.7007558,14.8666667 11.8550415,14.8666667 C12.0093272,14.8666667 12.1636129,14.8 12.2836129,14.6666667 C13.1750415,13.5833333 15.1978987,11.1166667 15.7293272,10.1833333 C16.3978987,9 16.3636129,7.61666667 15.7293272,6.38333333 C14.9750415,4.9 13.4493272,4.05 11.8550415,4.05 C11.1864701,4.05 10.5350415,4.2 9.9007558,4.5 Z M16.1921844,17.7833333 C16.5178987,17.7833333 16.7407558,17.4666667 16.6036129,17.1666667 L15.4893272,14.55 C15.4207558,14.4 15.2493272,14.2833333 15.0607558,14.2833333 L13.9464701,14.2833333 C13.6378987,14.6666667 13.3464701,15.0166667 13.1064701,15.3166667 C12.7978987,15.6833333 12.3350415,15.9 11.8378987,15.9 C11.3407558,15.9 10.8778987,15.6833333 10.5693272,15.3166667 C10.2950415,14.9833333 10.0036129,14.6333333 9.71218437,14.2833333 L8.64932723,14.2833333 C8.4607558,14.2833333 8.28932723,14.3833333 8.2207558,14.55 L7.10647008,17.1666667 C6.98647008,17.4666667 7.20932723,17.7833333 7.53504151,17.7833333 L16.1921844,17.7833333 Z M14.1178987,8.26666667 C14.1178987,9.48333333 13.1064701,10.4666667 11.8550415,10.4666667 C10.6036129,10.4666667 9.59218437,9.48333333 9.59218437,8.26666667 C9.59218437,7.05 10.6036129,6.06666667 11.8550415,6.06666667 C13.1064701,6.06666667 14.1178987,7.05 14.1178987,8.26666667 Z M10.6721844,8.26666667 C10.6721844,8.9 11.2036129,9.41666667 11.8550415,9.41666667 C12.5064701,9.41666667 13.0378987,8.9 13.0378987,8.26666667 C13.0378987,7.63333333 12.5064701,7.11666667 11.8550415,7.11666667 C11.2036129,7.11666667 10.6721844,7.63333333 10.6721844,8.26666667 Z"/>
</svg>
