<svg xmlns="http://www.w3.org/2000/svg" width="24" height="24" viewBox="0 0 24 24">
    <path d="M9.60911851,14.2058824 L14.332058,14.2058824 C14.7324513,12.7549418 14.7324513,11.2156465 14.332058,9.76470588 L9.60911851,9.76470588 C9.2087252,11.2156465 9.2087252,12.7549418 9.60911851,14.2058824 Z M9.90691813,15.0882353 C10.3113098,16.0952569 10.9207685,17.0384155 11.7352941,17.8529412 C11.8034395,17.9210865 11.84527,18.0023893 11.8607858,18.0866879 C11.9070644,18.0877177 11.953471,18.0882353 12,18.0882353 C12.0267748,18.0882353 12.053509,18.0880639 12.0802017,18.0877221 C12.0955648,18.0030545 12.1374583,17.9213652 12.2058824,17.8529412 C13.020408,17.0384155 13.6298667,16.0952569 14.0342583,15.0882353 L9.90691813,15.0882353 Z M17.6974649,14.2058824 C17.9687453,13.5136904 18.1176471,12.7597513 18.1176471,11.9705882 C18.1176471,11.194819 17.9712214,10.4505392 17.7042343,9.76470588 L15.2407222,9.76470588 C15.604383,11.22222 15.6060263,12.750681 15.2456523,14.2058824 L17.6974649,14.2058824 Z M17.2665437,15.0882353 L14.9791397,15.0882353 C14.6119734,16.1131033 14.0560192,17.0843881 13.3112773,17.9477834 C14.9932997,17.5814142 16.4154028,16.5245505 17.2665437,15.0882353 Z M6.3025351,14.2058824 L8.70045431,14.2058824 C8.33679352,12.7483683 8.33515014,11.2199072 8.69552419,9.76470588 L6.29109623,9.76470588 C6.0270718,10.4488232 5.88235294,11.1925884 5.88235294,11.9705882 C5.88235294,12.7597513 6.03125467,13.5136904 6.3025351,14.2058824 Z M6.73345627,15.0882353 C7.57301483,16.5050051 8.96810192,17.5525802 10.6202008,17.9324439 C9.88458802,17.0707924 9.33397731,16.1051624 8.96836866,15.0882353 L6.73345627,15.0882353 Z M9.90691813,8.88235294 L14.0342583,8.88235294 C13.6298667,7.87533131 13.020408,6.93217272 12.2058824,6.11764706 C12.1295502,6.0413149 12.0862354,5.94847404 12.0759381,5.85340613 C12.0506623,5.85309647 12.0253493,5.85294118 12,5.85294118 C11.9549269,5.85294118 11.9099687,5.85342691 11.8651303,5.85439345 C11.8546407,5.94911669 11.811362,6.04157917 11.7352941,6.11764706 C10.9207685,6.93217272 10.3113098,7.87533131 9.90691813,8.88235294 Z M17.2761924,8.88235294 C16.4204821,7.42799541 14.980542,6.35150223 13.2773252,5.98738799 C14.0348423,6.86180427 14.6000032,7.84541042 14.9728078,8.88235294 L17.2761924,8.88235294 Z M6.71613813,8.88235294 L8.96203673,8.88235294 C9.33207898,7.84945755 9.89387802,6.87098793 10.6474339,6.00253673 C8.97200531,6.37967831 7.55832089,7.44286955 6.71613813,8.88235294 Z M12,19 C8.14705882,19 5,15.8529412 5,12 C5,8.14705882 8.14705882,5 12,5 C15.8529412,5 19,8.11764706 19,11.9705882 C19,15.8235294 15.8529412,19 12,19 Z"/>
</svg>
