<svg width="32" height="32" viewBox="0 0 32 32" fill="none" xmlns="http://www.w3.org/2000/svg">
<path d="M25.6592 25.0788C25.6121 25.115 25.5535 25.1369 25.4934 25.1411C25.4466 25.1445 25.3993 25.1371 25.3561 25.1189C25.3133 25.1008 25.2738 25.0725 25.239 25.0288L24.0708 23.5801C23.7413 23.1709 23.2629 22.9152 22.747 22.8633L22.7543 22.4673L23.3167 22.2865L23.3218 22.2844L23.3286 22.2821L24.7235 21.7426L25.166 21.7725C25.1666 21.7919 25.1663 21.8123 25.1676 21.8316C25.1911 22.1623 25.2755 22.4904 25.4217 22.7982L25.6342 23.2468C25.7603 23.5127 25.8346 23.7979 25.8552 24.0873C25.8751 24.3677 25.8447 24.6516 25.7623 24.9262C25.743 24.9938 25.7063 25.0426 25.6592 25.0788Z" fill="white"/>
<path d="M21.0909 22.1218L21.0928 22.135L21.2908 22.9638C21.1015 23.0066 20.9157 23.0622 20.7344 23.1309L20.6248 22.512L20.6247 22.5111L20.6246 22.5103L20.6233 22.5034C20.6207 22.4919 20.6173 22.48 20.613 22.4687L20.6038 22.4499L20.5934 22.4303C20.5874 22.4199 20.5795 22.4109 20.572 22.4024L20.5671 22.3958L20.5662 22.395L19.9915 21.7932L19.8736 21.206L19.8398 20.3042L19.9408 20.0905L20.8288 19.9121L21.0886 22.1095L21.0909 22.1218Z" fill="white"/>
<path d="M22.8699 21.1085L23.0013 21.9234L22.4693 22.0943L22.4625 22.0974L22.4411 22.1067L22.4232 22.1158L22.4055 22.1287L22.3887 22.1415L22.3738 22.1568L22.3598 22.1729L22.3487 22.1915L22.3383 22.209L22.3299 22.23L22.3235 22.2499L22.3196 22.2696C22.3185 22.2776 22.3173 22.2858 22.317 22.2936L22.3158 22.3007L22.3056 22.8572L22.1446 22.8608C22.0694 22.8618 21.995 22.8653 21.921 22.8706C21.8557 22.8752 21.7914 22.8824 21.7274 22.8896L21.5265 22.045L21.2634 19.8258L22.1984 19.6388L22.8699 21.1085Z" fill="white"/>
<path d="M23.5135 19.9149L24.4172 20.2203L25.2238 21.0671C25.205 21.1545 25.1909 21.2423 25.1815 21.3307L24.705 21.298L24.7013 21.2983C24.6922 21.2981 24.6844 21.2986 24.6758 21.2993L24.6564 21.3006L24.6381 21.3045C24.6295 21.3069 24.6215 21.3083 24.6139 21.3115L24.6105 21.3126L23.4243 21.7719L23.3018 21.0078L23.2996 21.0019L23.2936 20.9794L23.2869 20.9586L23.2847 20.9518L22.6444 19.5499L23.3548 19.4073L23.364 19.7126L23.3652 19.7169C23.365 19.7256 23.3664 19.7336 23.3679 19.7422L23.3709 19.7606L23.3784 19.7804L23.386 19.8011L23.3962 19.8181L23.4074 19.8368L23.4219 19.8526L23.4364 19.8684L23.4524 19.8815L23.4711 19.8944L23.4877 19.9031L23.5105 19.9131L23.5135 19.9149Z" fill="white"/>
<path d="M24.7353 19.1182L24.7491 19.1251L24.7711 19.136L24.791 19.1424L24.8118 19.1479L24.8332 19.1508L24.8545 19.1519C24.8615 19.1523 24.8686 19.1509 24.8764 19.1503L24.8975 19.148L24.9208 19.1411L24.9357 19.1374L25.3837 18.9574L26.0255 19.4321L25.5335 20.2692C25.4734 20.372 25.4217 20.4785 25.3762 20.5863L24.699 19.8756L24.6926 19.8708L24.6746 19.8552L24.6578 19.8431L24.6393 19.8328L24.6183 19.8226L24.6102 19.8189L23.801 19.5448L23.7933 19.2848L24.528 18.9854L24.7353 19.1182Z" fill="white"/>
<path d="M26.3646 17.602C26.3842 17.7026 26.3975 17.8037 26.4047 17.9051C26.432 18.2896 26.3708 18.6751 26.2277 19.0328L25.5476 18.5296L25.5439 18.5273L25.5227 18.5146L25.506 18.505L25.4861 18.4986L25.4653 18.4922L25.4448 18.4893L25.4242 18.4864L25.4031 18.4879L25.3812 18.4895L25.3629 18.4942L25.3387 18.5012L25.3353 18.5023L24.8785 18.6847L24.7038 18.573L24.3168 18.0659L26.3457 17.4796C26.3513 17.5208 26.3576 17.5613 26.3651 17.6014L26.3652 17.602L26.3646 17.602Z" fill="white"/>
<path d="M23.5036 18.9264L20.1756 19.5928L20.2172 19.5038L20.218 19.5029L20.2188 19.5011L20.2224 19.491L20.2271 19.4799L20.23 19.471L20.2328 19.4618L20.2335 19.4591L20.3409 19.0366L23.5215 18.295L23.5269 18.2928L23.533 18.2924L23.8603 18.1974L24.2005 18.6421L23.5036 18.9264Z" fill="white"/>
<path d="M23.4159 17.8656L20.4819 18.5499L20.8313 17.8531L21.3374 17.9793L21.3509 17.9809C21.3591 17.9821 21.367 17.9833 21.3741 17.9845L21.3953 17.9847L21.4164 17.9833L21.4382 17.9791L21.4582 17.9742L21.478 17.9667L21.4977 17.9574L21.5155 17.9463L21.5323 17.9335L21.5497 17.9171L21.5589 17.9075L21.9705 17.4236L21.9704 17.4227L21.9841 17.4031L21.9962 17.3854L21.9971 17.3845L22.2003 17.0031L22.7278 17.1925L22.7405 17.196C22.7476 17.1981 22.7559 17.2001 22.7638 17.2013L22.7843 17.2033L22.8056 17.2044C22.8137 17.2047 22.8206 17.2034 22.8276 17.2029L22.8485 17.1996L22.8711 17.1937L22.8832 17.1893L23.1712 17.075L23.608 17.8098L23.4159 17.8656Z" fill="white"/>
<path d="M25.3105 16.6354L26.3609 16.4986C26.3289 16.6738 26.3107 16.8514 26.3109 17.0295L24.5703 17.5326L25.3105 16.6354Z" fill="white"/>
<path d="M27.1053 14.4408C26.8362 14.8074 26.6435 15.2278 26.5418 15.6775L26.4603 16.0395L25.1666 16.2075L25.1518 16.2112C25.1438 16.2127 25.136 16.2141 25.1284 16.2172L25.1086 16.2247L25.0889 16.234L25.0703 16.246L25.0534 16.258L25.0361 16.2761L25.0253 16.2867L23.9742 17.5598L23.5481 16.842L23.8913 16.5314L23.8993 16.5221L23.9149 16.5042L23.9287 16.4855L23.9357 16.4742L24.1935 16.0091L25.9432 15.4717L25.9475 15.4696L25.9706 15.4601L25.9877 15.4519L26.0055 15.4399L26.0223 15.4271L26.0364 15.4127L26.0521 15.3965L26.0633 15.378L26.0745 15.3604L26.083 15.3412L26.0905 15.3203L26.0944 15.3014C26.0956 15.2935 26.0976 15.2852 26.0979 15.2773L26.0985 15.2729L26.1677 14.0751L26.2632 14.1482L26.2772 14.1571L26.2985 14.1698L26.3212 14.179L26.3359 14.1849L27.0634 14.3947L27.1053 14.4408Z" fill="white"/>
<path d="M28.0883 12.8297L28.0939 12.8717C28.0963 12.8927 28.0987 12.9146 28.1002 12.936C28.1237 13.2659 27.9828 13.5896 27.7219 13.7979C27.6044 13.8905 27.4945 13.9913 27.3923 14.0988L27.3787 14.0838L26.99 13.0158L27.7936 12.3736L28.0922 12.4471C28.078 12.5457 28.0726 12.6451 28.0797 12.7449C28.0816 12.7726 28.0836 12.8007 28.0883 12.8297Z" fill="white"/>
<path d="M28.5542 9.94502C28.6496 10.1512 28.7041 10.3696 28.7197 10.5893C28.7509 11.0284 28.6247 11.4726 28.3501 11.836C28.3038 11.896 28.2642 11.9601 28.2297 12.0262L27.8905 11.9422L27.4014 11.008C27.5042 10.8845 27.5994 10.7528 27.6845 10.614L27.6987 10.5883L27.9842 9.94048C28.0109 9.87931 28.0478 9.83834 28.0927 9.80784C28.1376 9.77706 28.1904 9.76023 28.2451 9.75635C28.3069 9.75195 28.3689 9.76527 28.4215 9.79436C28.4742 9.82432 28.518 9.86828 28.5504 9.93599L28.5545 9.94471L28.5545 9.945L28.5542 9.94502Z" fill="white"/>
<path d="M26.7721 12.2973L26.7637 12.2767L26.7544 12.2561L26.7542 12.2544L26.4886 11.7698C26.7008 11.6493 26.8981 11.5068 27.078 11.3441L27.4605 12.0738L26.8491 12.5632L26.7728 12.2993L26.7727 12.2973L26.7721 12.2973Z" fill="white"/>
<path d="M26.5195 13.018L26.8287 13.8665L26.4974 13.7712L26.1058 13.4727L26.104 13.472L26.0836 13.4592L26.0687 13.4495L26.066 13.4488L26.0478 13.4411L26.0287 13.4346L26.026 13.4339L26.0063 13.4301L25.9849 13.4273L25.9637 13.4279L25.9426 13.4285L25.94 13.4287L25.9191 13.4337L25.914 13.4349L25.9017 13.4375L25.8991 13.4386L24.4743 13.9085L24.5608 13.7879C24.6545 13.6589 24.7641 13.5422 24.8879 13.4401L24.9875 13.3578C25.3056 13.0949 25.5491 12.7517 25.6906 12.3639C25.7484 12.2047 25.8667 12.074 26.0201 12.0012L26.0921 11.9667L26.3546 12.4443L26.5148 13.0021L26.5149 13.0029L26.5181 13.0106L26.5195 13.018Z" fill="white"/>
<path d="M25.731 13.9596L25.6663 15.0944L24.1909 15.5475L23.9155 14.6275C23.954 14.5963 23.9916 14.5611 24.0251 14.5221L25.731 13.9596Z" fill="white"/>
<path d="M23.4343 14.8177C23.4591 14.8159 23.4836 14.8124 23.508 14.8081L23.8044 15.7984L23.5665 16.2284L23.147 16.6092L22.7986 16.7484L22.2838 16.5641L21.9631 15.1953L23.0415 14.7526C23.1673 14.8056 23.3019 14.8271 23.4343 14.8177Z" fill="white"/>
<path d="M21.5424 15.3368L21.8618 16.7005L21.6184 17.1556L21.3117 17.5168L20.9426 17.425L20.9672 16.8835L20.967 16.8809L20.9655 16.8589L20.9638 16.8361L20.9637 16.8335L20.7279 15.564L21.5424 15.3368Z" fill="white"/>
<path d="M21.908 13.2066C21.9678 13.2023 22.0274 13.2025 22.0879 13.208C22.2922 13.2255 22.4542 13.3877 22.4722 13.5921L22.5116 14.0315C22.5245 14.1767 22.5741 14.3141 22.6535 14.4346L21.633 14.8528L20.6162 15.136L20.5543 14.9515L20.8545 14.5845L20.8615 14.5732L20.8744 14.5537L20.8837 14.5344L20.8923 14.5152L20.8977 14.4936L20.9015 14.473L20.9035 14.4526L20.9028 14.4305L20.9004 14.4095L20.8964 14.3894C20.895 14.3817 20.8918 14.3738 20.8886 14.3662L20.8852 14.3539L20.7188 13.9837C20.8152 13.9298 20.9041 13.8598 20.9794 13.7702L21.1142 13.6107C21.3151 13.3719 21.6027 13.2283 21.908 13.2066Z" fill="white"/>
<path d="M19.4901 12.0497C19.6012 12.079 19.6815 12.1753 19.6897 12.29C19.6951 12.3666 19.6668 12.4424 19.6123 12.4968L19.6023 12.5074C19.5369 12.5734 19.4838 12.6472 19.4414 12.7254L18.7629 12.52L18.7621 12.5201L18.7611 12.5193L18.7405 12.5155L18.719 12.5109L18.7173 12.511L18.7164 12.5111L18.1976 12.4593L18.7478 11.8575L19.4901 12.0497Z" fill="white"/>
<path d="M19.5279 13.7427C19.6283 13.8712 19.7556 13.9667 19.8946 14.026C20.0191 14.0802 20.1535 14.1035 20.2872 14.1001L20.4254 14.4102L20.1343 14.7658L20.1328 14.7685L20.1183 14.7899L20.109 14.8057L20.1004 14.8249L20.0931 14.8449L20.0894 14.8655L20.0857 14.8869L20.0862 14.9072L20.0861 14.9293L20.0899 14.9468C20.0914 14.9557 20.0929 14.9643 20.0953 14.9731L20.0963 14.9757L20.2592 15.4606L20.5245 16.8892L20.4955 17.5391L20.1583 18.2083L19.4542 17.6901L18.9654 17.0467L18.8705 15.7112L19.1305 15.1175L19.1356 15.1029L19.143 15.0803L19.1459 15.0597L19.1487 15.0383L19.1481 15.0172L19.1466 14.9961C19.1452 14.9883 19.1438 14.982 19.1416 14.9743L19.1358 14.9544C19.1335 14.9467 19.1295 14.9398 19.1264 14.933L19.1211 14.9191L18.6739 14.1371L18.6718 14.1329L18.658 14.1144L18.6443 14.0968L18.6415 14.0935L18.1046 13.5344L18.0018 12.8848L18.6543 12.9491L19.3309 13.1535C19.3311 13.1811 19.3304 13.2076 19.3323 13.2342C19.3442 13.4138 19.41 13.5915 19.5279 13.7427Z" fill="white"/>
<path d="M18.5725 17.262L19.1212 17.9836L19.1268 17.9893L19.1431 18.0059L19.1593 18.0216L19.1658 18.0272L19.988 18.6318L19.8639 19.1183L19.0784 18.8417L19.0704 18.8396L19.0479 18.8343L19.0274 18.8314L19.0061 18.8303C18.998 18.83 18.9902 18.8305 18.9823 18.8311L18.9743 18.8317L17.7459 19.0075L17.7387 18.9557C17.7403 18.9414 17.7402 18.9272 17.7383 18.9125C17.7362 18.8949 17.7324 18.8783 17.7257 18.862L17.5475 17.5158L17.5437 17.4984L17.5398 17.48L17.4092 17.0524L17.4091 17.0515L17.4018 17.0343L17.3935 17.0154L17.3923 17.0111L17.3822 16.9968L17.3703 16.9799L17.3674 16.9757L17.3549 16.9633L17.3405 16.9492L17.3359 16.9451L17.2286 16.8589L18.4967 16.6945L18.5285 17.1408L18.5285 17.1416L18.5287 17.1442L18.5305 17.1575C18.5321 17.1672 18.5328 17.1768 18.5352 17.1865L18.5426 17.2054L18.5502 17.2261C18.5543 17.2348 18.5604 17.2422 18.5653 17.2506L18.5725 17.262Z" fill="white"/>
<path d="M19.7142 19.5341L19.4167 20.1642L19.4146 20.1713L19.4063 20.194L19.4008 20.2138L19.3979 20.2344C19.3976 20.2422 19.3964 20.2505 19.397 20.2583L19.3958 20.2662L19.4255 21.061L18.156 21.3807L18.0186 21.0715L17.8029 19.4453L18.9821 19.2764L19.7142 19.5341Z" fill="white"/>
<path d="M18.8414 22.7562C18.8418 22.7492 18.8421 22.7419 18.8407 22.7341C18.8393 22.7264 18.837 22.7184 18.8356 22.7107L18.8308 22.6924C18.8264 22.6802 18.8212 22.6684 18.8149 22.6572L18.8129 22.653L18.4189 21.9744L18.3377 21.7914L19.4827 21.5026L19.5707 21.9432L19.5752 21.9571C19.5775 21.9659 19.579 21.9745 19.5822 21.9821L19.5923 22.0018L19.6026 22.0205L19.6183 22.0406L19.627 22.0525L20.2016 22.6534L20.3177 23.3134C20.2672 23.3391 20.2159 23.3651 20.1664 23.3924C19.7544 23.621 19.3043 23.7709 18.8372 23.8343L18.6459 23.8604L18.6279 23.6072L18.8352 22.8205L18.8364 22.8126C18.8391 22.8008 18.8417 22.7893 18.8418 22.7776L18.8414 22.7562Z" fill="white"/>
<path d="M13.3437 22.763L13.3463 22.7628L13.348 22.7627L13.3682 22.7604L13.39 22.7571L13.4108 22.7504L13.4315 22.7437L13.4502 22.7334L13.468 22.7222L13.4848 22.7086L13.5007 22.6949L13.5137 22.678L13.5267 22.6611L13.5362 22.6436L13.5464 22.6234L13.5531 22.6035L13.5586 22.5819L13.5605 22.5605L13.5626 22.54L13.5624 22.5374L13.5623 22.5357L13.5045 20.6217L14.6434 20.5853L14.6825 21.0869L14.6852 21.1C14.6857 21.1078 14.6872 21.1167 14.6886 21.1245L14.6953 21.1443L14.7036 21.1641L14.714 21.1828L14.7251 21.2006L14.7387 21.2165L14.7541 21.2323L14.771 21.2453L14.7879 21.2575L14.8099 21.2693L14.822 21.2754L15.9735 21.7281L15.9798 21.7303L16.0023 21.7366L16.022 21.7404L16.0434 21.7424L16.0646 21.7426L16.0857 21.7402L16.1066 21.737L16.1256 21.7304L16.148 21.7219L16.1539 21.7197L16.9838 21.2999L17.6552 21.3443L18.0182 22.1642L18.0242 22.1754L18.0293 22.1858L18.3838 22.796L18.1905 23.5303L18.1879 23.5438L18.1843 23.5662C18.184 23.574 18.1837 23.5822 18.1842 23.59L18.1834 23.6025L18.2059 23.9199L17.4731 24.0199C16.9367 24.0926 16.5478 24.5688 16.5824 25.1088L16.6211 25.6909C16.6341 25.8858 16.5146 26.0645 16.3297 26.1282C16.2934 26.1406 16.2576 26.1475 16.2206 26.1502C16.0919 26.1593 15.9623 26.1101 15.872 26.0128L15.1806 25.265C14.4961 24.524 13.6227 23.9832 12.654 23.7002L11.3812 23.3286L11.4409 22.782L13.3437 22.763Z" fill="white"/>
<path d="M17.3214 19.1793L17.5495 20.8932L16.9538 20.8548L16.9404 20.8549C16.9326 20.8546 16.9245 20.8551 16.9158 20.8558L16.8948 20.859L16.8748 20.8639L16.8525 20.8725L16.8395 20.8777L16.0439 21.28L15.1126 20.9141L15.0683 20.3403L15.0655 20.3245L15.0612 20.301L15.0546 20.282L15.0462 20.2614L15.0358 20.2426L15.0241 20.2249L15.0096 20.2091L14.9951 20.1932L14.9783 20.1811L14.9614 20.168L14.9421 20.1587L14.9229 20.1501L14.901 20.1447L14.8804 20.1401L14.8581 20.1382L14.8412 20.1368L13.4915 20.1795L13.4704 19.4942C13.8607 19.4752 14.242 19.4519 14.616 19.4253C15.5694 19.357 16.4699 19.2692 17.3214 19.1793Z" fill="white"/>
<path d="M17.1113 17.5916L17.2638 18.7403C16.4175 18.8306 15.5268 18.9169 14.5847 18.9838C14.3748 18.9987 14.1614 19.0121 13.9459 19.0257L13.8639 17.5362L17.0362 17.348L17.1113 17.5916Z" fill="white"/>
<path d="M15.7201 11.4453C16.5766 11.4251 17.4318 11.5213 18.2631 11.7318L17.5738 12.4862L17.5715 12.4907L17.5632 12.5003L17.5535 12.5144L17.5453 12.5266L17.5399 12.5368L17.5332 12.5521L17.5281 12.5659L17.5253 12.5759L17.5213 12.5931L17.5189 12.6092L17.5175 12.6137L17.5179 12.6197L17.5173 12.6358L17.5176 12.6517L17.5194 12.665L17.5198 12.6702L17.6787 13.672L17.6787 13.6728C17.6814 13.6851 17.6839 13.6963 17.6882 13.7076L17.6905 13.7153C17.6927 13.7221 17.6967 13.7291 17.701 13.7366L17.7092 13.7538L17.7159 13.7623C17.7218 13.7717 17.7288 13.7808 17.7363 13.7884L17.7373 13.7901L18.303 14.3792L18.6807 15.0412L18.4426 15.5837L18.4406 15.5917L18.4332 15.6143L18.4285 15.635L18.4256 15.6555C18.4253 15.6634 18.425 15.6715 18.4256 15.6793L18.4254 15.6884L18.4654 16.2518L16.7879 16.4694L16.5265 16.1059L16.4358 15.5406L16.3327 14.8504L16.2498 13.6837L16.2494 13.6776C16.248 13.6699 16.2466 13.6627 16.2452 13.655L16.2398 13.6333L16.2385 13.6264L15.9099 12.6933L15.8054 11.6354L15.8052 11.6336C15.8046 11.6247 15.8022 11.6161 15.7999 11.6073L15.796 11.5898L15.7907 11.5768C15.7874 11.5672 15.7833 11.5579 15.7783 11.5493L15.7782 11.5475L15.7201 11.4453Z" fill="white"/>
<path d="M13.2101 11.2738L13.4578 11.3163C14.0392 11.4159 14.6286 11.4627 15.2182 11.4571L15.3703 11.7255L15.4725 12.7624L15.4728 12.7667L15.4778 12.7884C15.4792 12.7962 15.4806 12.8033 15.4829 12.811L15.484 12.8144L15.5908 13.1197L12.7741 13.3198L12.7159 11.2037C12.8812 11.2236 13.0458 11.2465 13.2101 11.2738Z" fill="white"/>
<path d="M15.743 13.5525L15.8108 13.7453L15.8921 14.8908L15.8936 14.8986L15.8942 14.9076L15.9485 15.2706L15.219 15.0709L15.2046 15.0684C15.1975 15.0672 15.1893 15.066 15.1814 15.0648L15.1584 15.0647L15.1441 15.064L12.8271 15.2393L12.787 13.7628L15.7431 13.5528L15.743 13.5525Z" fill="white"/>
<path d="M16.6114 16.9296L13.8399 17.0946L13.8169 16.6726C13.8163 16.6648 13.8149 16.6576 13.8136 16.6508L13.8103 16.6298L13.8027 16.6082L13.7961 16.5893L13.784 16.5698L13.7729 16.5528L13.7584 16.5362L13.7448 16.5211L13.7279 16.5081L13.7102 16.496L13.6911 16.4857L13.6728 16.4772L13.6512 16.4708L13.6305 16.4662L13.6075 16.4652L13.5871 16.4641C13.3289 16.4746 13.0885 16.4844 12.8622 16.4926L12.84 15.6813L15.1391 15.5072L16.0215 15.7496L16.0988 16.2281L16.1001 16.2341L16.1061 16.2575L16.1127 16.2765L16.1221 16.2953L16.134 16.3157L16.1371 16.3216L16.5059 16.8343L16.5106 16.8401L16.5174 16.8494L16.528 16.8603L16.5415 16.8736L16.5471 16.8784L16.6114 16.9296Z" fill="white"/>
<path d="M11.008 16.9716C11.468 16.9726 11.9958 16.9636 12.6526 16.9417C12.8816 16.9344 13.1256 16.9249 13.3872 16.9142L13.5043 19.05C12.5221 19.0994 11.4885 19.1223 10.3996 19.1011L10.4562 16.9655C10.631 16.9691 10.8131 16.9721 11.008 16.9716Z" fill="white"/>
<path d="M13.0288 19.5139L13.0565 20.4143L13.0565 20.4152L13.1142 22.323L11.2407 22.3417L11.231 22.3432L11.2082 22.3457L11.1873 22.3498L11.1665 22.3565L11.1467 22.364L11.1289 22.3743L11.1111 22.3863L11.0953 22.3999L11.0794 22.4144L11.0664 22.4313L11.0543 22.449L11.044 22.4675L11.0355 22.4876L11.0288 22.5075L11.0243 22.5299L11.0223 22.539L10.9507 23.2036L10.6793 23.1244C10.5498 23.0857 10.4218 23.0425 10.295 22.9948L10.3874 19.5438C11.3073 19.5609 12.1864 19.5482 13.0288 19.5139Z" fill="white"/>
<path d="M7.63208 20.9677L7.63058 20.9466L7.62821 20.9256L7.62312 20.903L7.61964 20.8907L7.46705 20.4646L7.76899 19.9504L7.77042 19.946L7.78135 19.924L7.78899 19.9048L7.79288 19.886C7.79493 19.878 7.79696 19.8697 7.79727 19.8618L7.7987 19.8574L7.83463 19.4144C8.56021 19.4735 9.26429 19.5121 9.94561 19.5329L9.85766 22.8099L7.37791 21.7167L7.3438 21.4861L7.59788 21.0834L7.60406 21.0722L7.61418 21.0512L7.62177 21.0312L7.62727 21.0105L7.63017 20.9899L7.63208 20.9677Z" fill="white"/>
<path d="M8.101 16.1905C8.40874 16.2201 8.73013 16.2495 9.06718 16.2787L9.05065 16.684L9.05209 16.7043L9.05278 16.7263L9.05868 16.748L9.06359 16.768L9.07283 16.7876L9.0823 16.8064L9.09518 16.8241L9.10706 16.8401L9.12322 16.855L9.13846 16.869L9.15703 16.881L9.17549 16.8913L9.19642 16.8997L9.21548 16.9062L9.23868 16.9098L9.25749 16.9128C9.51229 16.9293 9.75956 16.9419 10.0145 16.952L9.95715 19.0894C9.28284 19.0691 8.58813 19.0315 7.87128 18.9727L8.101 16.1905Z" fill="white"/>
<path d="M12.3614 14.4008L12.4198 16.507C11.8669 16.5234 11.4102 16.5308 11.0086 16.5303C10.4394 16.5292 9.97914 16.5122 9.50137 16.4857L9.58716 14.3602L12.3614 14.4008Z" fill="white"/>
<path d="M12.2722 11.1621L12.3495 13.9585L9.37803 13.9151L9.37283 13.9155L9.36676 13.9159L8.52882 13.9478L8.50062 13.0643L8.5005 13.0626C8.50073 13.0535 8.49838 13.045 8.49688 13.0361L8.49476 13.0185L8.48923 13.0021C8.48599 12.9933 8.48364 12.9847 8.47933 12.9772L8.47914 12.9746L8.16593 12.3321L8.3058 11.0334L11.9016 11.1423C12.0257 11.1468 12.1493 11.1532 12.2722 11.1621Z" fill="white"/>
<path d="M8.32289 14.3976L9.144 14.366L9.08465 15.8371C8.18834 15.759 7.40173 15.6792 6.69581 15.5983L6.77528 14.7826C6.77595 14.7675 6.77581 14.7533 6.77474 14.7382C6.77275 14.7224 6.77 14.7083 6.76547 14.6936L6.61984 14.2263L6.90864 13.3513L6.90938 13.3495L6.91333 13.3315L6.9166 13.3162L6.91716 13.3118L6.91846 13.3056L6.91834 13.3038L7.14272 10.9985L7.86215 11.0201L7.71886 12.3484L7.719 12.3626C7.71877 12.3716 7.71765 12.3804 7.7182 12.3882C7.71876 12.396 7.72094 12.4023 7.72144 12.4092L7.7256 12.431C7.72789 12.4387 7.73106 12.4466 7.73422 12.4542L7.73962 12.4689L8.06027 13.126L8.09306 14.1847L8.09312 14.1855L8.09623 14.2048C8.09687 14.2137 8.09742 14.2215 8.09971 14.2292L8.10629 14.2482L8.11392 14.2698L8.1242 14.2876L8.13546 14.3072L8.14995 14.323L8.16357 14.3389L8.18048 14.3519L8.19738 14.3649L8.21665 14.3743L8.23591 14.3837L8.25663 14.3892L8.27736 14.3947L8.29958 14.3966L8.32086 14.3977L8.32173 14.3976L8.32289 14.3976Z" fill="white"/>
<path d="M5.25319 15.8673C5.62273 15.9163 6.01347 15.965 6.43263 16.0131C6.81789 16.0583 7.22518 16.1029 7.66095 16.1475L7.36165 19.7702L7.19095 20.0624L5.02425 17.5236L5.25319 15.8673Z" fill="white"/>
<path d="M6.89918 21.5055L6.09209 21.1497C5.31979 20.8091 4.64257 20.2858 4.11882 19.6243C3.47023 18.8046 3.08494 17.8101 3.01126 16.7729C3.00344 16.6628 2.99912 16.553 2.99859 16.4432L2.99249 15.5477C3.56501 15.6319 4.15873 15.7202 4.81495 15.809L4.57253 17.5618L4.57297 17.5679L4.57199 17.5909L4.57256 17.6112L4.57579 17.6322L4.57989 17.6531L4.5874 17.6729L4.59584 17.6935L4.60692 17.7104L4.61992 17.7298L4.62376 17.7348L7.03035 20.5546L7.16738 20.9376L6.92591 21.3173L6.9206 21.3285L6.91047 21.3495L6.90289 21.3695L6.89739 21.3903L6.89368 21.4117L6.89252 21.4322C6.89221 21.44 6.89278 21.4481 6.89334 21.4559L6.89422 21.4683L6.89918 21.5055Z" fill="white"/>
<path d="M6.17552 14.2871L6.17576 14.2905L6.33051 14.7839L6.25638 15.548C4.97793 15.3951 3.9593 15.2432 2.98924 15.1003L2.9886 15.0791C2.98585 14.6273 3.07635 14.1795 3.25604 13.7644C3.37625 13.4853 3.46096 13.1932 3.50976 12.8945L3.95356 12.8886L4.02654 13.4293L4.02778 13.4344L4.02821 13.4405L4.03287 13.457L4.03957 13.4777L4.04795 13.4975L4.058 13.5162L4.07087 13.5339L4.08456 13.5507L4.10066 13.5646L4.11676 13.5786L4.1344 13.5898L4.15286 13.6001L4.17284 13.6074L4.19277 13.6139L4.21418 13.6167L4.23559 13.6195C4.24374 13.6198 4.25068 13.6193 4.25848 13.6188L4.27438 13.6177L4.28039 13.6164L4.28646 13.6159L4.96238 13.4871L5.91763 13.3847L6.40612 13.4598L6.17625 14.1542L6.17557 14.1569C6.17358 14.1658 6.17242 14.174 6.17044 14.1828L6.16729 14.1999L6.16706 14.2211L6.16688 14.2432L6.16987 14.2607C6.17172 14.2705 6.17323 14.2794 6.17552 14.2871Z" fill="white"/>
<path d="M5.46496 10.8364C5.87259 10.9103 6.28556 10.9571 6.70003 10.9799L6.50069 13.0284L5.95663 12.9439L5.95142 12.9442C5.94321 12.9431 5.93621 12.9427 5.92834 12.9424L5.90544 12.9431L5.90018 12.9426L4.90712 13.0486L4.89829 13.051L4.88846 13.0517L4.43301 13.139L4.36531 12.6359L4.36294 12.6271L4.35785 12.6045L4.35121 12.5846L4.34168 12.565L4.33163 12.5462L4.31881 12.5294L4.30513 12.5127L4.2899 12.4986L4.27299 12.4856L4.25528 12.4735L4.23689 12.464L4.21689 12.4565L4.1961 12.4501L4.17555 12.4472L4.15241 12.4445L4.14367 12.4442L3.55471 12.4515C3.55556 12.4267 3.55733 12.4025 3.55847 12.3777L3.59857 10.4966L5.46496 10.8364Z" fill="white"/>
</svg>
