<svg width="20" height="20" viewBox="0 0 20 20" fill="none" xmlns="http://www.w3.org/2000/svg">
<path fill-rule="evenodd" clip-rule="evenodd" d="M14.1762 18.2821C14.3837 18.3334 14.5394 18.3334 14.7469 18.3334C15.4733 18.3334 16.1996 18.0257 16.7185 17.4616L17.4967 16.6924C18.6381 15.6155 18.5862 13.7693 17.4967 12.6924L16.5109 11.718C16.044 11.2565 15.3695 11.0001 14.695 11.1026C14.0205 11.1539 13.4498 11.5642 13.0867 12.1283C12.931 12.3334 12.7235 12.4873 12.5159 12.5385C12.2565 12.5385 12.049 12.4873 11.8415 12.3334L11.7896 12.2821C10.1293 10.9488 8.83226 9.71803 7.48331 8.02572L7.27578 7.76931C7.17201 7.61547 7.17201 7.5129 7.17201 7.35906C7.2239 7.20521 7.27578 7.10265 7.43143 7.00008C8.1059 6.58983 8.52097 5.97444 8.62473 5.20521C8.67662 4.48726 8.4172 3.71803 7.89837 3.20521L7.17201 2.48726C6.65319 1.97444 5.92683 1.66675 5.14858 1.66675C4.37034 1.66675 3.64398 1.92316 3.12516 2.48726L2.65821 2.9488C1.87997 3.71803 1.51679 4.79495 1.72432 5.87188C2.34691 9.30777 4.57787 11.8206 6.44565 13.6667C8.26155 15.4616 10.8038 17.6155 14.1762 18.2821ZM4.21466 3.5642C4.47408 3.30779 4.78537 3.15395 5.14855 3.15395C5.45985 3.15395 5.82303 3.30779 6.08244 3.5642L6.8088 4.28215C7.01633 4.48728 7.1201 4.79497 7.06822 5.05138C7.06822 5.30779 6.91257 5.5642 6.65315 5.71805C6.13433 6.02574 5.77115 6.53856 5.66738 7.10266C5.56361 7.66677 5.71926 8.28215 6.08244 8.74369L6.28997 9.0001C7.69081 10.7437 9.09164 12.1283 10.8557 13.5129L10.9075 13.5642C11.4783 14.0257 12.1527 14.1796 12.8272 14.077C13.5017 13.9745 14.0724 13.5642 14.4356 12.9488C14.5393 12.795 14.695 12.6411 14.9025 12.6411C15.11 12.6411 15.2657 12.6924 15.4213 12.8463L16.5109 13.7693C17.0297 14.2822 17.0297 15.1027 16.5109 15.6155L15.7326 16.3847C15.4213 16.6924 14.9544 16.8463 14.5393 16.7437C11.582 16.1796 9.24729 14.1796 7.58704 12.5386C5.87491 10.8975 3.85148 8.58984 3.28077 5.5642C3.17701 5.0001 3.33265 4.436 3.74772 4.02574L4.21466 3.5642Z" fill="#FF492D"/>
</svg>
