<svg width="20" height="20" viewBox="0 0 20 20" fill="none" xmlns="http://www.w3.org/2000/svg">
<path fill-rule="evenodd" clip-rule="evenodd" d="M1.89694 7.28761C2.32539 3.2888 5.68153 0.146875 9.68034 0.00406083C14.2504 -0.138754 18.1064 3.50302 18.1064 8.1445C18.1064 12.5003 14.0362 17.0704 10.8229 19.7125C10.323 20.0695 9.68034 20.0695 9.18049 19.7125C5.75294 16.8562 1.4685 12.1433 1.89694 7.28761ZM9.75175 1.21799C6.3242 1.3608 3.46791 4.00287 3.18228 7.43042C2.75383 11.7863 6.96686 16.1421 9.96597 18.7842C12.9651 16.2849 16.7497 12.2147 16.8925 8.1445C16.8925 4.21709 13.6077 1.14658 9.75175 1.21799ZM5.75275 8.21583C5.75275 5.85939 7.68075 3.93139 9.96578 3.93139C12.3222 3.93139 14.2502 5.85939 14.2502 8.21583C14.2502 10.5723 12.3222 12.4289 9.96578 12.4289C7.68075 12.4289 5.75275 10.5723 5.75275 8.21583ZM6.96667 8.21583C6.96667 9.8582 8.32341 11.2149 9.96578 11.2149C11.6796 11.2149 13.0363 9.8582 13.0363 8.21583C13.0363 6.50206 11.6796 5.14532 9.96578 5.14532C8.32341 5.14532 6.96667 6.50206 6.96667 8.21583Z" fill="#FF492D"/>
</svg>
