<svg width="20" height="20" viewBox="0 0 20 20" fill="none" xmlns="http://www.w3.org/2000/svg">
<path fill-rule="evenodd" clip-rule="evenodd" d="M17.6791 15.4067C17.3859 15.7686 16.923 16 16.4239 16H3.61061C3.10384 16 2.65446 15.7802 2.36003 15.4339C2.32079 15.4095 2.28393 15.3809 2.25054 15.3489C2.15322 15.2557 2.10736 15.1344 2.10628 15.0136C2.03758 14.8415 2 14.6542 2 14.4579V6.54206C2 5.68536 2.71583 5 3.61061 5H16.3882C16.8061 5 17.1851 5.14955 17.4702 5.39626C17.507 5.41886 17.5405 5.44664 17.5693 5.47975C17.5839 5.49661 17.5974 5.51439 17.6097 5.53292C17.8525 5.80266 17.9988 6.15486 17.9988 6.54206V14.4579C18.0084 14.6895 17.9606 14.9085 17.8687 15.1048C17.8513 15.1929 17.8107 15.2772 17.7482 15.3489C17.7266 15.3697 17.7034 15.389 17.6791 15.4067ZM3.61061 14.972C3.57382 14.972 3.53762 14.968 3.50247 14.9605L8.00537 10.8633L9.65937 12.2648C9.76674 12.3676 9.87412 12.4019 10.0173 12.4019C10.1247 12.4019 10.2678 12.3333 10.3752 12.2648L12.011 10.8787L16.522 14.9544C16.4789 14.9658 16.434 14.972 16.3882 14.972H3.61061ZM16.925 13.9179V6.71494L12.811 10.2009L16.925 13.9179ZM3.07374 6.68461L7.20509 10.1852L3.07374 13.9179V6.68461ZM3.90504 6.02804L10.0173 11.2025L16.1295 6.02804H3.90504Z" fill="#FF492D"/>
</svg>
