<svg width="16" height="16" viewBox="0 0 16 16" fill="none" xmlns="http://www.w3.org/2000/svg">
<path fill-rule="evenodd" clip-rule="evenodd" d="M8.65352 14.0811C8.74366 14.1238 8.8338 14.1238 8.92394 14.1238C9.10423 14.1238 9.28451 14.0811 9.41972 13.953L15.8197 7.88954C15.9099 7.76144 16 7.59063 16 7.41983C16 7.24903 15.9099 7.07822 15.7746 6.95012L9.37465 1.31363C9.19437 1.14282 8.87887 1.10012 8.65352 1.18552C8.42817 1.31363 8.24789 1.52713 8.24789 1.78333V4.64428C3.6507 4.98589 0 8.65815 0 13.099V13.4833C0 13.7395 0.135211 13.9957 0.405634 14.0811C0.630986 14.2092 0.946479 14.1238 1.12676 13.953L2.92958 12.245C4.32676 10.9213 6.21972 10.1527 8.24789 10.1527V13.4833C8.24789 13.7395 8.3831 13.9957 8.65352 14.0811ZM8.92381 8.87163H8.29282C5.90409 8.87163 3.65057 9.76834 1.93789 11.3483L1.44212 11.818C2.11817 8.48732 5.18296 5.92528 8.92381 5.92528C9.28437 5.92528 9.59986 5.62637 9.59986 5.28477V3.27783L14.3323 7.4625L9.59986 11.9461V9.51214C9.59986 9.17053 9.28437 8.87163 8.92381 8.87163Z" fill="#30294E"/>
</svg>
