<svg width="12" height="12" viewBox="0 0 12 12" xmlns="http://www.w3.org/2000/svg">
<path fill-rule="evenodd" clip-rule="evenodd" d="M11.8061 0.191449L12.0001 0.653692L11.9998 4.97611C11.9998 5.33707 11.7032 5.62981 11.3375 5.62981C10.9718 5.62981 10.6752 5.33707 10.6752 4.97611V2.23217L6.17465 6.67429C5.91612 6.92945 5.49652 6.92945 5.238 6.67429C4.97947 6.41912 4.97947 6.00497 5.238 5.7498L9.73856 1.30738H6.95882C6.59311 1.30738 6.29653 1.01465 6.29653 0.653692C6.29653 0.292734 6.59281 0 6.95882 0H11.3378L11.8061 0.191449ZM11.3391 8.29541V7.72615C11.3391 7.36519 11.0426 7.07246 10.6769 7.07246C10.3111 7.07246 10.0146 7.36519 10.0146 7.72615V8.29541C10.0121 9.6091 8.91713 10.6899 7.58585 10.6923H3.7533C2.42201 10.6902 1.32702 9.6094 1.32459 8.29541V4.35679C1.32702 3.04279 2.42201 1.96202 3.7533 1.95961H4.33005C4.69575 1.95961 4.99234 1.66688 4.99234 1.30592C4.99234 0.944965 4.69575 0.652231 4.33005 0.652231H3.7533C1.68451 0.654636 0.00243602 2.31486 0 4.35679V8.29541C0.00243602 10.3373 1.68451 11.9976 3.7533 12H7.58585C9.65464 11.9976 11.3367 10.3373 11.3391 8.29541Z"/>
</svg>
