<svg width="24" height="24" viewBox="0 0 24 24" fill="none" xmlns="http://www.w3.org/2000/svg">
<path d="M12 20C7.58172 20 4 16.4183 4 12C4 7.58172 7.58172 4 12 4C16.4183 4 20 7.58172 20 12C20 16.4183 16.4183 20 12 20Z" fill="#F4F4FB"/>
<path d="M16.3901 8.65805C16.316 8.56921 16.2166 8.51689 16.0917 8.50011C15.8011 8.48727 15.432 8.62153 14.9867 8.90484C14.2794 9.42113 13.5722 10.0006 12.8649 10.6422L11.0471 12.4586C10.2106 12.0667 9.5531 11.8338 9.07461 11.7577C8.78398 11.7311 8.5917 11.7943 8.49998 11.9453C8.40052 12.0963 8.40273 12.2237 8.5055 12.3254C9.06908 12.7824 9.56304 13.2809 9.98628 13.8209C10.4095 14.3569 10.7742 14.8841 11.0803 15.4004C11.1355 15.4695 11.1996 15.502 11.2737 15.4991C11.3477 15.4922 11.4118 15.4517 11.4671 15.3757C11.9058 14.4152 12.4141 13.4922 12.992 12.6067C13.3755 12.0243 13.7656 11.5188 14.1634 11.0914C14.4507 10.7429 14.769 10.4073 15.1193 10.0845L16.2298 9.12202C16.2298 9.11906 16.2321 9.11708 16.2354 9.11708C16.2387 9.11017 16.2442 9.10425 16.2519 9.09734C16.2961 9.04502 16.3348 8.99665 16.368 8.9542C16.4387 8.8387 16.4453 8.73999 16.3901 8.65805Z" fill="#523EA7"/>
</svg>
