<svg xmlns="http://www.w3.org/2000/svg" width="30" height="30" viewBox="0 0 30 30">
    <g fill="none" fill-rule="evenodd">
        <path fill="#FF492D" d="M15,0 C13.3431458,0 12,1.34314575 12,3 C12,4.65685425 13.3431458,6 15,6 C16.6568542,6 18,4.65685425 18,3 C18,1.34314575 16.6568542,0 15,0 Z"/>
        <path fill="#FF6D57" d="M6.55810575,3.515625 C5.747515,3.50356595 4.96654898,3.82007379 4.39306643,4.39306642 C3.8301478,4.95571664 3.51388083,5.71899521 3.51388083,6.51489259 C3.51388083,7.31078997 3.8301478,8.07406854 4.39306643,8.63671875 C4.95571664,9.19963738 5.71899521,9.51590435 6.51489259,9.51590435 C7.31078997,9.51590435 8.07406854,9.19963738 8.63671875,8.63671875 C9.19963738,8.07406854 9.51590435,7.31078997 9.51590435,6.51489259 C9.51590435,5.71899521 9.19963738,4.95571664 8.63671875,4.39306642 C8.08441649,3.84125748 7.33875471,3.52649252 6.55810575,3.515625 Z"/>
        <path fill="#FF9281" d="M3,12 C1.34314575,12 0,13.3431458 0,15 C0,16.6568542 1.34314575,18 3,18 C4.65685425,18 6,16.6568542 6,15 C6,13.3431458 4.65685425,12 3,12 Z"/>
        <path fill="#FFB6AB" d="M6.55810575,20.4858397 C5.74751499,20.4737807 4.96654896,20.7902886 4.39306643,21.3632812 C3.83014782,21.9259315 3.51388087,22.68921 3.51388087,23.4851074 C3.51388087,24.2810047 3.83014782,25.0442833 4.39306643,25.6069335 C4.95571664,26.1698521 5.71899521,26.4861191 6.51489259,26.4861191 C7.31078997,26.4861191 8.07406854,26.1698521 8.63671875,25.6069335 C9.19963736,25.0442833 9.51590431,24.2810047 9.51590431,23.4851074 C9.51590431,22.68921 9.19963736,21.9259315 8.63671875,21.3632812 C8.08441651,20.8114723 7.33875472,20.4967073 6.55810575,20.4858397 Z"/>
        <path fill="#FFDBD5" d="M15,24 C13.3431458,24 12,25.3431458 12,27 C12,28.6568542 13.3431458,30 15,30 C16.6568542,30 18,28.6568542 18,27 C18,25.3431458 16.6568542,24 15,24 Z"/>
        <path fill="#FFEDEA" d="M23.5297853,20.4858398 C22.718689,20.473383 21.9371197,20.7899212 21.3632813,21.3632813 C20.8003626,21.9259315 20.4840957,22.68921 20.4840957,23.4851074 C20.4840957,24.2810047 20.8003626,25.0442833 21.3632813,25.6069335 C21.9259315,26.1698521 22.68921,26.4861191 23.4851074,26.4861191 C24.2810047,26.4861191 25.0442833,26.1698521 25.6069335,25.6069335 C26.1698521,25.0442833 26.4861191,24.2810047 26.4861191,23.4851074 C26.4861191,22.68921 26.1698521,21.9259315 25.6069335,21.3632813 C25.0549932,20.8118229 24.3099249,20.4970867 23.5297853,20.4858398 L23.5297853,20.4858398 Z"/>
        <path fill="#FFF6F5" d="M27,12 C25.3431458,12 24,13.3431458 24,15 C24,16.6568542 25.3431458,18 27,18 C28.6568542,18 30,16.6568542 30,15 C30,13.3431458 28.6568542,12 27,12 Z"/>
        <path fill="#FFFAF9" d="M23.5297853,3.515625 C22.718689,3.5031682 21.9371197,3.81970637 21.3632813,4.39306643 C20.8003626,4.95571664 20.4840957,5.71899521 20.4840957,6.51489259 C20.4840957,7.31078997 20.8003626,8.07406854 21.3632813,8.63671875 C21.9259315,9.19963736 22.68921,9.51590431 23.4851074,9.51590431 C24.2810047,9.51590431 25.0442833,9.19963736 25.6069335,8.63671875 C26.1698521,8.07406854 26.4861191,7.31078997 26.4861191,6.51489259 C26.4861191,5.71899521 26.1698521,4.95571664 25.6069335,4.39306643 C25.0549932,3.84160813 24.3099249,3.52687192 23.5297853,3.515625 Z"/>
    </g>
</svg>
