<svg xmlns="http://www.w3.org/2000/svg" width="80" height="80" viewBox="0 0 80 80">
    <g fill="none" fill-rule="evenodd">
        <rect width="80" height="80" fill="#D8D8D8" opacity="0"/>
        <g fill="#23212C" transform="translate(12 20)">
            <path fill-rule="nonzero" d="M50.4396099,6.20155039 L50.4396099,2.71317829 C50.4396099,2.24806202 50.1275319,1.9379845 49.6594149,1.9379845 L2.34058515,1.9379845 C1.87246812,1.9379845 1.5603901,2.24806202 1.5603901,2.71317829 L1.5603901,6.20155039 L50.4396099,6.20155039 Z M50.4396099,7.75193798 L1.5603901,7.75193798 L1.5603901,37.6162791 C1.5603901,38.0813953 1.87246812,38.3914729 2.34058515,38.3914729 L49.6594149,38.3914729 C50.1275319,38.3914729 50.4396099,38.0813953 50.4396099,37.6162791 L50.4396099,7.75193798 Z M49.6594149,39.9418605 L2.34058515,39.9418605 C1.01425356,39.9418605 4.56168436e-12,38.9341085 4.56168436e-12,37.6162791 L4.56168436e-12,2.71317829 C4.56168436e-12,1.39534884 1.01425356,0.387596899 2.34058515,0.387596899 L49.6594149,0.387596899 C50.9857464,0.387596899 52,1.39534884 52,2.71317829 L52,37.6162791 C52,38.9341085 50.9857464,39.9418605 49.6594149,39.9418605 Z M4.21305326,5.34883721 C3.65289649,5.34883721 3.1987997,4.8976513 3.1987997,4.34108527 C3.1987997,3.78451924 3.65289649,3.33333333 4.21305326,3.33333333 C4.77321004,3.33333333 5.22730683,3.78451924 5.22730683,4.34108527 C5.22730683,4.8976513 4.77321004,5.34883721 4.21305326,5.34883721 Z M7.9579895,5.34883721 C7.39783272,5.34883721 6.94373593,4.8976513 6.94373593,4.34108527 C6.94373593,3.78451924 7.39783272,3.33333333 7.9579895,3.33333333 C8.51814627,3.33333333 8.97224306,3.78451924 8.97224306,4.34108527 C8.97224306,4.8976513 8.51814627,5.34883721 7.9579895,5.34883721 Z M11.6249062,5.34883721 C11.0647495,5.34883721 10.6106527,4.8976513 10.6106527,4.34108527 C10.6106527,3.78451924 11.0647495,3.33333333 11.6249062,3.33333333 C12.185063,3.33333333 12.6391598,3.78451924 12.6391598,4.34108527 C12.6391598,4.8976513 12.185063,5.34883721 11.6249062,5.34883721 Z"/>
            <path d="M41.6494124,17.4224806 L34.3805951,17.4224806 C34.0451113,17.4224806 33.8214554,17.1124031 33.8214554,16.6472868 C33.8214554,16.1821705 34.0451113,15.872093 34.3805951,15.872093 L41.6494124,15.872093 C41.9848962,15.872093 42.2085521,16.1821705 42.2085521,16.6472868 C42.2085521,17.1124031 41.9848962,17.4224806 41.6494124,17.4224806 Z M39.0400934,19.748062 L34.4737851,19.748062 C34.0823873,19.748062 33.8214554,19.4379845 33.8214554,18.9728682 C33.8214554,18.5077519 34.0823873,18.1976744 34.4737851,18.1976744 L39.0400934,18.1976744 C39.4314912,18.1976744 39.6924231,18.5077519 39.6924231,18.9728682 C39.6924231,19.4379845 39.4314912,19.748062 39.0400934,19.748062 Z M28.8282071,21.4534884 C26.7996999,21.4534884 25.1612903,19.8255814 25.1612903,17.8100775 C25.1612903,15.7945736 26.7996999,14.1666667 28.8282071,14.1666667 C30.8567142,14.1666667 32.4951238,15.7945736 32.4951238,17.8100775 C32.4171043,19.8255814 30.8567142,21.4534884 28.8282071,21.4534884 Z M28.8282071,15.7170543 C27.6579145,15.7170543 26.7216804,16.6472868 26.7216804,17.8100775 C26.7216804,18.9728682 27.6579145,19.9031008 28.8282071,19.9031008 C29.9984996,19.9031008 30.9347337,18.9728682 30.9347337,17.8100775 C30.9347337,16.6472868 29.9204801,15.7170543 28.8282071,15.7170543 Z M41.6494124,27.5 L34.3805951,27.5 C34.0451113,27.5 33.8214554,27.1899225 33.8214554,26.7248062 C33.8214554,26.2596899 34.0451113,25.9496124 34.3805951,25.9496124 L41.6494124,25.9496124 C41.9848962,25.9496124 42.2085521,26.2596899 42.2085521,26.7248062 C42.2085521,27.1899225 41.9848962,27.5 41.6494124,27.5 Z M39.0400934,29.8255814 L34.4737851,29.8255814 C34.0823873,29.8255814 33.8214554,29.5155039 33.8214554,29.0503876 C33.8214554,28.5852713 34.0823873,28.2751938 34.4737851,28.2751938 L39.0400934,28.2751938 C39.4314912,28.2751938 39.6924231,28.5852713 39.6924231,29.0503876 C39.6924231,29.5155039 39.4314912,29.8255814 39.0400934,29.8255814 Z M28.8282071,31.6085271 C26.7996999,31.6085271 25.1612903,29.9806202 25.1612903,27.9651163 C25.1612903,25.9496124 26.7996999,24.3217054 28.8282071,24.3217054 C30.8567142,24.3217054 32.4951238,25.9496124 32.4951238,27.9651163 C32.4951238,29.9806202 30.8567142,31.6085271 28.8282071,31.6085271 Z M28.8282071,25.872093 C27.6579145,25.872093 26.7216804,26.8023256 26.7216804,27.9651163 C26.7216804,29.127907 27.6579145,30.0581395 28.8282071,30.0581395 C29.9984996,30.0581395 30.9347337,29.127907 30.9347337,27.9651163 C30.9347337,26.8023256 29.9204801,25.872093 28.8282071,25.872093 Z"/>
            <path fill-rule="nonzero" d="M8.29240375,29.1668519 L18.7086368,29.1668519 C19.120078,29.1668519 19.4526535,28.8357407 19.4526535,28.4261111 L19.4526535,21.7594444 C19.4526535,21.5624074 19.3745317,21.3742593 19.2346566,21.2357407 L14.0265401,16.0505556 C13.7356296,15.7609259 13.265411,15.7609259 12.9745005,16.0505556 L10.5244537,18.4898148 L10.5244537,15.8335185 L9.0364204,15.8335185 L9.0364204,19.9712963 L7.76638398,21.2357407 C7.62650884,21.3742593 7.5483871,21.5624074 7.5483871,21.7594444 L7.5483871,28.4261111 C7.5483871,28.8357407 7.88096254,29.1668519 8.29240375,29.1668519 Z M14.9885536,27.6853704 L12.012487,27.6853704 L12.012487,23.2409259 L14.9885536,23.2409259 L14.9885536,27.6853704 Z M9.0364204,22.0661111 L13.5005203,17.6216667 L17.9646202,22.0661111 L17.9646202,27.6853704 L16.4765869,27.6853704 L16.4765869,22.5001852 C16.4765869,22.0905556 16.1440114,21.7594444 15.7325702,21.7594444 L11.2684703,21.7594444 C10.8570291,21.7594444 10.5244537,22.0905556 10.5244537,22.5001852 L10.5244537,27.6853704 L9.0364204,27.6853704 L9.0364204,22.0661111 Z"/>
        </g>
    </g>
</svg>
