<svg xmlns="http://www.w3.org/2000/svg" width="80" height="80" viewBox="0 0 80 80">
    <path fill="#23212C" d="M22.3907446 5.16664793C22.6047641 1.02415915 25.6545416.00198658968 27.3131926.00198658968 29.1323582-.051811966 32.1821357.970360592 32.3961552 5.11284938 32.4496601 5.54323782 32.7171844 8.98634538 30.8980189 11.0844891 30.7910091 11.2458847 30.5769896 11.4072804 30.416475 11.5686761 30.844514 12.1066616 32.0216211 12.9674385 34.8038743 13.6668197 36.4625253 14.0434096 37.3721081 15.6573663 37.2115935 17.9169056 37.2115935 18.4548912 36.7835545 18.8314811 36.2485058 18.8314811 36.2485058 18.8314811 36.1950009 18.8314811 36.1950009 18.8314811 35.6599523 18.7776825 35.2319133 18.2934955 35.2854182 17.75551 35.338923 17.0561287 35.2854182 15.7649634 34.3758354 15.5497692 30.7375043 14.6351937 29.2928728 13.3978269 28.7043192 12.4294529 28.3297851 12.5370501 27.955251 12.5908486 27.5272121 12.5908486 27.5272121 12.5908486 27.4737072 12.5908486 27.4737072 12.5908486 27.4202023 12.5908486 27.4202023 12.5908486 27.4202023 12.5908486 27.4202023 12.5908486 27.3666975 12.5908486 27.3666975 12.5908486 26.9921634 12.5908486 26.6176293 12.5370501 26.2966001 12.4832515 25.7080465 13.4516255 24.2099102 14.6889923 20.6250839 15.6035677 19.7155011 15.818762 19.6619963 17.0561287 19.7155011 17.8093085 19.769006 18.4010926 19.340967 18.8314811 18.8059183 18.8852796 18.8059183 18.8852796 18.7524135 18.8852796 18.7524135 18.8852796 18.2708696 18.8852796 17.8428307 18.5086897 17.7893258 17.9707042 17.6288112 15.7649634 18.4848891 14.1510067 20.1435401 13.7206183 22.7652787 13.0212371 23.9958907 12.2142587 24.4774345 11.6762732 24.263415 11.5148775 24.0493956 11.3534818 23.8888809 11.1382876 22.0697154 9.04014394 22.3372397 5.59703638 22.3907446 5.16664793zM24.3169199 5.3280436C24.263415 6.18882049 24.263415 8.60975549 25.2265027 9.84712227 25.7615514 10.4389064 26.4036098 10.7078992 27.3131926 10.7078992 27.3666975 10.7078992 27.3666975 10.7078992 27.3666975 10.7078992 28.2762803 10.7078992 28.9718436 10.3851078 29.4533874 9.84712227 30.5234848 8.55595694 30.5769896 6.13502193 30.4699799 5.3280436 30.4699799 5.3280436 30.4699799 5.27424504 30.4699799 5.27424504 30.3629702 2.10013026 28.1157656 1.93873459 27.4202023 1.99253315 27.4202023 1.99253315 27.3666975 1.99253315 27.3666975 1.99253315 27.3666975 1.99253315 27.3131926 1.99253315 27.2596877 1.99253315 26.4571147 1.99253315 24.4774345 2.31532448 24.3169199 5.27424504 24.3169199 5.27424504 24.3169199 5.3280436 24.3169199 5.3280436zM33.217213 32.7194402L29.4183673 30.5136994C28.8298137 31.0516849 28.0807456 31.3744763 27.2246677 31.3744763 26.3685897 31.3744763 25.6195216 31.0516849 25.030968 30.5136994L21.2321223 32.7194402C21.0716077 32.7732387 20.9110931 32.8270373 20.7505784 32.8270373 20.4295492 32.8270373 20.0550151 32.6656416 19.8945005 32.3428503 19.6269762 31.8586633 19.7874908 31.2668792 20.2690346 30.9978864L24.0678804 28.7921456C24.0678804 28.5769514 24.0143755 28.3079586 24.0143755 28.0927644 24.0143755 26.6402034 24.9774631 25.4028366 26.26158 24.9724482L26.26158 20.5609666C26.26158 20.022981 26.689619 19.5925926 27.2246677 19.5925926 27.7597164 19.5925926 28.1877553 20.022981 28.1877553 20.5609666L28.1877553 24.9724482C29.4718722 25.4028366 30.4349598 26.6402034 30.4349598 28.0927644 30.4349598 28.3079586 30.4349598 28.5769514 30.381455 28.7921456L34.1803007 30.9978864C34.6618445 31.2668792 34.8223591 31.8586633 34.5548348 32.3428503 34.3408153 32.6656416 34.0197861 32.8270373 33.6987569 32.8270373 33.5382423 32.8270373 33.3777277 32.8270373 33.217213 32.7194402zM27.2246677 29.3839297C27.920231 29.3839297 28.5087845 28.7921456 28.5087845 28.0927644 28.5087845 27.3933832 27.920231 26.8015991 27.2246677 26.8015991 26.5291044 26.8015991 25.9405508 27.3933832 25.9405508 28.0927644 25.9405508 28.7921456 26.5291044 29.3839297 27.2246677 29.3839297zM37.9137509 40.7815401C40.5889944 40.0821589 41.7661016 39.2751805 42.0871308 38.6833964 41.8731113 38.5220008 41.6590918 38.3606051 41.4985772 38.1454109 39.6794116 36.0472672 39.946936 32.6041596 40.0004409 32.1737712 40.2144603 28.0312824 43.2642379 27.0091099 45.0834035 27.0629084 46.902569 27.0091099 49.9523466 28.0312824 50.1663661 32.1737712 50.2198709 32.6041596 50.4873953 36.0472672 48.6682297 38.1454109 48.56122 38.3068065 48.3472005 38.4682022 48.1866859 38.6295979 48.6147249 39.1675834 49.791832 40.0283603 52.5740852 40.7277415 54.2327362 41.1043314 55.1423189 42.7182881 54.9818043 44.9778274 54.9818043 45.515813 54.5537654 45.8924029 54.0187167 45.8924029 54.0187167 45.8924029 53.9652118 45.8924029 53.9652118 45.8924029 53.4301631 45.8386043 53.0021242 45.3544173 53.055629 44.8164318 53.1091339 44.1170506 53.055629 42.8258852 52.1460462 42.610691 48.5077151 41.6961155 47.0630836 40.4587488 46.4745301 39.4903748 46.099996 39.5979719 45.7254619 39.6517704 45.2974229 39.6517704 45.2974229 39.6517704 45.2439181 39.6517704 45.2439181 39.6517704 45.1904132 39.6517704 45.1904132 39.6517704 45.1904132 39.6517704 45.1904132 39.6517704 45.1369083 39.6517704 45.1369083 39.6517704 44.7623742 39.6517704 44.3878402 39.5979719 44.0668109 39.5441733 43.4782574 40.5125473 41.980121 41.7499141 38.3952948 42.6644895 37.485712 42.8796838 37.4322071 44.1170506 37.485712 44.8702303 37.5392169 45.4620144 37.1111779 45.8924029 36.5761292 45.9462014 36.5761292 45.9462014 36.5226243 45.9462014 36.5226243 45.9462014 36.0410805 45.9462014 35.6130416 45.5696116 35.5595367 45.031626 35.3990221 42.8258852 36.2551 41.2119285 37.9137509 40.7815401zM42.0871308 32.3889654C42.0336259 33.1959438 42.0336259 35.6168788 42.9967136 36.9080441 43.5317622 37.4998282 44.1738207 37.768821 45.0834035 37.768821 45.1369083 37.768821 45.1369083 37.768821 45.1369083 37.768821 46.0464911 37.768821 46.7420544 37.4460297 47.2235982 36.9080441 48.2936956 35.6168788 48.3472005 33.1959438 48.2401908 32.3889654 48.2401908 32.3889654 48.2401908 32.3351669 48.2401908 32.3351669 48.133181 29.1610521 45.8859765 28.9996564 45.1904132 29.053455 45.1904132 29.053455 45.1369083 29.053455 45.1369083 29.053455 45.1369083 29.053455 45.0834035 29.053455 45.0298986 29.053455 44.2273256 29.053455 42.2476454 29.3762463 42.0871308 32.3351669 42.0871308 32.3351669 42.0871308 32.3889654 42.0871308 32.3889654zM2.37332921 40.7815401C5.15558243 40.0821589 6.38619443 39.221382 6.60021391 38.737195 6.4396993 38.5757993 6.27918469 38.4144037 6.11867008 38.253008 4.29950452 36.1548643 4.56702887 32.7117568 4.62053373 32.2813683 4.83455321 28.1388795 7.88433078 27.116707 9.70349634 27.1705055 11.5226619 27.116707 14.5724395 28.1388795 14.786459 32.2813683 14.8399638 32.7117568 15.1074882 36.1548643 13.2883226 38.253008 13.127808 38.4144037 12.9137885 38.6295979 12.699769 38.7909935 13.1813129 39.3289791 14.4119249 40.189756 17.0336635 40.8353387 18.6923144 41.2119285 19.6018972 42.8258852 19.4413826 45.0854246 19.4413826 45.6234101 19.0133436 46 18.4782949 46 18.4782949 46 18.4247901 46 18.4247901 46 17.8897414 45.9462014 17.4617024 45.4620144 17.5152073 44.9240289 17.5687122 44.2246477 17.5152073 42.9334823 16.6056245 42.7182881 13.0207983 41.8037127 11.5226619 40.5663459 10.9341083 39.5979719 10.5595743 39.6517704 10.238545 39.705569 9.86401095 39.705569 9.86401095 39.705569 9.81050608 39.705569 9.81050608 39.705569 9.81050608 39.705569 9.75700121 39.705569 9.75700121 39.705569 9.75700121 39.705569 9.70349634 39.705569 9.70349634 39.705569 9.27545739 39.705569 8.9009233 39.6517704 8.52638921 39.5441733 7.93783565 40.4587488 6.49320417 41.7499141 2.85487304 42.6644895 1.94529026 42.8796838 1.89178539 44.1170506 1.94529026 44.8702303 1.99879513 45.4620144 1.57075617 45.8924029 1.03570747 45.9462014 1.03570747 45.9462014.982202605 45.9462014.982202605 45.9462014.500658779 45.9462014.0726198226 45.5696116.0191149531 45.031626-.141399656 42.8258852.714678257 41.2119285 2.37332921 40.7815401zM6.70722365 32.3889654C6.65371878 33.1959438 6.65371878 35.6168788 7.61680643 36.8542455 8.15185513 37.4460297 8.79391356 37.7150224 9.70349634 37.7150224 9.75700121 37.7150224 9.75700121 37.7150224 9.75700121 37.7150224 10.666584 37.7150224 11.3621473 37.4460297 11.8436911 36.8542455 12.9137885 35.6168788 12.9672934 33.1959438 12.8602836 32.3889654 12.8602836 32.3889654 12.8602836 32.3351669 12.8602836 32.3351669 12.7532739 29.1610521 10.5060694 28.9996564 9.81050608 29.053455 9.81050608 29.053455 9.75700121 29.053455 9.75700121 29.053455 9.75700121 29.053455 9.70349634 29.053455 9.64999147 29.053455 8.84741843 29.053455 6.86773826 29.3762463 6.70722365 32.3351669 6.70722365 32.3351669 6.70722365 32.3889654 6.70722365 32.3889654z" transform="translate(11 15)"/>
</svg>
