<svg xmlns="http://www.w3.org/2000/svg" width="80" height="80" viewBox="0 0 80 80">
    <g fill="none" fill-rule="evenodd">
        <rect width="80" height="80" fill="#D8D8D8" opacity="0"/>
        <g fill="#23212C" fill-rule="nonzero" transform="translate(13 15)">
            <path d="M28.7407663,31.4516825 L35.8311572,37.9777494 C36.9163883,38.9833642 36.9488842,40.6892104 35.902339,41.7357557 C34.9182956,42.719799 33.3362232,42.7583223 32.3076103,41.8262094 L26.1806793,36.3178797 C25.4703864,35.6735384 24.5967826,35.668817 23.8735845,36.3274984 L17.6996272,41.8188882 C16.6697258,42.758168 15.0828789,42.7214735 14.097161,41.7357557 C13.0523829,40.6909776 13.0833395,38.9876037 14.1717232,37.975611 L21.3220316,31.4583682 C23.4130579,29.5160238 26.6486259,29.5137458 28.7407663,31.4516825 Z M22.4540534,32.681609 L15.3005494,39.2017677 C14.9097308,39.5651759 14.8985549,40.180127 15.2756723,40.5572443 C15.6316477,40.9132197 16.2048019,40.9264734 16.5842488,40.5805016 L22.7585798,35.0887713 C24.1129936,33.8550371 25.957324,33.8650047 27.2977231,35.0809573 L33.4243244,40.5889881 C33.7970221,40.9267177 34.368264,40.9128081 34.7238277,40.5572443 C35.1019033,40.1791688 35.0901718,39.5633337 34.7004004,39.2021508 L27.6101231,32.6761893 C26.1549861,31.3283088 23.9061589,31.3305908 22.4540534,32.681609 Z"/>
            <path d="M27.303884,35.0863298 L32.5000833,39.8473881 L32.5000833,49.9999167 L17.5000833,49.9999167 L17.5000833,39.8318062 L22.7605224,35.0873896 C24.1147876,33.8551285 25.9581905,33.8655717 27.303884,35.0863298 Z M26.1810126,36.317963 C25.4707197,35.6736217 24.597116,35.6689004 23.8812536,36.3209787 L23.878205,36.3237419 L19.16675,40.5730271 L19.16675,48.33325 L30.8334167,48.33325 L30.8334167,40.5807778 L26.1810126,36.317963 Z"/>
            <path d="M22.5 50L22.5 43.3333333 27.5 43.3333333 27.5 50 22.5 50zM24.1666667 48.3333333L25.8333333 48.3333333 25.8333333 45 24.1666667 45 24.1666667 48.3333333zM9.16666667 50L9.16666667 43.3333333 14.1666667 43.3333333 14.1666667 50 9.16666667 50zM10.8333333 48.3333333L12.5 48.3333333 12.5 45 10.8333333 45 10.8333333 48.3333333zM35.8333333 50L35.8333333 43.3333333 40.8333333 43.3333333 40.8333333 50 35.8333333 50zM37.5 48.3333333L39.1666667 48.3333333 39.1666667 45 37.5 45 37.5 48.3333333zM19.5848926 35.2966226L15.6747769 38.8602262 15.1138193 38.3558392 12.8472077 36.3177988C12.1364483 35.6736183 11.2636989 35.6688999 10.5406261 36.3280355L4.36587718 41.8193882C3.33628584 42.7583852 1.75053826 42.7213246.763899251 41.7359104-.280222841 40.6905642-.24966477 38.9877157.837973196 37.9752777L7.98502996 31.4610576C10.0761388 29.5155199 13.3140885 29.5125329 15.4069435 31.4521156L19.5848926 35.2966226zM14.2762187 32.6765462C12.8212117 31.3281031 10.5724948 31.3301775 9.1140268 32.6870557L1.96714383 39.2011139C1.57663245 39.5646478 1.56558739 40.1801337 1.94238931 40.5573782 2.29875587 40.9133021 2.87136845 40.9266847 3.25054053 40.5809645L9.42539539 35.0895153C10.7793548 33.855118 12.622812 33.8650843 13.9640141 35.0806608L15.6672231 36.6121071 17.1171081 35.2907101 14.2762187 32.6765462z"/>
            <path d="M16.5764561 40.5876952L16.5841403 40.580774 18.3010797 39.0535037 19.1663333 39.8481243 19.1663333 50.0000833 4.16633333 50.0000833 4.16633333 39.8319314 4.44159646 39.5837117 9.42575237 35.0892437C10.7793758 33.8552479 12.623867 33.8652181 13.9701775 35.0865363L16.8847922 37.7574541 16.2111462 38.3716968 15.3004661 39.2020177C14.9096475 39.5654259 14.8984716 40.180377 15.275589 40.5574943 15.6315643 40.9134697 16.2047186 40.9267234 16.5764561 40.5876952zM14.0970777 41.7360057C13.0522996 40.6912276 13.0832561 38.9878537 14.1715205 37.9759699L14.4145435 37.7543771 12.8472626 36.3181297C12.1370115 35.6738263 11.2635882 35.6691051 10.5452369 36.323955L5.833 40.5732352 5.833 48.3334167 17.4996667 48.3334167 17.4996667 41.9842156C16.473138 42.7500932 15.0210302 42.6599581 14.0970777 41.7360057zM49.4796667 41.4924818L49.2352222 41.7366222C48.2507145 42.7199054 46.668609 42.7584295 45.6408603 41.8258761L39.5142077 36.3177988C38.8034918 35.6736577 37.9300896 35.6689366 37.2075539 36.3280997L34.3441762 38.874016 30.450926 35.2907186 31.1232611 34.6778191 34.65203 31.4610576C36.7431388 29.5155199 39.9810885 29.5125329 42.0739773 31.4521466L49.1623106 37.9754799 49.1644072 37.977416C50.1570968 38.8972785 50.268992 40.403863 49.4796667 41.4545066L49.4796667 41.4924818zM40.9432187 32.6765462C39.4882117 31.3281031 37.2394948 31.3301775 35.7810723 32.6870142L32.9184073 35.2966147 34.363503 36.6266622 36.0921514 35.0897378C37.4453211 33.8550782 39.2897722 33.8650482 40.6309731 35.0806239L46.7579767 40.5890196C47.1219118 40.9192409 47.6760259 40.9133355 48.0332316 40.580729L48.0574226 40.5565663C48.4348106 40.1796197 48.4233728 39.5638668 48.032477 39.2007377L40.9432187 32.6765462z"/>
            <path d="M40.6338207 35.0833703L45.8330833 39.8481005 45.8330833 49.99975 30.8330833 49.99975 30.8330833 39.8369577 31.7013422 39.039577 32.2644494 39.5459276 33.4243244 40.5889047C33.7970221 40.9266344 34.368264 40.9127247 34.7238277 40.557161 35.1019033 40.1790854 35.0901718 39.5632503 34.7002519 39.2019308L33.1327037 37.7584437 33.8115312 37.1460124 36.0919131 35.088688C37.446327 33.8549538 39.2906574 33.8649214 40.6338207 35.0833703zM37.2113021 36.3234876L35.6067941 37.7710584 35.8311572 37.977666C36.9163883 38.9832808 36.9488842 40.6891271 35.902339 41.7356723 34.9777322 42.6602792 33.5251568 42.7501359 32.49975 41.9843636L32.49975 48.3330833 44.1664167 48.3330833 44.1664167 40.5813995 39.5125664 36.3164855C38.8025341 35.6734489 37.9296282 35.669178 37.2113021 36.3234876zM24.9998628.00325001129C30.5236091.00415922477 35 4.47802033 35 9.99991667 35 12.1399608 34.2609533 14.167723 32.9227918 16.094437 32.033731 17.3745895 31.1907862 18.6371777 30.3332474 19.9684128 28.7176323 22.4787182 27.1895218 25.1160244 25.7381841 27.886606L25 29.2957883 24.2618159 27.886606C22.8104782 25.1160244 21.2823677 22.4787182 19.6669359 19.9686975 18.8092138 18.6371777 17.966269 17.3745895 17.0772193 16.0944529 15.7390467 14.167723 15 12.1399608 15 9.99991667 15 4.47802033 19.4763909.00415922477 24.9998628.00325001129zM16.6666667 9.99991667C16.6666667 11.7699111 17.2891804 13.4779356 18.4461251 15.1437297 19.3465257 16.4402103 20.2001599 17.7188095 21.0682474 19.0664205 22.4394804 21.1970107 23.7479185 23.4161476 25.0000001 25.7274718 26.252086 23.4161406 27.5605497 21.196964 28.9319359 19.0661359 29.7998401 17.7188095 30.6534743 16.4402103 31.5538859 15.1437138 32.7108196 13.4779356 33.3333333 11.7699111 33.3333333 9.99991667 33.3333333 5.3987059 29.6033136 1.67074847 25 1.66991668 20.3966864 1.67074847 16.6666667 5.3987059 16.6666667 9.99991667z"/>
            <path d="M21,12.1666667 L22.3333333,11.1666667 L24.8333333,14.5 L23.5,15.5 L21,12.1666667 Z M22.3333333,11.1666667 L24.8333333,14.5 L23.5,15.5 L21,12.1666667 L22.3333333,11.1666667 Z M28.4520892,6.2379202 L29.8812441,7.09541313 L24.8812441,15.4287465 L23.4520892,14.5712535 L28.4520892,6.2379202 Z M29.8812441,7.09541313 L24.8812441,15.4287465 L23.4520892,14.5712535 L28.4520892,6.2379202 L29.8812441,7.09541313 Z"/>
        </g>
    </g>
</svg>
