<svg xmlns="http://www.w3.org/2000/svg" width="80" height="80" viewBox="0 0 80 80">
    <g fill="none" fill-rule="evenodd" transform="translate(17 17)">
        <path fill="#23212C" fill-rule="nonzero" d="M12.0603567,44.3569695 L39.6342593,44.3569695 C40.04157,44.3569695 40.3748285,44.0160077 40.3748285,43.5901857 L40.3748285,2.40981432 C40.3748285,1.98399227 40.04157,1.64303049 39.6342593,1.64303049 L12.0603567,1.64303049 L12.0603567,44.3569695 Z M39.6342593,45.8737997 L10.5600137,45.8737997 L10.5600137,0.126200274 L39.6342593,0.126200274 C40.8742171,0.126200274 41.8751715,1.15029155 41.8751715,2.40981432 L41.8751715,43.5901857 C41.8751715,44.8497084 40.8742171,45.8737997 39.6342593,45.8737997 Z"/>
        <path fill="#23212C" fill-rule="nonzero" d="M10.5600137,1.64303049 L5.34722222,1.64303049 C4.93991151,1.64303049 4.60665295,1.98399227 4.60665295,2.40981432 L4.60665295,43.5901857 C4.60665295,44.0160077 4.93991151,44.3569695 5.34722222,44.3569695 L10.5600137,44.3569695 L10.5600137,1.64303049 Z M5.34722222,45.8737997 C4.10726442,45.8737997 3.10631001,44.8497084 3.10631001,43.5901857 L3.10631001,2.40981432 C3.10631001,1.15029155 4.10726442,0.126200274 5.34722222,0.126200274 L12.0603567,0.126200274 L12.0603567,45.8737997 L5.34722222,45.8737997 Z"/>
        <path fill="#23212C" fill-rule="nonzero" d="M7.58813443 6.22281167L6.0877915 6.22281167C6.0877915 4.9550798 5.08668108 3.9308289 3.85648148 3.9308289 2.62628188 3.9308289 1.62517147 4.9550798 1.62517147 6.22281167 1.62517147 7.49054354 2.62628188 8.51479444 3.85648148 8.51479444L3.85648148 10.0316247C1.79363479 10.0316247.124828532 8.32424425.124828532 6.22281167.124828532 4.12137909 1.79363479 2.41399868 3.85648148 2.41399868 5.91932818 2.41399868 7.58813443 4.12137909 7.58813443 6.22281167zM7.58813443 14.6114058L6.0877915 14.6114058C6.0877915 13.343674 5.08668108 12.3194231 3.85648148 12.3194231 2.62628188 12.3194231 1.62517147 13.343674 1.62517147 14.6114058 1.62517147 15.8791377 2.62628188 16.9033886 3.85648148 16.9033886L3.85648148 18.4202188C1.79363479 18.4202188.124828532 16.7128384.124828532 14.6114058.124828532 12.5099733 1.79363479 10.8025928 3.85648148 10.8025928 5.91932818 10.8025928 7.58813443 12.5099733 7.58813443 14.6114058zM7.58813443 23L6.0877915 23C6.0877915 21.7322681 5.08668108 20.7080172 3.85648148 20.7080172 2.62628188 20.7080172 1.62517147 21.7322681 1.62517147 23 1.62517147 24.2677319 2.62628188 25.2919828 3.85648148 25.2919828L3.85648148 26.808813C1.79363479 26.808813.124828532 25.1014326.124828532 23 .124828532 20.8985674 1.79363479 19.191187 3.85648148 19.191187 5.91932818 19.191187 7.58813443 20.8985674 7.58813443 23zM7.58813443 31.3885942L6.0877915 31.3885942C6.0877915 30.1208623 5.08668108 29.0966114 3.85648148 29.0966114 2.62628188 29.0966114 1.62517147 30.1208623 1.62517147 31.3885942 1.62517147 32.656326 2.62628188 33.6805769 3.85648148 33.6805769L3.85648148 35.1974072C1.79363479 35.1974072.124828532 33.4900267.124828532 31.3885942.124828532 29.2871616 1.79363479 27.5797812 3.85648148 27.5797812 5.91932818 27.5797812 7.58813443 29.2871616 7.58813443 31.3885942zM7.58813443 39.7771883L6.0877915 39.7771883C6.0877915 38.5094565 5.08668108 37.4852056 3.85648148 37.4852056 2.62628188 37.4852056 1.62517147 38.5094565 1.62517147 39.7771883 1.62517147 41.0449202 2.62628188 42.0691711 3.85648148 42.0691711L3.85648148 43.5860013C1.79363479 43.5860013.124828532 41.8786209.124828532 39.7771883.124828532 37.6757557 1.79363479 35.9683753 3.85648148 35.9683753 5.91932818 35.9683753 7.58813443 37.6757557 7.58813443 39.7771883z"/>
        <path stroke="#23212C" stroke-width="1.505" d="M14.875,30.9615385 L35.875,30.9615385 L14.875,30.9615385 Z M14.875,27.4230769 L35.875,27.4230769 L14.875,27.4230769 Z M35.875,34.5 L14.875,34.5 L35.875,34.5 Z M14.875,38.0384615 L35.875,38.0384615 L14.875,38.0384615 Z"/>
        <path fill="#23212C" fill-rule="nonzero" d="M20.0262097,21.2309658 L30.8931452,21.2309658 C31.3223891,21.2309658 31.6693548,20.8794786 31.6693548,20.444641 L31.6693548,13.3677179 C31.6693548,13.1585556 31.5878528,12.9588291 31.4419254,12.8117863 L26.0084577,7.30751282 C25.7049597,7.00005983 25.2143952,7.00005983 24.9108972,7.30751282 L22.3548387,9.89688034 L22.3548387,7.07711966 L20.8024194,7.07711966 L20.8024194,11.4695299 L19.4774294,12.8117863 C19.331502,12.9588291 19.25,13.1585556 19.25,13.3677179 L19.25,20.444641 C19.25,20.8794786 19.5969657,21.2309658 20.0262097,21.2309658 Z M27.0120968,19.6583162 L23.9072581,19.6583162 L23.9072581,14.9403675 L27.0120968,14.9403675 L27.0120968,19.6583162 Z M20.8024194,13.6932564 L25.4596774,8.97530769 L30.1169355,13.6932564 L30.1169355,19.6583162 L28.5645161,19.6583162 L28.5645161,14.1540427 C28.5645161,13.7192051 28.2175504,13.3677179 27.7883065,13.3677179 L23.1310484,13.3677179 C22.7018044,13.3677179 22.3548387,13.7192051 22.3548387,14.1540427 L22.3548387,19.6583162 L20.8024194,19.6583162 L20.8024194,13.6932564 Z"/>
    </g>
</svg>
