<svg xmlns="http://www.w3.org/2000/svg" width="80" height="80" viewBox="0 0 80 80">
    <g fill="none" fill-rule="evenodd">
        <rect width="80" height="80" fill="#D8D8D8" opacity="0"/>
        <g transform="translate(13 15)">
            <path fill="#23212C" fill-rule="nonzero" d="M0.85,38.1355932 C0.380557963,38.1355932 0,37.7561735 0,37.2881356 L0,3.38983051 C0,2.92179258 0.380557963,2.54237288 0.85,2.54237288 L50.15,2.54237288 C50.619442,2.54237288 51,2.92179258 51,3.38983051 L51,37.2881356 C51,37.7561735 50.619442,38.1355932 50.15,38.1355932 L0.85,38.1355932 Z M1.7,36.440678 L49.3,36.440678 L49.3,4.23728814 L1.7,4.23728814 L1.7,36.440678 Z"/>
            <path stroke="#23212C" stroke-width="1.695" d="M25.5,3.38983051 L25.5,0"/>
            <path fill="#23212C" fill-rule="nonzero" d="M24.65,37.2881356 L26.35,37.2881356 L26.35,47.4576271 L24.65,47.4576271 L24.65,37.2881356 Z M26.35,37.2881356 L26.35,47.4576271 L24.65,47.4576271 L24.65,37.2881356 L26.35,37.2881356 Z M26.1010408,36.6888926 L38.0010408,48.5532993 L36.7989592,49.7517854 L24.8989592,37.8873786 L26.1010408,36.6888926 Z M24.8989592,36.6888926 L26.1010408,37.8873786 L14.2010408,49.7517854 L12.9989592,48.5532993 L24.8989592,36.6888926 Z M26.1010408,37.8873786 L14.2010408,49.7517854 L12.9989592,48.5532993 L24.8989592,36.6888926 L26.1010408,37.8873786 Z"/>
            <polygon fill="#23212C" fill-rule="nonzero" points="9.35 16.949 9.35 11.017 7.65 11.017 7.65 16.949"/>
            <polygon fill="#23212C" fill-rule="nonzero" points="14.45 16.949 14.45 11.017 12.75 11.017 12.75 16.949"/>
            <polyline stroke="#23212C" stroke-linejoin="round" stroke-width="1.695" points="5.95 13.559 11.05 8.475 16.15 13.559"/>
            <polygon fill="#23212C" fill-rule="nonzero" points="10.895 27.624 9.71 26.408 16.861 19.483 18.046 20.699"/>
            <path fill="#23212C" fill-rule="nonzero" d="M22.95 18.6440678C22.95 20.516343 21.427892 22.0338983 19.55 22.0338983 17.672108 22.0338983 16.15 20.516343 16.15 18.6440678 16.15 16.7717926 17.672108 15.2542373 19.55 15.2542373 21.427892 15.2542373 22.95 16.7717926 22.95 18.6440678zM21.25 18.6440678C21.25 17.7078684 20.489008 16.9491525 19.55 16.9491525 18.610992 16.9491525 17.85 17.7078684 17.85 18.6440678 17.85 19.5802672 18.610992 20.3389831 19.55 20.3389831 20.489008 20.3389831 21.25 19.5802672 21.25 18.6440678zM11.9 28.8135593C11.9 30.6858345 10.377892 32.2033898 8.5 32.2033898 6.62210796 32.2033898 5.1 30.6858345 5.1 28.8135593 5.1 26.9412841 6.62210796 25.4237288 8.5 25.4237288 10.377892 25.4237288 11.9 26.9412841 11.9 28.8135593zM10.2 28.8135593C10.2 27.87736 9.43900796 27.1186441 8.5 27.1186441 7.56099204 27.1186441 6.8 27.87736 6.8 28.8135593 6.8 29.7497587 7.56099204 30.5084746 8.5 30.5084746 9.43900796 30.5084746 10.2 29.7497587 10.2 28.8135593zM35.7 24.5762712C35.7 26.4485464 34.177892 27.9661017 32.3 27.9661017 30.422108 27.9661017 28.9 26.4485464 28.9 24.5762712 28.9 22.703996 30.422108 21.1864407 32.3 21.1864407 34.177892 21.1864407 35.7 22.703996 35.7 24.5762712zM34 24.5762712C34 23.6400718 33.239008 22.8813559 32.3 22.8813559 31.360992 22.8813559 30.6 23.6400718 30.6 24.5762712 30.6 25.5124706 31.360992 26.2711864 32.3 26.2711864 33.239008 26.2711864 34 25.5124706 34 24.5762712zM45.9 14.4067797C45.9 16.2790549 44.377892 17.7966102 42.5 17.7966102 40.622108 17.7966102 39.1 16.2790549 39.1 14.4067797 39.1 12.5345044 40.622108 11.0169492 42.5 11.0169492 44.377892 11.0169492 45.9 12.5345044 45.9 14.4067797zM44.2 14.4067797C44.2 13.4705803 43.439008 12.7118644 42.5 12.7118644 41.560992 12.7118644 40.8 13.4705803 40.8 14.4067797 40.8 15.342979 41.560992 16.1016949 42.5 16.1016949 43.439008 16.1016949 44.2 15.342979 44.2 14.4067797z"/>
            <polygon fill="#23212C" fill-rule="nonzero" points="21.444 20.549 22.207 19.034 30.248 23.059 29.485 24.573"/>
            <polygon fill="#23212C" fill-rule="nonzero" points="34.701 23.367 33.49 22.177 40.04 15.555 41.25 16.745"/>
        </g>
    </g>
</svg>
