<svg xmlns="http://www.w3.org/2000/svg" width="80" height="80" viewBox="0 0 80 80">
    <g fill="#23212C" fill-rule="evenodd" transform="translate(13 15)">
        <path fill-rule="nonzero" d="M7.56704981,46.5836526 C7.10857588,46.5836526 6.73690932,46.2119861 6.73690932,45.7535121 L6.73690932,0.925925926 C6.73690932,0.467451996 7.10857588,0.0957854406 7.56704981,0.0957854406 L42.4329502,0.0957854406 C42.8914241,0.0957854406 43.2630907,0.467451996 43.2630907,0.925925926 L43.2630907,45.7535121 C43.2630907,46.2119861 42.8914241,46.5836526 42.4329502,46.5836526 L7.56704981,46.5836526 Z M8.39719029,44.9233716 L41.6028097,44.9233716 L41.6028097,1.75606641 L8.39719029,1.75606641 L8.39719029,44.9233716 Z"/>
        <path fill-rule="nonzero" d="M47.7308786 46.5836526L2.26912145 46.5836526 3.09926193 48.2439336 46.9007381 48.2439336 47.7308786 46.5836526zM47.4137931 49.9042146L2.5862069 49.9042146C2.27177288 49.9042146 1.98432584 49.7265625 1.84370667 49.4453242L.183425704 46.1247622C-.0925549545 45.5728009.308814414 44.9233716.925925926 44.9233716L49.0740741 44.9233716C49.6911856 44.9233716 50.092555 45.5728009 49.8165743 46.1247622L48.1562933 49.4453242C48.0156742 49.7265625 47.7282271 49.9042146 47.4137931 49.9042146zM13.8888889 35.9790174L13.8888889 34.3913529 36.1111111 34.3913529 36.1111111 35.9790174 13.8888889 35.9790174zM13.8888889 34.3913529L36.1111111 34.3913529 36.1111111 35.9790174 13.8888889 35.9790174 13.8888889 34.3913529zM13.8888889 32.2753137L13.8888889 30.6876492 36.1111111 30.6876492 36.1111111 32.2753137 13.8888889 32.2753137zM13.8888889 30.6876492L36.1111111 30.6876492 36.1111111 32.2753137 13.8888889 32.2753137 13.8888889 30.6876492zM36.1111111 38.0950566L36.1111111 39.6827211 13.8888889 39.6827211 13.8888889 38.0950566 36.1111111 38.0950566zM36.1111111 39.6827211L13.8888889 39.6827211 13.8888889 38.0950566 36.1111111 38.0950566 36.1111111 39.6827211zM19.3399044 26.8520576L30.839307 26.8520576C31.2935335 26.8520576 31.660693 26.4841564 31.660693 26.0290123L31.660693 18.6216049C31.660693 18.4026749 31.5744474 18.1936214 31.4200269 18.0397119L25.6703256 12.2783951C25.3491637 11.9565844 24.8300478 11.9565844 24.5088859 12.2783951L21.8040621 14.9886831 21.8040621 12.0372428 20.1612903 12.0372428 20.1612903 16.6347737 18.7591846 18.0397119C18.604764 18.1936214 18.5185185 18.4026749 18.5185185 18.6216049L18.5185185 26.0290123C18.5185185 26.4841564 18.885678 26.8520576 19.3399044 26.8520576zM26.7323775 25.2059671L23.4468339 25.2059671 23.4468339 20.2676955 26.7323775 20.2676955 26.7323775 25.2059671zM20.1612903 18.9623457L25.0896057 14.0240741 30.0179211 18.9623457 30.0179211 25.2059671 28.3751493 25.2059671 28.3751493 19.4446502C28.3751493 18.9895062 28.0079898 18.6216049 27.5537634 18.6216049L22.625448 18.6216049C22.1712216 18.6216049 21.8040621 18.9895062 21.8040621 19.4446502L21.8040621 25.2059671 20.1612903 25.2059671 20.1612903 18.9623457z"/>
        <path fill-rule="nonzero" d="M5.07662835 12.5478927L7.56704981 12.5478927C8.02552374 12.5478927 8.39719029 12.9195593 8.39719029 13.3780332L8.39719029 45.7535121C8.39719029 46.2119861 8.02552374 46.5836526 7.56704981 46.5836526L3.41634738 46.5836526C2.95787345 46.5836526 2.5862069 46.2119861 2.5862069 45.7535121L2.5862069 15.0383142C2.5862069 13.6627575 3.70145674 12.5478927 5.07662835 12.5478927zM5.07662835 14.2081737C4.61827627 14.2081737 4.24648787 14.5798337 4.24648787 15.0383142L4.24648787 44.9233716 6.73690932 44.9233716 6.73690932 14.2081737 5.07662835 14.2081737zM44.9233716 12.5478927C46.2985433 12.5478927 47.4137931 13.6627575 47.4137931 15.0383142L47.4137931 45.7535121C47.4137931 46.2119861 47.0421265 46.5836526 46.5836526 46.5836526L42.4329502 46.5836526C41.9744763 46.5836526 41.6028097 46.2119861 41.6028097 45.7535121L41.6028097 13.3780332C41.6028097 12.9195593 41.9744763 12.5478927 42.4329502 12.5478927L44.9233716 12.5478927zM45.7535121 15.0383142C45.7535121 14.5798337 45.3817237 14.2081737 44.9233716 14.2081737L43.2630907 14.2081737 43.2630907 44.9233716 45.7535121 44.9233716 45.7535121 15.0383142zM7.56704981 6.73690932C7.10857588 6.73690932 6.73690932 6.36524277 6.73690932 5.90676884L6.73690932.925925926C6.73690932.467451996 7.10857588.0957854406 7.56704981.0957854406L42.4329502.0957854406C42.8914241.0957854406 43.2630907.467451996 43.2630907.925925926L43.2630907 5.90676884C43.2630907 6.36524277 42.8914241 6.73690932 42.4329502 6.73690932L7.56704981 6.73690932zM41.6028097 5.07662835L41.6028097 1.75606641 8.39719029 1.75606641 8.39719029 5.07662835 41.6028097 5.07662835z"/>
        <path d="M12.5478927 3.41634738C12.5478927 2.95810983 12.1759898 2.5862069 11.7177522 2.5862069 11.2595147 2.5862069 10.8876117 2.95810983 10.8876117 3.41634738 10.8876117 3.87458493 11.2595147 4.24648787 11.7177522 4.24648787 12.1759898 4.24648787 12.5478927 3.87458493 12.5478927 3.41634738M15.8684547 3.41634738C15.8684547 2.95810983 15.4965517 2.5862069 15.0383142 2.5862069 14.5800766 2.5862069 14.2081737 2.95810983 14.2081737 3.41634738 14.2081737 3.87458493 14.5800766 4.24648787 15.0383142 4.24648787 15.4965517 4.24648787 15.8684547 3.87458493 15.8684547 3.41634738M19.1890166 3.41634738C19.1890166 2.95810983 18.8171137 2.5862069 18.3588761 2.5862069 17.9006386 2.5862069 17.5287356 2.95810983 17.5287356 3.41634738 17.5287356 3.87458493 17.9006386 4.24648787 18.3588761 4.24648787 18.8171137 4.24648787 19.1890166 3.87458493 19.1890166 3.41634738"/>
    </g>
</svg>
