<svg xmlns="http://www.w3.org/2000/svg" width="80" height="80" viewBox="0 0 80 80">
    <g fill="none" fill-rule="evenodd">
        <rect width="80" height="80" fill="#D8D8D8" opacity="0"/>
        <g fill="#23212C" transform="translate(13 12)">
            <path fill-rule="nonzero" d="M16.953125,22.890625 C16.5625,22.96875 16.25,23.28125 16.25,23.671875 L16.25,26.40625 C16.25,26.796875 16.5625,27.109375 16.953125,27.1875 L18.828125,27.5 C18.90625,27.65625 18.984375,27.8125 18.984375,27.96875 L17.890625,29.453125 C17.65625,29.765625 17.65625,30.234375 17.96875,30.46875 L19.921875,32.421875 C20.15625,32.734375 20.625,32.734375 20.9375,32.5 L22.421875,31.40625 C22.578125,31.484375 22.734375,31.5625 22.890625,31.5625 L23.203125,33.4375 C23.28125,33.828125 23.59375,34.140625 23.984375,34.140625 L26.71875,34.140625 C27.109375,34.140625 27.421875,33.828125 27.5,33.4375 L27.8125,31.5625 C27.96875,31.484375 28.125,31.40625 28.28125,31.40625 L29.765625,32.5 C30.078125,32.734375 30.546875,32.734375 30.78125,32.421875 L32.734375,30.46875 C33.046875,30.15625 33.046875,29.765625 32.8125,29.453125 L31.71875,27.96875 C31.796875,27.8125 31.875,27.65625 31.875,27.5 L33.75,27.1875 C34.140625,27.109375 34.453125,26.796875 34.453125,26.40625 L34.453125,23.671875 C34.453125,23.28125 34.140625,22.96875 33.75,22.890625 L31.875,22.578125 C31.796875,22.421875 31.71875,22.265625 31.71875,22.109375 L32.8125,20.625 C33.046875,20.3125 33.046875,19.84375 32.734375,19.609375 L30.78125,17.65625 C30.546875,17.34375 30.078125,17.34375 29.765625,17.578125 L28.125,18.75 C27.96875,18.671875 27.8125,18.59375 27.65625,18.59375 L27.34375,16.71875 C27.265625,16.328125 26.953125,16.015625 26.5625,16.015625 L23.828125,16.015625 C23.4375,16.015625 23.125,16.328125 23.046875,16.71875 L22.734375,18.59375 C22.578125,18.671875 22.421875,18.75 22.265625,18.75 L20.78125,17.65625 C20.46875,17.421875 20,17.421875 19.765625,17.734375 L17.96875,19.609375 C17.65625,19.921875 17.65625,20.3125 17.890625,20.625 L18.984375,22.109375 C18.90625,22.265625 18.828125,22.421875 18.828125,22.578125 L16.953125,22.890625 Z M19.53125,24.0625 C19.84375,23.984375 20.078125,23.828125 20.15625,23.515625 C20.234375,23.125 20.390625,22.8125 20.625,22.421875 C20.78125,22.1875 20.78125,21.796875 20.546875,21.5625 L19.53125,20.234375 L20.546875,19.21875 L21.875,20.234375 C22.109375,20.390625 22.421875,20.46875 22.734375,20.3125 C23.046875,20.15625 23.4375,20 23.828125,19.84375 C24.140625,19.765625 24.375,19.53125 24.375,19.21875 L24.609375,17.578125 L26.015625,17.578125 L26.25,19.21875 C26.328125,19.53125 26.484375,19.765625 26.796875,19.84375 C27.1875,19.921875 27.578125,20.078125 27.890625,20.3125 C28.125,20.46875 28.515625,20.46875 28.75,20.234375 L30.078125,19.21875 L31.09375,20.234375 L30.078125,21.5625 C29.921875,21.796875 29.84375,22.109375 30,22.421875 C30.15625,22.734375 30.3125,23.125 30.46875,23.515625 C30.546875,23.828125 30.78125,24.0625 31.09375,24.0625 L32.734375,24.296875 L32.734375,25.703125 L31.09375,25.9375 C30.78125,26.015625 30.546875,26.171875 30.46875,26.484375 C30.390625,26.875 30.234375,27.1875 30,27.578125 C29.84375,27.8125 29.84375,28.203125 30.078125,28.4375 L31.09375,29.765625 L30.078125,30.78125 L28.75,29.765625 C28.515625,29.609375 28.203125,29.53125 27.890625,29.6875 C27.578125,29.84375 27.1875,30 26.796875,30.15625 C26.484375,30.234375 26.25,30.46875 26.25,30.78125 L26.015625,32.421875 L24.609375,32.421875 L24.375,30.78125 C24.296875,30.46875 24.140625,30.234375 23.828125,30.15625 C23.4375,30.078125 23.125,29.921875 22.734375,29.6875 C22.5,29.53125 22.109375,29.53125 21.875,29.765625 L20.546875,30.78125 L19.53125,29.765625 L20.546875,28.4375 C20.703125,28.203125 20.78125,27.890625 20.625,27.578125 C20.46875,27.265625 20.3125,26.875 20.15625,26.484375 C20.078125,26.171875 19.84375,25.9375 19.53125,25.9375 L17.890625,25.703125 L17.890625,24.296875 L19.53125,24.0625 Z"/>
            <path fill-rule="nonzero" d="M25.3125 29.296875C27.65625 29.296875 29.609375 27.34375 29.609375 25 29.609375 22.65625 27.65625 20.703125 25.3125 20.703125 22.96875 20.703125 20.9375 22.65625 20.9375 25 20.9375 27.34375 22.890625 29.296875 25.3125 29.296875zM25.3125 22.265625C26.796875 22.265625 28.046875 23.515625 28.046875 25 28.046875 26.484375 26.796875 27.734375 25.3125 27.734375 23.828125 27.734375 22.578125 26.484375 22.578125 25 22.578125 23.515625 23.75 22.265625 25.3125 22.265625zM46.09375 38.75L34.21875 42.890625C33.4375 43.203125 32.578125 43.203125 31.796875 43.046875L28.046875 42.1875C29.21875 41.484375 30.234375 40.390625 30.703125 38.984375 30.78125 38.75 30.78125 38.515625 30.625 38.359375 30.546875 38.203125 30.3125 38.046875 30.15625 37.96875L15.78125 34.6875C15.625 34.609375 15.390625 34.6875 15.234375 34.765625L6.484375 39.53125 6.484375 39.0625C6.484375 38.59375 6.09375 38.28125 5.703125 38.28125L1.171875 38.359375C.78125 38.359375.390625 38.75.390625 39.140625L.546875 49.0625C.546875 49.453125.9375 49.84375 1.328125 49.84375 1.328125 49.84375 1.328125 49.84375 1.328125 49.84375L5.859375 49.765625C6.328125 49.765625 6.640625 49.375 6.640625 48.984375L6.640625 47.734375 16.328125 47.734375 31.953125 49.84375C32.1875 49.84375 32.5 49.921875 32.734375 49.921875 33.59375 49.921875 34.453125 49.765625 35.234375 49.375L48.046875 43.4375C49.453125 42.8125 49.921875 41.09375 49.140625 39.765625 48.4375 38.75 47.1875 38.359375 46.09375 38.75zM2.109375 48.359375L1.953125 39.921875 4.921875 39.84375C4.921875 41.953125 5 46.09375 5.078125 48.203125L2.109375 48.359375zM47.34375 42.03125L34.53125 47.96875C33.75 48.359375 32.890625 48.4375 32.109375 48.359375 15.546875 46.171875 16.40625 46.25 16.328125 46.25L6.5625 46.25 6.484375 41.328125 15.625 36.25 28.828125 39.21875C27.890625 40.78125 26.015625 41.640625 24.21875 41.25L17.890625 39.84375C17.5 39.765625 17.03125 40 16.953125 40.46875 16.875 40.9375 17.109375 41.328125 17.578125 41.40625 18.984375 41.71875 12.421875 40.234375 31.5625 44.609375 32.65625 44.84375 33.828125 44.765625 34.84375 44.453125L46.71875 40.3125C47.1875 40.15625 47.65625 40.3125 47.890625 40.703125 48.125 41.09375 47.890625 41.796875 47.34375 42.03125zM49.375 1.171875C49.21875 1.015625 49.0625.9375 48.828125.9375L44.296875.859375C43.828125.859375 43.515625 1.171875 43.515625 1.640625L43.515625 2.890625 33.828125 2.65625 18.28125.15625C17.1875-1.73749903e-13 16.015625.078125 14.921875.546875L2.03125 6.171875C.625 6.796875.078125 8.515625.859375 9.84375 1.484375 10.859375 2.734375 11.328125 3.828125 10.9375L15.78125 7.109375C16.5625 6.875 17.421875 6.796875 18.203125 7.03125L21.953125 7.96875C20.703125 8.671875 19.765625 9.765625 19.296875 11.09375 19.21875 11.328125 19.21875 11.5625 19.375 11.71875 19.453125 11.875 19.6875 12.03125 19.84375 12.109375L34.140625 15.78125C34.21875 15.78125 34.296875 15.78125 34.296875 15.78125 34.453125 15.78125 34.53125 15.78125 34.6875 15.703125L43.4375 11.171875 43.4375 11.640625C43.4375 12.109375 43.75 12.421875 44.21875 12.421875L48.75 12.5C48.75 12.5 48.75 12.5 48.75 12.5 49.140625 12.5 49.53125 12.1875 49.53125 11.71875L49.609375 1.796875C49.609375 1.5625 49.53125 1.328125 49.375 1.171875zM34.21875 14.21875L21.09375 10.859375C23.59375 6.796875 28.59375 10.15625 32.109375 10.546875 32.5 10.625 32.96875 10.390625 33.046875 10 33.125 9.609375 32.890625 9.140625 32.5 9.0625 31.09375 8.671875 37.65625 10.390625 18.59375 5.46875 17.5 5.15625 16.328125 5.234375 15.3125 5.546875L3.359375 9.375C2.890625 9.53125 2.421875 9.375 2.1875 8.90625 1.875 8.359375 2.109375 7.734375 2.65625 7.5L15.625 1.953125C16.40625 1.640625 17.1875 1.5625 18.046875 1.640625L33.671875 4.140625C33.75 4.140625 33.203125 4.140625 43.515625 4.453125L43.4375 9.375 34.21875 14.21875zM47.96875 10.859375L45 10.859375C45 8.90625 45.078125 4.6875 45.078125 2.5L48.046875 2.5 47.96875 10.859375z"/>
            <path d="M33.203125 34.921875C33.515625 35.234375 33.984375 35.234375 34.296875 34.921875 38.984375 30.390625 40 23.28125 36.71875 17.65625 36.484375 17.265625 36.015625 17.1875 35.625 17.34375 35.234375 17.578125 35.15625 18.046875 35.3125 18.4375 38.203125 23.4375 37.34375 29.765625 33.125 33.828125 32.890625 34.140625 32.890625 34.609375 33.203125 34.921875zM16.328125 15.546875C11.71875 20.15625 10.859375 27.265625 14.21875 32.890625 14.453125 33.28125 14.921875 33.359375 15.3125 33.125 15.703125 32.890625 15.78125 32.421875 15.546875 32.03125 12.578125 27.03125 13.28125 20.703125 17.421875 16.640625 17.734375 16.328125 17.734375 15.859375 17.421875 15.546875 17.109375 15.234375 16.640625 15.234375 16.328125 15.546875z"/>
        </g>
    </g>
</svg>
