<svg id="Capa_1" data-name="Capa 1" xmlns="http://www.w3.org/2000/svg" viewBox="0 0 479 479.01"><title>info-n</title><path d="M202.63,417.43a9.22,9.22,0,1,0,9.21,9.23h0a9.22,9.22,0,0,0-9.21-9.23Z" transform="translate(0 0)" fill="none" stroke="#24212c" stroke-miterlimit="10" stroke-width="7"/><path d="M257.94,325.24h-9.22V260.71a9.22,9.22,0,0,0-9.22-9.2H221.06a9.22,9.22,0,0,0,0,18.44h9.22v55.31h-9.22a9.22,9.22,0,1,0,0,18.44h36.88a9.22,9.22,0,1,0,0-18.44Z" transform="translate(0 0)" fill="none" stroke="#24212c" stroke-miterlimit="10" stroke-width="7"/><path d="M107.67,380.56a9.22,9.22,0,0,0,9.22-9.22h0V334.51a9.22,9.22,0,0,0-9.22-9.22H70.8a9.22,9.22,0,0,0,0,18.44H98.5v18.44H70.8a9.22,9.22,0,0,0-9.22,9.22h0v36.82a9.22,9.22,0,0,0,9.22,9.22h36.87a9.22,9.22,0,0,0,0-18.44H80V380.56Z" transform="translate(0 0)" fill="none" stroke="#24212c" stroke-miterlimit="10" stroke-width="7"/><path d="M408.2,343.68H371.33a9.22,9.22,0,1,0,0,18.44H399v18.44H371.33a9.22,9.22,0,1,0-.61,18.43H399v18.44H371.33a9.22,9.22,0,1,0,0,18.44H408.2a9.22,9.22,0,0,0,9.22-9.22h0V352.9a9.22,9.22,0,0,0-9.22-9.22Z" transform="translate(0 0)" fill="none" stroke="#24212c" stroke-miterlimit="10" stroke-width="7"/><path d="M466.28,306.81H322.5V221.07a9.22,9.22,0,0,0-9.22-9.22H165.75a9.22,9.22,0,0,0-9.22,9.22h0v48.86H12.72a9.22,9.22,0,0,0-9.22,9.22h0V466.29a9.22,9.22,0,0,0,9.22,9.22H466.28a9.22,9.22,0,0,0,9.22-9.22h0V316a9.22,9.22,0,0,0-9.22-9.22ZM156.5,457.07H21.94V288.37H156.5Zm147.5,0H175V230.29H304Zm153,0H322.5V325.24H457.06Z" transform="translate(0 0)" fill="none" stroke="#24212c" stroke-miterlimit="10" stroke-width="7"/><path d="M331,73.77a9.23,9.23,0,0,0-7.45-6.26l-52.48-7.62-23.59-51a9.22,9.22,0,0,0-16.74,0l-23.58,51L154.7,67.51a9.23,9.23,0,0,0-5.11,15.73l38.12,37.15-9,55.23a9.21,9.21,0,0,0,13.38,9.65l47-24.76,47.06,24.75a9.22,9.22,0,0,0,13.39-9.65l-9-55.23,38.12-37.15A9.21,9.21,0,0,0,331,73.77Zm-56.77,36.74a9.25,9.25,0,0,0-2.66,8.09l6.82,41.71-35-18.4a9.23,9.23,0,0,0-8.58,0l-35,18.4,6.82-41.71a9.22,9.22,0,0,0-2.66-8.09L175.84,83.05l38.94-5.66a9.17,9.17,0,0,0,7-5.25L239.1,34.7l17.4,37.44a9.17,9.17,0,0,0,7,5.25l39,5.66Z" transform="translate(0 0)" fill="none" stroke="#24212c" stroke-miterlimit="10" stroke-width="7"/><path d="M276.38,417.43H239.5a9.22,9.22,0,1,0,0,18.44h36.88a9.22,9.22,0,1,0,0-18.44Z" transform="translate(0 0)" fill="none" stroke="#24212c" stroke-miterlimit="10" stroke-width="7"/></svg>