<svg id="Capa_1" data-name="Capa 1" xmlns="http://www.w3.org/2000/svg" viewBox="0 0 533.74 487.8"><title>info-p</title><path d="M524.41,190,449.8,167V111.46a8.25,8.25,0,0,0-4.62-7.43L243.7,4.29h-.15a8,8,0,0,0-4.05-.77A8.22,8.22,0,0,0,235.26,5h0L91.5,107.52A8.27,8.27,0,0,0,88,114.26V185.8l-26.7-3.18h-.23a12.31,12.31,0,0,0-1.92,0,9.13,9.13,0,0,0-2.11.56H57L8.43,204.75a8.26,8.26,0,0,0-4.93,7.54v138.6a8.3,8.3,0,0,0,4.3,7.27l48.7,26.69a8.46,8.46,0,0,0,2.81.93,8.55,8.55,0,0,0,2.37,0L88,382v15.34a8.33,8.33,0,0,0,4.3,7.27L236,483.29a8.38,8.38,0,0,0,6.87.49h.05l201.49-76.61,80.47-30.6a8.28,8.28,0,0,0,5.35-7.74V197.89A8.22,8.22,0,0,0,524.41,190ZM26.62,316.52a2.79,2.79,0,0,1-2.77,2.81h0a2.64,2.64,0,0,1-.74-.1l-9.22-2.57a2.77,2.77,0,0,1-2-2.67V288.2a2.8,2.8,0,0,1,.9-2.05,2.75,2.75,0,0,1,2.12-.69l9.23.89a2.78,2.78,0,0,1,2.5,2.75v27.42Zm0-54.75a2.78,2.78,0,0,1-2.55,2.75l-9.22.76h-.22a2.85,2.85,0,0,1-1.88-.72,2.77,2.77,0,0,1-.89-2V236.78a2.77,2.77,0,0,1,2.06-2.67l9.22-2.43a2.77,2.77,0,0,1,2.39.5,2.72,2.72,0,0,1,1.08,2.17v27.42Zm27,62.25a2.8,2.8,0,0,1-2.79,2.71,2.64,2.64,0,0,1-.74-.1l-12.65-3.51a2.76,2.76,0,0,1-2-2.66v-30a2.74,2.74,0,0,1,2.72-2.76h.28l12.65,1.24a2.74,2.74,0,0,1,2.49,2.74v32.25Zm0-64.47a2.77,2.77,0,0,1-2.57,2.78l-12.65,1h-.23a2.77,2.77,0,0,1-2.76-2.78v0h0V230.6a2.76,2.76,0,0,1,2.09-2.68l12.65-3.32a2.76,2.76,0,0,1,3.35,1.92,3.06,3.06,0,0,1,.09.74Zm69.21,83.68a2.8,2.8,0,0,1-2.76,2.77,3.07,3.07,0,0,1-.74-.1L103,341.33a2.78,2.78,0,0,1-2-2.66V296.9a2.76,2.76,0,0,1,.91-2,2.82,2.82,0,0,1,2.11-.72l16.31,1.61a2.75,2.75,0,0,1,2.5,2.74v44.75Zm0-89.39a2.74,2.74,0,0,1-2.53,2.68L104,257.87h-.22a2.79,2.79,0,0,1-2.77-2.73v-41.8a2.77,2.77,0,0,1,2.06-2.67l16.31-4.29a2.76,2.76,0,0,1,3.46,2.67Zm0-89.42A2.74,2.74,0,0,1,121.2,167l-16.31,7.22a2.69,2.69,0,0,1-1.12.25,2.77,2.77,0,0,1-2.77-2.77h0V129.84a2.77,2.77,0,0,1,1.3-2.35l16.31-10.15a2.73,2.73,0,0,1,2.8-.08,2.79,2.79,0,0,1,1.42,2.42v44.74Zm40.67,190.1a2.77,2.77,0,0,1-2.75,2.77h0a2.71,2.71,0,0,1-.75-.1l-21.84-6.07a2.77,2.77,0,0,1-2-2.66V300.29a2.74,2.74,0,0,1,.91-2,2.8,2.8,0,0,1,2.12-.7L161,299.72a2.77,2.77,0,0,1,2.46,2.8Zm0-104a2.76,2.76,0,0,1-2.53,2.76l-21.85,1.8h-.23a2.79,2.79,0,0,1-2.77-2.78V204.2a2.75,2.75,0,0,1,2.06-2.67L160,195.78a2.68,2.68,0,0,1,2.38.48,2.76,2.76,0,0,1,1.08,2.19v52.07Zm0-104a2.78,2.78,0,0,1-1.64,2.54L140,158.73a2.53,2.53,0,0,1-1.12.23,2.75,2.75,0,0,1-2.76-2.74h0V108a2.81,2.81,0,0,1,1.3-2.34L159.24,92a2.78,2.78,0,0,1,2.8-.08,2.81,2.81,0,0,1,1.46,2.43ZM220,370.31a3,3,0,0,1-.89,2.16,3.9,3.9,0,0,1-2.84,1h0c-5.45,0-26.59-7.61-30.76-9.12a2.77,2.77,0,0,1-1.81-2.6V305a2.73,2.73,0,0,1,2.7-2.76h.3l30.79,3A2.77,2.77,0,0,1,220,308v62.36Zm0-124.41a2.77,2.77,0,0,1-2.54,2.75l-30.79,2.54h-.22a2.78,2.78,0,0,1-2.77-2.78V191.63a2.75,2.75,0,0,1,2.06-2.67l30.73-8.09a2.68,2.68,0,0,1,2.38.48,2.74,2.74,0,0,1,1.08,2.18v62.32Zm0-124.42a2.76,2.76,0,0,1-1.65,2.53L187.6,137.65a2.82,2.82,0,0,1-2.64-.22,2.78,2.78,0,0,1-1.25-2.32V78.29a2.79,2.79,0,0,1,1.3-2.36L215.8,56.76a2.75,2.75,0,0,1,3.79.85A2.78,2.78,0,0,1,220,59.1v62.38Zm122.39-31a2.77,2.77,0,0,1,2.76-2.76h0a2.68,2.68,0,0,1,1.08.22l32.86,14.21a2.78,2.78,0,0,1,1.67,2.54v49a2.75,2.75,0,0,1-2.75,2.77,2.86,2.86,0,0,1-.82-.12l-32.86-10.1a2.78,2.78,0,0,1-1.95-2.63V90.48Zm0,106.38a2.72,2.72,0,0,1,1-2.12,2.8,2.8,0,0,1,2.26-.6l32.87,6a2.76,2.76,0,0,1,2.27,2.71v49.49a2.77,2.77,0,0,1-.89,2,2.73,2.73,0,0,1-1.88.74h-.19L345,252.74a2.75,2.75,0,0,1-2.57-2.74V196.86ZM256.79,53.36a2.77,2.77,0,0,1,2.76-2.76h0a2.68,2.68,0,0,1,1.08.22L307.33,71A2.8,2.8,0,0,1,309,73.52v58.05a2.79,2.79,0,0,1-2.76,2.77,2.87,2.87,0,0,1-.82-.13l-46.68-14.34a2.77,2.77,0,0,1-1.95-2.64Zm0,191.65V181.12a2.74,2.74,0,0,1,1-2.11,2.8,2.8,0,0,1,2.26-.6l46.68,8.51a2.79,2.79,0,0,1,2.28,2.72v58a2.79,2.79,0,0,1-2.77,2.76h-.16l-46.68-2.66a2.79,2.79,0,0,1-2.61-2.73Zm91.08,191.06a2.79,2.79,0,0,1-1.78,2.58L285,461.87a2.85,2.85,0,0,1-1,.18,2.75,2.75,0,0,1-2.75-2.75h0V307.22a2.76,2.76,0,0,1,2.58-2.75l61.11-4.18a2.77,2.77,0,0,1,2.94,2.58v133.2Zm73.62-28a2.76,2.76,0,0,1-1.78,2.58l-40.77,15.5a2.86,2.86,0,0,1-1,.19,2.94,2.94,0,0,1-1.57-.49,2.79,2.79,0,0,1-1.19-2.28V300.87a2.76,2.76,0,0,1,2.58-2.76l40.74-2.76a2.79,2.79,0,0,1,2.08.73,2.75,2.75,0,0,1,.87,2Zm11.75-153.28a2.75,2.75,0,0,1-.87,2,2.81,2.81,0,0,1-1.9.75h-.16l-24.38-1.4a2.76,2.76,0,0,1-2.6-2.76V207.83a2.74,2.74,0,0,1,2.71-2.77h0a2.56,2.56,0,0,1,.55.05L431,209.52a2.76,2.76,0,0,1,2.28,2.73Zm0-85a2.79,2.79,0,0,1-2.74,2.73,2.87,2.87,0,0,1-.82-.13l-24.37-7.49a2.75,2.75,0,0,1-2-2.63v-45.6a2.76,2.76,0,0,1,1.24-2.3,2.73,2.73,0,0,1,2.61-.23l24.39,10.54a2.75,2.75,0,0,1,1.66,2.57v42.51ZM482,330.45a2.77,2.77,0,0,1-2.24,2.72L462,336.58a2.29,2.29,0,0,1-.52.05,2.76,2.76,0,0,1-2.75-2.76V295.22a2.76,2.76,0,0,1,2.57-2.76l17.72-1.2a2.9,2.9,0,0,1,2.08.74,2.75,2.75,0,0,1,.87,2v36.45Zm0-72.84a2.75,2.75,0,0,1-.87,2,2.79,2.79,0,0,1-1.9.75h-.15l-17.72-1a2.76,2.76,0,0,1-2.6-2.76V217.94a2.76,2.76,0,0,1,1-2.12,2.81,2.81,0,0,1,2.27-.6l17.7,3.23a2.77,2.77,0,0,1,2.28,2.72v36.44Zm30,67.06a2.75,2.75,0,0,1-2.24,2.71l-14.18,2.74H495a2.77,2.77,0,0,1-2.8-2.72h0V292.93a2.76,2.76,0,0,1,2.58-2.74l14.16-1a2.89,2.89,0,0,1,2.08.73,2.79,2.79,0,0,1,.87,2v32.67Zm0-65.35a2.75,2.75,0,0,1-2.73,2.77h-.18l-14.18-.8a2.76,2.76,0,0,1-2.6-2.76v-34a2.77,2.77,0,0,1,2.74-2.78,3.09,3.09,0,0,1,.43,0l14.18,2.14a2.76,2.76,0,0,1,2.34,2.74v32.7Z" transform="translate(0 0)" fill="none" stroke="#000" stroke-miterlimit="10" stroke-width="7"/></svg>