<svg xmlns="http://www.w3.org/2000/svg" width="80" height="80" viewBox="0 0 80 80">
    <g fill="none" fill-rule="evenodd">
        <rect width="80" height="80" fill="#D8D8D8" opacity="0"/>
        <g fill="#23212C" transform="translate(12 20)">
            <path fill-rule="nonzero" d="M50.4396099,6.20155039 L50.4396099,2.71317829 C50.4396099,2.24806202 50.1275319,1.9379845 49.6594149,1.9379845 L2.34058515,1.9379845 C1.87246812,1.9379845 1.5603901,2.24806202 1.5603901,2.71317829 L1.5603901,6.20155039 L50.4396099,6.20155039 Z M50.4396099,7.75193798 L1.5603901,7.75193798 L1.5603901,37.6162791 C1.5603901,38.0813953 1.87246812,38.3914729 2.34058515,38.3914729 L49.6594149,38.3914729 C50.1275319,38.3914729 50.4396099,38.0813953 50.4396099,37.6162791 L50.4396099,7.75193798 Z M49.6594149,39.9418605 L2.34058515,39.9418605 C1.01425356,39.9418605 6.38067377e-12,38.9341085 6.38067377e-12,37.6162791 L6.38067377e-12,2.71317829 C6.38067377e-12,1.39534884 1.01425356,0.387596899 2.34058515,0.387596899 L49.6594149,0.387596899 C50.9857464,0.387596899 52,1.39534884 52,2.71317829 L52,37.6162791 C52,38.9341085 50.9857464,39.9418605 49.6594149,39.9418605 Z M4.21305326,5.34883721 C3.65289649,5.34883721 3.1987997,4.8976513 3.1987997,4.34108527 C3.1987997,3.78451924 3.65289649,3.33333333 4.21305326,3.33333333 C4.77321004,3.33333333 5.22730683,3.78451924 5.22730683,4.34108527 C5.22730683,4.8976513 4.77321004,5.34883721 4.21305326,5.34883721 Z M7.9579895,5.34883721 C7.39783272,5.34883721 6.94373593,4.8976513 6.94373593,4.34108527 C6.94373593,3.78451924 7.39783272,3.33333333 7.9579895,3.33333333 C8.51814627,3.33333333 8.97224306,3.78451924 8.97224306,4.34108527 C8.97224306,4.8976513 8.51814627,5.34883721 7.9579895,5.34883721 Z M11.6249062,5.34883721 C11.0647495,5.34883721 10.6106527,4.8976513 10.6106527,4.34108527 C10.6106527,3.78451924 11.0647495,3.33333333 11.6249062,3.33333333 C12.185063,3.33333333 12.6391598,3.78451924 12.6391598,4.34108527 C12.6391598,4.8976513 12.185063,5.34883721 11.6249062,5.34883721 Z"/>
            <path d="M22.3590898,17.4224806 L15.0902726,17.4224806 C14.7547887,17.4224806 14.5311328,17.1124031 14.5311328,16.6472868 C14.5311328,16.1821705 14.7547887,15.872093 15.0902726,15.872093 L22.3590898,15.872093 C22.6945736,15.872093 22.9182296,16.1821705 22.9182296,16.6472868 C22.9182296,17.1124031 22.6945736,17.4224806 22.3590898,17.4224806 Z M19.7497708,19.748062 L15.1834625,19.748062 C14.7920647,19.748062 14.5311328,19.4379845 14.5311328,18.9728682 C14.5311328,18.5077519 14.7920647,18.1976744 15.1834625,18.1976744 L19.7497708,18.1976744 C20.1411686,18.1976744 20.4021005,18.5077519 20.4021005,18.9728682 C20.4021005,19.4379845 20.1411686,19.748062 19.7497708,19.748062 Z M9.53788447,21.4534884 C7.50937734,21.4534884 5.87096774,19.8255814 5.87096774,17.8100775 C5.87096774,15.7945736 7.50937734,14.1666667 9.53788447,14.1666667 C11.5663916,14.1666667 13.2048012,15.7945736 13.2048012,17.8100775 C13.1267817,19.8255814 11.5663916,21.4534884 9.53788447,21.4534884 Z M9.53788447,15.7170543 C8.3675919,15.7170543 7.43135784,16.6472868 7.43135784,17.8100775 C7.43135784,18.9728682 8.3675919,19.9031008 9.53788447,19.9031008 C10.708177,19.9031008 11.6444111,18.9728682 11.6444111,17.8100775 C11.6444111,16.6472868 10.6301575,15.7170543 9.53788447,15.7170543 Z M22.3590898,27.5 L15.0902726,27.5 C14.7547887,27.5 14.5311328,27.1899225 14.5311328,26.7248062 C14.5311328,26.2596899 14.7547887,25.9496124 15.0902726,25.9496124 L22.3590898,25.9496124 C22.6945736,25.9496124 22.9182296,26.2596899 22.9182296,26.7248062 C22.9182296,27.1899225 22.6945736,27.5 22.3590898,27.5 Z M19.7497708,29.8255814 L15.1834625,29.8255814 C14.7920647,29.8255814 14.5311328,29.5155039 14.5311328,29.0503876 C14.5311328,28.5852713 14.7920647,28.2751938 15.1834625,28.2751938 L19.7497708,28.2751938 C20.1411686,28.2751938 20.4021005,28.5852713 20.4021005,29.0503876 C20.4021005,29.5155039 20.1411686,29.8255814 19.7497708,29.8255814 Z M9.53788447,31.6085271 C7.50937734,31.6085271 5.87096774,29.9806202 5.87096774,27.9651163 C5.87096774,25.9496124 7.50937734,24.3217054 9.53788447,24.3217054 C11.5663916,24.3217054 13.2048012,25.9496124 13.2048012,27.9651163 C13.2048012,29.9806202 11.5663916,31.6085271 9.53788447,31.6085271 Z M9.53788447,25.872093 C8.3675919,25.872093 7.43135784,26.8023256 7.43135784,27.9651163 C7.43135784,29.127907 8.3675919,30.0581395 9.53788447,30.0581395 C10.708177,30.0581395 11.6444111,29.127907 11.6444111,27.9651163 C11.6444111,26.8023256 10.6301575,25.872093 9.53788447,25.872093 Z"/>
            <path fill-rule="nonzero" d="M37.7419355,31.6666667 C42.816129,31.6666667 46.9677419,27.5798611 46.9677419,22.5 C46.9677419,17.4201389 42.8545699,13.3333333 37.7419355,13.3333333 C32.6293011,13.3333333 28.516129,17.4201389 28.516129,22.5 C28.516129,27.5798611 32.6677419,31.6666667 37.7419355,31.6666667 Z M32.936828,28.6111111 C34.9741935,27.8854167 35.8198925,27.0451389 36.2043011,26.4340278 C36.6271505,26.5868056 37.0884409,26.7013889 37.6266129,26.7013889 C37.6266129,26.7013889 37.6650538,26.7013889 37.6650538,26.7013889 L37.7034946,26.7013889 C37.7034946,26.7013889 37.7419355,26.7013889 37.7419355,26.7013889 C37.7419355,26.7013889 37.7803763,26.7013889 37.7803763,26.7013889 C38.3569892,26.7013889 38.8567204,26.5868056 39.2795699,26.3958333 C39.6255376,27.0451389 40.5096774,27.8854167 42.5854839,28.6111111 C41.2400538,29.6423611 39.5870968,30.2534722 37.7803763,30.2534722 C35.9352151,30.2916667 34.2438172,29.6805556 32.936828,28.6111111 Z M39.4717742,24.6006944 C39.0489247,25.0972222 38.4723118,25.3263889 37.7034946,25.3263889 C37.7034946,25.3263889 37.6650538,25.3263889 37.6650538,25.3263889 C36.8962366,25.3263889 36.3196237,25.0972222 35.8967742,24.6006944 C34.7819892,23.3402778 35.0126344,20.8958333 35.0126344,20.8576389 C35.0126344,20.8576389 35.0126344,20.8194444 35.0126344,20.8194444 C35.127957,18.2604167 37.0115591,18.03125 37.588172,18.03125 C37.6266129,18.03125 37.6650538,18.03125 37.6650538,18.03125 C37.6650538,18.03125 37.7034946,18.03125 37.7034946,18.03125 C38.1263441,18.03125 40.2405914,18.0694444 40.355914,20.78125 C40.355914,20.78125 40.355914,20.8194444 40.355914,20.8194444 C40.4327957,21.5451389 40.3943548,23.53125 39.4717742,24.6006944 Z M37.7419355,14.7465278 C42.0473118,14.7465278 45.583871,18.2222222 45.583871,22.5381944 C45.583871,24.4479167 44.8534946,26.2048611 43.7002688,27.5798611 C41.0094086,26.7777778 40.5096774,25.8611111 40.4327957,25.6319444 C40.4712366,25.59375 40.5096774,25.5555556 40.5096774,25.5555556 C42.008871,23.9131944 41.7782258,21.0868056 41.7397849,20.78125 C41.5860215,17.4965278 39.1258065,16.65625 37.7034946,16.7326389 C36.2427419,16.6944444 33.8209677,17.4965278 33.6672043,20.78125 C33.6287634,21.0868056 33.3981183,23.875 34.8973118,25.5555556 C34.9741935,25.6319444 35.0126344,25.7083333 35.0895161,25.7465278 C34.9357527,26.0520833 34.2822581,26.8541667 31.8604839,27.5798611 C30.7072581,26.2048611 29.9768817,24.4479167 29.9768817,22.5381944 C29.9,18.2222222 33.4365591,14.7465278 37.7419355,14.7465278 Z"/>
        </g>
    </g>
</svg>
