<svg xmlns="http://www.w3.org/2000/svg" width="80" height="80" viewBox="0 0 80 80">
    <g fill="none" fill-rule="evenodd">
        <rect width="80" height="80" fill="#D8D8D8" opacity="0"/>
        <g transform="translate(13 13)">
            <g transform="translate(0 10.8)">
                <path stroke="#23212C" stroke-width="1.595" d="M22.3258269 29.4403237C22.3258269 29.4403237 25.7624095 32.9060065 31.0448596 33.4589726M13.5549663 20.5992963C13.5549663 20.5992963 9.26761021 17.0829785 8.71903275 11.7582688"/>
                <path fill="#23212C" fill-rule="nonzero" d="M34.3541678,26.1317524 C34.4173148,26.1690616 34.5316227,26.2381688 34.6898429,26.3363083 C34.9512734,26.4984661 35.2420055,26.6840658 35.5548179,26.8903729 C36.4488759,27.4800252 37.3432175,28.1190113 38.1808139,28.7864972 C39.3593306,29.7256647 40.3297338,30.6452642 41.0252774,31.5301591 C41.3191823,31.9040754 41.5624486,32.2702394 41.7514485,32.6300953 C42.5585419,34.1684814 42.276354,36.0575134 41.055558,37.2880757 L39.0333136,39.3273018 C34.6656109,43.7291461 29.6250067,44.183194 24.2911071,41.2265427 C22.9146712,40.4634065 21.6220029,39.4480227 20.3861332,38.1977945 L4.0277012,21.6538415 C2.51839985,20.1271151 1.33131863,18.4866352 0.515603409,16.7264127 C-1.79193736,11.7460773 -1.11330444,7.04997207 2.949188,2.95417585 L4.97195624,0.91602918 C6.19286332,-0.314645159 8.06690296,-0.599090617 9.59339802,0.214629374 C9.95007961,0.404971454 10.3133376,0.650183869 10.6842862,0.946440058 C11.5621582,1.64754793 12.4744592,2.62571436 13.406173,3.81365923 C14.0683614,4.65795644 14.7022762,5.55945269 15.2872487,6.46066319 C15.4919184,6.77597804 15.6760452,7.069036 15.836916,7.33255795 C15.9342766,7.49204391 16.0028353,7.60726631 16.044654,7.67929788 C17.0329933,9.42686569 16.8974609,11.3340942 15.3276105,12.2746782 C15.2476468,12.3422043 15.1318956,12.4405575 14.9907028,12.5615573 C14.6983671,12.8120838 14.4061413,13.0664288 14.1341716,13.3086055 C14.0750801,13.3612867 14.0750801,13.3612867 14.0162418,13.4140093 C13.4898176,13.8863536 13.1061876,14.2607652 13.0411009,14.3576698 C11.7786725,16.2355542 11.9028149,17.7631236 13.542852,19.416281 L22.7020225,28.6487248 C24.3420595,30.3018822 25.8575053,30.4270177 27.7207619,29.1543015 C27.8166215,29.0888826 28.1880615,28.7021835 28.6566571,28.1715479 C28.7089612,28.1122389 28.7089612,28.1122389 28.7612244,28.0526746 C29.001479,27.7785292 29.2538053,27.4839656 29.5023436,27.1892912 C29.622318,27.047046 29.7198499,26.9304182 29.7868369,26.8498193 C30.7193878,25.2669855 32.6130801,25.1300911 34.3541678,26.1317524 Z M21.5156989,37.0631091 C22.6503456,38.2109382 23.8246835,39.1333742 25.0595932,39.8180441 C29.7992256,42.4452852 34.0653649,42.0609996 37.9056292,38.1907167 L39.9278223,36.1515422 C40.6538755,35.4196806 40.8216772,34.2963765 40.3419017,33.381885 C40.201878,33.1152799 40.01205,32.829551 39.7753472,32.5284094 C39.1685684,31.7564441 38.2818133,30.9161134 37.1918123,30.0474847 C36.3951938,29.4126543 35.5385907,28.8006315 34.6817042,28.2354947 C34.381686,28.0376256 34.1033611,27.8599465 33.8540994,27.7053367 C33.7059043,27.6134155 33.6013442,27.5502016 33.5557445,27.5231975 C32.4774989,26.9029122 31.5429929,26.978426 31.1378717,27.7057081 L31.0550888,27.8268323 C30.987758,27.9082519 30.8700425,28.0493939 30.7173012,28.2304886 C30.4627121,28.5323369 30.2040506,28.8342961 29.9563785,29.1169053 C29.9021992,29.1786535 29.9021992,29.1786535 29.8478069,29.2403304 C29.2637642,29.9016978 28.8711536,30.3104371 28.6150704,30.4851999 C26.1262232,32.1852323 23.7614997,31.989969 21.5743979,29.7853704 L12.4152275,20.5529265 C10.2281257,18.3483279 10.0344121,15.9646867 11.7207652,13.4562068 C11.8943279,13.1977968 12.2998232,12.8020453 12.9559417,12.2133302 C13.0171291,12.1585028 13.0171291,12.1585028 13.0783872,12.1038901 C13.3587535,11.8542366 13.6583162,11.5935058 13.9577689,11.33688 C14.1374263,11.1829168 14.2774482,11.0642596 14.3582215,10.9963901 L14.4780562,10.9131308 C15.1996371,10.5042768 15.2743587,9.56300835 14.6640639,8.483776 C14.6326568,8.42976469 14.5699446,8.32436807 14.4787529,8.17498741 C14.3253702,7.92373166 14.1491012,7.64318018 13.9528025,7.34076178 C13.3921509,6.47702017 12.7849854,5.6135643 12.1551934,4.81057286 C11.2934585,3.71185184 10.4597971,2.81800264 9.6939586,2.20636968 C9.39520696,1.96777325 9.11174576,1.77642656 8.84757495,1.63545249 C7.94002293,1.15166898 6.82563391,1.32081316 6.09946963,2.05278674 L4.07675673,4.09087763 C0.502514607,7.69442096 -0.0708398966,11.6620048 1.96046637,16.0461469 C2.69297669,17.6268226 3.77179381,19.1176875 5.15724665,20.5191356 L21.5156989,37.0631091 Z"/>
            </g>
            <path fill="#23212C" fill-rule="nonzero" d="M28.7306831,25.0141914 C28.9516794,24.9498657 29.1892391,24.9807203 29.3868405,25.0994138 C31.3117335,26.2556431 33.4895178,26.8758621 35.7528664,26.8758621 C42.639791,26.8758621 48.2220782,21.2489166 48.2220782,14.3068966 C48.2220782,7.36487653 42.639791,1.73793103 35.7528664,1.73793103 C28.8659418,1.73793103 23.2836546,7.36487653 23.2836546,14.3068966 C23.2836546,16.4346378 23.8085491,18.4840261 24.7966706,20.3119519 C24.8941736,20.4923227 24.9225528,20.702511 24.8764171,20.9025872 L23.5828008,26.512592 L28.7306831,25.0141914 Z M21.621093,14.3068966 C21.621093,6.43932347 27.9477344,0.0620689655 35.7528664,0.0620689655 C43.5579984,0.0620689655 49.8846398,6.43932347 49.8846398,14.3068966 C49.8846398,22.1744696 43.5579984,28.5517241 35.7528664,28.5517241 C33.309191,28.5517241 30.9523001,27.9139027 28.8515551,26.7233416 L22.682993,28.5188327 C22.0731878,28.6963295 21.4989769,28.1472702 21.6426777,27.5240852 L23.1866361,20.8284262 C22.1634044,18.8290294 21.621093,16.6066512 21.621093,14.3068966 Z M35.1549633,9.52527854 C35.479301,9.19774563 36.0056395,9.19725929 36.3305724,9.52419228 L41.3274012,14.5517785 C41.483626,14.7089649 41.5714163,14.9223285 41.5714163,15.1448276 L41.5714163,21.8482759 C41.5714163,22.3110524 41.1992392,22.6862069 40.7401355,22.6862069 L30.764766,22.6862069 C30.3056623,22.6862069 29.9334852,22.3110524 29.9334852,21.8482759 L29.9334852,15.1448276 C29.9334852,14.9228609 30.0208571,14.7099629 30.1764227,14.5528647 L35.1549633,9.52527854 Z M31.5960468,15.4914597 L31.5960468,21.0103448 L39.9088547,21.0103448 L39.9088547,15.4923596 L35.7443843,11.3022553 L31.5960468,15.4914597 Z M29.6914825,17.41238 C29.3669788,17.7403818 28.8400166,17.7407474 28.5150652,17.4131964 L26.0212228,14.8994033 C25.6968172,14.5724024 25.696554,14.0423112 26.0206347,13.7149832 L35.1464352,4.49774185 C35.4707459,4.17018157 35.9970844,4.16965102 36.3220444,4.49655684 L45.4844212,13.7137982 C45.8096103,14.0409345 45.8098734,14.5719397 45.4850087,14.8994033 L42.9911664,17.4131964 C42.6662293,17.7407329 42.1392955,17.7403839 41.8147858,17.4124172 L35.7527359,11.2857885 L29.6914825,17.41238 Z M27.7840476,14.3063037 L29.1020596,15.6348598 L35.1462145,9.52555104 C35.3131576,9.35680841 35.5336844,9.27477974 35.7527229,9.27950323 C35.971524,9.27478173 36.1919983,9.35658257 36.3591489,9.52551386 L42.4041351,15.634897 L43.7210084,14.3074888 L35.7360032,6.2746692 L27.7840476,14.3063037 Z"/>
        </g>
    </g>
</svg>
