<svg xmlns="http://www.w3.org/2000/svg" width="80" height="80" viewBox="0 0 80 80">
    <g fill="none" fill-rule="evenodd">
        <rect width="80" height="80" fill="#D8D8D8" opacity="0"/>
        <g fill="#23212C" fill-rule="nonzero" transform="translate(14 15)">
            <path d="M24.5,29.3650794 C31.4722258,29.3650794 37.1451613,23.668254 37.1451613,16.6666667 C37.1451613,9.66507937 31.4722258,3.96825397 24.5,3.96825397 C17.5277742,3.96825397 11.8548387,9.66507937 11.8548387,16.6666667 C11.8548387,23.668254 17.5277742,29.3650794 24.5,29.3650794 Z M24.5,5.55555556 C30.6012903,5.55555556 35.5645161,10.5396825 35.5645161,16.6666667 C35.5645161,22.7936508 30.6012903,27.7777778 24.5,27.7777778 C18.3987097,27.7777778 13.4354839,22.7936508 13.4354839,16.6666667 C13.4354839,10.5396825 18.3987097,5.55555556 24.5,5.55555556 Z"/>
            <path d="M49,38.8888889 C49,34.7007937 39.2640161,32.9507937 34.7765645,32.3666667 L37.6960161,27.1206349 C39.4031129,24.0515873 40.3064516,20.5706349 40.3064516,17.0539683 L40.3064516,16.6666667 C40.3064516,12.2293651 38.438129,7.96428571 35.179629,4.96428571 C31.8752903,1.92222222 27.5783065,0.461111111 23.0876935,0.855555556 C15.016129,1.56031746 8.69354839,8.66428571 8.69354839,17.0539683 C8.69354839,20.5706349 9.5968871,24.0507937 11.3047742,27.1214286 L14.2289677,32.3753968 C13.2379032,32.502381 12.276871,32.6452381 11.3569355,32.8071429 C10.5792581,31.2404762 8.97174194,30.1587302 7.11290323,30.1587302 C4.49772581,30.1587302 2.37096774,32.2944444 2.37096774,34.9206349 C2.37096774,35.1626984 2.39467742,35.3984127 2.42945161,35.6309524 C0.821935484,36.5984127 0,37.6912698 0,38.8888889 C0,43.1777778 10.7886935,45.6396825 21.8034194,45.9873016 L23.8100484,49.5936508 C23.9499355,49.8444444 24.2139032,50 24.5,50 C24.7860968,50 25.0500645,49.8444444 25.1899516,49.5936508 L27.197371,45.9865079 C30.9316452,45.8746032 34.4888871,45.5301587 37.6454355,44.9738095 C38.4231129,46.5388889 40.0298387,47.6190476 41.8870968,47.6190476 C44.5022742,47.6190476 46.6290323,45.4833333 46.6290323,42.8571429 C46.6290323,42.6150794 46.6053226,42.3793651 46.5705484,42.1468254 C48.1772742,41.1785714 49,40.0857143 49,38.8888889 Z M10.2741935,17.0277778 C10.2741935,9.48015873 15.9629355,3.07063492 23.2252097,2.43650794 C23.6575161,2.3984127 24.0874516,2.38015873 24.5150161,2.38015873 C28.0880645,2.38015873 31.455629,3.68888889 34.1119032,6.13412698 C37.044,8.83492063 38.7258065,12.6738095 38.7258065,16.6666667 L38.7258065,17.0539683 C38.7258065,20.3 37.8920161,23.5126984 36.3153226,26.3460317 L26.2545161,44.4269841 C25.6728387,44.4380952 25.088,44.4444444 24.5,44.4444444 C23.9040968,44.4444444 23.321629,44.4365079 22.7446935,44.4253968 L12.6838871,26.3460317 C11.1079839,23.5126984 10.2741935,20.3 10.2741935,17.0277778 Z M7.11290323,31.7460317 C8.85635484,31.7460317 10.2741935,33.1698413 10.2741935,34.9206349 C10.2741935,36.6714286 8.85635484,38.0952381 7.11290323,38.0952381 C5.36945161,38.0952381 3.9516129,36.6714286 3.9516129,34.9206349 C3.9516129,33.1698413 5.36945161,31.7460317 7.11290323,31.7460317 Z M1.58064516,38.8888889 C1.58064516,38.3571429 2.06116129,37.7642857 2.94,37.1801587 C3.74296774,38.6690476 5.31175806,39.6825397 7.11290323,39.6825397 C9.72808065,39.6825397 11.8548387,37.5468254 11.8548387,34.9206349 C11.8548387,34.7238095 11.8390323,34.5301587 11.8161129,34.3396825 C12.8522258,34.1611111 13.9333871,34.002381 15.0595968,33.8698413 L20.9040323,44.3722222 C8.84370968,43.884127 1.58064516,41.0055556 1.58064516,38.8888889 Z M24.5,47.5793651 L23.6353871,46.0261905 C23.9238548,46.0293651 24.2123226,46.031746 24.5,46.031746 C24.7900484,46.031746 25.0769355,46.0253968 25.3661935,46.0230159 L24.5,47.5793651 Z M41.8870968,46.031746 C40.1436452,46.031746 38.7258065,44.6079365 38.7258065,42.8571429 C38.7258065,41.1063492 40.1436452,39.6825397 41.8870968,39.6825397 C43.6305484,39.6825397 45.0483871,41.1063492 45.0483871,42.8571429 C45.0483871,44.6079365 43.6305484,46.031746 41.8870968,46.031746 Z M46.0592097,40.5968254 C45.2570323,39.1087302 43.6874516,38.0952381 41.8870968,38.0952381 C39.2719194,38.0952381 37.1451613,40.2309524 37.1451613,42.8571429 C37.1451613,43.0563492 37.1609677,43.2507937 37.1846774,43.4436508 C34.4145968,43.9222222 31.3362903,44.2388889 28.0959677,44.3714286 L33.9419839,33.8666667 C42.7856935,34.9079365 47.4193548,37.1619048 47.4193548,38.8888889 C47.4193548,39.4198413 46.9380484,40.0126984 46.0592097,40.5968254 Z"/>
            <path d="M18.9677419,23.015873 L30.0322581,23.015873 C30.4693065,23.015873 30.8225806,22.6611111 30.8225806,22.2222222 L30.8225806,15.0793651 C30.8225806,14.868254 30.7395968,14.6666667 30.5910161,14.518254 L25.0587581,8.96269841 C24.7497419,8.65238095 24.2502581,8.65238095 23.9412419,8.96269841 L21.3387097,11.5761905 L21.3387097,8.73015873 L19.7580645,8.73015873 L19.7580645,13.1634921 L18.4089839,14.518254 C18.2604032,14.6666667 18.1774194,14.868254 18.1774194,15.0793651 L18.1774194,22.2222222 C18.1774194,22.6611111 18.5306935,23.015873 18.9677419,23.015873 Z M26.0806452,21.4285714 L22.9193548,21.4285714 L22.9193548,16.6666667 L26.0806452,16.6666667 L26.0806452,21.4285714 Z M19.7580645,15.4079365 L24.5,10.6460317 L29.2419355,15.4079365 L29.2419355,21.4285714 L27.6612903,21.4285714 L27.6612903,15.8730159 C27.6612903,15.434127 27.3080161,15.0793651 26.8709677,15.0793651 L22.1290323,15.0793651 C21.6919839,15.0793651 21.3387097,15.434127 21.3387097,15.8730159 L21.3387097,21.4285714 L19.7580645,21.4285714 L19.7580645,15.4079365 Z"/>
        </g>
    </g>
</svg>
