<svg id="Capa_1" data-name="Capa 1" xmlns="http://www.w3.org/2000/svg" viewBox="0 0 445.39 364.31"><title>info-m</title><path d="M17.2,305.77H181.6c7.57,0,13.7-4.61,13.7-10.3V274.85c0-5.68-6.13-10.3-13.7-10.3H17.2c-7.58,0-13.7,4.61-13.7,10.3v20.62C3.5,301.16,9.62,305.77,17.2,305.77Zm0,55H181.6c7.57,0,13.7-4.62,13.7-10.31V329.82c0-5.69-6.13-10.3-13.7-10.3H17.2c-7.58,0-13.7,4.61-13.7,10.3v20.65c0,5.69,6.12,10.31,13.7,10.31Zm0-109.94H181.6c7.57,0,13.7-4.61,13.7-10.3V219.9c0-5.7-6.13-10.32-13.7-10.32H17.2c-7.58,0-13.7,4.62-13.7,10.32v20.57c0,5.69,6.12,10.3,13.7,10.3Zm204.89-5.49a35.75,35.75,0,0,0,.6-4.84V219.9c0-21.21-18.05-37.8-41.1-37.8h-54.8a68.5,68.5,0,1,1,95.3,63.24ZM3.5,58.47H387.09v247.3h-166a35.6,35.6,0,0,0,1.64-10.3V278.29h82.2a54.88,54.88,0,0,1,54.76-55h0V140.88a54.88,54.88,0,0,1-54.79-55v0H85.7a54.89,54.89,0,0,1-54.78,55h0V182.1H17.2a45.58,45.58,0,0,0-13.7,2.23Zm438.39-55V278.29H414.5V31H30.9V3.47Z" transform="translate(0 0.03)" fill="none" stroke="#24212c" stroke-miterlimit="10" stroke-width="7"/></svg>