<svg xmlns="http://www.w3.org/2000/svg" width="80" height="80" viewBox="0 0 80 80">
    <g fill="#23212C" fill-rule="evenodd" transform="translate(13 19)">
        <path d="M14.4414692,2.4383704 C14.8869077,2.4383704 15.2479208,2.80264787 15.2479208,3.25211415 C15.2479208,3.70158043 14.8869077,4.0658579 14.4414692,4.0658579 L8.32094252,4.0658579 C7.875504,4.0658579 7.5144909,3.70158043 7.5144909,3.25211415 C7.5144909,2.80264787 7.875504,2.4383704 8.32094252,2.4383704 L14.4414692,2.4383704 Z M4.60693361,2.58522569 C4.97196323,2.58522569 5.26788529,2.88382356 5.26788529,3.25211415 C5.26788529,3.62044445 4.97196323,3.91900261 4.60693361,3.91900261 C4.24194335,3.91900261 3.94602129,3.62044445 3.94602129,3.25211415 C3.94602129,2.88382356 4.24194335,2.58522569 4.60693361,2.58522569 Z M6.70205394,36.4496806 C7.14749245,36.4496806 7.50850555,36.8139581 7.50850555,37.2634244 C7.50850555,37.7128906 7.14749245,38.0771681 6.70205394,38.0771681 L3.93964213,38.0771681 C3.49420361,38.0771681 3.13319052,37.7128906 3.13319052,37.2634244 C3.13319052,36.8139581 3.49420361,36.4496806 3.93964213,36.4496806 L6.70205394,36.4496806 Z M11.381324,38.1789655 C10.8802592,38.1789655 10.4740659,37.7690993 10.4740659,37.2635038 C10.4740659,36.7579082 10.8802592,36.3480421 11.381324,36.3480421 C11.8823888,36.3480421 12.2885821,36.7579082 12.2885821,37.2635038 C12.2885821,37.7690993 11.8823888,38.1789655 11.381324,38.1789655 Z M47.0498362,2.4355096 C48.6766003,2.4355096 50,3.77087579 50,5.41234954 L50,9.62633426 L50,9.62697002 L50,31.6708433 C50,32.1203096 49.6389869,32.484587 49.1935484,32.484587 L32.8225806,32.484587 L32.8225806,34.9420296 C32.8225806,35.3914958 32.4615675,35.7557733 32.016129,35.7557733 L31.1435232,35.7557733 C31.0071195,36.2529199 30.8247228,36.7354445 30.5979083,37.1998506 L31.1832158,37.7904506 C31.3347405,37.9430275 31.4194809,38.1502778 31.4194809,38.3661107 C31.4194809,38.5822613 31.3341105,38.7895117 31.1825857,38.9417708 L28.7934728,41.3464472 C28.6419481,41.499342 28.4627017,41.5902524 28.2220263,41.5842129 C28.0081275,41.5835772 27.8027344,41.4974349 27.6518397,41.3442221 L27.1484375,40.8327715 C26.6686619,41.0994633 26.1655746,41.315614 25.6432712,41.4796342 L25.6432712,42.1862562 C25.6432712,42.6357225 25.2822557,43 24.8368196,43 L21.467679,43 C21.0222405,43 20.6612274,42.6357225 20.6612274,42.1862562 L20.6612274,41.4627872 C20.1427042,41.2965419 19.6443423,41.0800734 19.170867,40.8152888 L18.6447833,41.3458115 C18.3297632,41.6636802 17.8194305,41.6636802 17.5044103,41.3458115 L16.6822077,40.5161743 L3.00812755,40.5161743 C1.34954639,40.5161743 -1.42108547e-13,39.154425 -1.42108547e-13,37.4808465 L-1.42108547e-13,34.8260075 L-1.42108547e-13,5.68984885 C-1.42108547e-13,5.68980914 3.93548386e-05,5.68972965 3.93548386e-05,5.68968994 C3.93548386e-05,5.68965023 -1.42108547e-13,5.68957075 -1.42108547e-13,5.68953103 L-1.42108547e-13,3.47271507 C-1.42108547e-13,1.55787427 1.54391381,2.52242671e-13 3.44159529,2.52242671e-13 L19.3201865,2.52242671e-13 C20.8387412,2.52242671e-13 22.1517452,1.02488799 22.5924584,2.4355096 L47.0498362,2.4355096 Z M48.3870968,5.41234954 C48.3870968,4.66821902 47.7872984,4.06299711 47.0498362,4.06299711 L22.7617817,4.06299711 L22.7617817,5.67884267 C22.7618212,5.68273653 22.7639869,5.68595499 22.7639869,5.68984885 L22.7639869,8.8125905 L48.3870968,8.8125905 L48.3870968,5.41234954 Z M20.8686681,23.7657677 C20.886703,23.7451063 20.9026115,23.7243653 20.9226153,23.7056508 C20.9902659,23.6421962 21.0649257,23.5866884 21.1510837,23.549617 L21.1510837,9.6379762 C21.1510443,9.63408233 21.1488785,9.63086388 21.1488785,9.62697002 L21.1488785,6.5035926 L1.61290323,6.5035926 L1.61290323,34.0122638 L13.4819178,34.0122638 L13.4819178,31.5424244 C13.4819178,31.0929581 13.8429309,30.7286806 14.2883694,30.7286806 L15.375189,30.7286806 C15.5213583,30.3100476 15.7028099,29.9003148 15.9182837,29.5023433 L15.1197076,28.6927319 C14.8062625,28.3745454 14.8068926,27.8605518 15.1212827,27.5433188 L17.5044103,25.1386424 C17.8194304,24.8207737 18.329763,24.8207737 18.6447832,25.1386424 L19.5199092,26.0216815 C19.8875377,25.8389071 20.2687122,25.684105 20.6612273,25.5585469 L20.6612273,24.2981977 C20.6612273,24.1966784 20.6846569,24.1021919 20.7183641,24.012553 C20.7284053,23.985852 20.7414786,23.9624887 20.7541188,23.9372578 C20.7853846,23.8745583 20.8231083,23.8178982 20.8686681,23.7657677 Z M1.61290323,3.472715 L1.61290323,4.87578722 L21.1488785,4.87578722 L21.1488785,3.47748302 C21.1488785,3.43711371 21.1466734,3.39642653 21.141633,3.35828226 C21.1413574,3.35613664 21.1417512,3.35403074 21.1414755,3.35188512 C21.0594522,2.36645257 20.2617818,1.62748744 19.3201865,1.62748744 L3.44159529,1.62748744 C2.43321574,1.62748744 1.61290323,2.45521743 1.61290323,3.472715 Z M3.00812755,38.8886868 L15.0733997,38.8886868 C15.0372512,38.8452182 15.0163811,38.7927699 14.990195,38.7432221 C14.9753103,38.715051 14.954834,38.6909725 14.9432964,38.6612518 C14.906951,38.56756 14.8850177,38.468385 14.8850177,38.3657929 C14.8850177,38.14996 14.9700731,37.9430275 15.1212828,37.7904506 L15.7415575,37.1645672 C15.515058,36.6985717 15.3373866,36.2300333 15.2050781,35.7557733 L14.2883695,35.7557733 C14.1887837,35.7557733 14.0962465,35.7320126 14.008159,35.6987159 C13.9852019,35.6900539 13.9640955,35.6805974 13.9422017,35.669909 C13.9196384,35.6589426 13.8945155,35.6527441 13.8731729,35.6397512 L1.61290323,35.6397512 L1.61290323,37.4808465 C1.61290323,38.2570818 2.23884832,38.8886868 3.00812755,38.8886868 Z M31.2096774,34.1282858 L31.2096774,32.3561681 L30.3830644,32.3561681 C30.018271,32.3561681 29.6991556,32.1091842 29.6043345,31.7541249 C29.4203628,31.064032 29.1242438,30.4047724 28.7241682,29.7938289 C28.5131047,29.4711922 28.5559474,29.043341 28.8268648,28.7699739 L29.471711,28.1192968 L28.2261213,26.865305 L27.518901,27.5820988 C27.2593245,27.8456119 26.8557836,27.8980603 26.5382433,27.7092463 C25.956401,27.3634052 25.3241555,27.1110175 24.659148,26.9593941 C24.2915195,26.8754767 24.0303677,26.545847 24.0303677,26.165676 L24.0303677,25.1119415 L22.2741303,25.1119415 L22.2741303,26.1780729 C22.2741303,26.5563366 22.0161288,26.8843771 21.6510205,26.9705195 C20.9904232,27.1262752 20.363218,27.3802523 19.7870461,27.7257755 C19.4695058,27.9152252 19.065335,27.8643662 18.8048133,27.6014888 L18.0745966,26.8646693 L16.8305819,28.1199326 L17.50315,28.8017609 C17.7709172,29.0735386 17.814705,29.4969397 17.6080517,29.8183048 C17.2145915,30.4314735 16.925403,31.0818328 16.7489917,31.751582 C16.6551157,32.1079127 16.3353703,32.3561682 15.9696319,32.3561682 L15.0948209,32.3561682 L15.0948209,34.1282859 L15.8426788,34.1282859 C16.2298386,34.1282859 16.5621848,34.4057852 16.6346395,34.7891349 C16.7700982,35.5030679 17.0280997,36.1985644 17.4013986,36.8568704 C17.4064389,36.8657708 17.4177796,36.8861144 17.4269152,36.9029614 C17.5660754,37.1413629 17.5733996,37.4300273 17.4580628,37.6706142 C17.4196304,37.7508363 17.3675339,37.8256546 17.3021672,37.8915329 L16.8321572,38.3657929 L18.0745967,39.6197847 L18.4781375,39.212595 C18.749685,38.9382744 19.1752772,38.8953621 19.4953377,39.110877 C20.1508946,39.551443 20.8763861,39.8677222 21.6519657,40.0514504 C22.016444,40.1375927 22.2741305,40.4656332 22.2741305,40.8435791 L22.2741305,41.3725125 L24.0303679,41.3725125 L24.0303679,40.855976 C24.0303679,40.475805 24.2912046,40.1461753 24.6588332,40.0622579 C25.4344128,39.885205 26.1646295,39.5708329 26.8293221,39.1274062 C27.1496976,38.912527 27.5752898,38.9576643 27.8462072,39.2323028 L28.2264365,39.6185132 L29.4717112,38.3651571 L29.0325731,37.9220482 C28.7723665,37.6594887 28.7213332,37.2522989 28.9084552,36.9325231 C29.2993952,36.2656347 29.5696825,35.5447086 29.7117566,34.7900884 C29.7842112,34.406103 30.1165575,34.1282858 30.5040323,34.1282858 L31.2096774,34.1282858 Z M32.4511719,30.8570995 L48.3870968,30.8570995 L48.3870968,10.4407138 L22.7639868,10.4407138 L22.7639868,23.484454 L24.8368194,23.484454 C25.2822555,23.484454 25.643271,23.8487314 25.643271,24.2981977 L25.643271,25.5416999 C26.0408265,25.6663044 26.4270412,25.8211065 26.799395,26.0045167 L27.6524696,25.139914 C27.8036793,24.9863834 27.9854459,24.8938836 28.2239162,24.900241 C28.4374999,24.900241 28.642263,24.9857477 28.7934726,25.1380067 L31.1825855,27.5426831 C31.3341103,27.6949422 31.4194807,27.9021925 31.4194807,28.1183432 C31.4194807,28.334176 31.3347403,28.5414264 31.1832156,28.6940033 L30.4142514,29.4699207 C30.6366557,29.8755211 30.8244077,30.2960613 30.9762474,30.7286806 L32.016129,30.7286806 C32.1163054,30.7286806 32.2092757,30.7523618 32.2977176,30.7860161 C32.322683,30.7954728 32.3449706,30.8070352 32.3686759,30.8188758 C32.3958071,30.8323852 32.4258128,30.8406896 32.4511719,30.8570995 Z M23.1735131,28.4400262 C25.1004914,28.4400262 26.8775202,29.5713208 27.7003528,31.3221413 C28.0270287,31.988394 28.1955645,32.7277565 28.1955645,33.5078062 C28.1955645,36.3018717 25.9425403,38.5752683 23.1735131,38.5752683 C22.6663306,38.5752683 22.1742691,38.5012049 21.7111895,38.3553032 C20.1458543,37.8769108 18.9040448,36.6512093 18.3965474,35.0780774 C18.2333669,34.5688518 18.1511466,34.0411898 18.1511466,33.5078062 C18.1511466,31.2569782 19.5866935,29.3055826 21.7234753,28.6520446 C22.1944305,28.5109109 22.6808215,28.4400262 23.1735131,28.4400262 Z M23.1735131,36.9477808 C25.0532384,36.9477808 26.5826613,35.4045284 26.5826613,33.5078062 C26.5826613,32.9801443 26.4701991,32.4836334 26.2487399,32.0316242 C25.6857989,30.8338951 24.4808468,30.0675138 23.1735131,30.0675138 C22.8364415,30.0675138 22.5047253,30.1158298 22.187185,30.2108725 C20.7396673,30.6536636 19.7640499,31.9791759 19.7640499,33.5078062 C19.7640499,33.8711301 19.8201235,34.2306395 19.9306955,34.5758449 C20.2746975,35.6413406 21.1176915,36.4735207 22.1852948,36.799654 C22.4993699,36.8985111 22.8298261,36.9477808 23.1735131,36.9477808 Z"/>
        <path d="M42.4262675 17.9L35.7212866 17.9C35.146574 17.9 34.7634322 17.58 34.7634322 17.1 34.7634322 16.62 35.146574 16.3 35.7212866 16.3L42.4262675 16.3C43.0009801 16.3 43.3841219 16.62 43.3841219 17.1 43.3841219 17.58 43.0009801 17.9 42.4262675 17.9zM42.5459993 20.3L35.6015548 20.3C35.0986813 20.3 34.7634322 19.98 34.7634322 19.5 34.7634322 19.02 35.0986813 18.7 35.6015548 18.7L42.5459993 18.7C43.0488729 18.7 43.3841219 19.02 43.3841219 19.5 43.3841219 19.98 43.0488729 20.3 42.5459993 20.3zM29.6311147 22.14C27.5461107 22.14 25.862069 20.46 25.862069 18.38 25.862069 16.3 27.5461107 14.62 29.6311147 14.62 31.7161187 14.62 33.4001604 16.3 33.4001604 18.38 33.4001604 20.46 31.7161187 22.14 29.6311147 22.14zM29.6311147 16.22C28.4282277 16.22 27.4659182 17.18 27.4659182 18.38 27.4659182 19.58 28.4282277 20.54 29.6311147 20.54 30.8340016 20.54 31.7963111 19.58 31.7963111 18.38 31.7963111 17.18 30.7538091 16.22 29.6311147 16.22zM14.559387 23.1L7.85440613 23.1C7.27969349 23.1 6.89655172 22.78 6.89655172 22.3 6.89655172 21.82 7.27969349 21.5 7.85440613 21.5L14.559387 21.5C15.1340996 21.5 15.5172414 21.82 15.5172414 22.3 15.5172414 22.78 15.1340996 23.1 14.559387 23.1zM14.6791188 25.68L7.73467433 25.68C7.23180077 25.68 6.89655172 25.36 6.89655172 24.88 6.89655172 24.4 7.23180077 24.08 7.73467433 24.08L14.6791188 24.08C15.1819923 24.08 15.5172414 24.4 15.5172414 24.88 15.5172414 25.36 15.1819923 25.68 14.6791188 25.68zM11.5276664 19.56C9.44266239 19.56 7.75862069 17.88 7.75862069 15.8 7.75862069 13.72 9.44266239 12.04 11.5276664 12.04 13.6126704 12.04 15.2967121 13.72 15.2967121 15.8 15.2165196 17.88 13.6126704 19.56 11.5276664 19.56zM11.5276664 13.64C10.3247795 13.64 9.36246993 14.6 9.36246993 15.8 9.36246993 17 10.3247795 17.96 11.5276664 17.96 12.7305533 17.96 13.6928629 17 13.6928629 15.8 13.6928629 14.6 12.6503609 13.64 11.5276664 13.64z"/>
    </g>
</svg>
