<svg id="Capa_1" data-name="Capa 1" xmlns="http://www.w3.org/2000/svg" viewBox="0 0 18.34 22.46"><title>info-o</title><path d="M11.86,14.42a2,2,0,0,1,1.82-1.05,1.08,1.08,0,0,0,1.21-.95,1.22,1.22,0,0,0,0-.27,2,2,0,0,1,1-1.8,1.08,1.08,0,0,0,.59-1.41v0a1,1,0,0,0-.13-.23,2,2,0,0,1,0-2.09,1.1,1.1,0,0,0-.26-1.53,1,1,0,0,0-.23-.13,2,2,0,0,1-1-1.81,1.08,1.08,0,0,0-.94-1.22,1.22,1.22,0,0,0-.27,0,2,2,0,0,1-1.82-1A1.08,1.08,0,0,0,10.47.28a.94.94,0,0,0-.26.14,2,2,0,0,1-2.13,0A1.11,1.11,0,0,0,6.59.63a.82.82,0,0,0-.12.2,2,2,0,0,1-1.81,1,1.11,1.11,0,0,0-1.2,1,1.22,1.22,0,0,0,0,.27,2,2,0,0,1-1,1.81,1.08,1.08,0,0,0-.59,1.41v0A1,1,0,0,0,2,6.57,2,2,0,0,1,2,8.66a1.1,1.1,0,0,0,.22,1.53,1,1,0,0,0,.23.13,2,2,0,0,1,1,1.8,1.11,1.11,0,0,0,1,1.22h.28a2,2,0,0,1,1.76,1.08,1.08,1.08,0,0,0,1.42.6h0a1,1,0,0,0,.23-.13,2,2,0,0,1,2.09,0,1.06,1.06,0,0,0,1.5-.21h0A1.19,1.19,0,0,0,11.86,14.42ZM9.16,12a4.37,4.37,0,1,1,4.38-4.37A4.37,4.37,0,0,1,9.16,12Z" transform="translate(0.01 -0.02)" fill="none" stroke="#000" stroke-miterlimit="10" stroke-width="0.4"/><path d="M4.58,14c-.84,0-1-.39-1-.39L.34,20,3,19.73l1.49,2.19s3-6.32,3-6.28C5.89,15.6,6.52,14,4.58,14Z" transform="translate(0.01 -0.02)" fill="none" stroke="#000" stroke-miterlimit="10" stroke-width="0.4"/><path d="M14.66,13.83c-2.4.25-1.91.85-2.46,1.31a1.72,1.72,0,0,1-1.42.54L14.47,22l.91-2.36L18,20Z" transform="translate(0.01 -0.02)" fill="none" stroke="#000" stroke-miterlimit="10" stroke-width="0.4"/><polygon points="10.08 6.62 9.17 4.76 8.25 6.62 6.2 6.91 7.68 8.36 7.34 10.4 9.17 9.44 11 10.4 10.65 8.36 12.13 6.91 10.08 6.62" fill="none" stroke="#000" stroke-miterlimit="10" stroke-width="0.4"/></svg>