<svg xmlns="http://www.w3.org/2000/svg" width="80" height="80" viewBox="0 0 80 80">
    <g fill="none" fill-rule="evenodd">
        <rect width="80" height="80" fill="#D8D8D8" opacity="0"/>
        <path fill="#23212C" fill-rule="nonzero" d="M15.4666667,59 C13.5520795,59 12,57.4744517 12,55.5925926 L12,53.037037 C12,52.5665723 12.3880199,52.1851852 12.8666667,52.1851852 L14.6,52.1851852 L14.6,26.6296296 C14.6028653,24.2784732 16.5412873,22.3731867 18.9333333,22.3703704 L36.2666667,22.3703704 L36.2666667,24.0740741 L18.9333333,24.0740741 C17.497393,24.0740741 16.3333333,25.2182353 16.3333333,26.6296296 L16.3333333,52.1851852 L18.0666667,52.1851852 L18.0666667,26.6296296 C18.0666667,26.1591648 18.4546866,25.7777778 18.9333333,25.7777778 L36.2666667,25.7777778 L36.2666667,27.4814815 L19.8,27.4814815 L19.8,52.1851852 L30.9644,52.1851852 C31.8872802,52.1823527 32.7315571,52.6953897 33.1414667,53.5081111 C33.2597119,53.7421913 33.5030444,53.8898575 33.7689333,53.8888889 L38.7644,53.8888889 C39.030289,53.8898575 39.2736214,53.7421913 39.3918667,53.5081111 C39.8017762,52.6953897 40.6460532,52.1823527 41.5689333,52.1851852 L52.7333333,52.1851852 L52.7333333,40.2592593 L54.4666667,40.2592593 L54.4666667,52.1851852 L56.2,52.1851852 L56.2,39.4074074 L57.9333333,39.4074074 L57.9333333,52.1851852 L59.6666667,52.1851852 C60.1453134,52.1851852 60.5333333,52.5665723 60.5333333,53.037037 L60.5333333,55.5925926 C60.5333333,57.4744517 58.9812538,59 57.0666667,59 L15.4666667,59 Z M13.7333333,53.8888842 L13.7333333,55.5925926 C13.7333333,56.5335222 14.5093731,57.2962963 15.4666667,57.2962963 L57.0666667,57.2962963 C58.0239602,57.2962963 58.8,56.5335222 58.8,55.5925926 L58.8,53.8888842 L41.5689333,53.8888889 C41.3030444,53.8879203 41.0597119,54.0355865 40.9414667,54.2696667 C40.5315571,55.082388 39.6872802,55.5954251 38.7644,55.5925926 L33.7689333,55.5925926 C32.8460532,55.5954251 32.0017762,55.082388 31.5918667,54.2696667 C31.4736214,54.0355865 31.230289,53.8879203 30.9644,53.8888889 L13.7333333,53.8888842 Z M36.8377261,35.0689061 L32.7932817,35.0689061 C32.446615,35.0689061 32.2155039,34.751938 32.2155039,34.2764858 C32.2155039,33.8010336 32.446615,33.4840655 32.7932817,33.4840655 L36.8377261,33.4840655 C37.1843928,33.4840655 37.4155039,33.8010336 37.4155039,34.2764858 C37.4155039,34.751938 37.1843928,35.0689061 36.8377261,35.0689061 Z M38.4747631,37.4461671 L32.889578,37.4461671 C32.4851335,37.4461671 32.2155039,37.129199 32.2155039,36.6537468 C32.2155039,36.1782946 32.4851335,35.8613264 32.889578,35.8613264 L38.4747631,35.8613264 C38.8792076,35.8613264 39.1488372,36.1782946 39.1488372,36.6537468 C39.1488372,37.129199 38.8792076,37.4461671 38.4747631,37.4461671 Z M27.055814,39.1894918 C24.9596899,39.1894918 23.2666667,37.5254091 23.2666667,35.4651163 C23.2666667,33.4048234 24.9596899,31.7407407 27.055814,31.7407407 C29.151938,31.7407407 30.8449612,33.4048234 30.8449612,35.4651163 C30.7643411,37.5254091 29.151938,39.1894918 27.055814,39.1894918 Z M27.055814,33.3255814 C25.8465116,33.3255814 24.8790698,34.2764858 24.8790698,35.4651163 C24.8790698,36.6537468 25.8465116,37.6046512 27.055814,37.6046512 C28.2651163,37.6046512 29.2325581,36.6537468 29.2325581,35.4651163 C29.2325581,34.2764858 28.1844961,33.3255814 27.055814,33.3255814 Z M36.8377261,45.3703704 L32.7932817,45.3703704 C32.446615,45.3703704 32.2155039,45.0534022 32.2155039,44.57795 C32.2155039,44.1024978 32.446615,43.7855297 32.7932817,43.7855297 L36.8377261,43.7855297 C37.1843928,43.7855297 37.4155039,44.1024978 37.4155039,44.57795 C37.4155039,45.0534022 37.1843928,45.3703704 36.8377261,45.3703704 Z M38.4747631,47.7476314 L32.889578,47.7476314 C32.4851335,47.7476314 32.2155039,47.4306632 32.2155039,46.955211 C32.2155039,46.4797588 32.4851335,46.1627907 32.889578,46.1627907 L38.4747631,46.1627907 C38.8792076,46.1627907 39.1488372,46.4797588 39.1488372,46.955211 C39.1488372,47.4306632 38.8792076,47.7476314 38.4747631,47.7476314 Z M27.055814,49.5701981 C24.9596899,49.5701981 23.2666667,47.9061154 23.2666667,45.8458226 C23.2666667,43.7855297 24.9596899,42.121447 27.055814,42.121447 C29.151938,42.121447 30.8449612,43.7855297 30.8449612,45.8458226 C30.8449612,47.9061154 29.151938,49.5701981 27.055814,49.5701981 Z M27.055814,43.7062877 C25.8465116,43.7062877 24.8790698,44.6571921 24.8790698,45.8458226 C24.8790698,47.0344531 25.8465116,47.9853575 27.055814,47.9853575 C28.2651163,47.9853575 29.2325581,47.0344531 29.2325581,45.8458226 C29.2325581,44.6571921 28.1844961,43.7062877 27.055814,43.7062877 Z M51,13 C58.1763359,13.0079806 63.9918806,18.7241143 64,25.7777778 C64,32.8347496 58.1797017,38.5555556 51,38.5555556 C43.8202983,38.5555556 38,32.8347496 38,25.7777778 C38,18.720806 43.8202983,13 51,13 Z M51,36.8518519 C57.2194384,36.8448104 62.2595028,31.890901 62.2666667,25.7777778 C62.2666667,19.6617355 57.2224082,14.7037037 51,14.7037037 C44.7775918,14.7037037 39.7333333,19.6617355 39.7333333,25.7777778 C39.7333333,31.89382 44.7775918,36.8518519 51,36.8518519 Z M51,19.8148148 C48.737015,19.8144929 46.6619578,21.0522022 45.6174014,23.0253729 C44.5728451,24.9985437 44.7324466,27.3791375 46.0314,29.2005185 L44.6126667,30.1792963 C43.6899613,28.8910451 43.1964055,27.3532477 43.2,25.7777778 C43.1904593,23.5509265 44.170497,21.4309564 45.8833218,19.973346 C47.5961466,18.5157356 49.8710412,17.865765 52.1119333,18.1937407 L51.4186,17.2635185 L52.82,16.2608889 L54.9502667,19.1358889 C55.0916237,19.3265321 55.1462207,19.5662555 55.1010489,19.7979407 C55.0558772,20.0296258 54.9149817,20.2325259 54.7119333,20.3582963 L51.7869333,22.1684815 L50.8630667,20.7262963 L52.144,19.9340741 C51.7673447,19.8589596 51.3843058,19.8190288 51,19.8148148 Z M55.9322,22.2562222 L57.3474667,21.2774444 C59.1295366,23.7807524 59.2293069,27.0851204 57.6014073,29.6878973 C55.9735076,32.2906742 52.9287257,33.6949553 49.8516667,33.2621481 L50.545,34.1923704 L49.1436,35.1958519 L47.0133333,32.3208519 C46.8720554,32.1301014 46.8175953,31.890301 46.8629334,31.6586055 C46.9082714,31.4269101 47.0493462,31.2240749 47.2525333,31.0984444 L50.1775333,29.2882593 L51.1005333,30.7295926 L49.8204667,31.5226667 C50.1968299,31.5977781 50.579581,31.6377092 50.9636,31.6419259 C53.226585,31.6422478 55.3016422,30.4045386 56.3461986,28.4313678 C57.3907549,26.458197 57.2311534,24.0776033 55.9322,22.2562222 Z"/>
    </g>
</svg>
