<?xml version="1.0" encoding="UTF-8" ?>
<!DOCTYPE svg PUBLIC "-//W3C//DTD SVG 1.1//EN" "http://www.w3.org/Graphics/SVG/1.1/DTD/svg11.dtd">
<svg width="363pt" height="356pt" viewBox="0 0 363 356" version="1.1" xmlns="http://www.w3.org/2000/svg">
<g id="#000000ff">
<path fill="#000000" opacity="1.00" d=" M 1.74 1.75 C 71.76 1.75 141.78 1.73 211.80 1.76 C 211.79 11.22 211.70 20.67 211.84 30.13 C 198.51 30.33 185.16 30.18 171.82 30.20 C 171.77 37.79 171.72 45.39 171.84 52.98 C 162.42 53.39 152.97 53.04 143.54 53.16 C 143.43 45.52 143.49 37.88 143.50 30.24 C 105.72 30.21 67.95 30.21 30.17 30.23 C 30.19 62.32 30.22 94.40 30.15 126.48 C 67.93 126.54 105.71 126.50 143.49 126.51 C 143.47 118.83 143.49 111.15 143.47 103.47 C 152.91 103.47 162.35 103.47 171.79 103.47 C 171.84 110.98 171.66 118.50 171.86 126.02 C 172.36 131.68 172.13 137.37 171.78 143.03 C 171.81 159.97 171.73 176.91 171.82 193.85 C 162.41 194.10 152.93 194.06 143.49 193.81 C 143.50 180.90 143.43 168.00 143.53 155.10 C 139.35 154.72 135.16 154.95 130.98 154.89 C 97.39 154.93 63.79 154.82 30.20 154.95 C 30.15 212.13 30.23 269.31 30.16 326.49 C 67.94 326.49 105.72 326.52 143.49 326.48 C 143.46 299.12 143.51 271.76 143.46 244.40 C 152.91 244.36 162.35 244.39 171.79 244.39 C 171.77 271.74 171.77 299.09 171.79 326.45 C 225.71 326.56 279.63 326.47 333.55 326.49 C 333.52 227.74 333.52 128.99 333.55 30.23 C 319.20 30.23 304.86 30.16 290.51 30.28 C 290.32 20.76 290.43 11.23 290.46 1.71 C 314.28 1.81 338.11 1.69 361.93 1.77 C 361.87 119.48 361.92 237.19 361.91 354.90 C 241.86 354.92 121.81 354.88 1.76 354.92 C 1.73 237.20 1.76 119.48 1.74 1.75 Z" />
</g>
</svg>
