<svg xmlns="http://www.w3.org/2000/svg" width="24" height="24" viewBox="0 0 24 24">
    <path d="M17.2102273,19 L14.4261364,19 C13.4318182,19 12.6363636,18.2045455 12.6363636,17.2102273 L12.6363636,14.4261364 C12.6363636,13.4318182 13.4318182,12.6363636 14.4261364,12.6363636 L17.2102273,12.6363636 C18.2045455,12.6363636 19,13.4318182 19,14.4261364 L19,17.2102273 C19,18.2045455 18.2045455,19 17.2102273,19 Z M14.4261364,13.8295455 C14.1079545,13.8295455 13.8295455,14.1079545 13.8295455,14.4261364 L13.8295455,17.2102273 C13.8295455,17.5284091 14.1079545,17.8068182 14.4261364,17.8068182 L17.2102273,17.8068182 C17.5284091,17.8068182 17.8068182,17.5284091 17.8068182,17.2102273 L17.8068182,14.4261364 C17.8068182,14.1079545 17.5284091,13.8295455 17.2102273,13.8295455 L14.4261364,13.8295455 Z M9.57386364,11.3636364 L6.78977273,11.3636364 C5.79545455,11.3636364 5,10.5681818 5,9.57386364 L5,6.78977273 C5,5.79545455 5.79545455,5 6.78977273,5 L9.57386364,5 C10.5681818,5 11.3636364,5.79545455 11.3636364,6.78977273 L11.3636364,9.57386364 C11.3636364,10.5681818 10.5681818,11.3636364 9.57386364,11.3636364 Z M6.78977273,6.19318182 C6.47159091,6.19318182 6.19318182,6.47159091 6.19318182,6.78977273 L6.19318182,9.57386364 C6.19318182,9.89204545 6.47159091,10.1704545 6.78977273,10.1704545 L9.57386364,10.1704545 C9.89204545,10.1704545 10.1704545,9.89204545 10.1704545,9.57386364 L10.1704545,6.78977273 C10.1704545,6.47159091 9.89204545,6.19318182 9.57386364,6.19318182 L6.78977273,6.19318182 Z M9.57386364,19 L6.78977273,19 C5.79545455,19 5,18.2045455 5,17.2102273 L5,14.4261364 C5,13.4318182 5.79545455,12.6363636 6.78977273,12.6363636 L9.57386364,12.6363636 C10.5681818,12.6363636 11.3636364,13.4318182 11.3636364,14.4261364 L11.3636364,17.2102273 C11.3636364,18.2045455 10.5681818,19 9.57386364,19 Z M6.78977273,13.8295455 C6.47159091,13.8295455 6.19318182,14.1079545 6.19318182,14.4261364 L6.19318182,17.2102273 C6.19318182,17.5284091 6.47159091,17.8068182 6.78977273,17.8068182 L9.57386364,17.8068182 C9.89204545,17.8068182 10.1704545,17.5284091 10.1704545,17.2102273 L10.1704545,14.4261364 C10.1704545,14.1079545 9.89204545,13.8295455 9.57386364,13.8295455 L6.78977273,13.8295455 Z M17.2102273,11.3636364 L14.4261364,11.3636364 C13.4318182,11.3636364 12.6363636,10.5681818 12.6363636,9.57386364 L12.6363636,6.78977273 C12.6363636,5.79545455 13.4318182,5 14.4261364,5 L17.2102273,5 C18.2045455,5 19,5.79545455 19,6.78977273 L19,9.57386364 C19,10.5681818 18.2045455,11.3636364 17.2102273,11.3636364 Z M14.4261364,6.19318182 C14.1079545,6.19318182 13.8295455,6.47159091 13.8295455,6.78977273 L13.8295455,9.57386364 C13.8295455,9.89204545 14.1079545,10.1704545 14.4261364,10.1704545 L17.2102273,10.1704545 C17.5284091,10.1704545 17.8068182,9.89204545 17.8068182,9.57386364 L17.8068182,6.78977273 C17.8068182,6.47159091 17.5284091,6.19318182 17.2102273,6.19318182 L14.4261364,6.19318182 Z"/>
</svg>
