<svg xmlns="http://www.w3.org/2000/svg" width="24" height="24" viewBox="0 0 24 24">
    <path d="M12.9239437,18.9810219 C12.8338028,18.9810219 12.743662,18.9810219 12.6535211,18.9383212 C12.3830986,18.8529197 12.2478873,18.5967153 12.2478873,18.3405109 L12.2478873,15.009854 C10.2197183,15.009854 8.32676056,15.7784672 6.92957746,17.1021898 L5.12676056,18.810219 C4.94647887,18.9810219 4.63098592,19.0664234 4.4056338,18.9383212 C4.13521127,18.8529197 4,18.5967153 4,18.3405109 L4,17.9562044 C4,13.5153285 7.65070423,9.84306569 12.2478873,9.50145985 L12.2478873,6.64051095 C12.2478873,6.38430657 12.428169,6.17080292 12.6535211,6.04270073 C12.8788732,5.95729927 13.1943662,6 13.3746479,6.17080292 L19.7746479,11.8072993 C19.9098592,11.9354015 20,12.1062044 20,12.2770073 C20,12.4478102 19.9098592,12.6186131 19.8197183,12.7467153 L13.4197183,18.810219 C13.284507,18.9383212 13.1042254,18.9810219 12.9239437,18.9810219 Z M12.2929577,13.7288321 L12.9239437,13.7288321 C13.284507,13.7288321 13.6,14.0277372 13.6,14.3693431 L13.6,16.8032847 L18.3323944,12.319708 L13.6,8.1350365 L13.6,10.1419708 C13.6,10.4835766 13.284507,10.7824818 12.9239437,10.7824818 C9.18309859,10.7824818 6.11830986,13.3445255 5.44225352,16.6751825 L5.93802817,16.2054745 C7.65070423,14.6255474 9.90422535,13.7288321 12.2929577,13.7288321 Z"/>
</svg>
