<svg xmlns="http://www.w3.org/2000/svg" width="24" height="24" viewBox="0 0 24 24">
    <path d="M12,18.88 C15.7997191,18.88 18.88,15.7997191 18.88,12 C18.88,8.20028092 15.7997191,5.12 12,5.12 C8.20028092,5.12 5.12,8.20028092 5.12,12 C5.12,15.7997191 8.20028092,18.88 12,18.88 Z M12,20 C7.581722,20 4,16.418278 4,12 C4,7.581722 7.581722,4 12,4 C16.418278,4 20,7.581722 20,12 C20,16.418278 16.418278,20 12,20 Z M10.9851485,15.772993 C10.8256043,15.772993 10.6888522,15.748567 10.5521,15.6752889 C10.1874277,15.4798809 9.95950743,15.1134909 9.95950743,14.6738228 L9.95950743,8.88486028 C9.95950743,8.44519223 10.1874277,8.0788022 10.5521,7.88339418 C10.9167724,7.68798616 11.3270288,7.76126417 11.6461171,8.02995019 L14.9281684,10.9366445 C15.1560886,11.1564785 15.2928408,11.4495905 15.2928408,11.7915546 C15.2928408,12.1090926 15.1560886,12.4266306 14.9281684,12.6464646 L11.6461171,15.5287329 C11.4637809,15.6997149 11.2358607,15.772993 10.9851485,15.772993 Z M11.3143115,9.31230452 C11.2199997,9.31230452 11.2199997,9.33238284 11.2042811,9.33238284 C11.1728438,9.35246117 11.0628133,9.43277445 11.0628133,9.61347935 L11.0628133,14.0266248 C11.0628133,14.2073297 11.1728438,14.287643 11.2042811,14.3077213 C11.2357183,14.3277996 11.3457488,14.3880346 11.4557792,14.2675646 L13.9127103,11.9764943 C13.9913035,11.896181 13.9913035,11.7957894 13.9913035,11.7355544 C13.9913035,11.6753195 13.9755849,11.5749279 13.9127103,11.4946146 L11.4557792,9.37253949 C11.4086233,9.33238284 11.4086233,9.31230452 11.3143115,9.31230452 Z"/>
</svg>
