<svg height="24" viewBox="0 0 24 24" width="24" xmlns="http://www.w3.org/2000/svg"><path d="m12.5 20c-.121118 0-.242236-.0380952-.363354-.1142857-.2422361-.1904762-6.136646-4.4190476-6.136646-9.7904762 0-.15238096 0-.30476191 0-.45714286.24223602-3.88571429 3.55279503-5.63809524 6.5-5.63809524 2.947205 0 6.257764 1.75238095 6.5 5.63809524v.45714286c0 5.3714286-5.8944099 9.6380952-6.136646 9.7904762-.121118.0761905-.242236.1142857-.363354.1142857zm-5.28881988-10.32380952v.38095242c0 4.1142857 4.03726708 7.6190476 5.28881988 8.6095238 1.2515528-.9904762 5.2888199-4.5333334 5.2888199-8.6095238 0-.11428576 0-.26666671 0-.38095242-.2018634-3.16190477-2.7857143-4.57142858-5.2888199-4.57142858-2.50310559 0-5.08695652 1.40952381-5.28881988 4.57142858zm5.28881988 3.20000002c-1.6552795 0-2.94720497-1.2571429-2.94720497-2.8190476 0-1.5619048 1.33229817-2.81904766 2.94720497-2.81904766 1.6552795 0 2.9875776 1.25714286 2.9875776 2.81904766 0 1.5619047-1.3322981 2.8190476-2.9875776 2.8190476zm0-4.45714288c-.9689441 0-1.7360248.76190476-1.7360248 1.67619048 0 .9142857.8074534 1.6761905 1.7360248 1.6761905.9689441 0 1.7763975-.7619048 1.7763975-1.6761905 0-.91428572-.8074534-1.67619048-1.7763975-1.67619048z"/></svg>