<svg xmlns="http://www.w3.org/2000/svg" width="24" height="24" viewBox="0 0 24 24">
    <path d="M12,18.88 C15.7997191,18.88 18.88,15.7997191 18.88,12 C18.88,8.20028092 15.7997191,5.12 12,5.12 C8.20028092,5.12 5.12,8.20028092 5.12,12 C5.12,15.7997191 8.20028092,18.88 12,18.88 Z M12,20 C7.581722,20 4,16.418278 4,12 C4,7.581722 7.581722,4 12,4 C16.418278,4 20,7.581722 20,12 C20,16.418278 16.418278,20 12,20 Z M12.3374972,9.16638889 C12.097496,9.16638889 11.9063868,9.10638949 11.7641639,8.98638889 C11.621941,8.86638829 11.5508306,8.70416769 11.5508306,8.49972222 C11.5508306,8.22416529 11.6574962,7.98861209 11.8708306,7.79305556 C12.084165,7.59749902 12.3374958,7.49972222 12.6308306,7.49972222 C12.8886096,7.49972222 13.0752744,7.57749922 13.1908306,7.73305556 C13.3063867,7.88861189 13.3641639,8.04638809 13.3641639,8.20638889 C13.3641639,8.49083476 13.2641649,8.72194356 13.0641639,8.89972222 C12.8641629,9.07750089 12.6219431,9.16638889 12.3374972,9.16638889 Z M12.0174972,14.9530556 C11.9908304,15.0597228 11.9774972,15.139722 11.9774972,15.1930556 C11.9774972,15.273056 12.0174968,15.3130556 12.0974972,15.3130556 C12.1508308,15.3130556 12.2152746,15.2975002 12.2908306,15.2663889 C12.3663865,15.2352776 12.4397191,15.1997224 12.5108306,15.1597222 C12.581942,15.119722 12.648608,15.0841668 12.7108306,15.0530556 C12.7730531,15.0219443 12.8219415,15.0063889 12.8574972,15.0063889 C12.9286087,15.0063889 12.9841637,15.0441663 13.0241639,15.1197222 C13.0641641,15.1952782 13.0886083,15.2686108 13.0974972,15.3397222 C12.9552743,15.4375005 12.7886093,15.5441661 12.5974972,15.6597222 C12.4063852,15.7752784 12.2108316,15.881944 12.0108306,15.9797222 C11.8108296,16.0775005 11.615276,16.1597219 11.4241639,16.2263889 C11.2330518,16.2930559 11.0663868,16.3263889 10.9241639,16.3263889 C10.773052,16.3263889 10.6463866,16.2952781 10.5441639,16.2330556 C10.4419412,16.170833 10.3908306,16.0641674 10.3908306,15.9130556 C10.3908306,15.859722 10.395275,15.8086114 10.4041639,15.7597222 C10.4130528,15.7108331 10.4219416,15.6686113 10.4308306,15.6330556 L11.2841639,11.5663889 C11.3108307,11.4330549 11.2886087,11.3663889 11.2174972,11.3663889 C11.1908304,11.3663889 11.1508308,11.3774999 11.0974972,11.3997222 C11.0441636,11.4219446 10.9841642,11.4463888 10.9174972,11.4730556 C10.8508302,11.4997224 10.7841642,11.5241666 10.7174972,11.5463889 C10.6508302,11.5686112 10.5952752,11.5797222 10.5508306,11.5797222 C10.4708302,11.5797222 10.4108308,11.5397226 10.3708306,11.4597222 C10.3308304,11.3797218 10.3019418,11.304167 10.2841639,11.2330556 C10.4530536,11.1441662 10.6552738,11.041945 10.8908306,10.9263889 C11.1263873,10.8108328 11.3574961,10.7063894 11.5841639,10.6130556 C11.8108317,10.5197218 12.0174963,10.4397226 12.2041639,10.3730556 C12.3908315,10.3063886 12.5241635,10.2730556 12.6041639,10.2730556 C12.6752754,10.2730556 12.7419414,10.2908332 12.8041639,10.3263889 C12.8663864,10.3619446 12.8974972,10.4241662 12.8974972,10.5130556 C12.8974972,10.5397224 12.895275,10.5752776 12.8908306,10.6197222 C12.8863861,10.6641669 12.8797195,10.7086109 12.8708306,10.7530556 L12.0174972,14.9530556 Z"/>
</svg>
