<svg xmlns="http://www.w3.org/2000/svg" width="24" height="24" viewBox="0 0 24 24">
    <path fill="#0077B5" d="M5.455,4 L18.545,4 C19.3485743,4 20,4.65142569 20,5.455 L20,18.545 C20,19.3485743 19.3485743,20 18.545,20 L5.455,20 C4.65142569,20 4,19.3485743 4,18.545 L4,5.455 C4,4.65142569 4.65142569,4 5.455,4 Z M7.58422378,6.21818182 C6.81823776,6.21818182 6.19826573,6.83904895 6.19826573,7.60335664 C6.19826573,8.36822378 6.81823776,8.98931469 7.58422378,8.98931469 C8.3481958,8.98931469 8.96906294,8.36822378 8.96906294,7.60335664 C8.96906294,6.83904895 8.3481958,6.21818182 7.58422378,6.21818182 Z M6.38881119,17.7294545 L8.77862937,17.7294545 L8.77862937,10.0403916 L6.38881119,10.0403916 L6.38881119,17.7294545 Z M10.2773706,10.0403916 L10.2773706,17.7294545 L12.6653986,17.7294545 L12.6653986,13.9257063 C12.6653986,12.9227413 12.8558322,11.9513287 14.0994685,11.9513287 C15.3248671,11.9513287 15.3412028,13.0981818 15.3412028,13.9902657 L15.3412028,17.7294545 L17.7293427,17.7294545 L17.7293427,13.5118322 C17.7293427,11.4415664 17.2825734,9.84906294 14.8626573,9.84906294 C13.700028,9.84906294 12.9205035,10.4864895 12.6016224,11.0909091 L12.5698462,11.0909091 L12.5698462,10.0403916 L10.2773706,10.0403916 Z"/>
</svg>
