<svg xmlns="http://www.w3.org/2000/svg" width="24" height="24" viewBox="0 0 24 24">
    <path fill="#00E677" fill-rule="nonzero" d="M2.39047619,21.6255924 L3.75238095,16.6824645 C2.91428571,15.2369668 2.47142857,13.5924171 2.47142857,11.9146919 C2.47142857,6.65402844 6.77619048,2.37440758 12.0571429,2.37440758 C14.6238095,2.37440758 17.0285714,3.36966825 18.8380952,5.17061611 C20.647619,6.97156398 21.6428571,9.36966825 21.6428571,11.9194313 C21.6428571,17.1800948 17.3380952,21.4597156 12.0571429,21.4597156 C12.0571429,21.4597156 12.0571429,21.4597156 12.0571429,21.4597156 L12.052381,21.4597156 C10.447619,21.4597156 8.87142857,21.056872 7.47142857,20.2985782 L2.39047619,21.6255924 Z"/>
    <path fill="#FFFFFF" fill-rule="nonzero" d="M2.04285714,21.971564 L3.45238095,16.8530806 C2.58571429,15.3554502 2.12380952,13.6540284 2.12857143,11.9146919 C2.12857143,6.46445498 6.58571429,2.03317536 12.0619048,2.03317536 C14.7190476,2.03317536 17.2142857,3.06161137 19.0857143,4.92890995 C20.9619048,6.79620853 21.9952381,9.27962085 21.9904762,11.9194313 C21.9904762,17.3696682 17.5333333,21.8009479 12.0571429,21.8009479 C12.0571429,21.8009479 12.0571429,21.8009479 12.0571429,21.8009479 L12.052381,21.8009479 C10.3904762,21.8009479 8.75714286,21.3838863 7.3047619,20.5971564 L2.04285714,21.971564 Z M7.55238095,18.8104265 L7.85238095,18.9905213 C9.11904762,19.7393365 10.5714286,20.1327014 12.052381,20.1374408 L12.0571429,20.1374408 C16.6047619,20.1374408 20.3095238,16.4549763 20.3095238,11.9241706 C20.3095238,9.72985782 19.452381,7.66824645 17.8952381,6.11374408 C16.3380952,4.55924171 14.2619048,3.70616114 12.0571429,3.70616114 C7.5047619,3.70616114 3.8,7.38862559 3.8,11.9194313 C3.8,13.4691943 4.23333333,14.9810427 5.06190476,16.2890995 L5.25714286,16.6018957 L4.42857143,19.6255924 L7.55238095,18.8104265 Z"/>
    <path fill="#FFF" fill-rule="nonzero" d="M9.57619048,7.78199052 C9.39047619,7.36966825 9.1952381,7.36018957 9.01904762,7.35545024 C8.87619048,7.3507109 8.70952381,7.3507109 8.54285714,7.3507109 C8.37619048,7.3507109 8.10952381,7.41232227 7.88095238,7.65876777 C7.65238095,7.90521327 7.01428571,8.50236967 7.01428571,9.72037915 C7.01428571,10.9336493 7.9047619,12.1090047 8.02857143,12.2748815 C8.15238095,12.4407583 9.74761905,15.014218 12.2666667,16.0047393 C14.3619048,16.8293839 14.7904762,16.6635071 15.2428571,16.6208531 C15.6952381,16.5781991 16.7095238,16.0236967 16.9190476,15.4454976 C17.1238095,14.8672986 17.1238095,14.3744076 17.0619048,14.2701422 C17,14.1658768 16.8333333,14.1042654 16.5857143,13.9810427 C16.3380952,13.8578199 15.1190476,13.2606635 14.8904762,13.1753555 C14.6619048,13.0947867 14.4952381,13.0521327 14.3333333,13.2985782 C14.1666667,13.5450237 13.6904762,14.0995261 13.547619,14.2654028 C13.4047619,14.4312796 13.2571429,14.450237 13.0095238,14.3270142 C12.7619048,14.2037915 11.9619048,13.943128 11.0142857,13.0995261 C10.2761905,12.4454976 9.77619048,11.6350711 9.63333333,11.3886256 C9.49047619,11.1421801 9.61904762,11.0094787 9.74285714,10.8862559 C9.85238095,10.7772512 9.99047619,10.5971564 10.1142857,10.4549763 C10.2380952,10.3127962 10.2809524,10.2085308 10.3619048,10.042654 C10.4428571,9.87677725 10.4047619,9.73459716 10.3428571,9.61137441 C10.2809524,9.492891 9.8,8.27014218 9.57619048,7.78199052 Z"/>
</svg>
