<svg xmlns="http://www.w3.org/2000/svg" width="24" height="24" viewBox="0 0 24 24">
    <path fill="#30294E" d="M19.8686839,17.1048295 C19.8513418,17.192884 19.8106841,17.2771569 19.7482317,17.3489097 C19.7265534,17.3696652 19.7034161,17.389024 19.6791145,17.4067039 C19.3859028,17.7686258 18.9230502,18 18.4239486,18 L5.6106146,18 C5.10383699,18 4.65446385,17.7801562 4.36003124,17.4338529 C4.32079005,17.4095402 4.28393409,17.3808822 4.25054005,17.3489097 C4.15322457,17.2557366 4.10735848,17.1344153 4.10628042,17.013646 C4.03757939,16.8415288 4,16.6542338 4,16.4579439 L4,8.54205607 C4,7.68535826 4.71582871,7 5.6106146,7 L18.3881571,7 C18.8061409,7 19.1850738,7.14955404 19.4702303,7.39626593 C19.5069897,7.41885662 19.540453,7.44663719 19.5692745,7.47975078 C19.5839465,7.49660772 19.5974156,7.51438601 19.609662,7.5329157 C19.8525462,7.80265755 19.9987717,8.15485666 19.9987717,8.54205607 L19.9987717,16.4579439 C20.0084444,16.6894684 19.9606076,16.9084788 19.8686839,17.1048295 Z M18.522004,16.9543728 L14.0110135,12.8787227 L12.3751959,14.2647975 C12.2678216,14.3333333 12.1246559,14.4018692 12.0172816,14.4018692 C11.8741158,14.4018692 11.7667415,14.3676012 11.6593672,14.2647975 L10.0053696,12.8633182 L5.5024646,16.9605167 C5.53761987,16.9680019 5.57382175,16.9719626 5.6106146,16.9719626 L18.3881571,16.9719626 C18.433983,16.9719626 18.478892,16.9658184 18.522004,16.9543728 Z M18.9250287,15.9178623 L18.9250287,8.71493769 L14.8110039,12.2008681 L18.9250287,15.9178623 Z M5.07374307,15.9178623 L9.20508948,12.1852181 L5.07374307,8.68461059 L5.07374307,15.9178623 Z M5.90504177,8.02803738 L12.0172816,13.2024922 L18.1295214,8.02803738 L5.90504177,8.02803738 Z"/>
</svg>
