<svg xmlns="http://www.w3.org/2000/svg" width="24" height="24" viewBox="0 0 24 24">
    <path fill="#1DA1F2" d="M9.03168,19.3333333 C15.06944,19.3333333 18.37184,14.2032018 18.37184,9.75437482 C18.37184,9.60866228 18.37184,9.4636061 18.36224,9.31920629 C19.0046921,8.84262839 19.5592675,8.2525376 20,7.57656309 C19.4008826,7.84882354 18.7653307,8.02737185 18.11456,8.10624786 C18.7998362,7.68550753 19.312719,7.02375596 19.55776,6.24414663 C18.9133808,6.63629407 18.2084135,6.91266002 17.47328,7.0613183 C16.455733,5.95166762 14.8388604,5.68007671 13.5293115,6.39883816 C12.2197627,7.11759962 11.543216,8.64796095 11.87904,10.1317834 C9.23961327,9.99608011 6.7804645,8.7175338 5.1136,6.61433524 C4.24231856,8.15261643 4.68735225,10.120533 6.12992,11.1084512 C5.60751437,11.0925722 5.0964988,10.9480448 4.64,10.6870663 C4.64,10.70085 4.64,10.7152899 4.64,10.7297299 C4.64042761,12.3323007 5.74192095,13.7125937 7.2736,14.029922 C6.79031654,14.1650934 6.28325158,14.1848527 5.79136,14.0876819 C6.22140667,15.4591013 7.45380772,16.3985934 8.85824,16.4256462 C7.69583042,17.3625594 6.25987809,17.8711722 4.78144,17.8696443 C4.52025828,17.8691301 4.2593306,17.852912 4,17.8210735 C5.50120701,18.809081 7.24794458,19.3331475 9.03168,19.3307079"/>
</svg>
