<svg xmlns="http://www.w3.org/2000/svg" width="12" height="12" viewBox="0 0 12 12">
    <path fill="#FF492D" d="M4.7774999,2.27227997 C4.53020021,2.33579166 4.33665588,2.52747515 4.27248167,2.77349239 L4.25341677,2.87981177 C4.23212328,3.09309985 4.31079662,3.30671833 4.47051872,3.45648742 L7.049,6.003 L4.46583143,8.55579381 C4.33324383,8.68627292 4.25820417,8.86434202 4.2578714,9.05036278 C4.25754017,9.23638469 4.3319494,9.41473511 4.46441172,9.54600449 C4.59651698,9.67675636 4.77523758,9.74999996 4.961425,9.74999996 C5.14761464,9.74999996 5.32633336,9.67675612 5.45832622,9.5461125 L8.54261807,6.49911878 C8.67527517,6.36811211 8.74999184,6.18990141 8.74999184,6.00388 C8.74999184,5.81786652 8.6752737,5.63965643 8.5425867,5.50862024 L5.45815813,2.46148928 C5.31086593,2.30838925 5.09724776,2.23218823 4.88386495,2.25343842 L4.7774999,2.27227997 Z"/>
</svg>
