<svg xmlns="http://www.w3.org/2000/svg" width="20" height="20" viewBox="0 0 20 20">
    <g fill="#309250" fill-rule="evenodd">
        <path fill-rule="nonzero" d="M9.95918367,19.6326531 C4.6122449,19.6326531 0.244897959,15.2653061 0.244897959,9.91836735 C0.244897959,4.57142857 4.6122449,0.204081633 9.95918367,0.204081633 C15.3061224,0.204081633 19.6734694,4.57142857 19.6734694,9.91836735 C19.6734694,15.2653061 15.3469388,19.6326531 9.95918367,19.6326531 Z M9.95918367,1.3877551 C5.26530612,1.3877551 1.46938776,5.18367347 1.46938776,9.87755102 C1.46938776,14.5714286 5.26530612,18.3673469 9.95918367,18.3673469 C14.6530612,18.3673469 18.4489796,14.5714286 18.4489796,9.87755102 C18.4897959,5.18367347 14.6530612,1.3877551 9.95918367,1.3877551 Z" opacity=".3"/>
        <path d="M9.06122449,12.7755102 L9.06122449,12.7755102 C8.89795918,12.7755102 8.73469388,12.6938776 8.6122449,12.6122449 L6.6122449,10.6122449 C6.36734694,10.3673469 6.36734694,10 6.6122449,9.75510204 C6.85714286,9.51020408 7.2244898,9.51020408 7.46938776,9.75510204 L9.02040816,11.3061224 L12.6530612,7.75510204 C12.8979592,7.51020408 13.2653061,7.51020408 13.5102041,7.75510204 C13.755102,8 13.755102,8.36734694 13.5102041,8.6122449 L9.51020408,12.6122449 C9.3877551,12.7346939 9.2244898,12.7755102 9.06122449,12.7755102 Z"/>
    </g>
</svg>
