<svg xmlns="http://www.w3.org/2000/svg" width="20" height="20" viewBox="0 0 20 20">
    <g fill="#FF492D">
        <path d="M9.91666667,19.2171472 C4.45833333,19.2171472 -8.52651283e-14,14.9422309 -8.52651283e-14,9.66850232 C-8.52651283e-14,4.39477378 4.45833333,0.159809956 9.91666667,0.159809956 C15.375,0.159809956 19.8333333,4.43472627 19.8333333,9.66850232 C19.8333333,14.9022784 15.4166667,19.2171472 9.91666667,19.2171472 Z M9.91666667,1.35838462 C5.125,1.35838462 1.25,5.07396609 1.25,9.66850232 C1.25,14.2630385 5.125,17.97862 9.91666667,17.97862 C14.7083333,17.97862 18.5833333,14.2630385 18.5833333,9.66850232 C18.625,5.07396609 14.7083333,1.35838462 9.91666667,1.35838462 Z" opacity=".3"/>
        <path d="M9.91666667,10.5474571 L7.41666667,12.9446064 C7.33333333,13.0245114 7.16666667,13.0644639 7,13.0644639 C6.83333333,13.0644639 6.66666667,13.0245114 6.54166667,12.9046539 C6.29166667,12.664939 6.29166667,12.3053666 6.54166667,12.0656517 L9,9.70845481 L6.54166667,7.35125796 C6.29166667,7.11154303 6.29166667,6.75197063 6.54166667,6.5122557 C6.79166667,6.27254076 7.16666667,6.27254076 7.41666667,6.5122557 L9.875,8.86945254 L12.375,6.47230321 C12.625,6.23258827 13,6.23258827 13.25,6.47230321 C13.5,6.71201814 13.5,7.07159054 13.25,7.31130547 L10.7916667,9.66850232 L13.25,12.0256992 C13.5,12.2654141 13.5,12.6249865 13.25,12.8647014 C13.1666667,13.0245114 13,13.0644639 12.8333333,13.0644639 C12.6666667,13.0644639 12.5,13.0245114 12.375,12.9046539 L9.91666667,10.5474571 Z"/>
    </g>
</svg>
