<svg width="24" height="24" viewBox="0 0 24 24" fill="none" xmlns="http://www.w3.org/2000/svg">
<path fill-rule="evenodd" clip-rule="evenodd" d="M10.379 16.758C6.86152 16.758 4 13.8965 4 10.379C4 6.86152 6.86152 4 10.379 4C13.8965 4 16.758 6.86152 16.758 10.379C16.758 11.851 16.2569 13.2081 15.4163 14.2887L19.7665 18.6388C20.0778 18.9502 20.0778 19.4551 19.7665 19.7665C19.4551 20.0779 18.9502 20.0778 18.6388 19.7665L14.2887 15.4163C13.2081 16.2569 11.851 16.758 10.379 16.758ZM10.379 5.59474C7.74099 5.59474 5.59477 7.74096 5.59477 10.379C5.59477 13.017 7.74099 15.1633 10.379 15.1633C13.0171 15.1633 15.1633 13.017 15.1633 10.379C15.1633 7.74096 13.0171 5.59474 10.379 5.59474Z" fill="#C0C0D1"/>
</svg>
