<svg width="16" height="16" viewBox="0 0 16 16" fill="none" xmlns="http://www.w3.org/2000/svg">
<path fill-rule="evenodd" clip-rule="evenodd" d="M8.45754 9.38203C8.62298 9.47278 8.78196 9.55998 8.92927 9.64729C8.44407 10.0328 7.91936 10.333 7.43848 10.608C6.58973 11.0935 5.87751 11.5009 5.76007 12.162H1.25974C1.11617 12.162 1 12.0455 1 11.9021V10.734C1 10.1306 1.61651 9.79248 2.36519 9.38185C2.94592 9.06334 3.60617 8.70121 4.11992 8.13785V8.13769V7.80035C3.85712 7.49394 3.64956 7.14726 3.49681 6.75177C3.44569 6.61998 3.40085 6.483 3.36197 6.34004C3.20126 6.2577 3.07086 6.03806 3.04117 5.76883C3.03137 5.67914 3.03351 5.59266 3.04606 5.51262C3.06657 5.3793 3.11601 5.26467 3.18519 5.18553C3.17126 4.9307 3.17065 4.66116 3.18274 4.37724C3.19223 4.15623 3.20892 3.92679 3.23402 3.68711C3.24029 3.62787 3.24826 3.57078 3.25775 3.51568C3.49682 2.13741 4.75096 2.00119 5.22743 2.00011C5.24641 1.99996 5.57609 1.99996 5.59523 2.00011C6.07169 2.00134 7.32584 2.13741 7.56492 3.51568C7.57456 3.57094 7.58236 3.62787 7.58864 3.68711C7.61389 3.92679 7.63073 4.15638 7.63991 4.37724C7.6517 4.66116 7.65124 4.93054 7.63747 5.18553C7.70649 5.26467 7.75577 5.3793 7.77674 5.51262C7.78914 5.59266 7.79129 5.6793 7.78134 5.76883C7.75195 6.03806 7.62109 6.25754 7.46053 6.34004C7.44125 6.41137 7.42012 6.48131 7.39777 6.55004C7.24043 7.03048 7.00932 7.44297 6.70275 7.80035V8.13785C7.21653 8.7013 7.87679 9.06347 8.45754 9.38203ZM12.2843 8.88073L12.2863 9.38459C12.8402 9.99204 13.5535 10.3824 14.181 10.7259C14.9893 11.1682 15.6552 11.5327 15.655 12.1829V13.4423C15.655 13.5969 15.5297 13.7224 15.3751 13.7224H11.0506H11.0376H6.71317C6.55858 13.7224 6.43322 13.5969 6.43322 13.4423V12.1829C6.43313 11.5327 7.09911 11.1683 7.90738 10.7259C8.5349 10.3824 9.2482 9.99206 9.80215 9.38459L9.80414 8.88073C9.09181 8.97379 7.63947 8.45508 7.63947 8.45508C8.13185 7.95167 8.24312 7.36394 8.56637 5.05829C8.88678 2.77158 10.8601 2.77371 11.0401 2.77391L11.0442 2.77391L11.0484 2.77391C11.2285 2.77371 13.2016 2.77158 13.522 5.05829C13.8453 7.36409 13.9567 7.95167 14.449 8.45508C14.449 8.45508 12.9968 8.97379 12.2843 8.88073Z" fill="#30294E" fill-opacity="0.2"/>
</svg>
