<svg width="16" height="16" viewBox="0 0 16 16" fill="none" xmlns="http://www.w3.org/2000/svg">
<path d="M8.25284 9.99493C7.6451 9.63471 6.82008 9.27645 6.21626 8.61425V8.30554C6.49668 7.97864 6.70808 7.60135 6.852 7.16189C6.87244 7.09903 6.89176 7.03505 6.9094 6.96981C7.05626 6.89435 7.17596 6.69359 7.20284 6.44733C7.21194 6.36543 7.20998 6.28619 7.19864 6.21297C7.17946 6.09103 7.13438 5.98617 7.07124 5.91379C7.08384 5.68055 7.08426 5.43415 7.07348 5.17445C7.06508 4.97243 7.04968 4.76243 7.02658 4.54319C7.02084 4.48901 7.0137 4.43693 7.00488 4.38639C6.7862 3.12569 5.63904 3.00122 5.20322 3.0001C5.18572 2.99996 4.88416 2.99996 4.8668 3.0001C4.43098 3.00108 3.28382 3.12569 3.06515 4.38639C3.05647 4.43679 3.04918 4.48901 3.04344 4.54319C3.02048 4.76243 3.00522 4.97229 2.99654 5.17445C2.98548 5.43415 2.98604 5.68069 2.99878 5.91379C2.9355 5.98617 2.89028 6.09103 2.87152 6.21297C2.86004 6.28619 2.85808 6.36529 2.86704 6.44733C2.8942 6.69359 3.01348 6.89449 3.16048 6.96981C3.19604 7.10057 3.23706 7.22587 3.28382 7.34641C3.42354 7.70817 3.61338 8.02526 3.85376 8.30554V8.61411V8.61425C2.778 9.79389 1 10.0089 1 10.9889V12.0574C1 12.1886 1.10626 12.2951 1.23758 12.2951H5.354C5.52228 11.3477 7.02574 10.97 8.25284 9.99493Z" fill="#D6D4DC"/>
<path d="M11.3235 9.75476L11.3217 9.29388C11.9734 9.379 13.3017 8.90454 13.3017 8.90454C12.8514 8.44408 12.7495 7.90662 12.4538 5.79752C12.1583 3.68828 10.3254 3.70801 10.1874 3.70801C10.0495 3.70801 8.21645 3.68828 7.92091 5.79752C7.62523 7.90648 7.52345 8.44408 7.07307 8.90454C7.07307 8.90454 8.40153 9.379 9.05309 9.29388L9.05127 9.75476C7.89192 11.0261 5.96959 11.2579 5.96973 12.3144V13.4663C5.96973 13.6077 6.08439 13.7225 6.22579 13.7225H10.1813H10.1933H14.1488C14.2902 13.7225 14.4049 13.6077 14.4049 13.4663V12.3144C14.4051 11.2579 12.4828 11.0261 11.3235 9.75476Z" fill="#D6D4DC"/>
</svg>
