<?xml version="1.0" encoding="UTF-8"?>
<svg width="22px" height="22px" viewBox="0 0 22 22" version="1.1" xmlns="http://www.w3.org/2000/svg" xmlns:xlink="http://www.w3.org/1999/xlink">
    <!-- Generator: Sketch 51.3 (57544) - http://www.bohemiancoding.com/sketch -->
    <title>bath (2) copy 2</title>
    <desc>Created with Sketch.</desc>
    <defs></defs>
    <g id="Page-1" stroke="none" stroke-width="1" fill="none" fill-rule="evenodd">
        <g id="Summary-Single-Specs" transform="translate(-323.000000, -289.000000)" fill="#3C4044">
            <g id="bath-(2)" transform="translate(323.000000, 289.000000)">
                <g stroke-width="1" fill-rule="evenodd" id="Shape">
                    <path d="M21.981696,12.8014648 C21.981696,12.4387656 21.68056,12.1446875 21.309156,12.1446875 L19.963152,12.1446875 L19.963152,3.19 C19.963152,1.43103125 18.497732,0 16.696548,0 C14.895364,0 13.42,1.546875 13.42,2.87890625 L14.775068,3.73828125 C14.775068,2.70359375 15.637028,1.31355469 16.696548,1.31355469 C17.756068,1.31355469 18.618028,2.1553125 18.618028,3.19 L18.618028,12.1446445 L0.6908,12.1446445 C0.319396,12.1446445 0.01826,12.4387227 0.01826,12.8014219 C0.01826,15.7655781 1.938024,18.2997891 4.626996,19.2814531 C4.109732,19.8124609 3.789808,20.5406094 3.789808,21.3431797 C3.789808,21.7058789 4.090944,21.999957 4.462348,21.999957 C4.833752,21.999957 5.134888,21.7058789 5.134888,21.3431797 C5.134888,20.4463789 5.835588,19.7167695 6.696932,19.7167695 C6.728568,19.7167695 15.271432,19.7167695 15.303068,19.7167695 C16.164412,19.7167695 16.865156,20.4463789 16.865156,21.3431797 C16.865156,21.7058789 17.166292,21.999957 17.537696,21.999957 C17.9091,21.999957 18.210236,21.7058789 18.210236,21.3431797 C18.210236,20.5406523 17.890268,19.8125039 17.373048,19.2814531 C20.061976,18.299832 21.981696,15.7655781 21.981696,12.8014648 Z M14.90038,18.4032578 L7.09962,18.4032578 C4.164028,18.4032578 1.73646,16.2388359 1.402544,13.4582422 L20.597456,13.4582422 C20.26354,16.2388359 17.835884,18.4032578 14.90038,18.4032578 Z" fill-rule="nonzero"></path>
                </g>
                <path d="M14.872,2.33374031 L14.432,1.98999031 C14.3240989,1.87800947 13.7031282,1.96273692 13.5520315,1.98999031 L10.9976839,2.43942486 C10.8250335,2.46768256 10.6833061,2.59427157 10.62797,2.7666481 C10.5726338,2.93902463 10.6148177,3.12893097 10.7368387,3.25844162 L13.5520315,6.26772678 C13.6402263,6.36414077 13.763171,6.41577156 13.8879632,6.41577156 C13.9320826,6.41577156 13.9771257,6.40896962 14.0221687,6.39627877 C14.1891889,6.34565229 14.3158725,6.20249212 14.3496548,6.02523098 L14.8188683,3.59054947 C14.8497914,3.43081815 14.872,2.63452156 14.872,2.33374031 Z M13.602661,4.92473285 L12.0345986,3.24871805 L13.257316,3.04128189 L13.8475828,3.6538668 L13.602661,4.92473285 Z" id="Shape" fill-rule="nonzero"></path>
                <path d="M8.4856129,6.46099547 C8.30109677,6.26820984 8.001125,6.26820984 7.81660887,6.46099547 L6.8703871,7.44962429 C6.68587097,7.64240993 6.68587097,7.95582561 6.8703871,8.14861124 C6.96313306,8.24449429 7.08422177,8.29296875 7.20535484,8.29296875 C7.3264879,8.29296875 7.44757661,8.24454063 7.53939113,8.14861124 L8.4856129,7.15998242 C8.67012903,6.96715044 8.67012903,6.65378111 8.4856129,6.46099547 Z" id="Shape" fill-rule="nonzero"></path>
                <path d="M10.3776129,8.35162047 C10.1930968,8.15883484 9.893125,8.15883484 9.70860887,8.35162047 L8.7623871,9.34024929 C8.57787097,9.53303493 8.57787097,9.84645061 8.7623871,10.0392362 C8.85513306,10.1351193 8.97622177,10.1835938 9.09735484,10.1835938 C9.2184879,10.1835938 9.33957661,10.1351656 9.43139113,10.0392362 L10.3776129,9.05060742 C10.562129,8.85782179 10.562129,8.54440611 10.3776129,8.35162047 Z" id="Shape" fill-rule="nonzero"></path>
                <path d="M11.3016129,5.42974547 C11.1170968,5.23695984 10.817125,5.23695984 10.6326089,5.42974547 L9.6863871,6.41837429 C9.50187097,6.61115993 9.50187097,6.92457561 9.6863871,7.11736124 C9.77913306,7.21324429 9.90022177,7.26171875 10.0213548,7.26171875 C10.1424879,7.26171875 10.2635766,7.21329063 10.3553911,7.11736124 L11.3016129,6.12873242 C11.486129,5.93594679 11.486129,5.62253111 11.3016129,5.42974547 Z" id="Shape" fill-rule="nonzero"></path>
            </g>
        </g>
    </g>
</svg>