<svg xmlns="http://www.w3.org/2000/svg" width="20" height="20" viewBox="0 0 20 20">
    <g fill="none" fill-rule="evenodd">
        <path fill="#FFF" d="M1.5,8.00679 C1.5,7.01742 1.9878,6.09166 2.80387,5.53229 L8.44832,1.66334 C9.47107,0.9623 10.8197,0.96271 11.8421,1.66436 L17.4776,5.53216 C18.2928,6.09165 18.78,7.0169 18.78,8.00564 L18.78,15.5 C18.78,17.1569 17.4369,18.5 15.78,18.5 L4.5,18.5 C2.84314,18.5 1.5,17.1569 1.5,15.5 L1.5,8.00679 Z"/>
        <path fill="#5838E0" fill-opacity=".45" fill-rule="nonzero" d="M7.88294086,0.838514133 L2.23849236,4.7074531 C1.15040089,5.4532817 0.5,6.68762391 0.5,8.00679 L0.5,15.5 C0.5,17.7091424 2.29085763,19.5 4.5,19.5 L15.78,19.5 C17.9891424,19.5 19.78,17.7091424 19.78,15.5 L19.78,8.00564 C19.78,6.68732286 19.1304051,5.45366182 18.0434314,4.70766026 L12.4079362,0.839863563 C11.0448457,-0.0956699557 9.24660804,-0.096207201 7.88294086,0.838514133 Z M11.8420624,1.66435549 L17.4775638,5.53215644 C18.2928047,6.09166487 18.78,7.01690895 18.78,8.00564 L18.78,15.5 C18.78,17.1568576 17.4368576,18.5 15.78,18.5 L4.5,18.5 C2.84314237,18.5 1.5,17.1568576 1.5,15.5 L1.5,8.00679 C1.5,7.01741404 1.9878008,6.09165714 2.80386908,5.53228591 L8.44831764,1.6633469 C9.47106772,0.962306109 10.81975,0.962709045 11.8420624,1.66435549 Z"/>
        <path fill="#6C5CB4" d="M3.83737,6.37274 C3.27999,6.7435 2.94507,7.36854 2.94507,8.03798 L2.94507,15.0232 C2.94507,16.1277 3.8405,17.0232 4.94507,17.0232 L15.3347,17.0232 C16.4393,17.0232 17.3347,16.1277 17.3347,15.0232 L17.3347,8.03722 C17.3347,7.9673 17.3311,7.89788 17.3239,7.82917 L11.317,13.8858 C11.0986,14.106 10.8073,14.1795 10.5161,14.1795 C10.22487,14.1795 9.93364,14.0326 9.71521,13.8858 L6.14757,10.2886 C5.71072,9.8482 5.71072,9.18746 6.14757,8.74699 C6.58442,8.30652 7.2397,8.30652 7.67656,8.74699 L10.4433,11.5366 L15.9894,6.07025 L11.2525,2.91525 C10.5814,2.46827 9.70748,2.46801 9.03611,2.9146 L3.83737,6.37274 Z"/>
    </g>
</svg>
