<svg width="30" height="30" viewBox="0 0 30 30" fill="none" xmlns="http://www.w3.org/2000/svg">
<path fill-rule="evenodd" clip-rule="evenodd" d="M2.5 15C2.5 21.9036 8.09644 27.5 15 27.5C21.9036 27.5 27.5 21.9036 27.5 15C27.5 8.09644 21.9036 2.5 15 2.5C8.09644 2.5 2.5 8.09644 2.5 15ZM12.9846 10.4036C13.0087 10.3927 13.0501 10.3738 13.193 10.3738C13.3574 10.3738 13.3875 10.3987 13.4478 10.4486C13.4614 10.4599 13.4765 10.4723 13.4949 10.4861L18.7385 14.4426C18.8727 14.5923 18.9063 14.7795 18.9063 14.8918C18.9063 15.0041 18.9063 15.1913 18.7385 15.341L13.4949 19.6126C13.2601 19.8372 13.0253 19.7249 12.9582 19.6875C12.8911 19.65 12.6563 19.5003 12.6563 19.1634V10.9353C12.6563 10.5984 12.8911 10.4486 12.9582 10.4112C12.9679 10.4112 12.9748 10.4081 12.9846 10.4036Z" fill="#FF492D"/>
</svg>
