<svg xmlns="http://www.w3.org/2000/svg" width="60" height="60" viewBox="0 0 60 60">
    <g fill="none" fill-rule="evenodd">
        <path fill="#23212C" fill-rule="nonzero" d="M45.4,12 C45.7313708,12 46,12.2686292 46,12.6 L46,47.4 C46,47.7313708 45.7313708,48 45.4,48 L21.4,48 C21.0686292,48 20.8,47.7313708 20.8,47.4 L20.8,40.8 L19.18,40.8 C17.3676734,40.7978125 15.6674444,39.9224581 14.6128,38.4486 C13.7827872,37.2897632 12.4454197,36.6016488 11.02,36.6 L10,36.6 L10,35.4 L11.02,35.4 C12.8323266,35.4021875 14.5325556,36.2775419 15.5872,37.7514 C16.4172128,38.9102368 17.7545803,39.5983512 19.18,39.6 L20.8,39.6 L20.8,28.3302 C19.8949355,30.096728 18.0748754,31.2056895 16.09,31.2 L14.8,31.2 L14.8,30 L16.09,30 C17.6476131,30.00548 19.0727684,29.1246484 19.7644,27.729 L20.263,26.7318 C20.3903884,26.4768839 20.6795103,26.3467414 20.9548,26.4204 L27.7672,28.2372 C28.1092254,28.3300056 28.4749818,28.2566766 28.7548,28.0392 C29.0978356,27.774419 29.2610892,27.3380454 29.1760801,26.9131267 C29.0910709,26.4882081 28.7725001,26.1482282 28.354,26.0358 L20.7214,24 L18.343,24 C17.0371096,23.9992918 15.7986491,24.5798202 14.9638,25.584 C13.9008091,26.8631336 12.323168,27.6021374 10.66,27.6 L10,27.6 L10,26.4 L10.66,26.4 C11.9648407,26.3998164 13.2020219,25.8193724 14.0362,24.816 C15.0991909,23.5368664 16.676832,22.7978626 18.34,22.8 L20.8,22.8 L20.8,12.6 C20.8,12.2686292 21.0686292,12 21.4,12 L45.4,12 Z M44.8,46.8 L44.8,13.2 L22,13.2 L22,23.1 L28.6636,24.876 C29.6873937,25.1493363 30.3997232,26.0765462 30.4,27.1362 C30.3995131,27.8623812 30.0619084,28.5471832 29.486193,28.9897791 C28.9104776,29.432375 28.1619036,29.5826005 27.46,29.3964 L22,27.9408 L22,46.8 L44.8,46.8 Z M27.4,15 L39.4,15 L39.4,16.2 L27.4,16.2 L27.4,15 Z M27.4,22.2 L31,22.2 L31,23.4 L27.4,23.4 L27.4,22.2 Z M32.2,22.2 L38.8,22.2 L38.8,23.4 L32.2,23.4 L32.2,22.2 Z M31,25.2 L37,25.2 L37,26.4 L31,26.4 L31,25.2 Z M31,28.2 L41.8,28.2 L41.8,29.4 L31,29.4 L31,28.2 Z M25,31.2 L41.8,31.2 L41.8,32.4 L25,32.4 L25,31.2 Z M40,22.2 L41.8,22.2 L41.8,23.4 L40,23.4 L40,22.2 Z M38.2,25.2 L41.8,25.2 L41.8,26.4 L38.2,26.4 L38.2,25.2 Z M25,34.2 L37,34.2 L37,35.4 L25,35.4 L25,34.2 Z M25,37.2 L41.8,37.2 L41.8,38.4 L25,38.4 L25,37.2 Z M25,40.2 L28.6,40.2 L28.6,41.4 L25,41.4 L25,40.2 Z M29.8,40.2 L41.8,40.2 L41.8,41.4 L29.8,41.4 L29.8,40.2 Z M38.2,34.2 L41.8,34.2 L41.8,35.4 L38.2,35.4 L38.2,34.2 Z M25,19.2 L41.8,19.2 L41.8,20.4 L25,20.4 L25,19.2 Z"/>
    </g>
</svg>
