<svg xmlns="http://www.w3.org/2000/svg" width="60" height="60" viewBox="0 0 60 60">
    <g fill="none" fill-rule="evenodd">
        <path fill="#23212C" d="M13.5034062,25.5036778 C13.2729538,25.5143823 13.0518126,25.4117989 12.9111518,25.2289416 C12.7704909,25.0460844 12.7280626,24.8060309 12.7975214,24.5860368 C14.5747484,18.9646727 18.9912277,14.5693318 24.621093,12.8190556 C24.9933992,12.702102 25.3900237,12.9091031 25.5069785,13.2814055 C25.6239333,13.653708 25.4169301,14.0503284 25.0446239,14.167282 C19.8659465,15.7860862 15.8062806,19.8351664 14.1739969,25.0095634 C14.0818249,25.302657 13.8106517,25.5024668 13.5034062,25.5036778 Z M29.9999357,48 C24.768968,47.9958281 19.7981386,45.7180999 16.3794964,41.7588566 C12.9608542,37.7996132 11.4320501,32.5498996 12.1904604,27.3742537 C12.248563,26.9911996 12.6045585,26.7265684 12.9881103,26.7813165 C13.3711684,26.8394185 13.6358022,27.1954104 13.5810536,27.5789583 C13.4663068,28.3808744 13.4096884,29.1900372 13.4116412,30.0001187 C13.4116412,36.7093894 17.4532494,42.758022 23.6518703,45.3255487 C29.8504911,47.8930754 36.9854123,46.4738658 41.7296313,41.729695 C46.4738503,36.9855243 47.8930743,29.8506756 45.3255215,23.6521178 C42.7579687,17.45356 36.7092746,13.4119929 29.9999357,13.4119929 C29.1896852,13.4126476 28.3805328,13.4716231 27.5787506,13.5884623 C27.1889012,13.6449899 26.8270406,13.3747824 26.7705124,12.9849369 C26.7139843,12.5950914 26.9841946,12.2332345 27.374044,12.1767069 C28.2439501,12.0547315 29.1215311,11.9957549 29.9999357,12.0002375 C39.9410967,12.0002375 48,20.0590588 48,30.0001187 C48,39.9411787 39.9410967,48 29.9999357,48 Z M29.894053,43.3129721 C27.9759937,43.3129721 26.4210994,41.7580936 26.4210994,39.8400538 C26.4210994,37.922014 27.9759937,36.3671356 29.894053,36.3671356 C31.8121123,36.3671356 33.3670066,37.922014 33.3670066,39.8400538 C33.3670066,41.7580936 31.8121123,43.3129721 29.894053,43.3129721 Z M29.894053,37.7859497 C28.7556926,37.7859497 27.8328692,38.7087638 27.8328692,39.8471126 C27.8328692,40.9854614 28.7556926,41.9082755 29.894053,41.9082755 C31.0324134,41.9082755 31.9552368,40.9854614 31.9552368,39.8471126 C31.9571132,39.2992362 31.7407819,38.7731562 31.3540314,38.3850851 C30.9672809,37.9970141 30.4419382,37.7788877 29.894053,37.778891 L29.894053,37.7859497 Z M29.9928769,35.5906701 C29.8518537,35.5999885 29.7103692,35.5999885 29.569346,35.5906701 C27.9685291,35.3258319 26.8278965,33.8924312 26.9293365,32.2730449 C27.0634547,29.3436525 29.2940509,26.795434 31.1646458,25.1719153 C31.7996522,24.607505 32.035868,23.7182309 31.7646479,22.9131067 C31.5647241,22.1975282 30.950148,21.6751439 30.2117012,21.5931154 L29.8799353,21.5931154 C28.3611323,21.5969948 27.1308638,22.8272508 27.1269843,24.3460384 C27.1269843,26.0418663 25.7522302,27.4166064 24.0563851,27.4166064 C22.36054,27.4166064 20.9857859,26.0418663 20.9857859,24.3460384 C20.9839128,21.9822203 21.9216327,19.7145769 23.5924599,18.0424428 C25.2632871,16.3703086 27.5302101,15.4308024 29.894053,15.4308031 C34.002303,15.4308031 38.3646715,17.9931391 38.3646715,21.7837024 C38.3646715,24.0283934 37.9058463,25.0377985 37.1576083,25.9342632 C36.8893721,26.258967 36.5646651,26.6401409 36.2258403,26.9930798 C34.8140706,28.567187 33.0422995,30.5224682 33.0422995,32.5059846 C33.0423017,33.3215743 32.7178243,34.1036569 32.1404476,34.6797035 C31.563071,35.25575 30.7802374,35.5784275 29.9646415,35.5765525 L29.9928769,35.5906701 Z M29.8869942,20.1601837 C30.0515603,20.1505677 30.2165474,20.1505677 30.3811136,20.1601837 C31.6704719,20.3107368 32.7455049,21.216311 33.112888,22.461345 C33.5332083,23.7952571 33.1262235,25.2515279 32.0752373,26.1742616 C30.7269972,27.3530774 28.4540479,29.7036501 28.3411063,32.2801037 C28.2714041,33.1663278 28.8796223,33.9630856 29.752876,34.1295033 C30.2196746,34.2026515 30.6953862,34.0715107 31.058763,33.7695056 C31.4202285,33.454692 31.6285694,32.9994333 31.6305298,32.5201021 C31.6305298,29.99306 33.5999486,27.8118979 35.1599542,26.0613212 C35.4846612,25.7013236 35.7952505,25.3554435 36.0493691,25.0519161 C36.5293708,24.4730964 36.9317252,23.8236889 36.9317252,21.8048787 C36.9317252,18.882545 33.1975942,16.8637348 29.8728765,16.8637348 C25.7574396,16.87919 22.4239615,20.2094836 22.4046145,24.3248621 C22.4046145,25.240999 23.1472977,25.9836747 24.063444,25.9836747 C24.9795902,25.9836747 25.7222734,25.240999 25.7222734,24.3248621 C25.7261672,22.0236324 27.5927966,20.1601804 29.894053,20.1601837 L29.8869942,20.1601837 Z"/>
    </g>
</svg>
