<svg width="12" height="12" viewBox="0 0 12 12" fill="none" xmlns="http://www.w3.org/2000/svg">
<path fill-rule="evenodd" clip-rule="evenodd" d="M3.13157 4.14039C3.04733 4.2255 3 4.34099 3 4.46142C3 4.58186 3.04733 4.69735 3.13157 4.78246L6.17873 7.86692C6.26287 7.95212 6.37705 8 6.49612 8C6.61518 8 6.72936 7.95212 6.8135 7.86692L9.86066 4.78246C9.97874 4.66879 10.0266 4.49927 9.98558 4.33969C9.94459 4.1801 9.82125 4.05556 9.66341 4.01439C9.50556 3.97321 9.33806 4.02189 9.22588 4.14152L6.49612 6.90494L3.76635 4.14152C3.68235 4.05616 3.56826 4.00808 3.44919 4.00787C3.33013 4.00766 3.21586 4.05533 3.13157 4.14039Z" fill="#FF492D" stroke="#FF492D" stroke-width="0.5"/>
</svg>
