<svg width="10" height="6" viewBox="0 0 10 6" fill="none" xmlns="http://www.w3.org/2000/svg">
<path fill-rule="evenodd" clip-rule="evenodd" d="M0.187957 0.210581C0.0676175 0.338248 0 0.511487 0 0.692137C0 0.872787 0.0676175 1.04603 0.187957 1.17369L4.54104 5.80038C4.66124 5.92819 4.82436 6 4.99445 6C5.16454 6 5.32766 5.92819 5.44786 5.80038L9.80095 1.17369C9.96963 1.00318 10.0379 0.748909 9.9794 0.50953C9.92085 0.270151 9.74464 0.0833411 9.51915 0.0215807C9.29366 -0.0401797 9.05437 0.0328298 8.89412 0.212283L4.99445 4.35741L1.09478 0.212283C0.974789 0.0842471 0.811794 0.0121264 0.641702 0.011807C0.47161 0.011488 0.308376 0.0829968 0.187957 0.210581Z" fill="#E1E1F5"/>
</svg>
