<svg xmlns="http://www.w3.org/2000/svg" width="12" height="12" viewBox="0 0 12 12">
    <path fill="#C0C0D1" fill-rule="evenodd" d="M4.21632656,9.6591837 C4.06938778,9.6591837 3.922449,9.622449 3.81224492,9.5122449 C3.59183676,9.2918367 3.59183676,8.9612245 3.81224492,8.7408163 L6.7142857,5.83877551 L3.81224492,2.93673469 C3.59183676,2.71632653 3.59183676,2.38571429 3.81224492,2.16530612 C4.03265309,1.94489796 4.36326533,1.94489796 4.58367349,2.16530612 L7.8530612,5.43469388 C7.9632653,5.54489796 8,5.69183673 8,5.83877551 C8,5.98571429 7.9265306,6.1326531 7.8530612,6.2428571 L4.62040819,9.4755102 C4.51020411,9.5857143 4.36326533,9.6591837 4.21632656,9.6591837 Z" transform="matrix(-1 0 0 1 11.647 0)"/>
</svg>
