<svg xmlns="http://www.w3.org/2000/svg" xmlns:xlink="http://www.w3.org/1999/xlink" width="12" height="12" viewBox="0 0 12 12">
    <defs>
        <path id="breadcrumbs-a" d="M4.56938776,9.6591837 C4.42244898,9.6591837 4.2755102,9.622449 4.16530612,9.5122449 C3.94489796,9.2918367 3.94489796,8.9612245 4.16530612,8.7408163 L7.0673469,5.83877551 L4.16530612,2.93673469 C3.94489796,2.71632653 3.94489796,2.38571429 4.16530612,2.16530612 C4.38571429,1.94489796 4.71632653,1.94489796 4.93673469,2.16530612 L8.2061224,5.43469388 C8.3163265,5.54489796 8.3530612,5.69183673 8.3530612,5.83877551 C8.3530612,5.98571429 8.2795918,6.1326531 8.2061224,6.2428571 L4.97346939,9.4755102 C4.86326531,9.5857143 4.71632653,9.6591837 4.56938776,9.6591837 Z"/>
    </defs>
    <use fill="#C0C0D1" fill-rule="evenodd" transform="matrix(1 0 0 -1 0 11.66)" xlink:href="#breadcrumbs-a"/>
</svg>
