<svg xmlns="http://www.w3.org/2000/svg" width="24" height="24" viewBox="0 0 24 24">
    <g fill="none" fill-rule="evenodd">
        <path fill="#523AAA" d="M12,0 C10.6745166,0 9.6,1.0745166 9.6,2.4 C9.6,3.7254834 10.6745166,4.8 12,4.8 C13.3254834,4.8 14.4,3.7254834 14.4,2.4 C14.4,1.0745166 13.3254834,0 12,0 Z"/>
        <path fill="#6C58B6" d="M5.2464846,2.8125 C4.598012,2.80285276 3.97323918,3.05605904 3.51445314,3.51445314 C3.06411824,3.96457331 2.81110466,4.57519616 2.81110466,5.21191407 C2.81110466,5.84863198 3.06411824,6.45925483 3.51445314,6.909375 C3.96457331,7.3597099 4.57519616,7.61272348 5.21191407,7.61272348 C5.84863198,7.61272348 6.45925483,7.3597099 6.909375,6.909375 C7.3597099,6.45925483 7.61272348,5.84863198 7.61272348,5.21191407 C7.61272348,4.57519616 7.3597099,3.96457331 6.909375,3.51445314 C6.46753319,3.07300598 5.87100377,2.82119401 5.2464846,2.8125 Z"/>
        <path fill="#8676C3" d="M2.4,9.6 C1.0745166,9.6 0,10.6745166 0,12 C0,13.3254834 1.0745166,14.4 2.4,14.4 C3.7254834,14.4 4.8,13.3254834 4.8,12 C4.8,10.6745166 3.7254834,9.6 2.4,9.6 Z"/>
        <path fill="#9B8DCE" d="M5.2464846,16.3886718 C4.59801199,16.3790246 3.97323917,16.6322309 3.51445314,17.090625 C3.06411826,17.5407452 2.81110469,18.151368 2.81110469,18.7880859 C2.81110469,19.4248038 3.06411826,20.0354266 3.51445314,20.4855468 C3.96457331,20.9358817 4.57519616,21.1888953 5.21191407,21.1888953 C5.84863198,21.1888953 6.45925483,20.9358817 6.909375,20.4855468 C7.35970988,20.0354266 7.61272345,19.4248038 7.61272345,18.7880859 C7.61272345,18.151368 7.35970988,17.5407452 6.909375,17.090625 C6.4675332,16.6491778 5.87100377,16.3973658 5.2464846,16.3886718 Z"/>
        <path fill="#B1A7D9" d="M12,19.2 C10.6745166,19.2 9.6,20.2745166 9.6,21.6 C9.6,22.9254834 10.6745166,24 12,24 C13.3254834,24 14.4,22.9254834 14.4,21.6 C14.4,20.2745166 13.3254834,19.2 12,19.2 Z"/>
        <path fill="#C2BAE1" d="M18.8238282,16.3886718 C18.1749512,16.3787064 17.5496958,16.6319369 17.090625,17.090625 C16.6402901,17.5407452 16.3872766,18.151368 16.3872766,18.7880859 C16.3872766,19.4248038 16.6402901,20.0354266 17.090625,20.4855468 C17.5407452,20.9358817 18.151368,21.1888952 18.7880859,21.1888952 C19.4248038,21.1888952 20.0354266,20.9358817 20.4855468,20.4855468 C20.9358817,20.0354266 21.1888952,19.4248038 21.1888952,18.7880859 C21.1888952,18.151368 20.9358817,17.5407452 20.4855468,17.090625 C20.0439945,16.6494583 19.4479399,16.3976694 18.8238282,16.3886718 L18.8238282,16.3886718 Z"/>
        <path fill="#D9D5ED" d="M21.6,9.6 C20.2745166,9.6 19.2,10.6745166 19.2,12 C19.2,13.3254834 20.2745166,14.4 21.6,14.4 C22.9254834,14.4 24,13.3254834 24,12 C24,10.6745166 22.9254834,9.6 21.6,9.6 Z"/>
        <path fill="#EEECF6" d="M18.8238282,2.8125 C18.1749512,2.80253456 17.5496958,3.0557651 17.090625,3.51445314 C16.6402901,3.96457331 16.3872765,4.57519616 16.3872765,5.21191407 C16.3872765,5.84863198 16.6402901,6.45925483 17.090625,6.909375 C17.5407452,7.35970988 18.151368,7.61272345 18.7880859,7.61272345 C19.4248038,7.61272345 20.0354266,7.35970988 20.4855468,6.909375 C20.9358817,6.45925483 21.1888953,5.84863198 21.1888953,5.21191407 C21.1888953,4.57519616 20.9358817,3.96457331 20.4855468,3.51445314 C20.0439945,3.0732865 19.4479399,2.82149754 18.8238282,2.8125 Z"/>
    </g>
</svg>
