<svg xmlns="http://www.w3.org/2000/svg" width="16" height="16" viewBox="0 0 16 16">
    <path fill="#EAEAF2" fill-rule="evenodd" d="M6.47386602,11.7854432 C6.45820869,11.8005766 6.44185218,11.8151832 6.42480256,11.8292151 L6.4541134,11.8050922 C6.10064878,12.0959945 5.58831214,12.0484298 5.29565731,11.6811318 L3.1928961,9.04205023 C2.90656309,8.68268646 2.96452315,8.1526289 3.31444863,7.86463927 L3.28513778,7.88876217 C3.6386024,7.59785982 4.15093904,7.64542453 4.44359388,8.01272253 L5.99671689,9.96197781 L11.602358,4.2648316 C11.9297599,3.93208536 12.4591074,3.93058554 12.7908244,4.26771745 L12.737499,4.21352151 C13.066469,4.54786157 13.0698933,5.08645372 12.7403385,5.42138811 L6.52909269,11.7340247 C6.5112613,11.7521471 6.49283089,11.769287 6.47386602,11.7854432 Z"/>
</svg>
