<svg xmlns="http://www.w3.org/2000/svg" width="7" height="4" viewBox="0 0 7 4">
    <path fill="#30294E" fill-rule="evenodd" d="M5.35961275,-1.36842981 C5.27450118,-1.45266774 5.15900824,-1.5 5.0385753,-1.5 C4.91814236,-1.5 4.80264942,-1.45266774 4.71753785,-1.36842981 L1.63308268,1.67872721 C1.54787638,1.76287148 1.5,1.87705183 1.5,1.99611604 C1.5,2.11518025 1.54787638,2.2293606 1.63308268,2.31350486 L4.71753785,5.36066189 C4.83121189,5.47873877 5.000727,5.52656236 5.16031315,5.48557764 C5.3198993,5.44459291 5.44443926,5.32125044 5.48561287,5.16340577 C5.52678648,5.0055611 5.47811343,4.83805738 5.35847834,4.72588424 L2.59506061,1.99611604 L5.35847834,-0.733652163 C5.44383519,-0.817647508 5.49191574,-0.931744263 5.49212852,-1.05080853 C5.4923413,-1.1698728 5.44466885,-1.28413681 5.35961275,-1.36842981 Z" transform="rotate(-90 3.5 2)"/>
</svg>
