<svg xmlns="http://www.w3.org/2000/svg" width="5" height="8" viewBox="0 0 5 8">
    <path fill="#C0C0D1" fill-rule="evenodd" d="M9.56938776,13.6591837 C9.42244898,13.6591837 9.2755102,13.622449 9.16530612,13.5122449 C8.94489796,13.2918367 8.94489796,12.9612245 9.16530612,12.7408163 L12.0673469,9.83877551 L9.16530612,6.93673469 C8.94489796,6.71632653 8.94489796,6.38571429 9.16530612,6.16530612 C9.38571429,5.94489796 9.71632653,5.94489796 9.93673469,6.16530612 L13.2061224,9.43469388 C13.3163265,9.54489796 13.3530612,9.69183673 13.3530612,9.83877551 C13.3530612,9.98571429 13.2795918,10.1326531 13.2061224,10.2428571 L9.97346939,13.4755102 C9.86326531,13.5857143 9.71632653,13.6591837 9.56938776,13.6591837 Z" transform="matrix(-1 0 0 1 14 -6)"/>
</svg>
