<svg xmlns="http://www.w3.org/2000/svg" width="8" height="8" viewBox="0 0 8 8">
    <path fill="#30294E" fill-rule="evenodd" d="M4.67598531,4 L7.36066189,6.71753785 C7.47873877,6.83121189 7.52656236,7.000727 7.48557764,7.16031315 C7.44459291,7.3198993 7.32125044,7.44443926 7.16340577,7.48561287 C7.0055611,7.52678648 6.83805738,7.47811343 6.72588424,7.35847834 L3.99611604,4.59506061 L1.26634784,7.35847834 C1.18235249,7.44383519 1.06825574,7.49191574 0.949191469,7.49212852 C0.830127201,7.4923413 0.715863193,7.44466885 0.631570187,7.35961275 C0.547332258,7.27450118 0.5,7.15900824 0.5,7.0385753 C0.5,6.91814236 0.547332258,6.80264942 0.631570187,6.71753785 L3.31624677,4 L0.631570187,1.28246215 C0.547332258,1.19735058 0.5,1.08185764 0.5,0.9614247 C0.5,0.840991757 0.547332258,0.725498823 0.631570187,0.640387255 C0.715863193,0.555331148 0.830127201,0.507658702 0.949191469,0.507871481 C1.06825574,0.50808426 1.18235249,0.556164808 1.26634784,0.641521663 L3.99611604,3.40493939 L6.72588424,0.641521663 C6.83805738,0.521886573 7.0055611,0.473213524 7.16340577,0.514387132 C7.32125044,0.55556074 7.44459291,0.680100697 7.48557764,0.839686849 C7.52656236,0.999273002 7.47873877,1.16878811 7.36066189,1.28246215 L4.67598531,4 Z"/>
</svg>
