<svg xmlns="http://www.w3.org/2000/svg" width="8" height="8" viewBox="0 0 8 8">
    <path fill="#30294E" fill-rule="evenodd" d="M5.85961275,0.631570188 C5.77450118,0.547332258 5.65900824,0.499999998 5.5385753,0.499999998 C5.41814236,0.499999998 5.30264942,0.547332258 5.21753785,0.631570188 L2.13308268,3.67872721 C2.04787638,3.76287148 2,3.87705183 2,3.99611604 C2,4.11518025 2.04787638,4.2293606 2.13308268,4.31350486 L5.21753785,7.36066189 C5.33121189,7.47873877 5.500727,7.52656236 5.66031315,7.48557764 C5.8198993,7.44459291 5.94443926,7.32125044 5.98561287,7.16340577 C6.02678648,7.0055611 5.97811343,6.83805738 5.85847834,6.72588424 L3.09506061,3.99611604 L5.85847834,1.26634784 C5.94383519,1.18235249 5.99191574,1.06825574 5.99212852,0.949191468 C5.9923413,0.830127198 5.94466885,0.715863188 5.85961275,0.631570188 Z" transform="rotate(-90 4 4)"/>
</svg>
