<svg xmlns="http://www.w3.org/2000/svg" width="12" height="12" viewBox="0 0 12 12">
    <path fill="#FF492D" fill-rule="evenodd" stroke="#FF492D" stroke-width=".5" d="M7.35961275,2.63157019 C7.27450118,2.54733226 7.15900824,2.5 7.0385753,2.5 C6.91814236,2.5 6.80264942,2.54733226 6.71753785,2.63157019 L3.63308268,5.67872721 C3.54787638,5.76287148 3.5,5.87705183 3.5,5.99611604 C3.5,6.11518025 3.54787638,6.2293606 3.63308268,6.31350486 L6.71753785,9.36066189 C6.83121189,9.47873877 7.000727,9.52656236 7.16031315,9.48557764 C7.3198993,9.44459291 7.44443926,9.32125044 7.48561287,9.16340577 C7.52678648,9.0055611 7.47811343,8.83805738 7.35847834,8.72588424 L4.59506061,5.99611604 L7.35847834,3.26634784 C7.44383519,3.18235249 7.49191574,3.06825574 7.49212852,2.94919147 C7.4923413,2.8301272 7.44466885,2.71586319 7.35961275,2.63157019 Z"/>
</svg>
