<svg width="24" height="24" viewBox="0 0 24 24" fill="none" xmlns="http://www.w3.org/2000/svg">
<path fill-rule="evenodd" d="M21 12C21 16.9706 16.9706 21 12 21C7.02944 21 3 16.9706 3 12C3 7.02944 7.02944 3 12 3C16.9706 3 21 7.02944 21 12ZM8.26255 8.26255C8.61262 7.91248 9.18019 7.91248 9.53025 8.26255L12.0001 10.7324L14.4699 8.26256C14.8199 7.91249 15.3875 7.91249 15.7376 8.26256C16.0876 8.61262 16.0876 9.18019 15.7376 9.53026L13.2678 12.0001L15.7375 14.4698C16.0876 14.8199 16.0876 15.3874 15.7375 15.7375C15.3874 16.0876 14.8199 16.0876 14.4698 15.7375L12.0001 13.2678L9.53032 15.7375C9.18025 16.0876 8.61268 16.0876 8.26261 15.7375C7.91255 15.3874 7.91255 14.8199 8.26261 14.4698L10.7324 12.0001L8.26255 9.53025C7.91248 9.18019 7.91248 8.61262 8.26255 8.26255Z" fill="#837F95"/>
</svg>
