<svg xmlns="http://www.w3.org/2000/svg" xmlns:xlink="http://www.w3.org/1999/xlink" width="24" height="24" viewBox="0 0 24 24">
    <path fill="#30294E" d="M15.4163298,14.2886699 L19.766454,18.6387941 C20.0778487,18.9501888 20.0778487,19.4550593 19.766454,19.766454 C19.4550593,20.0778487 18.9501888,20.0778487 18.6387941,19.766454 L14.2886699,15.4163298 C13.2080733,16.2569111 11.850977,16.7580151 10.3790076,16.7580151 C6.86151647,16.7580151 4,13.8964986 4,10.3790076 C4,6.86151647 6.86151647,4 10.3790076,4 C13.8964986,4 16.7580151,6.86151647 16.7580151,10.3790076 C16.7580151,11.850977 16.2569111,13.2080733 15.4163298,14.2886699 Z M10.3790076,5.59475189 C7.74096898,5.59475189 5.59475189,7.74096898 5.59475189,10.3790076 C5.59475189,13.0170461 7.74096898,15.1632632 10.3790076,15.1632632 C13.0170461,15.1632632 15.1632632,13.0170461 15.1632632,10.3790076 C15.1632632,7.74096898 13.0170461,5.59475189 10.3790076,5.59475189 Z"/>
</svg>
