<svg width="8" height="14" viewBox="0 0 8 14" fill="none" xmlns="http://www.w3.org/2000/svg">
<path fill-rule="evenodd" clip-rule="evenodd" d="M7.71922 13.7369C7.549 13.9053 7.31801 14 7.07715 14C6.83628 14 6.6053 13.9053 6.43507 13.7369L0.266165 7.64255C0.0957527 7.47426 0 7.2459 0 7.00777C0 6.76964 0.0957527 6.54128 0.266165 6.37299L6.43507 0.278676C6.66242 0.0425223 7.00145 -0.0531246 7.32062 0.0288448C7.6398 0.110814 7.88888 0.357499 7.97122 0.673188C8.05357 0.988878 7.95622 1.32388 7.71695 1.54823L2.19012 7.00777L7.71695 12.4673C7.88767 12.6353 7.98383 12.8635 7.98426 13.1016C7.98468 13.3397 7.88934 13.5683 7.71922 13.7369Z" fill="#523EA7"/>
</svg>
