<svg width="8" height="14" viewBox="0 0 8 14" fill="none" xmlns="http://www.w3.org/2000/svg">
<path fill-rule="evenodd" clip-rule="evenodd" d="M0.280777 13.7369C0.451 13.9053 0.681985 14 0.922851 14C1.16372 14 1.3947 13.9053 1.56493 13.7369L7.73383 7.64255C7.90425 7.47426 8 7.2459 8 7.00777C8 6.76964 7.90425 6.54128 7.73383 6.37299L1.56493 0.278676C1.33758 0.0425224 0.998548 -0.0531244 0.679376 0.0288448C0.360203 0.110814 0.111124 0.357499 0.0287762 0.673188C-0.0535707 0.988877 0.0437751 1.32388 0.283045 1.54823L5.80988 7.00777L0.283045 12.4673C0.112331 12.6353 0.01617 12.8635 0.0157447 13.1016C0.0153193 13.3397 0.110664 13.5683 0.280777 13.7369Z" fill="#523EA7"/>
</svg>
