<svg width="24" height="24" viewBox="0 0 24 24" fill="none" xmlns="http://www.w3.org/2000/svg">
<path fill-rule="evenodd" clip-rule="evenodd" d="M6.42116 21.6241C6.6765 21.8648 7.02297 22 7.38427 22C7.74557 22 8.09205 21.8648 8.34739 21.6241L17.6008 12.9179C17.8564 12.6775 18 12.3513 18 12.0111C18 11.6709 17.8564 11.3447 17.6008 11.1043L8.34739 2.39811C8.00636 2.06075 7.49782 1.92411 7.01906 2.04121C6.5403 2.15831 6.16668 2.51071 6.04316 2.9617C5.91964 3.41268 6.06566 3.89126 6.42457 4.21176L14.7148 12.0111L6.42457 19.8104C6.16849 20.0504 6.02425 20.3764 6.02361 20.7166C6.02298 21.0568 6.16599 21.3832 6.42116 21.6241Z" fill="#F4F4FB"/>
</svg>
