<svg xmlns="http://www.w3.org/2000/svg" width="24" height="24" viewBox="0 0 24 24">
    <path fill="#F4F4FB" fill-rule="evenodd" d="M6.42116076,21.6240971 C6.67650076,21.8647971 7.02297076,22 7.38427076,22 C7.74557076,22 8.09205076,21.8647971 8.34739076,21.6240971 L17.6008008,12.9178971 C17.8564008,12.6774971 18,12.3512971 18,12.0110971 C18,11.6708971 17.8564008,11.3446971 17.6008008,11.1042971 L8.34739076,2.39810706 C8.00636076,2.06074706 7.49782076,1.92410706 7.01906076,2.04120706 C6.54030076,2.15830706 6.16668076,2.51070706 6.04316076,2.96169706 C5.91964076,3.41267706 6.06566076,3.89125706 6.42457076,4.21175706 L14.7148008,12.0110971 L6.42457076,19.8103971 C6.16849076,20.0503971 6.02425076,20.3763971 6.02361076,20.7165971 C6.02298076,21.0567971 6.16599076,21.3831971 6.42116076,21.6240971 Z" transform="rotate(-180 12 12)"/>
</svg>
