<svg xmlns="http://www.w3.org/2000/svg" width="16" height="16" viewBox="0 0 16 16">
    <g fill="none" fill-rule="evenodd">
        <rect width="16" height="16" fill="#D8D8D8" opacity="0"/>
        <path fill="#EEEEF5" fill-rule="nonzero" d="M13.6150415,13.7666667 C13.8036129,14.2333333 13.7521844,14.75 13.4436129,15.15 C13.1693272,15.5666667 12.6893272,15.8166667 12.1750415,15.8166667 L3.51789866,15.8166667 C3.00361294,15.8166667 2.5407558,15.5666667 2.24932723,15.15 C1.97504151,14.7333333 1.92361294,14.2166667 2.11218437,13.75 L3.22647008,11.1333333 C3.46647008,10.5833333 4.03218437,10.2166667 4.64932723,10.2166667 L4.85504151,10.2166667 C4.03218437,9.18333333 3.29504151,8.2 3.00361294,7.63333333 C2.36932723,6.43333333 2.26647008,4.96666667 2.71218437,3.63333333 C3.15789866,2.28333333 4.11789866,1.2 5.40361294,0.566666667 C6.17504151,0.183333333 6.9807558,8.8817842e-16 7.83789866,8.8817842e-16 C9.91218437,8.8817842e-16 11.7636129,1.11666667 12.6893272,2.9 C13.4950415,4.46666667 13.4950415,6.2 12.6721844,7.66666667 C12.3464701,8.23333333 11.5921844,9.23333333 10.8036129,10.2333333 L11.0778987,10.2333333 C11.7121844,10.2333333 12.2607558,10.5833333 12.5007558,11.15 L13.6150415,13.7666667 Z M5.9007558,1.5 C3.75789866,2.55 2.91789866,5.16666667 3.9807558,7.18333333 C4.47789866,8.11666667 6.51789866,10.5833333 7.42647008,11.6666667 C7.52932723,11.8 7.7007558,11.8666667 7.85504151,11.8666667 C8.00932723,11.8666667 8.16361294,11.8 8.28361294,11.6666667 C9.17504151,10.5833333 11.1978987,8.11666667 11.7293272,7.18333333 C12.3978987,6 12.3636129,4.61666667 11.7293272,3.38333333 C10.9750415,1.9 9.44932723,1.05 7.85504151,1.05 C7.18647008,1.05 6.53504151,1.2 5.9007558,1.5 Z M12.1921844,14.7833333 C12.5178987,14.7833333 12.7407558,14.4666667 12.6036129,14.1666667 L11.4893272,11.55 C11.4207558,11.4 11.2493272,11.2833333 11.0607558,11.2833333 L9.94647008,11.2833333 C9.63789866,11.6666667 9.34647008,12.0166667 9.10647008,12.3166667 C8.79789866,12.6833333 8.33504151,12.9 7.83789866,12.9 C7.3407558,12.9 6.87789866,12.6833333 6.56932723,12.3166667 C6.29504151,11.9833333 6.00361294,11.6333333 5.71218437,11.2833333 L4.64932723,11.2833333 C4.4607558,11.2833333 4.28932723,11.3833333 4.2207558,11.55 L3.10647008,14.1666667 C2.98647008,14.4666667 3.20932723,14.7833333 3.53504151,14.7833333 L12.1921844,14.7833333 Z M10.1178987,5.26666667 C10.1178987,6.48333333 9.10647008,7.46666667 7.85504151,7.46666667 C6.60361294,7.46666667 5.59218437,6.48333333 5.59218437,5.26666667 C5.59218437,4.05 6.60361294,3.06666667 7.85504151,3.06666667 C9.10647008,3.06666667 10.1178987,4.05 10.1178987,5.26666667 Z M6.67218437,5.26666667 C6.67218437,5.9 7.20361294,6.41666667 7.85504151,6.41666667 C8.50647008,6.41666667 9.03789866,5.9 9.03789866,5.26666667 C9.03789866,4.63333333 8.50647008,4.11666667 7.85504151,4.11666667 C7.20361294,4.11666667 6.67218437,4.63333333 6.67218437,5.26666667 Z"/>
    </g>
</svg>
