<svg width="44" height="44" viewBox="0 0 44 44" fill="none" xmlns="http://www.w3.org/2000/svg">
<path fill-rule="evenodd" clip-rule="evenodd" d="M22 44C34.1503 44 44 34.1503 44 22C44 9.84974 34.1503 0 22 0C9.84974 0 0 9.84974 0 22C0 34.1503 9.84974 44 22 44Z" fill="white"/>
<path d="M17.7954 32.098V25.8578H26.3417V32.098C26.3417 33.2917 28.06 34.585 28.9192 35.0824C30.5922 35.5346 34.1283 36.5203 34.888 36.8459C35.8376 37.2529 30.6827 42.0479 22.0007 42.0479C15.2179 42.0479 9.29431 38.2025 8.97778 36.8459C10.063 36.5746 12.7761 35.8421 14.9466 35.0824C17.1171 34.3227 17.7502 32.7762 17.7954 32.098Z" fill="url(#paint0_linear)"/>
<path d="M30.2757 19.7533C30.2757 12.3736 24.3973 10.3479 21.4581 10.2574C18.8806 10.5739 13.7257 12.9163 13.7257 19.7533C13.7257 28.2996 20.9154 30.9241 22.1363 30.9241C23.3572 30.9241 30.2757 28.9779 30.2757 19.7533Z" fill="#F3F2F7"/>
<path d="M30.1399 19.122C29.1632 18.6879 31.6969 17.6298 26.3416 14.2384C24.6685 14.8715 22.8146 16.7731 17.5951 16.3619C13.861 16.0677 14.1326 20.2073 14.2683 22.2421C13.8613 19.3933 11.7223 18.2826 12.9117 14.2384C14.2683 9.62614 18.2023 6.56773 23.4929 7.04868C27.9695 7.45564 30.3661 10.3496 30.8182 12.7462C31.3134 15.3707 31.1167 19.5561 30.1399 19.122Z" fill="#B1AEBD"/>
<path fill-rule="evenodd" clip-rule="evenodd" d="M22 42.7209C33.4439 42.7209 42.7209 33.4439 42.7209 22C42.7209 10.5561 33.4439 1.27907 22 1.27907C10.5561 1.27907 1.27907 10.5561 1.27907 22C1.27907 33.4439 10.5561 42.7209 22 42.7209ZM22 44C34.1503 44 44 34.1503 44 22C44 9.84974 34.1503 0 22 0C9.84974 0 0 9.84974 0 22C0 34.1503 9.84974 44 22 44Z" fill="#ECECF5"/>
<defs>
<linearGradient id="paint0_linear" x1="22.0503" y1="24" x2="22.0503" y2="42.5" gradientUnits="userSpaceOnUse">
<stop stop-color="#D6D5E6"/>
<stop offset="1" stop-color="white"/>
</linearGradient>
</defs>
</svg>
