<svg width="44" height="44" viewBox="0 0 44 44" fill="none" xmlns="http://www.w3.org/2000/svg">
<path fill-rule="evenodd" clip-rule="evenodd" d="M42.7209 22C42.7209 33.4439 33.4439 42.7209 22 42.7209C10.5561 42.7209 1.27907 33.4439 1.27907 22C1.27907 10.5561 10.5561 1.27907 22 1.27907C33.4439 1.27907 42.7209 10.5561 42.7209 22ZM44 22C44 34.1503 34.1503 44 22 44C9.84974 44 0 34.1503 0 22C0 9.84974 9.84974 0 22 0C34.1503 0 44 9.84974 44 22ZM13.9068 19.9589C14.0096 20.1856 14.1128 20.4133 14.2104 20.6478C14.3842 24.5413 16.1796 27.0524 18.0339 28.5726V31.6653C17.9913 32.3049 17.3944 33.763 15.3479 34.4793C13.3014 35.1956 10.7432 35.8863 9.71997 36.1421C10.0184 37.4211 15.6037 41.0469 21.999 41.0469C30.1851 41.0469 35.0456 36.5258 34.1502 36.1421C33.4339 35.8351 30.0998 34.9056 28.5223 34.4793C27.7122 34.0103 26.0921 32.7909 26.0921 31.6653V28.8069C27.9798 27.3015 29.8013 24.6217 29.8013 20.0258C29.8013 19.8332 29.7971 19.6446 29.7887 19.4597C30.6091 19.5013 30.7597 15.7865 30.3129 13.4189C29.8866 11.1592 27.6269 8.43053 23.406 8.04682C18.4177 7.59334 14.7083 10.4771 13.4292 14.8259C12.7014 17.3004 13.2953 18.6102 13.9068 19.9589L13.9068 19.9589Z" fill="#E8E5F3" fill-opacity="0.35"/>
</svg>
