<svg xmlns="http://www.w3.org/2000/svg" width="74" height="64" viewBox="0 0 74 64">
    <path fill="#868392" d="M24.7543681,18.371377 L24.7543681,22.281789 L16.0166623,22.281789 L16.0166623,18.371377 L24.7543681,18.371377 Z M23.1656235,20.7174709 L23.1656235,19.9349286 L17.6054068,19.9349286 L17.6054068,20.7174709 L23.1656235,20.7174709 Z M70.0285278,50.4364484 L74,50.4364484 L74,52 L50.9659286,52 L31.1085678,52 L18.4001683,52 L12.8399516,52 L0.130773681,52 L0.130773681,50.4364484 L3.30904118,50.4364484 L3.30904118,44.8965704 C2.56643349,44.7869685 1.81448483,44.5194785 1.21354862,43.9308473 C0.373639089,43.1099827 1.70530257e-13,41.583987 1.70530257e-13,39.2041695 C1.70530257e-13,35.524458 1.23767948,26.652069 4.30152001,26.652069 C7.36691737,26.652069 8.60459685,35.6470895 8.60459685,39.326801 C8.60459685,44.0450479 6.96369852,44.8651461 4.89700731,44.952521 L4.89700731,50.4364484 L12.8399516,50.4364484 L12.8399516,33.2749365 L9.54025141,35.0868169 L8.76572871,33.7210085 L17.6054068,28.8671005 L17.6054068,23.0635648 L23.1656235,23.0635648 L23.1656235,25.8135762 L31.9025509,21.0163852 L55.0393731,33.7210085 L54.2656288,35.0868169 L50.9659286,33.2749365 L50.9659286,50.4364484 L58.9096513,50.4364484 L58.9096513,44.8965704 C58.1662652,44.7869685 57.4150949,44.5194785 56.8141587,43.9308473 C55.9742492,43.1099827 55.6006101,41.583987 55.6006101,39.2041695 C55.6006101,35.524458 56.8375112,26.652069 59.9021301,26.652069 C62.9675275,26.652069 64.205207,35.6470895 64.205207,39.326801 C64.205207,44.0450479 62.5643086,44.8651461 60.4976174,44.952521 L60.4976174,50.4364484 L68.4405617,50.4364484 L68.4405617,44.8965704 C67.697954,44.7869685 66.9460054,44.5194785 66.3450692,43.9308473 C65.5051596,43.1099827 65.1315205,41.583987 65.1315205,39.2041695 C65.1315205,35.524458 66.3692,26.652069 69.433819,26.652069 C72.4984379,26.652069 73.7368958,35.6470895 73.7368958,39.326801 C73.7368958,44.0450479 72.0959975,44.8651461 70.0285278,44.952521 L70.0285278,50.4364484 Z M3.30826277,43.3107918 L3.30826277,40.2687642 L4.89700731,40.2687642 L4.89700731,43.3882029 C6.2670173,43.3276536 7.01585231,42.8355947 7.01585231,39.3030411 C7.01585231,33.6527948 5.14843528,28.2662061 4.3007416,28.2662061 C3.45304791,28.2662061 1.58796613,33.505637 1.58796613,39.1558833 C1.58796613,41.0083854 1.83861568,42.3634635 2.33213065,42.846325 C2.561763,43.0708939 2.88558355,43.2234169 3.30826277,43.3107918 Z M19.1941514,24.6278828 L19.1941514,27.9956504 L21.5776574,26.6873256 L21.5776574,24.6278828 L19.1941514,24.6278828 Z M29.5198233,50.4364484 L29.5198233,42.8164336 C29.5198233,40.2258431 27.3822963,38.1188807 24.7543681,38.1188807 C22.1264398,38.1188807 19.9881344,40.2258431 19.9881344,42.8164336 L19.9881344,50.4364484 L29.5198233,50.4364484 Z M49.377184,50.4364484 L49.3764056,50.4364484 L49.3764056,32.4027199 L31.9025509,22.8068051 L21.576879,28.4777455 L21.576879,28.476979 L16.1007311,31.4845166 L14.4286962,32.4027199 L14.4286962,50.4364484 L18.4001683,50.4364484 L18.4001683,42.8164336 C18.4001683,39.3635904 21.2507232,36.5545626 24.7543681,36.5545626 C28.2580129,36.5545626 31.1085678,39.3635904 31.1085678,42.8164336 L31.1085678,50.4364484 L49.377184,50.4364484 Z M58.9088729,43.3107918 L58.9080945,43.3107918 L58.9080945,40.2687642 L60.496839,40.2687642 L60.496839,43.3882029 C61.866849,43.3276536 62.615684,42.8355947 62.615684,39.3030411 C62.615684,33.6527948 60.7490454,28.2662061 59.9013517,28.2662061 C59.053658,28.2662061 57.1885762,33.505637 57.1885762,39.1558833 C57.1885762,41.0083854 57.4384474,42.3634635 57.9319623,42.846325 C58.1615947,43.0708939 58.4861937,43.2234169 58.9088729,43.3107918 Z M68.4397833,43.3107918 L68.4390049,43.3107918 L68.4390049,40.2687642 L70.0277494,40.2687642 L70.0277494,43.3882029 C71.3977594,43.3276536 72.1473729,42.8355947 72.1473729,39.3030411 C72.1473729,33.6527948 70.2807342,28.2662061 69.4330406,28.2662061 C68.5845685,28.2662061 66.7194867,33.505637 66.7194867,39.1558833 C66.7194867,41.0083854 66.9701362,42.3634635 67.4636512,42.846325 C67.6932835,43.0708939 68.0171041,43.2234169 68.4397833,43.3107918 Z M45.4057119,40.2687642 L45.4057119,45.7434942 L33.4912954,45.7434942 L33.4912954,40.2687642 L33.4912954,36.3583522 L45.4057119,36.3583522 L45.4057119,40.2687642 Z M43.8169673,44.1791761 L43.8169673,40.2687642 L35.08004,40.2687642 L35.08004,44.1791761 L43.8169673,44.1791761 Z M43.8169673,38.7044461 L43.8169673,37.9219038 L35.08004,37.9219038 L35.08004,38.7044461 L43.8169673,38.7044461 Z M53.4693391,28.487312 L55.0370073,29.3373304 L54.2705969,30.707673 L52.7029287,29.8576546 L53.4693391,28.487312 Z M32.2874217,17 L51.9790798,27.6749643 L51.2128283,29.0453069 L31.5211702,18.3703426 L32.2874217,17 Z" opacity=".2"/>
</svg>
