<svg xmlns="http://www.w3.org/2000/svg" width="93" height="30" viewBox="0 0 93 30">
    <g fill="none" fill-rule="evenodd" transform="translate(0 -1)">
        <path fill="#FF492D" d="M15.6383704,29.09375 L15.6383704,20.0797981 C15.6383704,18.5625166 14.4083707,17.3325169 12.8910891,17.3325169 C11.3738076,17.3325169 10.1438078,18.5625166 10.1438078,20.0797981 L10.1438078,29.09375 L4.29025035,29.09375 C1.92081051,29.09375 2.39465803e-15,27.1729395 0,24.8034996 L1.77635684e-15,13.6784174 C1.59913265e-15,12.231272 0.729556232,10.8816451 1.94030832,10.0889856 L10.5478966,4.45373892 C11.9759537,3.51881338 13.8223795,3.51935537 15.2498875,4.45511911 L23.8439767,10.0887387 C25.0535162,10.8816192 25.7821782,12.2305382 25.7821782,13.6767903 L25.7821782,24.8034996 C25.7821782,27.1729395 23.8613677,29.09375 21.4919279,29.09375 L15.6383704,29.09375 Z M12.8910891,14.3767708 C14.4083707,14.3767708 15.6383704,13.147962 15.6383704,11.6321494 C15.6383704,10.1163369 14.4083707,8.88752809 12.8910891,8.88752809 C11.3738076,8.88752809 10.1438078,10.1163369 10.1438078,11.6321494 C10.1438078,13.147962 11.3738076,14.3767708 12.8910891,14.3767708 Z"/>
        <path fill="#FF492D" stroke="#FF492D" stroke-width=".3" d="M38.6270838,4.32038306 C38.1775049,4.32038306 37.8309596,4.18532393 37.5874377,3.91520161 C37.3439157,3.64507929 37.2221566,3.31357051 37.2221566,2.92066532 C37.2221566,2.60142986 37.3189395,2.34972874 37.5125082,2.16555444 C37.7060769,1.98138013 37.9527173,1.88929435 38.2524366,1.88929435 C38.7020156,1.88929435 39.0485608,2.02435349 39.2920828,2.29447581 C39.5356047,2.56459812 39.6573639,2.89610691 39.6573639,3.2890121 C39.6573639,3.60824756 39.5605809,3.85994868 39.3670122,4.04412298 C39.1734435,4.22829729 38.9268032,4.32038306 38.6270838,4.32038306 Z M37.4094802,7.70917339 C37.4094802,7.08298074 37.3220634,6.61948235 37.1472271,6.31866431 C36.9723908,6.01784628 36.6227235,5.86743952 36.0982147,5.86743952 L35.9108911,5.86743952 L35.9108911,5.31491935 L38.1587748,5.31491935 C38.6083537,5.31491935 38.951777,5.38858797 39.1890548,5.53592742 C39.4263326,5.68326687 39.5949221,5.9257594 39.6948286,6.2634123 C39.794735,6.6010652 39.8446875,7.08298074 39.8446875,7.70917339 L39.8446875,13.9710685 L37.4094802,13.9710685 L37.4094802,7.70917339 Z M44.5723793,4.85448589 L44.5723793,13.9710685 L43.6357611,13.9710685 L43.6357611,4.02570565 C43.6357611,3.51001758 43.5077579,3.10484018 43.2517477,2.81016129 C42.9957374,2.5154824 42.5617753,2.36814516 41.9498484,2.36814516 L41.8561866,2.36814516 L41.8561866,1.815625 L43.167452,1.815625 C43.8667971,1.815625 44.4381285,1.90464125 44.8814633,2.08267641 C45.3247982,2.26071158 45.6963197,2.54003842 45.996039,2.92066532 L52.4399722,10.2876008 L52.4399722,1.815625 L53.3765903,1.815625 L53.3765903,14.0263206 L52.5149016,14.0263206 L44.5723793,4.85448589 Z M59.6706646,14.1552419 C58.8089716,14.1552419 58.0534404,13.9587923 57.4040486,13.5658871 C56.7546567,13.1729819 56.25201,12.6358149 55.8960933,11.95437 C55.5401766,11.272925 55.3622209,10.5024741 55.3622209,9.64299395 C55.3622209,8.68528755 55.5401766,7.8687937 55.8960933,7.1934879 C56.25201,6.51818211 56.7421686,6.00557131 57.3665838,5.65564012 C57.9909991,5.30570894 58.6965777,5.13074597 59.483341,5.13074597 C60.2576159,5.13074597 60.9569505,5.28422226 61.5813657,5.59117944 C62.205781,5.89813662 62.6990616,6.33093975 63.0612225,6.88960181 C63.4233833,7.44826388 63.604461,8.08979477 63.604461,8.81421371 C63.604461,9.04750117 63.5919729,9.31148038 63.5669963,9.60615927 L63.5295316,9.97450605 L57.89109,9.97450605 C57.89109,11.1409433 58.0721677,11.991202 58.4343286,12.5253075 C58.7964894,13.059413 59.3022582,13.3264617 59.9516501,13.3264617 C60.5510887,13.3264617 61.0537354,13.1944721 61.4596054,12.9304889 C61.8654753,12.6665057 62.2557289,12.2889541 62.6303781,11.7978226 L63.2110814,12.2214214 C62.8489205,12.7739443 62.3962263,13.2343732 61.852985,13.6027218 C61.3097437,13.9710704 60.5823109,14.1552419 59.6706646,14.1552419 Z M61.0755919,9.14572581 C61.0755919,7.99156681 60.9382226,7.17200343 60.6634799,6.68701109 C60.3887372,6.20201874 59.9953615,5.95952621 59.483341,5.95952621 C59.0087854,5.95952621 58.6247758,6.2081578 58.3313006,6.70542843 C58.0378254,7.20269906 57.89109,8.01612338 57.89109,9.14572581 L61.0755919,9.14572581 Z M65.5900916,7.43291331 C65.2903723,6.74532922 65.0093896,6.26034415 64.7471352,5.97794355 C64.4848808,5.69554294 64.185166,5.54206666 63.8479817,5.51751008 L63.8479817,5.16758065 L64.7471352,5.13074597 C65.5713633,5.13074597 66.2425997,5.29650036 66.7608643,5.62801411 C67.279129,5.95952787 67.7443114,6.56115492 68.1564254,7.43291331 L69.7486764,10.950625 L71.0037447,8.00385081 L70.7414916,7.43291331 C70.4417723,6.7698858 70.1607897,6.29103978 69.8985353,5.99636089 C69.6362809,5.70168199 69.3677863,5.54206666 69.0930436,5.51751008 L69.0930436,5.16758065 L69.8048735,5.13074597 C70.6540782,5.13074597 71.3659009,5.29956988 71.9403629,5.63722278 C72.514825,5.97487568 73.0018616,6.5734332 73.4014873,7.43291331 L75.1248648,11.1347984 L77.4102132,5.31491935 L78.4030285,5.31491935 L74.9562735,14.1552419 L74.0945848,14.1552419 L71.6593775,8.97996976 L69.4864233,14.1552419 L68.6434669,14.1552419 L65.5900916,7.43291331 Z"/>
        <path fill="#55488D" stroke="#55488D" stroke-width=".3" d="M37.709198,20.0546371 C37.709198,19.4284444 37.6217812,18.9649461 37.4469449,18.664128 C37.2721087,18.36331 36.9224414,18.2129032 36.3979325,18.2129032 L36.2106089,18.2129032 L36.2106089,17.6603831 L38.4584926,17.6603831 C38.9080716,17.6603831 39.2514948,17.7340517 39.4887726,17.8813911 C39.7260504,18.0287306 39.89464,18.2712231 39.9945464,18.608876 C40.0944529,18.9465289 40.1444053,19.4284444 40.1444053,20.0546371 L40.1444053,23.093498 L45.2021436,23.093498 L45.2021436,17.6603831 L47.6373509,17.6603831 L47.6373509,27.4215726 C47.6373509,28.0477652 47.7247677,28.5112636 47.899604,28.8120817 C48.0744402,29.1128997 48.4241075,29.2633065 48.9486163,29.2633065 L49.13594,29.2633065 L49.13594,29.8158266 L46.8880563,29.8158266 C46.4384773,29.8158266 46.0950541,29.7452275 45.8577763,29.6040272 C45.6204985,29.4628269 45.4519089,29.2234039 45.3520025,28.885751 C45.252096,28.5480981 45.2021436,28.0600435 45.2021436,27.4215726 L45.2021436,23.9222782 L40.1444053,23.9222782 L40.1444053,29.8158266 L37.709198,29.8158266 L37.709198,20.0546371 Z M54.4184666,30 C53.5068203,30 52.7107028,29.8004808 52.0300902,29.4014365 C51.3494776,29.0023922 50.8280987,28.4621556 50.4659378,27.7807107 C50.103777,27.0992657 49.9226993,26.3349538 49.9226993,25.487752 C49.9226993,24.6405502 50.103777,23.8762383 50.4659378,23.1947933 C50.8280987,22.5133484 51.3494776,21.9731119 52.0300902,21.5740675 C52.7107028,21.1750232 53.5068203,20.975504 54.4184666,20.975504 C55.3301129,20.975504 56.1262304,21.1750232 56.806843,21.5740675 C57.4874556,21.9731119 58.0088345,22.5133484 58.3709954,23.1947933 C58.7331562,23.8762383 58.9142339,24.6405502 58.9142339,25.487752 C58.9142339,26.3349538 58.7331562,27.0992657 58.3709954,27.7807107 C58.0088345,28.4621556 57.4874556,29.0023922 56.806843,29.4014365 C56.1262304,29.8004808 55.3301129,30 54.4184666,30 Z M54.4184666,29.1712198 C55.0553701,29.1712198 55.5424067,28.8335719 55.879591,28.1582661 C56.2167752,27.4829603 56.3853648,26.5927979 56.3853648,25.487752 C56.3853648,24.3827062 56.2167752,23.4925437 55.879591,22.8172379 C55.5424067,22.1419321 55.0553701,21.8042843 54.4184666,21.8042843 C53.781563,21.8042843 53.2945264,22.1419321 52.9573422,22.8172379 C52.620158,23.4925437 52.4515684,24.3827062 52.4515684,25.487752 C52.4515684,26.5927979 52.620158,27.4829603 52.9573422,28.1582661 C53.2945264,28.8335719 53.781563,29.1712198 54.4184666,29.1712198 Z M61.0871881,23.5539315 C61.0871881,22.9277388 61.0028933,22.4642404 60.8343012,22.1634224 C60.6657091,21.8626043 60.3191638,21.7121976 59.794655,21.7121976 L59.6073314,21.7121976 L59.6073314,21.1596774 L61.4618354,21.1596774 C62.2735752,21.1596774 62.8043202,21.3929614 63.0540863,21.8595363 L63.1290158,21.8595363 C63.8158726,21.2701785 64.602624,20.975504 65.4892936,20.975504 C66.1012206,20.975504 66.6350876,21.0890765 67.0909107,21.3162248 C67.5467339,21.5433731 67.874547,21.7797266 68.0743598,22.0252923 C68.3740792,21.7060569 68.7299905,21.4512862 69.1421046,21.2609728 C69.5542186,21.0706593 70.0849636,20.975504 70.7343555,20.975504 C72.9198089,20.975504 74.0125192,22.1050895 74.0125192,24.3642944 L74.0125192,29.8158266 L71.5773119,29.8158266 L71.5773119,24.345877 C71.5773119,23.4986752 71.4399426,22.878631 71.1651999,22.4857258 C70.8904572,22.0928206 70.5283018,21.896371 70.0787228,21.896371 C69.7415385,21.896371 69.4293356,21.960831 69.1421046,22.089753 C68.8548736,22.218675 68.6300874,22.387499 68.4677395,22.5962298 C68.4927161,22.645343 68.5426686,22.7804021 68.6175984,23.0014113 C68.7175048,23.3697599 68.7674573,23.8240497 68.7674573,24.3642944 L68.7674573,29.8158266 L66.33225,29.8158266 L66.33225,24.345877 C66.33225,23.4986752 66.1948807,22.878631 65.920138,22.4857258 C65.6453953,22.0928206 65.2832399,21.896371 64.8336609,21.896371 C64.5714065,21.896371 64.2997899,21.9731091 64.0188031,22.1265877 C63.7378162,22.2800663 63.5286402,22.4488902 63.3912689,22.6330645 L63.447466,22.8909073 C63.4974192,23.0382467 63.5223954,23.2776697 63.5223954,23.6091835 L63.5223954,29.8158266 L61.0871881,29.8158266 L61.0871881,23.5539315 Z M80.0630727,30 C79.2013797,30 78.4458485,29.8035504 77.7964567,29.4106452 C77.1470648,29.01774 76.6444181,28.480573 76.2885014,27.799128 C75.9325847,27.1176831 75.754629,26.3472321 75.754629,25.487752 C75.754629,24.5300456 75.9325847,23.7135518 76.2885014,23.038246 C76.6444181,22.3629402 77.1345767,21.8503294 77.758992,21.5003982 C78.3834072,21.150467 79.0889859,20.975504 79.8757491,20.975504 C80.650024,20.975504 81.3493586,21.1289803 81.9737738,21.4359375 C82.5981891,21.7428947 83.0914697,22.1756978 83.4536306,22.7343599 C83.8157914,23.2930219 83.9968691,23.9345528 83.9968691,24.6589718 C83.9968691,24.8922592 83.984381,25.1562384 83.9594044,25.4509173 L83.9219397,25.8192641 L78.2834981,25.8192641 C78.2834981,26.9857014 78.4645759,27.83596 78.8267367,28.3700655 C79.1888975,28.904171 79.6946663,29.1712198 80.3440582,29.1712198 C80.9434968,29.1712198 81.4461435,29.0392302 81.8520135,28.775247 C82.2578834,28.5112638 82.6481371,28.1337121 83.0227862,27.6425806 L83.6034895,28.0661794 C83.2413286,28.6187024 82.7886344,29.0791312 82.2453931,29.4474798 C81.7021518,29.8158285 80.974719,30 80.0630727,30 Z M81.468,24.9904839 C81.468,23.8363249 81.3306307,23.0167615 81.055888,22.5317692 C80.7811453,22.0467768 80.3877696,21.8042843 79.8757491,21.8042843 C79.4011935,21.8042843 79.0171839,22.0529159 78.7237087,22.5501865 C78.4302335,23.0474571 78.2834981,23.8608814 78.2834981,24.9904839 L81.468,24.9904839 Z M88.8860161,30 C87.4248844,30 86.4195909,29.7482989 85.8701055,29.2448891 C85.6702926,29.0607148 85.5454115,28.7998051 85.4954582,28.4621522 C85.445505,28.1244993 85.4205288,27.6548619 85.4205288,27.0532258 L86.0761615,27.0532258 C86.1885563,27.6916967 86.4445627,28.2043075 86.8441884,28.5910736 C87.2438142,28.9778396 87.7995354,29.1712198 88.5113688,29.1712198 C89.7601993,29.1712198 90.3846052,28.7537643 90.3846052,27.9188407 C90.3846052,27.5996053 90.2503579,27.335626 89.9818594,27.1268952 C89.7133608,26.9181643 89.2856428,26.6848803 88.6986925,26.4270363 L87.7246095,26.0218548 C86.925358,25.6780628 86.3259284,25.3035807 85.9263026,24.8983972 C85.5266768,24.4932137 85.326867,24.0020896 85.326867,23.4250101 C85.326867,22.651478 85.65468,22.0498509 86.3103161,21.6201109 C86.9659521,21.1903708 87.8245102,20.975504 88.8860161,20.975504 C90.3471478,20.975504 91.3524413,21.2272051 91.9019267,21.7306149 C92.1017396,21.9147892 92.2266207,22.1726294 92.2765739,22.5041431 C92.3265272,22.8356569 92.3515034,23.3083639 92.3515034,23.9222782 L91.6958707,23.9222782 C91.5834759,23.2838073 91.3274695,22.7711965 90.9278437,22.3844304 C90.528218,21.9976644 89.9724968,21.8042843 89.2606634,21.8042843 C88.7236663,21.8042843 88.3240465,21.9178567 88.0617921,22.145005 C87.7995377,22.3721534 87.6684124,22.6760364 87.6684124,23.0566633 C87.6684124,23.3636205 87.7776835,23.6183911 87.9962288,23.8209829 C88.2147741,24.0235746 88.5488313,24.2230938 88.9984103,24.4195464 L90.1223521,24.8799798 C91.0464867,25.2606067 91.7114789,25.6442975 92.1173489,26.0310635 C92.5232188,26.4178296 92.7261507,26.9243013 92.7261507,27.550494 C92.7261507,28.3363043 92.3733614,28.9410009 91.6677721,29.3646018 C90.9621829,29.7882027 90.0349402,30 88.8860161,30 Z"/>
    </g>
</svg>
