<svg xmlns="http://www.w3.org/2000/svg" width="64" height="64" viewBox="0 0 64 64">
    <path fill="#868392" d="M40.6990151,16.604 C37.9590151,16.604 35.7290151,14.144 35.7290151,11.121 C35.7290151,6.869 39.8580151,4.357 43.0700151,6.289 C45.4260151,1.931 51.1990151,1.883 53.5840151,6.286 C56.7350151,4.384 60.9260151,6.797 60.9260151,11.121 C60.9260151,14.144 58.6960151,16.604 55.9560151,16.604 L40.6990151,16.604 Z M42.7330151,8.58 C40.7890151,6.432 37.7290151,8.182 37.7290151,11.121 C37.7290151,13.041 39.0610151,14.604 40.6990151,14.604 L55.9550151,14.604 C57.5930151,14.604 58.9250151,13.042 58.9250151,11.121 C58.9250151,8.054 55.7810151,6.503 53.9250151,8.576 C53.6840151,8.845 53.3170151,8.965 52.9630151,8.885 C52.6110151,8.807 52.3270151,8.544 52.2230151,8.198 C50.9350151,3.935 45.7130151,3.958 44.4310151,8.198 C44.3270151,8.544 44.0460151,8.806 43.6940151,8.885 C43.3410151,8.965 42.9740151,8.848 42.7330151,8.58 Z M26.4400151,31.218 C23.3250151,31.218 20.7900151,28.684 20.7900151,25.568 C20.7900151,22.453 23.3250151,19.918 26.4400151,19.918 C29.5550151,19.918 32.0890151,22.453 32.0890151,25.568 C32.0890151,28.683 29.5550151,31.218 26.4400151,31.218 Z M26.4400151,21.918 C24.4270151,21.918 22.7900151,23.556 22.7900151,25.568 C22.7900151,27.58 24.4280151,29.218 26.4400151,29.218 C28.4520151,29.218 30.0890151,27.581 30.0890151,25.568 C30.0890151,23.555 28.4530151,21.918 26.4400151,21.918 Z M32.5430151,20.879 C32.1520151,21.27 31.5190151,21.27 31.1290151,20.879 C30.7380151,20.488 30.7380151,19.856 31.1290151,19.465 L32.7420151,17.852 C33.1330151,17.461 33.7650151,17.461 34.1560151,17.852 C34.5470151,18.243 34.5470151,18.875 34.1560151,19.266 L32.5430151,20.879 Z M20.1370151,33.285 C19.7470151,33.675 19.1140151,33.675 18.7230151,33.285 C18.3320151,32.894 18.3320151,32.262 18.7230151,31.871 L20.3360151,30.258 C20.7270151,29.867 21.3590151,29.867 21.7500151,30.258 C22.1410151,30.649 22.1410151,31.281 21.7500151,31.672 L20.1370151,33.285 Z M37.3520151,25.568 C37.3520151,26.12 36.9050151,26.568 36.3520151,26.568 L34.0710151,26.568 C33.5180151,26.568 33.0710151,26.12 33.0710151,25.568 C33.0710151,25.016 33.5180151,24.568 34.0710151,24.568 L36.3520151,24.568 C36.9050151,24.568 37.3520151,25.016 37.3520151,25.568 Z M19.8080151,25.568 C19.8080151,26.12 19.3610151,26.568 18.8080151,26.568 L16.5270151,26.568 C15.9740151,26.568 15.5270151,26.12 15.5270151,25.568 C15.5270151,25.016 15.9740151,24.568 16.5270151,24.568 L18.8080151,24.568 C19.3610151,24.568 19.8080151,25.016 19.8080151,25.568 Z M31.1290151,30.257 C31.5190151,29.867 32.1520151,29.867 32.5430151,30.257 L34.1560151,31.87 C34.5470151,32.261 34.5470151,32.893 34.1560151,33.284 C33.7650151,33.675 33.1330151,33.675 32.7420151,33.284 L31.1290151,31.671 C30.7380151,31.28 30.7380151,30.648 31.1290151,30.257 Z M20.1370151,17.852 L21.7500151,19.465 C22.1410151,19.856 22.1410151,20.488 21.7500151,20.879 C21.3590151,21.27 20.7270151,21.27 20.3360151,20.879 L18.7230151,19.266 C18.3320151,18.875 18.3320151,18.243 18.7230151,17.852 C19.1140151,17.461 19.7460151,17.461 20.1370151,17.852 Z M25.4400151,33.2 C25.4400151,32.647 25.8870151,32.2 26.4400151,32.2 C26.9930151,32.2 27.4400151,32.648 27.4400151,33.2 L27.4400151,35.481 C27.4400151,36.033 26.9930151,36.481 26.4400151,36.481 C25.8870151,36.481 25.4400151,36.033 25.4400151,35.481 L25.4400151,33.2 Z M26.4400151,18.937 C25.8870151,18.937 25.4400151,18.489 25.4400151,17.937 L25.4400151,15.656 C25.4400151,15.104 25.8870151,14.656 26.4400151,14.656 C26.9930151,14.656 27.4400151,15.104 27.4400151,15.656 L27.4400151,17.937 C27.4400151,18.489 26.9930151,18.937 26.4400151,18.937 Z M63.8920151,54.821 C64.1410151,55.314 63.9430151,55.916 63.4510151,56.164 C46.6610151,64.641 42.9110151,62.992 24.9580151,55.153 C24.5160151,55.012 17.4740151,51.525 11.0690151,52.028 L11.0690151,55.927 C11.0690151,56.479 10.6220151,56.927 10.0690151,56.927 C9.51601511,56.927 9.06901511,56.479 9.06901511,55.927 L9.06901511,52.326 C4.48101511,53.366 2.01301511,56.869 2.00001511,58.781 C1.99701511,59.331 1.54901511,59.775 1.00001511,59.775 C0.998015113,59.775 0.996015113,59.775 0.994015113,59.775 C0.441015113,59.772 -0.00298488653,59.321 1.51134682e-05,58.769 C0.0190151135,55.797 3.40201511,51.392 9.06801511,50.293 L9.06801511,48.836 C6.68301511,48.357 4.87601511,46.206 4.87601511,43.627 C4.87601511,41.091 6.83801511,35.325 10.0680151,35.325 C13.2980151,35.325 15.2600151,41.091 15.2600151,43.627 C15.2600151,46.206 13.4540151,48.357 11.0680151,48.836 L11.0680151,50.033 C13.7380151,49.849 17.0650151,50.225 21.1780151,51.564 C28.4840151,42.978 42.2990151,45.583 47.9100151,46.077 L47.9100151,40.076 C45.5250151,39.597 43.7180151,37.446 43.7180151,34.867 C43.7180151,32.331 45.6800151,26.565 48.9100151,26.565 C52.1400151,26.565 54.1020151,32.331 54.1020151,34.867 C54.1020151,37.446 52.2960151,39.597 49.9100151,40.076 L49.9100151,46.24 C58.2760151,46.868 60.0510151,46.202 61.4210151,44.793 C61.8050151,44.397 62.4390151,44.388 62.8350151,44.772 C63.2310151,45.157 63.2400151,45.79 62.8550151,46.186 C56.2110151,53.023 34.0180151,41.344 23.2290151,52.286 C24.8290151,52.895 25.5940151,53.252 25.7570151,53.32 C43.8340151,61.213 46.6120151,62.424 62.5480151,54.379 C63.0410151,54.129 63.6430151,54.327 63.8920151,54.821 Z M45.7180151,34.867 C45.7180151,36.693 47.1500151,38.18 48.9100151,38.18 C50.6700151,38.18 52.1020151,36.694 52.1020151,34.867 C52.1020151,32.529 50.2880151,28.565 48.9100151,28.565 C47.5320151,28.565 45.7180151,32.529 45.7180151,34.867 Z M6.87701511,43.628 C6.87701511,45.454 8.30901511,46.94 10.0690151,46.94 C11.8290151,46.94 13.2610151,45.454 13.2610151,43.628 C13.2610151,41.29 11.4470151,37.326 10.0690151,37.326 C8.69101511,37.326 6.87701511,41.29 6.87701511,43.628 Z M3.46701511,19.289 C2.91501511,19.289 2.46701511,18.841 2.46701511,18.289 C2.46701511,17.737 2.91401511,17.289 3.46701511,17.289 C4.80201511,17.289 5.99801511,17.96 6.79201511,19.011 C7.58601511,17.959 8.78201511,17.289 10.1170151,17.289 C10.6700151,17.289 11.1170151,17.737 11.1170151,18.289 C11.1170151,18.841 10.6700151,19.289 10.1170151,19.289 C8.83501511,19.289 7.79201511,20.53 7.79201511,22.056 C7.79201511,22.608 7.34501511,23.056 6.79201511,23.056 C6.23901511,23.056 5.79201511,22.608 5.79201511,22.056 C5.79201511,20.53 4.74901511,19.289 3.46701511,19.289 Z M15.3420151,5 C14.7900151,5 14.3420151,4.552 14.3420151,4 C14.3420151,3.448 14.7890151,3 15.3420151,3 C16.6770151,3 17.8730151,3.671 18.6670151,4.722 C19.4610151,3.67 20.6570151,3 21.9920151,3 C22.5450151,3 22.9920151,3.448 22.9920151,4 C22.9920151,4.552 22.5450151,5 21.9920151,5 C20.7100151,5 19.6670151,6.241 19.6670151,7.767 C19.6670151,8.319 19.2200151,8.767 18.6670151,8.767 C18.1140151,8.767 17.6670151,8.319 17.6670151,7.767 C17.6670151,6.241 16.6240151,5 15.3420151,5 Z" opacity=".2"/>
</svg>
