<svg width="366" height="204" viewBox="0 0 366 204" fill="none" xmlns="http://www.w3.org/2000/svg">
<rect width="366" height="204" fill="white"/>
<mask id="mask0" mask-type="alpha" maskUnits="userSpaceOnUse" x="0" y="0" width="366" height="204">
<path d="M0 0H366V204H0V0Z" fill="white"/>
</mask>
<g mask="url(#mask0)">
<path d="M0 0H366V204H0V0Z" fill="url(#paint0_linear)"/>
<path opacity="0.13" d="M29.9814 122.297C29.9814 124.111 30.3818 125.887 31.156 127.535H24.9549H2.2153L-5.75683 127.535H-27.7855L-32.8363 127.535C-32.2172 126.196 -31.8814 124.73 -31.8814 123.25V116.501L-35.6686 109.895C-36.3279 110.268 -37.1035 110.474 -37.9178 110.474C-40.49 110.474 -42.5581 108.413 -42.5581 105.851C-42.5581 103.3 -40.49 101.227 -37.9178 101.227C-35.3584 101.227 -33.2903 103.3 -33.2903 105.851C-33.2903 107.048 -33.7427 108.13 -34.5054 108.954L-31.8814 113.539V109.779C-31.1318 108.645 -30.7052 107.293 -30.7052 105.851C-30.7052 105.284 -30.7698 104.73 -30.899 104.202C-30.9119 104.125 -30.9249 104.06 -30.9508 103.996C-31.778 100.918 -34.5829 98.6512 -37.9306 98.6512H-37.9307C-38.0859 98.6512 -38.2538 98.6512 -38.409 98.6769C-38.7967 97.7239 -38.9906 96.6936 -38.9906 95.6117C-38.9906 90.8466 -35.1128 86.9829 -30.3304 86.9829C-25.5478 86.9829 -21.6701 90.8466 -21.6701 95.6117C-21.6701 99.8361 -24.7205 103.339 -28.7404 104.073V113.642L-25.1083 108.568C-25.9614 108.027 -26.6206 107.229 -26.9696 106.276C-24.0226 105.374 -21.6313 103.313 -20.2999 100.66C-18.9169 101.472 -17.9862 102.966 -17.9862 104.666C-17.9862 107.216 -20.0673 109.289 -22.6266 109.289C-23.0014 109.289 -23.3633 109.251 -23.7123 109.16L-28.7404 116.179V123.25C-28.7404 124.73 -28.4047 126.196 -27.7855 127.535H-5.75683C-4.77573 125.424 -4.25898 123.12 -4.25898 120.79V103.665L-8.86687 95.6023C-9.91811 96.1852 -11.1271 96.5199 -12.416 96.5199C-16.4487 96.5199 -19.7192 93.2701 -19.7192 89.2519C-19.7192 85.2338 -16.4487 81.9752 -12.416 81.9752C-8.38325 81.9752 -5.11283 85.2339 -5.11283 89.2519C-5.11283 91.1358 -5.83786 92.8451 -7.01715 94.1355L-4.25898 98.9615V94.8132C-3.44466 93.6413 -2.88885 92.289 -2.6562 90.8208C-2.63044 90.7182 -2.61758 90.603 -2.6047 90.4876L-2.60452 90.4859C-2.55276 90.0866 -2.52696 89.6745 -2.52696 89.2496C-2.52696 83.8146 -6.9605 79.3971 -12.4151 79.3971C-13.3846 79.3971 -14.3282 79.5388 -15.2071 79.7964C-15.3622 78.985 -15.4398 78.135 -15.4398 77.2721C-15.4398 69.7765 -9.33879 63.6976 -1.81597 63.6976C5.71971 63.6976 11.8207 69.7765 11.8207 77.2721C11.8207 83.9177 7.03815 89.4427 0.704494 90.6147V96.5221L3.69035 92.392C8.34369 90.6404 11.9758 86.8283 13.4622 82.0888C14.2378 83.2479 14.6902 84.6389 14.6902 86.1328C14.6902 90.151 11.42 93.3966 7.38719 93.3966C6.89017 93.3966 6.41287 93.3327 5.94677 93.2397L0.704506 100.502V120.79C0.704506 123.12 1.22125 125.424 2.2153 127.535H24.9549C25.7292 125.887 26.1296 124.111 26.1296 122.297V113.043L21.3987 104.769C20.6749 105.104 19.8476 105.297 18.9945 105.297C15.8536 105.297 13.3201 102.772 13.3201 99.6557C13.3201 96.5261 15.8536 93.989 18.9945 93.989C22.1225 93.989 24.669 96.5261 24.669 99.6557C24.669 101.266 23.9968 102.721 22.8981 103.738L26.1296 109.386V103.777C26.8534 102.541 27.2541 101.124 27.2541 99.6557C27.2541 99.4239 27.2412 99.205 27.2282 98.9861C27.2153 98.8959 27.2153 98.8058 27.2023 98.7285C26.737 94.6201 23.2341 91.4132 18.9945 91.4132C18.6197 91.4132 18.2448 91.4389 17.8829 91.4905C17.5856 90.5375 17.4304 89.52 17.4304 88.4639C17.4304 82.6298 22.1743 77.9031 28.0296 77.9031C33.885 77.9031 38.6288 82.6298 38.6288 88.4639C38.6288 93.6284 34.9061 97.9171 29.9814 98.8315V107.792L33.8462 102.206C33.2645 101.845 32.7605 101.382 32.3468 100.853C36.1212 99.5785 39.0424 96.655 40.3996 93.0102C41.7181 94.0405 42.5582 95.6504 42.5582 97.4535C42.5582 100.557 40.0118 103.094 36.8709 103.094C36.4184 103.094 35.979 103.03 35.5654 102.94L29.9814 110.997V122.297Z" fill="url(#paint1_linear)"/>
<path opacity="0.13" d="M384.633 186.134C384.633 187.949 385.033 189.725 385.807 191.372H379.606H356.866L348.894 191.372H326.866L321.815 191.372C322.434 190.034 322.77 188.567 322.77 187.087V180.339L318.982 173.732C318.323 174.105 317.548 174.311 316.733 174.311C314.161 174.311 312.093 172.251 312.093 169.688C312.093 167.138 314.161 165.064 316.733 165.064C319.293 165.064 321.361 167.138 321.361 169.688C321.361 170.886 320.908 171.967 320.146 172.792L322.77 177.377V173.616C323.519 172.483 323.946 171.13 323.946 169.688C323.946 169.121 323.881 168.567 323.752 168.039C323.739 167.962 323.726 167.898 323.7 167.833C322.873 164.755 320.068 162.488 316.72 162.488H316.72C316.565 162.488 316.397 162.488 316.242 162.514C315.854 161.561 315.661 160.531 315.661 159.449C315.661 154.684 319.538 150.82 324.321 150.82C329.103 150.82 332.981 154.684 332.981 159.449C332.981 163.673 329.931 167.176 325.911 167.911V177.48L329.543 172.405C328.69 171.864 328.031 171.066 327.682 170.113C330.629 169.211 333.02 167.151 334.351 164.498C335.734 165.309 336.665 166.803 336.665 168.503C336.665 171.053 334.584 173.127 332.025 173.127C331.65 173.127 331.288 173.088 330.939 172.998L325.911 180.017V187.087C325.911 188.567 326.246 190.034 326.866 191.372H348.894C349.875 189.261 350.392 186.957 350.392 184.627V167.502L345.784 159.44C344.733 160.022 343.524 160.357 342.235 160.357C338.202 160.357 334.932 157.107 334.932 153.089C334.932 149.071 338.202 145.812 342.235 145.812C346.268 145.812 349.538 149.071 349.538 153.089C349.538 154.973 348.813 156.682 347.634 157.973L350.392 162.799V158.651C351.206 157.479 351.762 156.126 351.995 154.658C352.021 154.555 352.034 154.44 352.046 154.325L352.047 154.323C352.098 153.924 352.124 153.512 352.124 153.087C352.124 147.652 347.691 143.234 342.236 143.234C341.267 143.234 340.323 143.376 339.444 143.634C339.289 142.822 339.211 141.972 339.211 141.109C339.211 133.614 345.312 127.535 352.835 127.535C360.371 127.535 366.472 133.614 366.472 141.109C366.472 147.755 361.689 153.28 355.356 154.452V160.359L358.341 156.229C362.995 154.478 366.627 150.666 368.113 145.926C368.889 147.085 369.341 148.476 369.341 149.97C369.341 153.988 366.071 157.234 362.038 157.234C361.541 157.234 361.064 157.17 360.598 157.077L355.356 164.339V184.627C355.356 186.957 355.872 189.261 356.866 191.372H379.606C380.38 189.725 380.781 187.949 380.781 186.134V176.88L376.05 168.606C375.326 168.941 374.499 169.134 373.646 169.134C370.505 169.134 367.971 166.61 367.971 163.493C367.971 160.363 370.505 157.826 373.646 157.826C376.774 157.826 379.32 160.363 379.32 163.493C379.32 165.103 378.648 166.558 377.549 167.576L380.781 173.223V167.614C381.505 166.378 381.905 164.961 381.905 163.493C381.905 163.261 381.892 163.042 381.879 162.823C381.866 162.733 381.866 162.643 381.853 162.566C381.388 158.457 377.885 155.251 373.646 155.251C373.271 155.251 372.896 155.276 372.534 155.328C372.237 154.375 372.082 153.357 372.082 152.301C372.082 146.467 376.825 141.74 382.681 141.74C388.536 141.74 393.28 146.467 393.28 152.301C393.28 157.466 389.557 161.754 384.633 162.669V171.629L388.497 166.043C387.916 165.682 387.412 165.219 386.998 164.691C390.772 163.416 393.694 160.492 395.051 156.847C396.369 157.878 397.209 159.488 397.209 161.291C397.209 164.395 394.663 166.932 391.522 166.932C391.07 166.932 390.63 166.867 390.216 166.777L384.633 174.834V186.134Z" fill="url(#paint2_linear)"/>
<path opacity="0.24" d="M367.14 120.448L363.924 118.178V242.351V245.279H288.152H268.256H217.456H200.43H105.722H79.4457H-14.186V242.155H-7.59775V156.106L18.4282 119.627C18.8036 119.101 19.41 118.788 20.0563 118.788H34.8832H38.0153H48.9107V105.271H55.3647V94.484H63.2566V83.6938H71.3469V76.2014C71.3469 75.3364 72.0481 74.6352 72.9131 74.6352C73.7782 74.6352 74.4794 75.3364 74.4794 76.2014V83.6938H82.3039V94.484H87.5051V89.526H92.8026V75.9615L138.181 50.1321C138.879 49.7351 139.746 49.7935 140.384 50.2806L164.702 68.846V50.8163C164.702 49.1427 166.635 48.2093 167.946 49.2501L200.089 74.7735C200.567 75.1529 200.846 75.7297 200.846 76.3398V96.438L208.004 101.902V87.9934C208.004 86.8888 208.899 85.9934 210.004 85.9934H260.287C261.391 85.9934 262.287 86.8888 262.287 87.9934V107.038L270.54 113.72V107.075C267.586 106.372 265.381 103.738 265.381 100.576C265.381 96.8763 268.387 93.8776 272.095 93.8776C275.803 93.8776 278.809 96.8763 278.809 100.576C278.809 103.738 276.605 106.372 273.65 107.075V116.237L281.259 122.398V141.711H285.051V134.128H312.157V141.711H316.948V117.785L313.174 120.448L311.48 118.058L339.003 98.6344C339.694 98.1465 340.618 98.1465 341.309 98.6343L368.837 118.058L367.14 120.448Z" fill="url(#paint3_linear)"/>
<path opacity="0.19" fill-rule="evenodd" clip-rule="evenodd" d="M-43.1733 177.308L-46.4852 179.14L-48.2324 177.211L-19.6694 161.412C-19.067 161.079 -18.3356 161.079 -17.7332 161.412L10.8239 177.211L9.07959 179.14L5.19409 176.991V196.302H10.1277V190.181H38.0366V196.302H41.9402V180.714L49.7752 175.741V168.346C46.733 167.779 44.4634 165.653 44.4634 163.101C44.4634 160.114 47.5583 157.694 51.3764 157.694C55.194 157.694 58.2894 160.114 58.2894 163.101C58.2894 165.653 56.0193 167.779 52.9771 168.346V173.71L61.4752 168.317V139.144C61.4752 138.04 62.3706 137.144 63.4752 137.144H115.366C116.471 137.144 117.366 138.04 117.366 139.144V164.171L124.737 159.761V129.684C124.737 128.993 125.093 128.351 125.68 127.986L158.894 107.311C160.227 106.482 161.951 107.44 161.951 109.009V137.49L187.181 122.39C187.74 122.056 188.428 122.015 189.023 122.28L235.981 143.233V154.182H241.435V158.183H246.791V135.288H254.847V129.589C254.847 128.699 255.569 127.976 256.46 127.976C257.35 127.976 258.072 128.699 258.072 129.589V135.288H266.402V158.183H274.528V166.89H281.173V177.801H292.392H295.616H311.943L339.356 207.921V277.375H339.85V177.308L336.538 179.14L334.791 177.211L363.354 161.412C363.956 161.079 364.688 161.079 365.29 161.412L393.847 177.211L392.103 179.14L388.217 176.991V196.302H393.151V190.181H421.06V196.302H424.963V180.714L432.798 175.741V168.346C429.756 167.779 427.487 165.653 427.487 163.101C427.487 160.114 430.582 157.694 434.4 157.694C438.217 157.694 441.313 160.114 441.313 163.101C441.313 165.653 439.043 167.779 436 168.346V173.71L444.498 168.317V153.33C444.498 152.226 445.394 151.33 446.498 151.33H498.39C499.494 151.33 500.39 152.226 500.39 153.33V164.171L507.76 159.761V143.87C507.76 143.179 508.116 142.537 508.703 142.172L541.918 121.497C543.25 120.668 544.975 121.626 544.975 123.195V137.49L570.204 122.39C570.764 122.056 571.451 122.015 572.046 122.28L619.004 143.233V154.182H624.459V158.183H629.814V149.474H637.87V143.775C637.87 142.885 638.592 142.163 639.483 142.163C640.374 142.163 641.096 142.885 641.096 143.775V149.474H649.426V158.183H657.551V166.89H664.197V177.801H675.415V164.831C672.281 164.257 669.935 162.066 669.935 159.444C669.935 156.386 673.116 153.897 677.027 153.897C680.939 153.897 684.12 156.386 684.12 159.444C684.12 162.066 681.774 164.257 678.64 164.831V177.801H694.966L722.379 207.921V277.375H729.163V279.897H632.757H605.702H508.188H490.657H438.352H417.866H346.14H339.85H249.734H222.679H125.164H107.634H55.3288H34.843H-43.1733V277.533V177.308Z" fill="url(#paint4_linear)"/>
</g>
<defs>
<linearGradient id="paint0_linear" x1="183" y1="0" x2="183" y2="204" gradientUnits="userSpaceOnUse">
<stop stop-color="#E9E9F5" stop-opacity="0.53"/>
<stop offset="1" stop-color="#F4F4FB" stop-opacity="0"/>
</linearGradient>
<linearGradient id="paint1_linear" x1="3.43323e-05" y1="63.6976" x2="3.43323e-05" y2="127.535" gradientUnits="userSpaceOnUse">
<stop stop-color="#C4C9F1" stop-opacity="0.78"/>
<stop offset="1" stop-color="#C8CAEE" stop-opacity="0"/>
</linearGradient>
<linearGradient id="paint2_linear" x1="354.651" y1="127.535" x2="354.651" y2="191.372" gradientUnits="userSpaceOnUse">
<stop stop-color="#C4C9F1" stop-opacity="0.78"/>
<stop offset="1" stop-color="#C8CAEE" stop-opacity="0"/>
</linearGradient>
<linearGradient id="paint3_linear" x1="177.326" y1="46.6744" x2="177.326" y2="245.279" gradientUnits="userSpaceOnUse">
<stop stop-color="#C4C9F1" stop-opacity="0.78"/>
<stop offset="1" stop-color="#C8CAEE" stop-opacity="0"/>
</linearGradient>
<linearGradient id="paint4_linear" x1="340.465" y1="107.006" x2="340.465" y2="279.897" gradientUnits="userSpaceOnUse">
<stop stop-color="#C4C9F1" stop-opacity="0.78"/>
<stop offset="1" stop-color="#C8CAEE" stop-opacity="0"/>
</linearGradient>
</defs>
</svg>
