<svg width="44" height="44" viewBox="0 0 44 44" fill="none" xmlns="http://www.w3.org/2000/svg">
<path fill-rule="evenodd" clip-rule="evenodd" d="M22 42.7209C33.4439 42.7209 42.7209 33.4439 42.7209 22C42.7209 10.5561 33.4439 1.27907 22 1.27907C10.5561 1.27907 1.27907 10.5561 1.27907 22C1.27907 33.4439 10.5561 42.7209 22 42.7209ZM22 44C34.1503 44 44 34.1503 44 22C44 9.84974 34.1503 0 22 0C9.84974 0 0 9.84974 0 22C0 34.1503 9.84974 44 22 44Z" fill="#E8E5F3" fill-opacity="0.6"/>
<path fill-rule="evenodd" clip-rule="evenodd" d="M14.2104 20.6478C14.1128 20.4133 14.0096 20.1855 13.9068 19.9589C13.2953 18.6102 12.7014 17.3004 13.4292 14.8259C14.7083 10.4771 18.4177 7.59334 23.406 8.04682C27.6269 8.43053 29.8866 11.1592 30.3129 13.4189C30.7597 15.7865 30.6091 19.5013 29.7887 19.4597C29.7971 19.6446 29.8013 19.8332 29.8013 20.0258C29.8013 24.6217 27.9798 27.3015 26.0921 28.8069V31.6653C26.0921 32.7909 27.7122 34.0103 28.5223 34.4793C30.0998 34.9056 33.4339 35.8351 34.1502 36.1421C35.0456 36.5258 30.1851 41.0469 21.999 41.0469C15.6037 41.0469 10.0184 37.4211 9.71997 36.1421C10.7432 35.8863 13.3014 35.1956 15.3479 34.4793C17.3944 33.763 17.9913 32.3049 18.0339 31.6653V28.5726C16.1795 27.0524 14.3842 24.5413 14.2104 20.6478Z" fill="#E8E6EF" fill-opacity="0.9"/>
</svg>
