<svg xmlns="http://www.w3.org/2000/svg" width="170" height="84" viewBox="0 0 170 84">
    <path fill="#F4F4FB" fill-rule="evenodd" d="M41.1502,0.519531 C57.0661,0.519531 70.2793,13.1321 71.4805,29.0481 L80.0901,29.0481 C80.6424,29.0481 81.0901,29.4958 81.0901,30.0481 L81.0901,40.6607 C81.0901,41.213 80.6424,41.6607 80.0901,41.6607 L69.6787,41.6607 C65.4745,53.3724 54.0631,61.4805 41.1502,61.4805 C27.9369,61.4805 16.8258,53.3724 12.3213,41.6607 L1.909912,41.6607 C1.35763,41.6607 0.909912,41.213 0.909912,40.6607 L0.909912,30.0481 C0.909912,29.4958 1.35763,29.0481 1.909912,29.0481 L10.5195,29.0481 C11.7207,13.1321 24.9339,0.519531 41.1502,0.519531 Z M28.8378,54.6727 C28.8378,54.1204 29.2856,53.6727 29.8378,53.6727 L52.1622,53.6727 C52.7144,53.6727 53.1622,54.1204 53.1622,54.6727 L53.1622,55.8769 C53.1622,56.4292 52.7144,56.8769 52.1622,56.8769 L29.8378,56.8769 C29.2856,56.8769 28.8378,56.4292 28.8378,55.8769 L28.8378,54.6727 Z M22.2312,49.5676 C22.2312,49.0153 22.6789,48.5676 23.2312,48.5676 L59.0691,48.5676 C59.6214,48.5676 60.0691,49.0153 60.0691,49.5676 L60.0691,50.7718 C60.0691,51.3241 59.6214,51.7718 59.0691,51.7718 L23.2312,51.7718 C22.6789,51.7718 22.2312,51.3241 22.2312,50.7718 L22.2312,49.5676 Z M17.7267,44.1622 C17.7267,43.6099 18.1744,43.1622 18.7267,43.1622 L63.2733,43.1622 C63.8256,43.1622 64.2733,43.6099 64.2733,44.1622 L64.2733,45.3664 C64.2733,45.9187 63.8256,46.3664 63.2733,46.3664 L18.7267,46.3664 C18.1744,46.3664 17.7267,45.9187 17.7267,45.3664 L17.7267,44.1622 Z M36.7447,8.92794 C36.1925,8.92794 35.7447,9.37566 35.7447,9.92794 L35.7447,34.1532 L30.4384,34.1532 L30.4384,22.5406 C30.4384,21.9883 29.9907,21.5406 29.4384,21.5406 L25.1321,21.5406 C24.5798,21.5406 24.1321,21.9883 24.1321,22.5406 L24.1321,34.1532 L12.6216,34.1532 L12.6216,32.949 C12.6216,32.3967 12.1739,31.949 11.6216,31.949 L5.11111,31.949 C4.55883,31.949 4.11111,32.3967 4.11111,32.949 L4.11111,37.4595 C4.11111,38.0118 4.55883,38.4595 5.11111,38.4595 L77.8889,38.4595 L77.8889,32.949 C77.8889,32.3967 77.4412,31.949 76.8889,31.949 L70.3784,31.949 C69.8261,31.949 69.3784,32.3967 69.3784,32.949 L69.3784,34.1532 L57.8679,34.1532 L57.8679,22.5406 C57.8679,21.9883 57.4202,21.5406 56.8679,21.5406 L52.5616,21.5406 C52.0093,21.5406 51.5616,21.9883 51.5616,22.5406 L51.5616,34.1532 L46.2553,34.1532 L46.2553,9.92794 C46.2553,9.37566 45.8075,8.92794 45.2553,8.92794 L36.7447,8.92794 Z" transform="translate(44 11)"/>
</svg>
