<svg width="258" height="167" viewBox="0 0 258 167" fill="none" xmlns="http://www.w3.org/2000/svg">
<rect width="258" height="167" fill="white"/>
<mask id="mask0" mask-type="alpha" maskUnits="userSpaceOnUse" x="0" y="0" width="258" height="167">
<path d="M0 0H258V167H0V0Z" fill="white"/>
</mask>
<g mask="url(#mask0)">
<path d="M0 0H258V167H0V0Z" fill="url(#paint0_linear)"/>
<path opacity="0.13" d="M21.1344 100.308C21.1344 101.587 21.4166 102.839 21.9624 104H17.5911H1.56158L-4.05812 104H-19.5865L-23.1469 104C-22.7105 103.056 -22.4738 102.023 -22.4738 100.98V96.2224L-25.1435 91.565C-25.6082 91.8283 -26.1549 91.9736 -26.729 91.9736C-28.5422 91.9736 -30 90.521 -30 88.7143C-30 86.9168 -28.5422 85.4551 -26.729 85.4551C-24.9248 85.4551 -23.467 86.9168 -23.467 88.7143C-23.467 89.5586 -23.7859 90.3213 -24.3235 90.9023L-22.4738 94.1343V91.4833C-21.9454 90.6844 -21.6447 89.7311 -21.6447 88.7143C-21.6447 88.3149 -21.6902 87.9245 -21.7813 87.5523C-21.7904 87.4978 -21.7995 87.4524 -21.8178 87.407C-22.4009 85.2373 -24.3781 83.6394 -26.738 83.6394H-26.738C-26.8474 83.6394 -26.9658 83.6394 -27.0752 83.6575C-27.3485 82.9857 -27.4852 82.2594 -27.4852 81.4968C-27.4852 78.1378 -24.7517 75.4142 -21.3804 75.4142C-18.0091 75.4142 -15.2756 78.1378 -15.2756 81.4968C-15.2756 84.4746 -17.426 86.944 -20.2597 87.4615V94.2069L-17.6993 90.63C-18.3007 90.2486 -18.7653 89.6858 -19.0114 89.0139C-16.934 88.3784 -15.2483 86.9259 -14.3098 85.0557C-13.3349 85.6276 -12.6788 86.6807 -12.6788 87.8791C-12.6788 89.6767 -14.1458 91.1384 -15.9499 91.1384C-16.2141 91.1384 -16.4693 91.1111 -16.7152 91.0476L-20.2597 95.9954V100.98C-20.2597 102.023 -20.023 103.056 -19.5865 104H-4.05812C-3.36652 102.512 -3.00226 100.888 -3.00226 99.2456V87.1736L-6.25044 81.4902C-6.99148 81.901 -7.84375 82.137 -8.7523 82.137C-11.595 82.137 -13.9004 79.8462 -13.9004 77.0137C-13.9004 74.1813 -11.595 71.8842 -8.7523 71.8842C-5.90953 71.8842 -3.60415 74.1813 -3.60415 77.0137C-3.60415 78.3417 -4.11524 79.5466 -4.94654 80.4562L-3.00226 83.8581V80.9339C-2.42822 80.1078 -2.03642 79.1546 -1.87243 78.1196C-1.85427 78.0473 -1.84521 77.9661 -1.83613 77.8847L-1.836 77.8835C-1.79951 77.6021 -1.78133 77.3116 -1.78133 77.012C-1.78133 73.1808 -4.9066 70.0668 -8.75168 70.0668C-9.43505 70.0668 -10.1002 70.1667 -10.7198 70.3483C-10.8291 69.7763 -10.8838 69.1772 -10.8838 68.5689C-10.8838 63.2851 -6.58311 59 -1.28013 59C4.0319 59 8.33261 63.2851 8.33261 68.5689C8.33261 73.2535 4.9613 77.1482 0.496586 77.9744V82.1385L2.60137 79.2272C5.88159 77.9925 8.44196 75.3052 9.48975 71.9643C10.0365 72.7813 10.3554 73.7619 10.3554 74.815C10.3554 77.6475 8.05016 79.9353 5.20734 79.9353C4.85698 79.9353 4.52052 79.8903 4.19196 79.8248L0.496593 84.9437V99.2456C0.496593 100.888 0.860857 102.512 1.56158 104H17.5911C18.137 102.839 18.4192 101.587 18.4192 100.308V93.7844L15.0843 87.9518C14.5741 88.1878 13.9909 88.324 13.3896 88.324C11.1754 88.324 9.38955 86.5446 9.38955 84.3475C9.38955 82.1414 11.1754 80.353 13.3896 80.353C15.5945 80.353 17.3896 82.1414 17.3896 84.3475C17.3896 85.4823 16.9157 86.5082 16.1413 87.2255L18.4192 91.2064V87.2527C18.9294 86.3811 19.2119 85.3825 19.2119 84.3475C19.2119 84.1841 19.2028 84.0298 19.1936 83.8755C19.1845 83.8119 19.1845 83.7484 19.1754 83.6939C18.8474 80.7978 16.3781 78.5372 13.3895 78.5372C13.1253 78.5372 12.8611 78.5553 12.606 78.5917C12.3964 77.9199 12.287 77.2026 12.287 76.4582C12.287 72.3456 15.631 69.0137 19.7585 69.0137C23.8861 69.0137 27.2301 72.3456 27.2301 76.4582C27.2301 80.0987 24.6059 83.1219 21.1344 83.7665V90.0827L23.8588 86.1451C23.4487 85.8909 23.0934 85.5641 22.8019 85.1918C25.4624 84.293 27.5217 82.2322 28.4784 79.663C29.4078 80.3892 30 81.5241 30 82.7951C30 84.983 28.205 86.7715 25.9909 86.7715C25.672 86.7715 25.3622 86.7261 25.0706 86.6625L21.1344 92.342V100.308Z" fill="url(#paint1_linear)"/>
<path opacity="0.13" d="M271.134 145.308C271.134 146.587 271.417 147.839 271.962 149H267.591H251.562L245.942 149H230.413L226.853 149C227.29 148.056 227.526 147.023 227.526 145.98V141.222L224.857 136.565C224.392 136.828 223.845 136.974 223.271 136.974C221.458 136.974 220 135.521 220 133.714C220 131.917 221.458 130.455 223.271 130.455C225.075 130.455 226.533 131.917 226.533 133.714C226.533 134.559 226.214 135.321 225.677 135.902L227.526 139.134V136.483C228.055 135.684 228.355 134.731 228.355 133.714C228.355 133.315 228.31 132.924 228.219 132.552C228.21 132.498 228.2 132.452 228.182 132.407C227.599 130.237 225.622 128.639 223.262 128.639H223.262C223.153 128.639 223.034 128.639 222.925 128.658C222.651 127.986 222.515 127.259 222.515 126.497C222.515 123.138 225.248 120.414 228.62 120.414C231.991 120.414 234.724 123.138 234.724 126.497C234.724 129.475 232.574 131.944 229.74 132.461V139.207L232.301 135.63C231.699 135.249 231.235 134.686 230.989 134.014C233.066 133.378 234.752 131.926 235.69 130.056C236.665 130.628 237.321 131.681 237.321 132.879C237.321 134.677 235.854 136.138 234.05 136.138C233.786 136.138 233.531 136.111 233.285 136.048L229.74 140.995V145.98C229.74 147.023 229.977 148.056 230.413 149H245.942C246.633 147.512 246.998 145.888 246.998 144.246V132.174L243.75 126.49C243.009 126.901 242.156 127.137 241.248 127.137C238.405 127.137 236.1 124.846 236.1 122.014C236.1 119.181 238.405 116.884 241.248 116.884C244.09 116.884 246.396 119.181 246.396 122.014C246.396 123.342 245.885 124.547 245.053 125.456L246.998 128.858V125.934C247.572 125.108 247.964 124.155 248.128 123.12C248.146 123.047 248.155 122.966 248.164 122.885L248.164 122.884C248.2 122.602 248.219 122.312 248.219 122.012C248.219 118.181 245.093 115.067 241.248 115.067C240.565 115.067 239.9 115.167 239.28 115.348C239.171 114.776 239.116 114.177 239.116 113.569C239.116 108.285 243.417 104 248.72 104C254.032 104 258.333 108.285 258.333 113.569C258.333 118.253 254.961 122.148 250.497 122.974V127.139L252.601 124.227C255.882 122.992 258.442 120.305 259.49 116.964C260.036 117.781 260.355 118.762 260.355 119.815C260.355 122.647 258.05 124.935 255.207 124.935C254.857 124.935 254.521 124.89 254.192 124.825L250.497 129.944V144.246C250.497 145.888 250.861 147.512 251.562 149H267.591C268.137 147.839 268.419 146.587 268.419 145.308V138.784L265.084 132.952C264.574 133.188 263.991 133.324 263.39 133.324C261.175 133.324 259.39 131.545 259.39 129.348C259.39 127.141 261.175 125.353 263.39 125.353C265.595 125.353 267.39 127.141 267.39 129.348C267.39 130.482 266.916 131.508 266.141 132.225L268.419 136.206V132.253C268.929 131.381 269.212 130.382 269.212 129.348C269.212 129.184 269.203 129.03 269.194 128.875C269.185 128.812 269.185 128.748 269.175 128.694C268.847 125.798 266.378 123.537 263.39 123.537C263.125 123.537 262.861 123.555 262.606 123.592C262.396 122.92 262.287 122.203 262.287 121.458C262.287 117.346 265.631 114.014 269.759 114.014C273.886 114.014 277.23 117.346 277.23 121.458C277.23 125.099 274.606 128.122 271.134 128.766V135.083L273.859 131.145C273.449 130.891 273.093 130.564 272.802 130.192C275.462 129.293 277.522 127.232 278.478 124.663C279.408 125.389 280 126.524 280 127.795C280 129.983 278.205 131.772 275.991 131.772C275.672 131.772 275.362 131.726 275.071 131.663L271.134 137.342V145.308Z" fill="url(#paint2_linear)"/>
<path opacity="0.24" d="M258.804 99.0043L256.536 97.404V184.936V187H203.124H189.099H153.289H141.287H74.5253H56.0027H-10V184.798H-5.3558V124.14L12.8139 98.6729C13.1892 98.1468 13.7957 97.8345 14.442 97.8345H24.5898H26.7977H34.478V88.3056H39.0276V80.7018H44.5907V73.0956H50.2937V67.8141C50.2937 67.2043 50.788 66.71 51.3978 66.71C52.0076 66.71 52.5019 67.2043 52.5019 67.8141V73.0956H58.0175V80.7018H61.6839V77.2068H65.4182V67.645L97.0667 49.6306C97.7643 49.2336 98.6317 49.292 99.2697 49.7791L116.101 62.6291V51.1419C116.101 49.4683 118.034 48.5349 119.345 49.5756L140.823 66.6303C141.301 67.0097 141.58 67.5865 141.58 68.1966V82.0792L146.626 85.9309V76.7166C146.626 75.612 147.521 74.7166 148.626 74.7166H182.891C183.995 74.7166 184.891 75.612 184.891 76.7166V89.5516L190.709 94.2618V89.5773C188.626 89.0818 187.072 87.2252 187.072 84.9962C187.072 82.3882 189.191 80.2743 191.805 80.2743C194.419 80.2743 196.537 82.3882 196.537 84.9962C196.537 87.2252 194.984 89.0818 192.901 89.5773V96.036L198.265 100.379V113.993H200.937V108.647H220.045V113.993H223.422V97.1274L220.762 99.0043L219.568 97.3193L238.629 83.8676C239.32 83.3797 240.244 83.3797 240.935 83.8675L260 97.3193L258.804 99.0043Z" fill="url(#paint3_linear)"/>
<path opacity="0.19" fill-rule="evenodd" clip-rule="evenodd" d="M-30.4337 139.086L-32.7683 140.377L-34 139.017L-14.1511 128.039C-13.5487 127.705 -12.8173 127.705 -12.2149 128.039L7.62991 139.017L6.40028 140.377L3.66133 138.862V152.475H7.1391V148.161H26.8126V152.475H29.5643V141.487L35.0873 137.981V132.768C32.9429 132.368 31.343 130.87 31.343 129.071C31.343 126.966 33.5246 125.26 36.2161 125.26C38.9072 125.26 41.0891 126.966 41.0891 129.071C41.0891 130.87 39.4889 132.368 37.3444 132.768V136.549L43.3349 132.748V112.774C43.3349 111.669 44.2303 110.774 45.3349 110.774H80.7336C81.8381 110.774 82.7336 111.669 82.7336 112.774V129.825L87.929 126.716V105.843C87.929 105.152 88.2856 104.51 88.8721 104.145L111.105 90.3053C112.438 89.476 114.162 90.434 114.162 92.0032V111.017L131.684 100.531C132.243 100.196 132.931 100.155 133.526 100.421L166.347 115.066V122.784H170.192V125.605H173.967V109.465H179.646V105.448C179.646 104.82 180.155 104.311 180.783 104.311C181.411 104.311 181.92 104.82 181.92 105.448V109.465H187.792V125.605H193.52V131.742H198.204V139.433H206.112H208.385H219.894L239.218 160.666V209.625H239.566V139.086L237.232 140.377L236 139.017L255.849 128.039C256.451 127.705 257.183 127.705 257.785 128.039L277.63 139.017L276.4 140.377L273.661 138.862V152.475H277.139V148.161H296.813V152.475H299.564V141.487L305.087 137.981V132.768C302.943 132.368 301.343 130.87 301.343 129.071C301.343 126.966 303.525 125.26 306.216 125.26C308.907 125.26 311.089 126.966 311.089 129.071C311.089 130.87 309.489 132.368 307.344 132.768V136.549L313.335 132.748V122.774C313.335 121.669 314.23 120.774 315.335 120.774H350.734C351.838 120.774 352.734 121.669 352.734 122.774V129.825L357.929 126.716V115.843C357.929 115.152 358.286 114.51 358.872 114.145L381.105 100.305C382.438 99.476 384.162 100.434 384.162 102.003V111.017L401.684 100.531C402.243 100.196 402.931 100.155 403.526 100.421L436.347 115.066V122.784H440.192V125.605H443.967V119.465H449.646V115.448C449.646 114.82 450.155 114.311 450.783 114.311C451.411 114.311 451.92 114.82 451.92 115.448V119.465H457.792V125.605H463.52V131.742H468.204V139.433H476.112V130.291C473.903 129.886 472.249 128.342 472.249 126.493C472.249 124.337 474.491 122.583 477.249 122.583C480.006 122.583 482.248 124.337 482.248 126.493C482.248 128.342 480.594 129.886 478.385 130.291V139.433H489.894L509.218 160.666V209.625H514V211.402H446.042H426.97H358.23H345.873H309.002H294.561H244H239.566H176.042H156.97H88.2304H75.8731H39.0022H24.5614H-30.4337V209.736V139.086Z" fill="url(#paint4_linear)"/>
</g>
<defs>
<linearGradient id="paint0_linear" x1="129" y1="0" x2="129" y2="167" gradientUnits="userSpaceOnUse">
<stop stop-color="#E9E9F5" stop-opacity="0.53"/>
<stop offset="1" stop-color="#F4F4FB" stop-opacity="0"/>
</linearGradient>
<linearGradient id="paint1_linear" x1="0" y1="59" x2="0" y2="104" gradientUnits="userSpaceOnUse">
<stop stop-color="#C4C9F1" stop-opacity="0.78"/>
<stop offset="1" stop-color="#C8CAEE" stop-opacity="0"/>
</linearGradient>
<linearGradient id="paint2_linear" x1="250" y1="104" x2="250" y2="149" gradientUnits="userSpaceOnUse">
<stop stop-color="#C4C9F1" stop-opacity="0.78"/>
<stop offset="1" stop-color="#C8CAEE" stop-opacity="0"/>
</linearGradient>
<linearGradient id="paint3_linear" x1="125" y1="47" x2="125" y2="187" gradientUnits="userSpaceOnUse">
<stop stop-color="#C4C9F1" stop-opacity="0.78"/>
<stop offset="1" stop-color="#C8CAEE" stop-opacity="0"/>
</linearGradient>
<linearGradient id="paint4_linear" x1="240" y1="90" x2="240" y2="211.402" gradientUnits="userSpaceOnUse">
<stop stop-color="#C4C9F1" stop-opacity="0.78"/>
<stop offset="1" stop-color="#C8CAEE" stop-opacity="0"/>
</linearGradient>
</defs>
</svg>
