<svg xmlns="http://www.w3.org/2000/svg" width="340" height="168" viewBox="0 0 340 168">
    <g opacity=".833" transform="translate(0 34)" style="mix-blend-mode:multiply">
        <polygon points="144.4 88.6 138 88.6 138 82.4 134.5 82.4 134.5 98.2 138 98.2 138 91.8 144.4 91.8 144.4 98.2 147.9 98.2 147.9 82.4 144.4 82.4"/>
        <path d="M163.9,82.1 C159,82.1 155.5,85.8 155.5,90.3 L155.5,90.3 C155.5,94.8 159,98.4 163.9,98.4 C168.8,98.4 172.3,94.7 172.3,90.2 L172.3,90.2 C172.3,85.7 168.8,82.1 163.9,82.1 Z M168.7,90.3 C168.7,93 166.8,95.2 164,95.2 C161.2,95.2 159.2,92.9 159.2,90.2 L159.2,90.2 C159.2,87.5 161.1,85.3 163.9,85.3 C166.7,85.3 168.7,87.6 168.7,90.3 L168.7,90.3 Z"/>
        <polygon points="187.8 89.1 183.7 82.4 179.9 82.4 179.9 98.2 183.3 98.2 183.3 87.9 187.7 94.6 187.8 94.6 192.3 87.9 192.3 98.2 195.7 98.2 195.7 82.4 192 82.4"/>
        <polygon points="207.5 91.8 215 91.8 215 88.7 207.5 88.7 207.5 85.5 216 85.5 216 82.4 204.1 82.4 204.1 98.2 216.1 98.2 216.1 95.1 207.5 95.1"/>
        <path d="M230.2,88.7 C227.5,88 226.8,87.7 226.8,86.6 L226.8,86.6 C226.8,85.8 227.5,85.2 228.8,85.2 C230.1,85.2 231.5,85.8 232.9,86.8 L234.7,84.2 C233.1,82.9 231.1,82.2 228.8,82.2 C225.6,82.2 223.3,84.1 223.3,87 L223.3,87 C223.3,90.1 225.4,91 228.5,91.8 C231.1,92.5 231.7,92.9 231.7,93.8 L231.7,93.8 C231.7,94.7 230.8,95.3 229.4,95.3 C227.6,95.3 226.1,94.6 224.7,93.4 L222.6,95.9 C224.5,97.6 226.9,98.4 229.3,98.4 C232.7,98.4 235.1,96.6 235.1,93.5 L235.1,93.5 C235.2,90.7 233.4,89.6 230.2,88.7 Z"/>
        <path d="M326 18.1C324.1 16.7 320.8 16.2 316.2 16.3 310.2 16.5 305.1 17.8 300.9 20.2 296.8 22.6 294 25.6 292.5 29.3 290.4 34.4 295.8 37.3 300.4 41.6 308.8 49.4 302.8 60.6 293.4 66.9 283.5 73.5 272.7 76.4 233.6 70.7 203.8 66.3 191.6 66 165.1 66.2 148.4 66.3 131.9 68.4 117.9 71L127.9 56.8C129.1 60.2 131.9 61.9 136.3 61.7 142.5 61.5 148.8 58.9 155.1 54.1 161.4 49.2 165.9 43.5 168.5 36.9 170.5 32 170.5 28.2 168.7 25.7 166.9 23.2 164 22 160.2 22.2 155.8 22.4 151.1 24.5 146.1 28.7L146 28.5 149.8 22.6 148.2 22.7 145 23.2C142.7 23.6 140.4 23.8 138.2 23.9L128.6 24.3 126.7 27.3 134.8 27 101.8 74.5C89.4 77.5 70 87.4 67.5 89.8 65.7 91.6 64 93.6 64.1 95.1 64.3 96.6 64.7 97.1 65.7 97.9 66.9 98.8 69.6 98.8 71 97.9 72.5 97 72.7 96.1 72.4 94.7 72.3 94.2 72 93.6 71.7 93 71.4 92.4 71.2 92 71.2 91.8 71 90.7 85.1 82.9 95.4 79.9 96.3 79.6 97.3 79.4 98.6 79L89.9 91.6 104.4 90.3 114.8 75.5C129.2 72.8 148.6 70.1 167.2 70.1 189 70.1 222.6 74.8 239 77.7 262.1 81.8 290.7 89.2 306.9 77 323.6 64.6 322.7 50 319 41.9 315.9 35.2 312.8 33 309.9 30.8 306.7 28.4 305.7 27.2 305.1 26.3 304.5 25.4 304.4 24.5 304.8 23.6 306 20.6 309.1 19 314.2 18.8 317.2 18.7 318.4 19.2 317.9 20.5 317.8 20.8 317.5 21.3 317.1 22 316.7 22.7 316.3 23.4 316.1 24 315.5 25.6 315.5 26.9 316.1 27.8 316.8 28.7 317.9 29.2 319.4 29.1 321 29 322.6 28.5 324.2 27.4 325.8 26.3 326.9 25.1 327.4 23.6 328.5 21.3 328 19.4 326 18.1zM131 52L141.7 35.2C142.3 34.3 144.4 32.3 148.1 29.4 151.7 26.5 154.8 24.9 157.5 24.8 158.8 24.8 159.6 25.1 160 25.9 160.3 26.7 160.3 27.5 159.9 28.5 159.1 30.5 156.3 35.3 151.4 43 146.5 50.7 143.1 55.3 141.2 56.8 139.3 58.3 137.5 59.1 136 59.2 134.2 59.3 132.9 58.7 131.9 57.5 130.9 56.4 130.6 54.5 131 52zM67.2 42.6C62.1 48.3 57.5 52.5 53.3 55.3 49.1 58.1 45.5 59.8 42.5 60.5 39.5 61.2 36.3 61.6 32.7 61.8L24.2 62 41.7 32.8 44.8 32.7C47.2 32.6 48.9 32.8 50 33.2 51.1 33.6 51.6 34.7 51.7 36.3 51.8 38 51.5 39.7 50.8 41.4 50.4 42.5 49.8 43.6 49.2 44.8L52.4 44.7 68.3 18 65 18.1C62 22.7 59 25.7 56.1 27.1 53.2 28.5 49.7 29.3 45.5 29.5L43.6 29.6 58.6 4.6 71.6 4.1C76.5 3.9 79.4 4.9 80.2 7.2 81 9.4 80.4 13.1 78.4 18.2L81.6 18.1 92.5 0 37.2 2.1 35.2 5.4 43.8 5.1 9.3 62.6 2 62.9 0 66.2 56.8 64 70.4 42.4 67.2 42.6z"/>
        <path d="M67.8 64.7C69.3 64.6 70.8 64.2 72.2 63.3 73.6 62.4 75.7 60.8 78.4 58.6L88 50.7 86.9 57.7C86.2 62 88.4 64 93.3 63.8 99.4 63.6 106.2 58.9 113.6 49.7L111.7 48.4C105.8 54.9 102.1 58.2 100.6 58.2 100.1 58.2 99.8 58.1 99.7 57.7 99.6 57.4 99.7 56.6 99.9 55.4L102.3 38.8 107.5 34.5C109.3 33 110.5 32.3 111.2 32.3 111.5 32.3 111.9 32.8 112.5 33.8 113.1 34.8 114 35.3 115.4 35.2 116.7 35.2 118 34.6 119.5 33.5 120.9 32.4 122 31.1 122.6 29.4 123.3 27.6 123.4 26.2 122.8 25.2 122.2 24.2 121.3 23.8 119.9 23.8 117.8 23.9 115.3 25 112.4 27.3 109.4 29.6 107.5 31.1 106.5 32.1L102.8 35C103.4 30.6 103.4 27.7 102.6 26.4 101.8 25.1 100.3 24.6 97.9 24.6 92.2 24.8 85.4 29.7 77.3 39.2L79.4 40.4C84.8 34.1 88.3 30.9 89.9 30.9 90.7 30.9 90.8 32 90.3 34.3 90.3 34.5 90.2 34.6 90.3 34.6L88.5 46.9 80.3 53.7C78.4 55.3 77.1 56.1 76.5 56.1 76 56.1 75.4 55.6 74.7 54.5 74 53.5 73 53 71.8 53 70.4 53.1 69 53.6 67.5 54.7 66.1 55.8 65 57.1 64.4 58.7 63.7 60.4 63.7 61.8 64.4 63 65 64.2 66.2 64.7 67.8 64.7zM163.9 59.9L176.4 59.4 185.1 46C188.9 40.2 192.5 35.6 196 32.2 199.5 28.8 201.9 27 203.4 27 204.1 27 204.7 27.8 205.3 29.6 205.9 31.4 207.1 32.2 209.1 32.1 210.4 32.1 211.8 31.5 213.4 30.4 215 29.3 216.1 27.9 216.8 26.3 217.6 24.3 217.5 22.8 216.6 21.7 215.7 20.6 214.2 20.2 212.3 20.2 207.8 20.4 202.1 23.8 195.4 30.3L195.3 30.1 201.6 20.6 199.6 20.7 196 21.2C193.5 21.5 191.3 21.7 189.3 21.8L181.7 22.1 179.8 25.1 186.7 24.8 163.9 59.9zM205.1 45.2C203.5 49.1 203.5 52.5 205.1 55.2 206.7 57.9 210.2 59.2 215.7 59 225.7 58.6 235.2 54.3 244 46L242.2 44.4C234 51.5 226.5 55.2 219.6 55.5 215.7 55.7 214.4 54 215.7 50.6 216.4 48.9 218.1 45.9 220.8 41.7 237.6 41.7 247.8 37.2 251.4 28.2 252.6 25.3 252.4 23 251 21.3 249.6 19.7 246.8 18.9 242.7 19.1 234.4 19.4 226.6 22.3 219.4 27.8 212.3 33.3 207.5 39.1 205.1 45.2zM232.1 26C234.8 23.3 237.4 21.8 240 21.7 241.8 21.6 242.9 22.1 243.4 23.1 243.9 24.1 243.8 25.4 243.2 26.9 242.1 29.6 240 32.2 236.7 34.9 233.4 37.6 228.8 38.9 222.8 38.9 226.3 33.1 229.4 28.8 232.1 26zM247.2 45C245.6 46.1 244.5 47.3 244 48.8 243 51.4 243.5 53.6 245.8 55.2 248 56.9 251.6 57.6 256.4 57.4 262 57.2 267 55.8 271.5 53.3 276 50.8 279 47.6 280.5 43.9 281.5 41.4 281.6 39.1 280.8 37.1 280 35 278 33.1 274.6 31.2 271.3 29.3 269.3 28 268.8 27.2 268.3 26.4 268.2 25.5 268.5 24.6 269.6 21.8 272.6 20.2 277.4 20.1 280.2 20 281.4 20.5 280.9 21.7 280.8 22 280.5 22.4 280.1 23.1 279.7 23.8 279.4 24.4 279.1 25 278.5 26.5 278.5 27.7 279.1 28.6 279.7 29.5 280.8 29.9 282.2 29.8 283.7 29.7 285.2 29.2 286.7 28.2 288.2 27.2 289.2 26 289.8 24.6 290.7 22.4 290.2 20.7 288.4 19.4 286.6 18.1 283.5 17.6 279.1 17.7 273.4 17.9 268.6 19.2 264.6 21.4 260.7 23.7 258 26.5 256.6 30 254.7 34.9 256.4 38.6 261.9 41.2 267.3 43.8 269.5 46.7 268.2 49.7 267.6 51.2 266.3 52.4 264.4 53.2 262.4 54.1 260.2 54.6 257.9 54.6 255.9 54.7 254.8 54.2 254.4 53 254 51.9 254.4 49.9 255.5 47.2 255.7 46.2 255.6 45.3 255 44.4 254.5 43.5 253.4 43.1 251.8 43.1 250.4 43.3 248.8 43.9 247.2 45zM336 22.2C333.9 22.2 332 20.7 332 18.2 332 15.7 333.9 14.2 336 14.2 338.1 14.2 340 15.7 340 18.2 340 20.8 338.1 22.2 336 22.2zM336 15.1C334.4 15.1 333.1 16.3 333.1 18.2 333.1 20 334.4 21.3 336 21.3L336 21.3C337.6 21.3 338.9 20.1 338.9 18.2 338.8 16.4 337.5 15.1 336 15.1zM335.3 20.4L334.4 20.4 334.4 16.1 336 16.1C337.1 16.1 337.8 16.4 337.8 17.4 337.8 18.2 337.3 18.5 336.8 18.5L337.9 20.4 336.8 20.4 335.8 18.6 335.4 18.6 335.4 20.4 335.3 20.4zM336.1 17.8C336.5 17.8 336.8 17.7 336.8 17.2 336.8 16.8 336.3 16.7 336 16.7L335.4 16.7 335.4 17.7 336.1 17.7 336.1 17.8z"/>
    </g>
</svg>
