<svg xmlns="http://www.w3.org/2000/svg" width="340" height="168" viewBox="0 0 340 168">
    <g opacity=".818" transform="translate(0 66)" style="mix-blend-mode:multiply">
        <path d="M.464480874.18579235L14.2131148.18579235C14.2131148 9.56830601 14.2131148 19.0437158 14.2131148 28.4262295 22.3879781 28.4262295 30.5628415 28.4262295 38.6448087 28.4262295 38.6448087 30.6557377 38.6448087 32.8852459 38.6448087 35.1147541L.464480874 35.1147541.464480874.18579235zM47.4699454.18579235L85.8360656.18579235C85.8360656 2.41530055 85.8360656 4.73770492 85.8360656 6.96721311 77.6612022 6.96721311 69.4863388 6.96721311 61.2185792 6.96721311 61.2185792 9.38251366 61.2185792 11.8907104 61.2185792 14.3060109 69.3934426 14.3060109 77.568306 14.3060109 85.8360656 14.3060109 85.8360656 16.5355191 85.8360656 18.8579235 85.8360656 21.0874317 77.6612022 21.0874317 69.4863388 21.0874317 61.2185792 21.0874317 61.2185792 23.5027322 61.2185792 26.010929 61.2185792 28.4262295 69.3934426 28.4262295 77.568306 28.4262295 85.8360656 28.4262295 85.8360656 30.6557377 85.8360656 32.8852459 85.8360656 35.1147541L47.4699454 35.1147541C47.4699454 23.5027322 47.4699454 11.7978142 47.4699454.18579235zM96.6120219.18579235L112.218579.18579235C120.486339 7.89617486 128.661202 15.6065574 136.836066 23.3169399 136.928962 21.4590164 137.021858 19.6010929 136.928962 17.7431694 136.928962 11.8907104 136.928962 6.03825137 136.928962.278688525L149.562842.278688525C149.562842 11.9836066 149.562842 23.5956284 149.562842 35.3005464L133.306011 35.3005464C125.224044 27.5901639 117.234973 19.7868852 109.153005 12.0765027 109.153005 19.7868852 109.153005 27.5901639 109.153005 35.3005464L96.6120219 35.3005464C96.6120219 23.5027322 96.6120219 11.7978142 96.6120219.18579235zM160.52459.18579235L176.131148.18579235C184.306011 7.89617486 192.57377 15.6065574 200.748634 23.3169399 200.934426 19.9726776 200.84153 16.5355191 200.84153 13.0983607 200.84153 8.82513661 200.84153 4.45901639 200.84153.18579235L213.47541.18579235C213.47541 11.8907104 213.47541 23.5027322 213.47541 35.2076503L197.218579 35.2076503C189.136612 27.4972678 181.054645 19.6939891 173.065574 11.9836066 173.065574 19.6939891 173.065574 27.4972678 173.065574 35.2076503L160.52459 35.2076503C160.52459 23.5027322 160.52459 11.7978142 160.52459.18579235zM240.879781.18579235L255.836066.18579235C262.245902 11.8907104 268.655738 23.5027322 275.15847 35.2076503L261.038251 35.2076503C259.830601 32.8852459 258.622951 30.5628415 257.415301 28.2404372 252.213115 28.2404372 247.103825 28.2404372 241.901639 28.2404372 243.10929 25.9180328 244.31694 23.6885246 245.52459 21.3661202 248.311475 21.3661202 251.098361 21.3661202 253.885246 21.3661202 252.027322 17.8360656 250.262295 14.3060109 248.404372 10.7759563 244.131148 18.9508197 239.95082 27.1256831 235.677596 35.2076503L221.650273 35.2076503C227.967213 23.5027322 234.377049 11.7978142 240.879781.18579235zM283.054645.18579235L312.224044.18579235C315.289617.278688525 318.355191.371584699 321.234973 1.20765027 323.185792 1.76502732 325.043716 2.41530055 326.715847 3.53005464 327.737705 4.27322404 328.759563 5.10928962 329.409836 6.22404372 330.245902 7.61748634 330.431694 9.28961749 330.245902 10.8688525 330.060109 12.9125683 329.038251 14.863388 327.551913 16.2568306 325.322404 18.2076503 322.628415 19.3224044 319.84153 20.2513661 324.486339 25.2677596 329.224044 30.1912568 333.961749 35.2076503L317.147541 35.2076503C311.10929 28.7978142 305.163934 22.3879781 299.125683 16.0710383 302.562842 16.0710383 306.092896 16.1639344 309.530055 15.8852459 311.016393 15.7923497 312.502732 15.420765 313.803279 14.6775956 314.73224 14.1202186 315.568306 13.4699454 315.846995 12.4480874 316.125683 11.3333333 316.125683 10.1256831 315.47541 9.10382514 314.918033 8.26775956 313.989071 7.80327869 313.060109 7.43169399 311.387978 6.87431694 309.622951 6.78142077 307.857923 6.78142077 304.142077 6.68852459 300.42623 6.78142077 296.710383 6.78142077 296.710383 16.2568306 296.710383 25.8251366 296.710383 35.3005464L282.961749 35.3005464C283.054645 23.5027322 283.054645 11.7978142 283.054645.18579235zM335.355191.18579235L336.377049.18579235C338.04918.371584699 339.442623 1.95081967 339.535519 3.62295082 339.721311 5.29508197 338.513661 6.87431694 336.934426 7.33879781 336.005464 7.61748634 334.983607 7.52459016 334.147541 7.15300546 333.125683 6.68852459 332.382514 5.66666667 332.196721 4.55191257 332.103825 3.80874317 332.103825 2.9726776 332.47541 2.32240437 332.939891 1.1147541 334.147541.278688525 335.355191.18579235zM334.89071.928961749C333.68306 1.30054645 332.754098 2.50819672 332.846995 3.80874317 332.846995 5.01639344 333.68306 6.22404372 334.89071 6.68852459 335.912568 7.06010929 337.120219 6.78142077 337.956284 6.03825137 338.79235 5.29508197 339.163934 3.99453552 338.79235 2.87978142 338.234973 1.39344262 336.469945.371584699 334.89071.928961749z"/>
        <path d="M334.240437,5.85245902 C334.240437,4.45901639 334.240437,3.15846995 334.240437,1.76502732 C335.076503,1.8579235 336.005464,1.67213115 336.84153,1.8579235 C337.491803,2.04371585 337.770492,2.9726776 337.398907,3.53005464 L336.748634,3.99453552 C337.677596,4.18032787 337.491803,5.20218579 337.584699,5.85245902 C337.213115,5.85245902 336.84153,5.85245902 336.562842,5.85245902 C336.469945,5.48087432 336.562842,5.10928962 336.377049,4.73770492 C336.191257,4.36612022 335.726776,4.45901639 335.355191,4.45901639 C335.355191,4.92349727 335.355191,5.38797814 335.355191,5.85245902 C334.983607,5.85245902 334.612022,5.85245902 334.240437,5.85245902 Z M335.355191,2.50819672 C335.355191,2.87978142 335.355191,3.25136612 335.355191,3.62295082 L336.284153,3.43715847 L336.377049,2.69398907 C336.098361,2.50819672 335.726776,2.50819672 335.355191,2.50819672 Z"/>
    </g>
</svg>
