<?xml version="1.0" encoding="UTF-8"?><!DOCTYPE svg PUBLIC "-//W3C//DTD SVG 1.1//EN" "http://www.w3.org/Graphics/SVG/1.1/DTD/svg11.dtd"><svg xmlns="http://www.w3.org/2000/svg" xmlns:xlink="http://www.w3.org/1999/xlink"><symbol id="alert-negative" viewBox="0 0 36 36"><g fill="#FF492D" fill-rule="nonzero"><path d="M17.85 36.32C8.025 36.32 0 28.24 0 18.273S8.025.302 17.85.302c9.825 0 17.85 8.08 17.85 17.971 0 9.892-7.95 18.047-17.85 18.047zm0-33.753c-8.625 0-15.6 7.023-15.6 15.706 0 8.684 6.975 15.707 15.6 15.707s15.6-7.023 15.6-15.707c.075-8.683-6.975-15.706-15.6-15.706z" opacity=".3"/><path d="M17.85 19.935l-4.5 4.53c-.15.151-.45.227-.75.227s-.6-.076-.825-.302a1.1 1.1 0 0 1 0-1.586L16.2 18.35l-4.425-4.455a1.1 1.1 0 0 1 0-1.586 1.082 1.082 0 0 1 1.575 0l4.425 4.455 4.5-4.53a1.082 1.082 0 0 1 1.575 0 1.1 1.1 0 0 1 0 1.585l-4.425 4.455 4.425 4.456a1.1 1.1 0 0 1 0 1.585c-.15.302-.45.378-.75.378s-.6-.076-.825-.302l-4.425-4.455z"/></g></symbol><symbol id="alert-positive" viewBox="0 0 36 36"><g fill="#309250" fill-rule="evenodd"><path fill-rule="nonzero" d="M17.927 35.339C8.302 35.339.44 27.478.44 17.853.44 8.23 8.302.367 17.927.367c9.624 0 17.485 7.862 17.485 17.486 0 9.625-7.788 17.486-17.485 17.486zm0-32.841c-8.45 0-15.282 6.833-15.282 15.282S9.478 33.06 17.927 33.06 33.208 26.23 33.208 17.78c.074-8.45-6.832-15.282-15.281-15.282z" opacity=".3"/><path d="M16.31 22.996c-.294 0-.588-.147-.808-.294l-3.6-3.6a1.065 1.065 0 0 1 0-1.543c.44-.44 1.102-.44 1.543 0l2.792 2.792 6.539-6.392c.44-.44 1.102-.44 1.542 0 .441.441.441 1.102 0 1.543l-7.2 7.2c-.22.22-.514.294-.808.294z"/></g></symbol><symbol id="arrow-left" viewBox="0 0 24 24"><path d="M14.72 18.737a.913.913 0 0 1-1.285 0l-6.169-6.094a.892.892 0 0 1 0-1.27l6.17-6.094a.914.914 0 0 1 .885-.25c.319.082.568.328.65.644a.89.89 0 0 1-.254.875l-5.527 5.46 5.527 5.46a.892.892 0 0 1 .002 1.269z"/></symbol><symbol id="arrow-right" viewBox="0 0 24 24"><path d="M9.28 18.737a.913.913 0 0 0 1.285 0l6.169-6.094a.892.892 0 0 0 0-1.27l-6.17-6.094a.914.914 0 0 0-.885-.25.902.902 0 0 0-.65.644.89.89 0 0 0 .254.875l5.527 5.46-5.527 5.46a.892.892 0 0 0-.002 1.269z"/></symbol><symbol id="brief-developers" viewBox="0 0 30 29"><path fill-rule="evenodd" clip-rule="evenodd" d="M6.277 7.677a1.24 1.24 0 0 1 0-.145 1.479 1.479 0 0 1 .332-2.812 4.71 4.71 0 0 1 3.126-2.952 1.403 1.403 0 0 1 2.62 0 4.71 4.71 0 0 1 3.133 2.952 1.45 1.45 0 0 1 1.21 1.432 1.49 1.49 0 0 1-.634 1.234c.021.096.031.194.03.291v.583a1.467 1.467 0 0 1-.886 1.345 4.927 4.927 0 0 1-.652 2.003l-.81 1.35a1.747 1.747 0 0 1-1.49.856h-2.154A1.747 1.747 0 0 1 8.6 12.96l-.798-1.351a4.927 4.927 0 0 1-.634-2.003 1.461 1.461 0 0 1-.891-1.345v-.583zm8.96-1.816H6.86l-.012.017a.291.291 0 0 0-.29.268.303.303 0 0 0 .29.332h8.396a.285.285 0 0 0 .286-.285.304.304 0 0 0-.291-.332zm-.322 2.514a.283.283 0 0 0 .02-.11l-.018-.576a.053.053 0 0 0 0-.029H7.424v.611a.291.291 0 0 0 .285.291.582.582 0 0 1 .582.583c0 .661.177 1.31.513 1.88l.803 1.357a.583.583 0 0 0 .495.28h2.154a.581.581 0 0 0 .49-.286l.797-1.35c.343-.57.526-1.222.53-1.887a.582.582 0 0 1 .582-.582.285.285 0 0 0 .26-.182zM9.648 3.252v-.227l-.012.024a3.58 3.58 0 0 0-1.764 1.665h6.335a3.58 3.58 0 0 0-1.747-1.665v.232a.582.582 0 0 1-1.164 0v-.99a.238.238 0 0 0-.245-.238.239.239 0 0 0-.239.239v.96a.583.583 0 0 1-1.164 0zM21.503 25H.582A.582.582 0 0 1 0 24.418V20.83c0-.314 0-1.141 7.488-6.044a.582.582 0 0 1 .728.07l1.001.979.582-.583a.583.583 0 0 1 .414-.175h1.927c.153.003.3.066.407.175l.53.524.891-.92a.582.582 0 0 1 .74-.081c7.377 4.89 7.377 5.747 7.377 6.055v3.587a.582.582 0 0 1-.582.582zM10.69 19.614l-.792 4.222h2.55l-.803-4.222h-.955zm1.235-3.348H10.48l-.384.39.384.373h1.439l.378-.39-.373-.373zm-4.17-.262c-2.957 1.957-6.165 4.286-6.59 4.92v2.912h7.569l.896-4.903a.583.583 0 0 1 .583-.477h1.915a.582.582 0 0 1 .582.477l.92 4.908h7.29v-2.91c-.413-.636-3.54-2.959-6.451-4.91l-.88.91a.502.502 0 0 1-.075.116l-.093.058-.862.89a.58.58 0 0 1-.42.181h-1.926a.582.582 0 0 1-.408-.163l-2.05-2.009z" fill="#000"/></symbol><symbol id="brief-information" viewBox="0 0 30 28"><path fill-rule="evenodd" clip-rule="evenodd" d="M20.042 4.986h-2.056V3.444a.514.514 0 0 0-.514-.513h-2.055V1.389a.514.514 0 0 0-.514-.514H5.108a.56.56 0 0 0-.134.026h-.046a.601.601 0 0 0-.154.097L.149 5.623a.601.601 0 0 0-.098.154.185.185 0 0 0 0 .047.56.56 0 0 0-.025.133L0 6.014v13.361a.514.514 0 0 0 .514.514h2.055v1.542a.514.514 0 0 0 .514.513H5.14v1.542a.514.514 0 0 0 .514.514h14.389a.513.513 0 0 0 .514-.514V5.5a.514.514 0 0 0-.514-.514zM4.625 2.627V5.5H1.752l2.873-2.873zm-3.597 3.9h4.11a.514.514 0 0 0 .515-.513V1.903h8.736V18.86H1.028V6.528zm2.57 13.362h11.305a.514.514 0 0 0 .514-.514V3.958h1.541v16.959H3.598v-1.028zm15.93 3.083H6.167v-1.028h11.305a.514.514 0 0 0 .514-.513V6.014h1.542v16.958zM4.974 11.385l.422.139v1.685a.514.514 0 0 0 .514.514h4.11a.514.514 0 0 0 .515-.514v-1.685l.421-.139a.514.514 0 0 0 .16-.89l-.838-.672V8.538a.514.514 0 0 0-1.028 0v.452l-.997-.807a.514.514 0 0 0-.653 0l-2.79 2.313a.514.514 0 0 0-.175.488.513.513 0 0 0 .34.401zm2.96-2.138l1.455 1.177a.36.36 0 0 0 .082.067l.277.226a.514.514 0 0 0-.241.437v1.541H6.424v-1.541a.514.514 0 0 0-.257-.442l1.767-1.465zm4.913-5.289h-2.055a.514.514 0 1 1 0-1.028h2.055a.514.514 0 0 1 0 1.028zM4.111 17.32a.514.514 0 0 0-.514-.514H2.57a.514.514 0 0 0 0 1.028h1.028a.514.514 0 0 0 .514-.514zm.833.472l-.093-.046-.077-.062a.54.54 0 0 1-.149-.364c0-.068.015-.134.041-.196a.59.59 0 0 1 .108-.17.513.513 0 0 1 .56-.107l.093.046.077.062a.59.59 0 0 1 .108.17.54.54 0 0 1-.108.57.514.514 0 0 1-.17.108.305.305 0 0 1-.097.03h-.098l-.098-.01a.308.308 0 0 1-.097-.03z" fill="#000"/></symbol><symbol id="brief-projects" viewBox="0 0 30 28"><path fill-rule="evenodd" clip-rule="evenodd" d="M16.865 4.579h3.79a.525.525 0 0 1 .525.525v2.1a.525.525 0 0 1-.525.524h-6.483a.525.525 0 0 1 0-1.05h5.958v-1.05h-8.582V22.95h3.15V21.9h-1.05a.525.525 0 0 1 0-1.05h1.05v-1.574a.525.525 0 0 1 1.049 0v3.674h1.249a.525.525 0 1 1 0 1.05H.525A.525.525 0 0 1 0 23.475v-3.15a.525.525 0 0 1 .525-.524h1.05v-1.05H.525A.525.525 0 0 1 0 18.226v-2.1a.525.525 0 0 1 .525-.524h1.05v-1.05H.525A.525.525 0 0 1 0 14.027v-2.1a.525.525 0 0 1 .525-.525h1.05v-1.05H.525A.525.525 0 0 1 0 9.829v-2.1a.525.525 0 0 1 .525-.525h1.05v-1.05H.525A.525.525 0 0 1 0 5.63v-2.1a.525.525 0 0 1 .525-.525h10.498a.262.262 0 0 1 .068 0 .147.147 0 0 1 .068 0l5.706 1.575zM6.824 6.153h-4.2v1.05h4.2v-1.05zm0 4.2h-4.2v1.05h4.2v-1.05zm0 4.199h-4.2v1.05h4.2v-1.05zm0 4.199h-4.2v1.05h4.2v-1.05zm.525 2.1h-6.3v2.1h9.449V4.053H1.05v1.05h6.299a.525.525 0 0 1 .524.525v2.1a.525.525 0 0 1-.524.524h-6.3v1.05h6.3a.525.525 0 0 1 .524.525v2.1a.525.525 0 0 1-.524.524h-6.3v1.05h6.3a.525.525 0 0 1 .524.525v2.1a.525.525 0 0 1-.524.524h-6.3v1.05h6.3a.525.525 0 0 1 .524.525v2.1a.525.525 0 0 1-.524.525zm5.527-16.272l-1.328-.362v.362h1.328zm7.977 6.96a5.25 5.25 0 0 1 3.292-1.185A5.25 5.25 0 0 1 26.297 20.4l-1.658 3.313a.526.526 0 0 1-.934 0l-1.66-3.313a5.248 5.248 0 0 1-1.192-8.861zm4.594 8.216a.526.526 0 0 1 .273-.252h-.026a4.199 4.199 0 1 0-3.097 0 .526.526 0 0 1 .273.252l1.275 2.546 1.302-2.546zm-1.302-6.776a2.624 2.624 0 1 0 0 5.248 2.624 2.624 0 0 0 0-5.248zm0 4.199a1.574 1.574 0 1 1 0-3.149 1.574 1.574 0 0 1 0 3.149zm-9.973-7.399h5.774c.14 0 .273-.052.371-.146a.488.488 0 0 0 .154-.354.488.488 0 0 0-.154-.353.538.538 0 0 0-.37-.147h-5.775a.539.539 0 0 0-.37.147.488.488 0 0 0-.155.353c0 .133.056.26.154.354a.539.539 0 0 0 .371.146zm4.724 1.599a.488.488 0 0 0-.153-.354.538.538 0 0 0-.371-.146h-4.2a.539.539 0 0 0-.37.146.488.488 0 0 0-.155.354c0 .133.056.26.154.354a.539.539 0 0 0 .371.146h4.2c.139 0 .272-.053.37-.146a.488.488 0 0 0 .154-.354zm-4.724 1.6h2.625c.139 0 .273.053.37.147.1.094.155.22.155.354 0 .132-.056.26-.154.353a.539.539 0 0 1-.371.146h-2.625a.539.539 0 0 1-.37-.146.489.489 0 0 1-.155-.354c0-.132.056-.26.154-.353a.539.539 0 0 1 .371-.146zm2.625 2.1h-2.625a.539.539 0 0 0-.37.147.488.488 0 0 0-.155.353c0 .133.056.26.154.354a.539.539 0 0 0 .371.146h2.625c.139 0 .273-.053.37-.146a.488.488 0 0 0 .155-.354.488.488 0 0 0-.154-.353.538.538 0 0 0-.371-.147z" fill="#000"/></symbol><symbol id="button-map" viewBox="0 0 24 24"><path d="M17.615 16.767c.189.466.137.983-.171 1.383a1.515 1.515 0 0 1-1.269.667H7.518c-.514 0-.977-.25-1.269-.667a1.504 1.504 0 0 1-.137-1.4l1.114-2.617c.24-.55.806-.916 1.423-.916h.206c-.823-1.034-1.56-2.017-1.851-2.584-.635-1.2-.738-2.666-.292-4a5.233 5.233 0 0 1 2.692-3.066A5.375 5.375 0 0 1 11.838 3c2.074 0 3.926 1.117 4.851 2.9.806 1.567.806 3.3-.017 4.767-.326.566-1.08 1.566-1.868 2.566h.274c.634 0 1.183.35 1.423.917l1.114 2.617zM9.901 4.5c-2.143 1.05-2.983 3.667-1.92 5.683.497.934 2.537 3.4 3.445 4.484a.55.55 0 0 0 .429.2.576.576 0 0 0 .429-.2c.891-1.084 2.914-3.55 3.445-4.484.669-1.183.635-2.566 0-3.8-.754-1.483-2.28-2.333-3.874-2.333-.669 0-1.32.15-1.954.45zm6.291 13.283c.326 0 .549-.316.412-.616l-1.115-2.617a.48.48 0 0 0-.428-.267h-1.115c-.308.384-.6.734-.84 1.034a1.655 1.655 0 0 1-1.268.583c-.497 0-.96-.217-1.269-.583-.274-.334-.565-.684-.857-1.034H8.65c-.188 0-.36.1-.428.267l-1.115 2.617a.45.45 0 0 0 .429.616h8.657zm-2.074-9.516c0 1.216-1.012 2.2-2.263 2.2s-2.263-.984-2.263-2.2c0-1.217 1.012-2.2 2.263-2.2s2.263.983 2.263 2.2zm-3.446 0c0 .633.532 1.15 1.183 1.15s1.183-.517 1.183-1.15c0-.634-.532-1.15-1.183-1.15s-1.183.516-1.183 1.15z"/></symbol><symbol id="button-share" viewBox="0 0 24 24"><path d="M12.924 17.981c-.09 0-.18 0-.27-.043-.27-.085-.406-.341-.406-.597V14.01a7.716 7.716 0 0 0-5.318 2.092L5.127 17.81c-.18.171-.496.256-.721.128-.27-.085-.406-.341-.406-.597v-.385c0-4.44 3.65-8.113 8.248-8.455v-2.86c0-.257.18-.47.406-.598.225-.086.54-.043.72.128l6.4 5.636a.67.67 0 0 1 .226.47c0 .17-.09.342-.18.47l-6.4 6.063c-.135.128-.316.171-.496.171zm-.631-5.252h.63c.362 0 .677.299.677.64v2.434l4.732-4.483L13.6 7.135v2.007c0 .342-.315.64-.676.64-3.74 0-6.806 2.563-7.482 5.893l.496-.47a9.35 9.35 0 0 1 6.355-2.476z"/></symbol><symbol id="button-us-map" viewBox="0 0 32 32"><path d="M25.66 25.079a.31.31 0 0 1-.304.04.293.293 0 0 1-.117-.09l-1.168-1.449a1.95 1.95 0 0 0-1.324-.717l.007-.396.563-.18.005-.003.007-.002 1.395-.54.442.03a2.698 2.698 0 0 0 .256 1.026l.212.449a2.351 2.351 0 0 1 .128 1.68.286.286 0 0 1-.103.152zM21.09 22.122l.003.013.198.829c-.19.043-.375.098-.557.167l-.11-.619V22.502a.26.26 0 0 0-.011-.034l-.01-.02-.01-.019a.176.176 0 0 0-.021-.028l-.005-.006v-.001l-.576-.602-.117-.587-.034-.902.1-.213.889-.179.26 2.198.002.012zM22.87 21.108l.131.815-.532.171-.007.003-.02.01-.019.009-.017.013-.017.012-.015.016-.014.016-.011.019-.01.017-.01.021-.006.02-.003.02-.003.024-.001.007-.01.556-.161.004a3.84 3.84 0 0 0-.418.029l-.2-.845-.264-2.22.935-.186.672 1.47zM23.514 19.915l.903.305.807.847a2.519 2.519 0 0 0-.043.264l-.476-.033h-.004l-.025.001-.02.002-.018.004c-.009.002-.017.003-.024.006l-.004.002-1.186.459-.122-.764-.002-.006-.006-.023-.007-.02-.002-.007-.64-1.402.71-.143.009.306.001.004c0 .009.001.017.003.025l.003.019.007.02.008.02.01.017.011.019.015.016.014.015.016.014.02.012.016.01.023.01h.003zM24.735 19.118l.014.007.022.011.02.006.02.006.022.003h.043l.021-.003.024-.007.015-.004.448-.18.642.475-.492.837c-.06.103-.112.21-.158.317l-.677-.71-.006-.005-.018-.016-.017-.012-.019-.01-.02-.01-.009-.004-.809-.274-.008-.26.735-.3.207.133zM26.365 17.602a2.55 2.55 0 0 1-.137 1.43l-.68-.502-.004-.003-.021-.012-.017-.01-.02-.006-.02-.007-.021-.003-.02-.003-.022.002-.022.002-.018.004-.024.007-.004.001-.457.183-.174-.112-.387-.507 2.029-.586c.005.04.012.081.02.121v.001h-.001zM23.504 18.926l-3.328.667.041-.09h.001V19.5l.004-.01.005-.011.003-.009.003-.01v-.002l.108-.422 3.18-.742.006-.002h.006l.327-.096.34.445-.696.284zM23.416 17.866l-2.934.684.35-.697.505.126.014.002.023.003h.042l.022-.005.02-.005.02-.007.02-.01.017-.01.017-.014.018-.016.009-.01.412-.483v-.001l.013-.02.012-.018h.001l.203-.382.528.19.012.003a.18.18 0 0 0 .024.005l.02.002.022.001.022-.001.02-.003.023-.006.012-.005.288-.114.437.735-.192.056zM25.31 16.635l1.05-.136c-.031.175-.05.352-.05.53l-1.74.504.74-.898z" fill="#fff"/><path d="M27.105 14.44c-.269.367-.462.788-.563 1.238l-.082.361-1.293.168-.015.004-.024.006-.02.008-.02.009-.018.012-.017.012-.017.018-.01.01-1.052 1.274-.426-.718.343-.31.008-.01.016-.018.014-.019.007-.01.258-.466 1.75-.537.004-.002.023-.01.017-.008.018-.012.016-.013.014-.014.016-.017.011-.018.012-.018.008-.019.008-.02.003-.02c.002-.008.004-.016.004-.024v-.004l.07-1.198.095.073.014.01.021.012.023.009.015.006.727.21.042.046zM28.088 12.83l.006.042.006.064c.024.33-.117.654-.378.862a3.118 3.118 0 0 0-.33.3l-.013-.014-.389-1.068.804-.642.298.073a1.392 1.392 0 0 0-.004.383zM28.554 9.945a1.85 1.85 0 0 1-.204 1.891c-.046.06-.086.124-.12.19l-.34-.084-.489-.934c.103-.123.198-.255.284-.394l.014-.026.285-.648a.298.298 0 0 1 .261-.184.32.32 0 0 1 .177.038.31.31 0 0 1 .128.142l.005.009zM26.772 12.297l-.008-.02-.01-.02v-.003l-.265-.484c.212-.12.41-.263.589-.426l.383.73-.612.49-.076-.265v-.002zM26.52 13.018l.309.848-.332-.095-.391-.298-.002-.001-.02-.013-.015-.01h-.003l-.018-.008-.02-.006-.002-.001-.02-.004-.021-.003h-.021l-.021.002h-.003l-.02.005h-.006l-.012.004h-.003l-1.425.47.087-.12a1.89 1.89 0 0 1 .327-.348l.1-.082c.318-.263.561-.606.703-.994a.645.645 0 0 1 .33-.363l.071-.034.263.477.16.558.003.009.002.007z" fill="#fff"/><path d="M25.731 13.96l-.065 1.134-1.475.454-.275-.92a.85.85 0 0 0 .11-.106l1.705-.562zM23.434 14.818a.728.728 0 0 0 .074-.01l.296.99-.237.43-.42.381-.348.14-.515-.185-.32-1.369 1.078-.442c.125.053.26.074.392.065zM21.542 15.337l.32 1.364-.244.455-.306.36-.37-.091.025-.541v-.003l-.002-.022-.001-.023v-.002l-.236-1.27.814-.227zM21.908 13.207c.06-.005.12-.005.18.001.204.018.366.18.384.384l.04.44a.872.872 0 0 0 .142.403l-1.021.418-1.017.283-.062-.184.3-.367.008-.012.012-.02.01-.019.008-.019.006-.021.003-.021.003-.02-.001-.022-.003-.021-.004-.02a.115.115 0 0 0-.007-.024l-.004-.012-.166-.37a.93.93 0 0 0 .26-.214l.135-.16c.201-.238.489-.382.794-.403zM19.49 12.05a.268.268 0 0 1 .122.447l-.01.01a.955.955 0 0 0-.16.218l-.68-.205-.021-.005-.022-.004h-.002l-.52-.052.55-.601.743.192zM19.528 13.743a.928.928 0 0 0 .76.357l.137.31-.29.356-.002.002-.015.022-.009.016-.009.019-.007.02-.004.02-.003.022V14.929l.004.018a.267.267 0 0 0 .005.026l.001.003.163.485.265 1.428-.029.65-.337.67-.704-.519-.489-.643-.095-1.336.26-.594.006-.014.007-.023.003-.02.003-.022v-.02l-.002-.022a.208.208 0 0 0-.005-.022l-.006-.02c-.002-.007-.006-.014-.01-.021l-.005-.014-.447-.782-.002-.004-.014-.019-.014-.017-.002-.003-.537-.56-.103-.65.652.065.677.204.001.081c.012.18.078.357.196.509zM18.573 17.262l.548.722.006.005.016.017.016.016.007.005.822.605-.124.486-.786-.276-.008-.002-.022-.006-.02-.003h-.054l-1.228.177-.007-.052a.19.19 0 0 0-.013-.094l-.178-1.346-.004-.018-.004-.018-.13-.428-.008-.018-.009-.019v-.004l-.01-.014-.013-.017-.003-.004-.012-.013-.015-.014-.004-.004-.107-.086 1.268-.165.032.447v.003l.002.014.004.028.008.02.007.02c.004.009.01.016.015.025l.008.011zM19.714 19.534l-.297.63-.002.007-.009.023-.005.02-.003.02c0 .008-.002.016-.001.024l-.001.008.03.795-1.27.32-.137-.31-.216-1.626 1.18-.169.731.258zM18.841 22.756v-.022l-.005-.023-.005-.019a.232.232 0 0 0-.016-.035l-.002-.004-.394-.679-.081-.183 1.145-.288.088.44.004.014.007.025.01.02.01.018.016.02.009.012.575.601.116.66c-.05.026-.102.052-.152.08a3.788 3.788 0 0 1-1.329.441l-.191.026-.018-.253.207-.787.001-.007a.164.164 0 0 0 .006-.035v-.022zM13.344 22.763h.004l.02-.003.022-.003.02-.007.021-.006.02-.01.017-.012.017-.013.016-.014.013-.017.013-.017.01-.017.01-.02.006-.02.006-.022.002-.021.002-.021v-.004l-.059-1.914 1.14-.037.038.502.003.013c0 .008.002.017.004.024l.006.02.009.02.01.019.011.018.014.015.015.016.017.013.017.012.022.012.012.006 1.152.453.006.002.022.007.02.003.021.002h.022l.02-.002.022-.003.019-.007.022-.008.006-.002.83-.42.671.044.363.82.006.011.005.01.355.611-.194.734-.002.014-.004.022V23.602l.022.318-.733.1a1.032 1.032 0 0 0-.89 1.089l.038.582a.432.432 0 0 1-.749.322l-.691-.748a5.563 5.563 0 0 0-2.527-1.565l-1.273-.371.06-.547 1.903-.019z" fill="#fff"/><path d="M17.321 19.18l.228 1.713-.595-.038h-.038l-.021.004-.02.005-.023.008-.012.006-.796.402-.931-.366-.045-.574-.002-.015-.005-.024-.006-.019-.009-.02-.01-.02-.012-.017-.014-.016-.015-.016-.017-.012-.017-.013-.019-.01-.02-.008-.021-.005-.02-.005-.023-.002-.017-.001-1.35.043-.02-.686c.39-.019.771-.042 1.145-.069a79.971 79.971 0 0 0 2.705-.246zM17.111 17.592l.153 1.148c-.846.09-1.737.177-2.68.244-.21.015-.423.028-.638.042l-.082-1.49 3.172-.188.075.244zM15.72 11.445a9.45 9.45 0 0 1 2.543.287l-.69.754-.002.005-.008.01-.01.013-.008.013-.005.01-.007.015-.005.014-.003.01-.004.017-.002.016-.002.005v.038l.002.013v.005l.16 1.002a.24.24 0 0 0 .01.036l.002.007a.12.12 0 0 0 .01.022l.008.017.007.008c.006.01.013.019.02.026l.001.002.566.59.378.661-.238.543-.002.008-.008.022-.005.021-.002.02a.21.21 0 0 0 0 .024v.01l.04.563-1.678.217-.262-.363-.09-.565-.103-.69-.083-1.167v-.006l-.005-.023-.005-.022-.002-.007-.328-.933-.105-1.058v-.001c0-.01-.003-.018-.005-.027l-.004-.017-.005-.013a.155.155 0 0 0-.013-.028v-.002l-.058-.102zM13.21 11.274l.248.042c.581.1 1.17.147 1.76.141l.152.268.103 1.037v.005l.005.021a.199.199 0 0 0 .005.023l.001.003.107.306-2.817.2-.058-2.116c.165.02.33.042.494.07zM15.743 13.553l.068.192.081 1.146.002.008v.009l.054.363-.729-.2-.014-.003-.024-.003h-.023l-.014-.001-2.317.175-.04-1.476 2.956-.21zM16.611 16.93l-2.771.165-.023-.422c0-.008-.002-.015-.003-.022l-.004-.021-.007-.022-.007-.019-.012-.02-.011-.016-.015-.017-.013-.015-.017-.013-.018-.012-.019-.01-.018-.009-.022-.006-.02-.005h-.024l-.02-.002-.725.029-.022-.812 2.3-.174.881.243.078.478.001.006.006.023.007.02.01.018.011.02.003.007.369.512.005.006.006.01.011.01.014.014.005.004.064.052zM11.008 16.972c.46 0 .988-.008 1.645-.03.229-.008.473-.017.734-.028l.117 2.136c-.982.05-2.015.072-3.104.051l.056-2.136c.175.004.357.007.552.007zM13.029 19.514l.027.9v.001l.058 1.908-1.873.019-.01.001-.023.003-.02.004-.022.006-.02.008-.017.01-.018.012-.016.014-.016.014-.013.017-.012.018-.01.018-.008.02-.007.02-.005.023-.002.009-.071.665-.272-.08a5.84 5.84 0 0 1-.384-.13l.092-3.45c.92.017 1.8.004 2.642-.03zM7.632 20.968l-.001-.021-.003-.021-.005-.023-.003-.012-.153-.426.302-.515.001-.004.011-.022.008-.02.004-.018a.12.12 0 0 0 .004-.024l.002-.005.036-.443c.725.06 1.43.098 2.11.119l-.087 3.277-2.48-1.093-.034-.23.254-.404.006-.01.01-.022.008-.02.005-.02.003-.021.002-.022zM8.101 16.19c.308.03.63.06.966.089l-.016.405.001.02v.022l.007.022.005.02.009.02.01.018.012.018.012.016.016.015.015.014.019.012.018.01.021.009.02.006.023.004.018.003c.255.016.503.029.758.039l-.058 2.137a40.337 40.337 0 0 1-2.086-.116l.23-2.782zM12.361 14.4l.059 2.107c-.553.016-1.01.024-1.411.023-.57 0-1.03-.018-1.508-.044l.086-2.126 2.774.04zM12.272 11.162l.078 2.796-2.972-.043h-.011l-.838.033-.028-.884v-.001c0-.01-.003-.018-.004-.027l-.002-.018-.006-.016c-.003-.009-.005-.017-.01-.025v-.002l-.313-.643.14-1.299 3.596.11c.124.004.247.01.37.02z" fill="#fff"/><path d="M8.323 14.398l.821-.032-.06 1.471a88.132 88.132 0 0 1-2.388-.239l.08-.815-.001-.045a.256.256 0 0 0-.01-.044l-.145-.468.289-.875v-.002l.004-.018.004-.015v-.004l.001-.006v-.002l.225-2.306.72.022-.144 1.328v.04l.002.021.005.022a.24.24 0 0 0 .008.023l.006.015.32.657.033 1.059.003.02c0 .009.001.017.004.024l.006.02.008.02.01.019.011.02.015.015.014.016.016.013.017.013.02.01.019.009.02.005.021.006.023.002h.022zM5.253 15.867a83.49 83.49 0 0 0 2.408.28l-.3 3.623-.17.292-2.167-2.538.23-1.657z" fill="#fff"/><path d="M6.9 21.506l-.808-.356A5.185 5.185 0 0 1 3 16.443l-.007-.895c.573.084 1.167.172 1.823.261l-.242 1.753v.006l-.001.023v.02l.004.021.004.021.007.02.009.02.01.017.014.02.004.005 2.406 2.82.137.383-.241.38-.005.01-.01.021-.008.02-.006.021-.003.022-.001.02v.024l.001.012.005.038zM6.176 14.287v.003l.155.494-.075.764c-1.278-.153-2.297-.305-3.267-.448v-.02c-.003-.453.087-.9.267-1.316.12-.279.205-.57.254-.87l.444-.005.073.54v.005l.001.007.005.016.007.02.008.02.01.02.013.017.014.017.016.014.016.014.017.01.019.011.02.007.02.007.021.003.022.002h.022l.016-.001.006-.002h.006l.676-.129.956-.102.488.075-.23.694v.003l-.006.026-.003.017v.043l.003.018c.002.01.003.018.006.026z" fill="#fff"/><path d="M5.465 10.836c.408.074.82.121 1.235.144l-.2 2.048-.543-.084H5.95a.232.232 0 0 0-.023-.002l-.023.001H5.9l-.993.106-.009.002h-.01l-.455.088-.068-.503-.002-.009-.005-.023-.007-.02-.01-.019-.01-.019-.012-.017-.014-.016-.015-.014-.017-.013-.018-.013-.018-.009-.02-.008-.02-.006-.021-.003-.024-.002h-.008l-.59.006.004-.073.04-1.881 1.867.34z" fill="#fff"/></symbol><symbol id="button-website" viewBox="0 0 24 24"><path d="M9.61 14.206h4.722c.4-1.451.4-2.99 0-4.441H9.61a8.36 8.36 0 0 0 0 4.44zm.297.882a8.252 8.252 0 0 0 1.828 2.765c.068.068.11.15.126.234a6.258 6.258 0 0 0 .22 0 .444.444 0 0 1 .125-.234 8.252 8.252 0 0 0 1.828-2.765H9.907zm7.79-.882a6.113 6.113 0 0 0 .007-4.441h-2.463a9.216 9.216 0 0 1 .005 4.44h2.451zm-.43.882h-2.288a9.04 9.04 0 0 1-1.668 2.86 6.118 6.118 0 0 0 3.956-2.86zm-10.964-.882H8.7a9.216 9.216 0 0 1-.004-4.441H6.29a6.113 6.113 0 0 0-.409 2.206c0 .789.15 1.543.42 2.235zm.43.882a6.12 6.12 0 0 0 3.887 2.844 9.135 9.135 0 0 1-1.652-2.844H6.733zm3.174-6.206h4.127a8.252 8.252 0 0 0-1.828-2.764.44.44 0 0 1-.13-.265 6.199 6.199 0 0 0-.21.001.44.44 0 0 1-.13.264 8.252 8.252 0 0 0-1.83 2.764zm7.37 0a6.145 6.145 0 0 0-4-2.895 9.136 9.136 0 0 1 1.696 2.895h2.303zm-10.56 0h2.245a9.04 9.04 0 0 1 1.685-2.88 6.12 6.12 0 0 0-3.93 2.88zM12 19c-3.853 0-7-3.147-7-7s3.147-7 7-7 7 3.118 7 6.97c0 3.854-3.147 7.03-7 7.03z"/></symbol><symbol id="channel-email" viewBox="0 0 20 20"><path fill-rule="evenodd" clip-rule="evenodd" d="M17.68 15.407a1.625 1.625 0 0 1-1.256.593H3.61c-.507 0-.957-.22-1.251-.566a.67.67 0 0 1-.11-.085.466.466 0 0 1-.144-.335A1.495 1.495 0 0 1 2 14.458V6.542C2 5.685 2.716 5 3.61 5h12.778c.418 0 .797.15 1.082.396a.427.427 0 0 1 .14.137c.242.27.389.622.389 1.01v7.915c.01.232-.038.45-.13.647a.527.527 0 0 1-.12.244.659.659 0 0 1-.07.058zm-14.07-.435a.518.518 0 0 1-.108-.011l4.503-4.098 1.654 1.402a.47.47 0 0 0 .358.137c.108 0 .25-.069.358-.137l1.636-1.386 4.511 4.075a.523.523 0 0 1-.134.018H3.611zm13.315-1.054V6.715L12.811 10.2l4.114 3.717zM3.074 6.685l4.131 3.5-4.131 3.733V6.685zm.831-.657l6.112 5.175 6.113-5.175H3.905z" fill="#FF492D"/></symbol><symbol id="channel-location" viewBox="0 0 20 20"><path fill-rule="evenodd" clip-rule="evenodd" d="M1.897 7.288c.428-4 3.785-7.141 7.783-7.284 4.57-.143 8.426 3.499 8.426 8.14 0 4.356-4.07 8.926-7.283 11.568-.5.358-1.143.358-1.643 0-3.427-2.856-7.712-7.569-7.283-12.424zm7.855-6.07c-3.428.143-6.284 2.785-6.57 6.212-.428 4.356 3.785 8.712 6.784 11.354 3-2.5 6.784-6.57 6.926-10.64 0-3.927-3.284-6.997-7.14-6.926zm-4 6.998c0-2.357 1.929-4.285 4.214-4.285a4.297 4.297 0 0 1 4.284 4.285c0 2.356-1.928 4.213-4.284 4.213-2.285 0-4.213-1.857-4.213-4.213zm1.215 0c0 1.642 1.356 2.999 2.999 2.999 1.714 0 3.07-1.357 3.07-3a3.048 3.048 0 0 0-3.07-3.07c-1.643 0-3 1.357-3 3.07z" fill="#FF492D"/></symbol><symbol id="channel-phone" viewBox="0 0 20 20"><path fill-rule="evenodd" clip-rule="evenodd" d="M14.176 18.282c.208.051.363.051.57.051.727 0 1.454-.307 1.972-.871l.779-.77c1.141-1.076 1.09-2.923 0-4l-.986-.974c-.467-.461-1.141-.718-1.816-.615-.675.05-1.245.461-1.608 1.025-.156.205-.364.36-.571.41-.26 0-.467-.05-.675-.205l-.051-.05c-1.66-1.334-2.958-2.565-4.307-4.257l-.207-.257c-.104-.154-.104-.256-.104-.41.052-.154.104-.256.26-.359.674-.41 1.089-1.026 1.193-1.795.052-.718-.208-1.487-.727-2l-.726-.718a2.881 2.881 0 0 0-2.023-.82c-.779 0-1.505.256-2.024.82l-.467.462c-.778.769-1.141 1.846-.934 2.923.623 3.436 2.854 5.949 4.722 7.795 1.816 1.795 4.358 3.949 7.73 4.615zM4.215 3.564c.26-.256.57-.41.934-.41.31 0 .674.154.933.41l.727.718c.207.205.311.513.26.77 0 .256-.156.512-.416.666-.519.308-.882.82-.986 1.385-.103.564.052 1.18.415 1.64L6.29 9a26.996 26.996 0 0 0 4.566 4.513l.052.051c.57.462 1.245.616 1.92.513.674-.102 1.244-.513 1.608-1.128.103-.154.259-.308.466-.308a.67.67 0 0 1 .52.205l1.089.923a1.29 1.29 0 0 1 0 1.847l-.778.769c-.312.307-.779.461-1.194.359-2.957-.564-5.292-2.564-6.952-4.205-1.712-1.641-3.736-3.95-4.306-6.975a1.694 1.694 0 0 1 .467-1.538l.467-.462z" fill="#FF492D"/></symbol><symbol id="complex-share" viewBox="0 0 16 16"><path fill-rule="evenodd" clip-rule="evenodd" d="M8.654 14.081c.09.043.18.043.27.043.18 0 .36-.043.496-.171l6.4-6.063c.09-.129.18-.3.18-.47a.67.67 0 0 0-.225-.47l-6.4-5.636c-.18-.171-.496-.214-.721-.128-.226.128-.406.341-.406.597v2.861C3.65 4.986 0 8.658 0 13.1v.384c0 .256.135.513.406.598.225.128.54.043.72-.128l1.804-1.708a7.716 7.716 0 0 1 5.318-2.092v3.33c0 .256.135.513.406.598zm.27-5.21h-.631a9.35 9.35 0 0 0-6.355 2.477l-.496.47c.676-3.33 3.741-5.893 7.482-5.893.36 0 .676-.299.676-.64V3.278l4.732 4.184L9.6 11.947V9.512c0-.341-.316-.64-.676-.64z" fill="#30294E"/></symbol><symbol id="external" viewBox="0 0 12 12"><path fill-rule="evenodd" clip-rule="evenodd" d="M11.806.191L12 .654v4.322a.658.658 0 0 1-.662.654.658.658 0 0 1-.663-.654V2.232l-4.5 4.442a.669.669 0 0 1-.937 0 .648.648 0 0 1 0-.924l4.5-4.443h-2.78a.658.658 0 0 1-.661-.653c0-.361.296-.654.662-.654h4.379l.468.191zm-.467 8.104v-.569a.658.658 0 0 0-.662-.654.658.658 0 0 0-.662.654v.57c-.003 1.313-1.098 2.394-2.43 2.396H3.754C2.422 10.69 1.327 9.61 1.325 8.295V4.357c.002-1.314 1.097-2.395 2.428-2.397h.577a.658.658 0 0 0 .662-.654.658.658 0 0 0-.662-.654h-.577C1.685.655.003 2.315 0 4.357v3.938C.002 10.337 1.685 11.998 3.753 12h3.833c2.069-.002 3.75-1.663 3.753-3.705z"/></symbol><symbol id="features" viewBox="0 0 24 24"><path d="M12 20a8 8 0 1 1 0-16 8 8 0 0 1 0 16z" fill="#F4F4FB"/><path d="M16.39 8.658a.45.45 0 0 0-.298-.158c-.29-.013-.66.122-1.105.405a25.862 25.862 0 0 0-2.122 1.737l-1.818 1.817c-.836-.392-1.494-.625-1.972-.701-.291-.027-.483.036-.575.187-.1.151-.097.279.005.38a9.365 9.365 0 0 1 1.481 1.496c.423.536.788 1.063 1.094 1.58.056.069.12.101.194.098.074-.007.138-.047.193-.123.439-.96.947-1.884 1.525-2.77a11.52 11.52 0 0 1 1.171-1.515c.288-.348.606-.684.956-1.006l1.11-.963c0-.003.003-.005.006-.005a4.852 4.852 0 0 0 .133-.163c.07-.115.077-.214.022-.296z" fill="#523EA7"/></symbol><symbol id="indicator-accent" viewBox="0 0 30 30"><g fill="none" fill-rule="evenodd"><path fill="#FF492D" d="M15 0a3 3 0 1 0 0 6 3 3 0 0 0 0-6z"/><path fill="#FF6D57" d="M6.558 3.516a3 3 0 1 0-.09 5.999 3 3 0 0 0 .09-6z"/><path fill="#FF9281" d="M3 12a3 3 0 1 0 0 6 3 3 0 0 0 0-6z"/><path fill="#FFB6AB" d="M6.558 20.486a3 3 0 1 0-.09 6 3 3 0 0 0 .09-6z"/><path fill="#FFDBD5" d="M15 24a3 3 0 1 0 0 6 3 3 0 0 0 0-6z"/><path fill="#FFEDEA" d="M23.53 20.486a3 3 0 1 0-.092 6 3 3 0 0 0 .092-6z"/><path fill="#FFF6F5" d="M27 12a3 3 0 1 0 0 6 3 3 0 0 0 0-6z"/><path fill="#FFFAF9" d="M23.53 3.516a3 3 0 1 0-.092 5.999 3 3 0 0 0 .092-6z"/></g></symbol><symbol id="indicator" viewBox="0 0 30 30"><g fill="none" fill-rule="evenodd"><path fill="#523EA7" d="M15 0a3 3 0 1 0 0 6 3 3 0 0 0 0-6z"/><path fill="#6C5BB4" d="M6.558 3.516a3 3 0 1 0-.09 5.999 3 3 0 0 0 .09-6z"/><path fill="#8678C1" d="M3 12a3 3 0 1 0 0 6 3 3 0 0 0 0-6z"/><path fill="#9B8FCC" d="M6.558 20.486a3 3 0 1 0-.09 6 3 3 0 0 0 .09-6z"/><path fill="#B1A8D7" d="M15 24a3 3 0 1 0 0 6 3 3 0 0 0 0-6z"/><path fill="#C2BBE0" d="M23.53 20.486a3 3 0 1 0-.092 6 3 3 0 0 0 .092-6z"/><path fill="#D9D5EC" d="M27 12a3 3 0 1 0 0 6 3 3 0 0 0 0-6z"/><path fill="#EEECF6" d="M23.53 3.516a3 3 0 1 0-.092 5.999 3 3 0 0 0 .092-6z"/></g></symbol><symbol id="info-a" viewBox="0 0 80 80"><g fill="#23212C" fill-rule="evenodd"><path fill-rule="nonzero" d="M62.44 26.202v-3.489c0-.465-.312-.775-.78-.775H14.34c-.468 0-.78.31-.78.775v3.489h48.88zm0 1.55H13.56v29.864c0 .465.312.775.78.775h47.32c.468 0 .78-.31.78-.775V27.752zm-.78 32.19H14.34c-1.326 0-2.34-1.008-2.34-2.326V22.713c0-1.318 1.014-2.325 2.34-2.325h47.32c1.326 0 2.34 1.007 2.34 2.325v34.903c0 1.318-1.014 2.326-2.34 2.326zM16.212 25.349c-.56 0-1.014-.451-1.014-1.008 0-.556.454-1.008 1.014-1.008s1.014.452 1.014 1.008c0 .557-.454 1.008-1.014 1.008zm3.745 0c-.56 0-1.014-.451-1.014-1.008 0-.556.454-1.008 1.014-1.008s1.014.452 1.014 1.008c0 .557-.454 1.008-1.014 1.008zm3.667 0c-.56 0-1.014-.451-1.014-1.008 0-.556.454-1.008 1.014-1.008s1.014.452 1.014 1.008c0 .557-.454 1.008-1.014 1.008z"/><path d="M53.65 37.422h-7.27c-.335 0-.559-.31-.559-.775s.224-.775.56-.775h7.268c.336 0 .56.31.56.775s-.224.775-.56.775zm-2.61 2.326h-4.566c-.392 0-.653-.31-.653-.775s.261-.775.653-.775h4.566c.391 0 .652.31.652.775s-.26.775-.652.775zm-10.212 1.705c-2.028 0-3.667-1.627-3.667-3.643 0-2.015 1.639-3.643 3.667-3.643 2.029 0 3.667 1.628 3.667 3.643-.078 2.016-1.638 3.643-3.667 3.643zm0-5.736c-1.17 0-2.106.93-2.106 2.093 0 1.163.936 2.093 2.106 2.093s2.107-.93 2.107-2.093c0-1.163-1.015-2.093-2.107-2.093zM53.65 47.5h-7.268c-.336 0-.56-.31-.56-.775s.224-.775.56-.775h7.268c.336 0 .56.31.56.775s-.224.775-.56.775zm-2.609 2.326h-4.566c-.392 0-.653-.31-.653-.776 0-.465.261-.775.653-.775h4.566c.391 0 .652.31.652.775 0 .466-.26.776-.652.776zm-10.212 1.783c-2.028 0-3.667-1.628-3.667-3.644 0-2.015 1.639-3.643 3.667-3.643 2.029 0 3.667 1.628 3.667 3.643 0 2.016-1.638 3.644-3.667 3.644zm0-5.737c-1.17 0-2.106.93-2.106 2.093 0 1.163.936 2.093 2.106 2.093s2.107-.93 2.107-2.093c0-1.163-1.015-2.093-2.107-2.093z"/><path fill-rule="nonzero" d="M20.292 49.167H30.71a.742.742 0 0 0 .744-.74v-6.668a.736.736 0 0 0-.218-.523l-5.208-5.185a.746.746 0 0 0-1.052 0l-2.45 2.439v-2.656h-1.489v4.137l-1.27 1.265a.736.736 0 0 0-.218.523v6.667c0 .41.333.74.744.74zm6.697-1.482h-2.977v-4.444h2.977v4.444zm-5.953-5.619l4.465-4.444 4.464 4.444v5.62h-1.488V42.5c0-.41-.333-.74-.744-.74h-4.465a.742.742 0 0 0-.744.74v5.185h-1.488v-5.619z"/></g></symbol><symbol id="info-b" viewBox="0 0 80 80"><g fill="#23212C" fill-rule="evenodd"><path fill-rule="nonzero" d="M20.567 61.584a.83.83 0 0 1-.83-.83V15.926a.83.83 0 0 1 .83-.83h34.866a.83.83 0 0 1 .83.83v44.828a.83.83 0 0 1-.83.83H20.567zm.83-1.66h33.206V16.755H21.397v43.167z"/><path fill-rule="nonzero" d="M60.73 61.584H15.27l.83 1.66h43.8l.83-1.66zm-.316 3.32H15.586a.83.83 0 0 1-.742-.459l-1.66-3.32a.83.83 0 0 1 .742-1.202h48.148a.83.83 0 0 1 .743 1.202l-1.66 3.32a.83.83 0 0 1-.743.46zM26.889 50.98v-1.588H49.11v1.588H26.89zm0-1.588H49.11v1.588H26.89v-1.588zm0-2.116v-1.587H49.11v1.587H26.89zm0-1.587H49.11v1.587H26.89v-1.587zm22.222 7.407v1.588H26.89v-1.588H49.11zm0 1.588H26.89v-1.588H49.11v1.588zM32.34 41.853h11.5a.821.821 0 0 0 .82-.824v-7.407a.82.82 0 0 0-.24-.582l-5.75-5.762a.82.82 0 0 0-1.161 0l-2.705 2.71v-2.95h-1.643v4.597L31.76 33.04a.82.82 0 0 0-.24.582v7.407c0 .455.367.823.82.823zm7.392-1.647h-3.285v-4.938h3.285v4.938zm-6.57-6.244l4.928-4.938 4.928 4.938v6.244h-1.643v-5.761a.821.821 0 0 0-.821-.823h-4.929a.821.821 0 0 0-.82.823v5.761H33.16v-6.244z"/><path fill-rule="nonzero" d="M18.077 27.548h2.49a.83.83 0 0 1 .83.83v32.376a.83.83 0 0 1-.83.83h-4.15a.83.83 0 0 1-.83-.83V30.038a2.49 2.49 0 0 1 2.49-2.49zm0 1.66a.83.83 0 0 0-.83.83v29.885h2.49V29.208h-1.66zm39.846-1.66a2.49 2.49 0 0 1 2.49 2.49v30.716a.83.83 0 0 1-.83.83h-4.15a.83.83 0 0 1-.83-.83V28.378a.83.83 0 0 1 .83-.83h2.49zm.83 2.49a.83.83 0 0 0-.83-.83h-1.66v30.715h2.49V30.038zm-38.186-8.301a.83.83 0 0 1-.83-.83v-4.981a.83.83 0 0 1 .83-.83h34.866a.83.83 0 0 1 .83.83v4.98a.83.83 0 0 1-.83.83H20.567zm34.036-1.66v-3.32H21.397v3.32h33.206z"/><path d="M25.548 18.416a.83.83 0 1 0-1.661.001.83.83 0 0 0 1.66 0m3.321 0a.83.83 0 1 0-1.66 0 .83.83 0 0 0 1.66 0m3.321 0a.83.83 0 1 0-1.66 0 .83.83 0 0 0 1.66 0"/></g></symbol><symbol id="info-c" viewBox="0 0 80 80"><g fill="none" fill-rule="evenodd"><path stroke="#23212C" stroke-width="1.595" d="M35.326 53.24s3.436 3.466 8.719 4.019m-17.49-12.86s-4.287-3.516-4.836-8.84"/><path fill="#23212C" fill-rule="nonzero" d="M47.354 49.932a37.086 37.086 0 0 1 1.2.759c.895.589 1.79 1.228 2.627 1.895 1.178.94 2.149 1.86 2.844 2.744.294.374.537.74.726 1.1a3.99 3.99 0 0 1-.695 4.658l-2.023 2.04c-4.367 4.401-9.408 4.855-14.742 1.899-1.376-.764-2.669-1.779-3.905-3.03L17.028 45.455c-1.51-1.527-2.697-3.167-3.512-4.928-2.308-4.98-1.63-9.676 2.433-13.772l2.023-2.038a3.911 3.911 0 0 1 4.621-.701c.357.19.72.435 1.091.731.878.702 1.79 1.68 2.722 2.868a36.667 36.667 0 0 1 1.881 2.647 37.465 37.465 0 0 1 .758 1.218c.988 1.748.852 3.655-.717 4.596a62.914 62.914 0 0 0-1.194 1.034l-.118.105c-.526.472-.91.847-.975.944-1.262 1.878-1.138 3.405.502 5.058l9.159 9.233c1.64 1.653 3.156 1.778 5.019.505.096-.065.467-.452.936-.982l.104-.12a60.896 60.896 0 0 0 1.026-1.202c.932-1.583 2.826-1.72 4.567-.718zM34.516 60.863c1.134 1.148 2.309 2.07 3.544 2.755 4.74 2.627 9.005 2.243 12.846-1.627l2.022-2.04a2.372 2.372 0 0 0 .414-2.77 5.684 5.684 0 0 0-.567-.853c-.606-.772-1.493-1.612-2.583-2.48a34.823 34.823 0 0 0-2.51-1.813 35.5 35.5 0 0 0-1.126-.712c-1.079-.62-2.013-.545-2.418.183l-.083.12a58.09 58.09 0 0 1-1.099 1.29l-.108.124c-.584.662-.977 1.07-1.233 1.245-2.489 1.7-4.854 1.505-7.04-.7l-9.16-9.232c-2.187-2.205-2.38-4.588-.694-7.097.173-.258.579-.654 1.235-1.243l.122-.11a62.24 62.24 0 0 1 1.28-1.107l.12-.083c.722-.409.796-1.35.186-2.43a35.863 35.863 0 0 0-.711-1.143 35.092 35.092 0 0 0-1.798-2.53c-.862-1.098-1.695-1.992-2.461-2.604a5.631 5.631 0 0 0-.846-.57 2.326 2.326 0 0 0-2.749.417l-2.022 2.038c-3.574 3.603-4.148 7.571-2.117 11.955.733 1.58 1.812 3.072 3.197 4.473l16.359 16.544z"/><path fill="#23212C" fill-rule="nonzero" d="M41.73 38.014a.826.826 0 0 1 .657.085 12.313 12.313 0 0 0 6.366 1.777c6.887 0 12.47-5.627 12.47-12.57 0-6.941-5.583-12.568-12.47-12.568-6.887 0-12.47 5.627-12.47 12.569 0 2.128.526 4.177 1.514 6.005.097.18.126.39.08.59l-1.294 5.61 5.148-1.498zm-7.109-10.707c0-7.868 6.327-14.245 14.132-14.245s14.132 6.377 14.132 14.245c0 7.867-6.327 14.245-14.132 14.245-2.444 0-4.8-.638-6.901-1.829l-6.169 1.796a.834.834 0 0 1-1.04-.995l1.544-6.696a14.277 14.277 0 0 1-1.566-6.521zm13.534-4.782a.827.827 0 0 1 1.176 0l4.996 5.027c.157.157.244.37.244.593v6.703a.835.835 0 0 1-.83.838h-9.976a.835.835 0 0 1-.832-.838v-6.703c0-.222.088-.435.243-.592l4.979-5.028zm-3.559 5.966v5.52h8.313v-5.519l-4.165-4.19-4.148 4.19zm-1.905 1.921a.827.827 0 0 1-1.176.001L39.021 27.9a.843.843 0 0 1 0-1.184l9.125-9.217a.827.827 0 0 1 1.176-.001l9.162 9.217a.843.843 0 0 1 .001 1.185l-2.494 2.514a.827.827 0 0 1-1.176 0l-6.062-6.127-6.062 6.126zm-1.907-3.106l1.318 1.329 6.044-6.11a.825.825 0 0 1 .607-.245.825.825 0 0 1 .606.246l6.045 6.109 1.317-1.328-7.985-8.032-7.952 8.031z"/></g></symbol><symbol id="info-d" viewBox="0 0 80 80"><g fill="#23212C" fill-rule="evenodd"><path fill-rule="nonzero" d="M29.953 34.89c-.39.079-.703.391-.703.782v2.734c0 .39.313.703.703.782l1.875.312c.078.156.156.313.156.469l-1.093 1.484c-.235.313-.235.781.078 1.016l1.953 1.953c.234.312.703.312 1.016.078l1.484-1.094c.156.078.312.157.469.157l.312 1.874c.078.391.39.704.781.704h2.735c.39 0 .703-.313.781-.703l.313-1.876c.156-.078.312-.156.468-.156l1.485 1.094c.312.234.78.234 1.015-.078l1.953-1.953c.313-.313.313-.703.078-1.016L44.72 39.97c.078-.157.156-.313.156-.469l1.875-.313c.39-.078.703-.39.703-.78v-2.735c0-.39-.312-.703-.703-.781l-1.875-.313c-.078-.156-.156-.312-.156-.469l1.093-1.484c.235-.313.235-.781-.078-1.016l-1.953-1.953c-.234-.312-.703-.312-1.015-.078l-1.641 1.172c-.156-.078-.313-.156-.469-.156l-.312-1.875c-.078-.39-.39-.703-.782-.703h-2.734c-.39 0-.703.312-.781.703l-.313 1.875c-.156.078-.312.156-.468.156l-1.485-1.094c-.312-.234-.781-.234-1.015.078l-1.797 1.875c-.313.313-.313.703-.078 1.016l1.093 1.484c-.078.157-.156.313-.156.47l-1.875.312zm2.578 1.172c.313-.078.547-.234.625-.546.078-.391.235-.703.469-1.094.156-.234.156-.625-.078-.86l-1.016-1.328 1.016-1.015 1.328 1.015c.234.157.547.235.86.078.312-.156.703-.312 1.093-.468.313-.078.547-.313.547-.625l.234-1.64h1.407l.234 1.64c.078.312.234.547.547.625.39.078.781.234 1.094.468.234.157.625.157.859-.078l1.328-1.015 1.016 1.015-1.016 1.328c-.156.235-.234.547-.078.86.156.312.313.703.469 1.094.078.312.312.547.625.547l1.64.234v1.406l-1.64.234c-.313.079-.547.235-.625.547-.078.391-.235.703-.469 1.094-.156.234-.156.625.078.86l1.016 1.328-1.016 1.015-1.328-1.015c-.234-.157-.547-.235-.86-.078-.312.156-.703.312-1.093.468-.313.078-.547.313-.547.625l-.234 1.64h-1.407l-.234-1.64c-.078-.312-.234-.547-.547-.625-.39-.078-.703-.234-1.094-.468-.234-.157-.625-.157-.859.078l-1.328 1.015-1.016-1.015 1.016-1.328c.156-.235.234-.547.078-.86-.156-.312-.313-.703-.469-1.094-.078-.312-.312-.547-.625-.547l-1.64-.234v-1.406l1.64-.234z"/><path fill-rule="nonzero" d="M38.313 41.297c2.343 0 4.296-1.953 4.296-4.297 0-2.344-1.953-4.297-4.297-4.297-2.343 0-4.374 1.953-4.374 4.297 0 2.344 1.953 4.297 4.374 4.297zm0-7.031c1.484 0 2.734 1.25 2.734 2.734s-1.25 2.734-2.734 2.734c-1.485 0-2.735-1.25-2.735-2.734a2.717 2.717 0 0 1 2.734-2.734zm20.78 16.484L47.22 54.89c-.782.313-1.64.313-2.422.157l-3.75-.86c1.172-.703 2.187-1.796 2.656-3.203.078-.234.078-.468-.078-.625-.078-.156-.313-.312-.469-.39l-14.375-3.282c-.156-.078-.39 0-.547.079l-8.75 4.765v-.468a.783.783 0 0 0-.78-.782l-4.532.078c-.39 0-.781.391-.781.782l.156 9.922c0 .39.39.78.781.78l4.531-.077c.47 0 .782-.391.782-.782v-1.25h9.687l15.625 2.11c.234 0 .547.078.781.078.86 0 1.72-.156 2.5-.547l12.813-5.938c1.406-.624 1.875-2.343 1.094-3.671-.703-1.016-1.953-1.407-3.047-1.016zM15.11 60.36l-.156-8.438 2.969-.078c0 2.11.078 6.25.156 8.36l-2.969.155zm45.235-6.329L47.53 59.97c-.781.39-1.64.468-2.422.39-16.562-2.187-15.703-2.109-15.78-2.109h-9.767l-.078-4.922 9.141-5.078 13.203 2.969c-.937 1.562-2.812 2.422-4.61 2.031l-6.327-1.406c-.391-.078-.86.156-.938.625-.078.468.156.86.625.937 1.406.313-5.156-1.172 13.985 3.203a6.643 6.643 0 0 0 3.28-.156l11.876-4.14c.468-.157.937 0 1.172.39.234.39 0 1.094-.547 1.328zm2.031-40.86a.71.71 0 0 0-.547-.233l-4.531-.079c-.469 0-.781.313-.781.782v1.25l-9.688-.235-15.547-2.5c-1.093-.156-2.265-.078-3.36.39l-12.89 5.626a2.586 2.586 0 0 0-1.172 3.672c.625 1.015 1.875 1.484 2.97 1.093L28.78 19.11c.782-.234 1.64-.312 2.422-.078l3.75.938c-1.25.703-2.187 1.797-2.656 3.125-.078.234-.078.468.078.625.078.156.313.312.469.39l14.297 3.672h.156c.156 0 .234 0 .39-.078l8.75-4.531v.469c0 .468.313.78.782.78l4.531.079c.39 0 .781-.313.781-.781l.078-9.922a.887.887 0 0 0-.234-.625zM47.219 26.22l-13.125-3.36c2.5-4.062 7.5-.703 11.015-.312.391.078.86-.156.938-.547.078-.39-.156-.86-.547-.938-1.406-.39 5.156 1.329-13.906-3.593-1.094-.313-2.266-.235-3.282.078L16.36 21.375c-.468.156-.937 0-1.172-.469a.973.973 0 0 1 .47-1.406l12.968-5.547c.781-.312 1.563-.39 2.422-.312l15.625 2.5c.078 0-.469 0 9.844.312l-.078 4.922-9.22 4.844zm13.75-3.36H58c0-1.953.078-6.172.078-8.359h2.969l-.078 8.36z"/><path d="M46.203 46.922a.755.755 0 0 0 1.094 0c4.687-4.531 5.703-11.64 2.422-17.266-.235-.39-.703-.468-1.094-.312-.39.234-.469.703-.313 1.093 2.891 5 2.032 11.329-2.187 15.391a.837.837 0 0 0 .078 1.094zM29.328 27.547c-4.61 4.61-5.469 11.719-2.11 17.344.235.39.704.468 1.095.234.39-.234.468-.703.234-1.094-2.969-5-2.266-11.328 1.875-15.39a.755.755 0 0 0 0-1.094.755.755 0 0 0-1.094 0z"/></g></symbol><symbol id="info-e" viewBox="0 0 80 80"><g fill="none" fill-rule="evenodd"><path fill="#23212C" fill-rule="nonzero" d="M13.85 53.136c-.47 0-.85-.38-.85-.848V18.39c0-.468.38-.848.85-.848h49.3c.47 0 .85.38.85.848v33.898c0 .468-.38.848-.85.848h-49.3zm.85-1.695h47.6V19.237H14.7v32.204z"/><path stroke="#23212C" stroke-width="1.695" d="M38.5 18.39V15"/><path fill="#23212C" fill-rule="nonzero" d="M37.65 52.288h1.7v10.17h-1.7v-10.17zm1.7 0v10.17h-1.7v-10.17h1.7zm-.249-.6l11.9 11.865-1.202 1.199-11.9-11.865 1.202-1.198zm-1.202 0l1.202 1.2-11.9 11.864-1.202-1.199 11.9-11.864zm1.202 1.2l-11.9 11.864-1.202-1.199 11.9-11.864 1.202 1.198zM22.35 31.949v-5.932h-1.7v5.932zM27.45 31.949v-5.932h-1.7v5.932z"/><path stroke="#23212C" stroke-linejoin="round" stroke-width="1.695" d="M18.95 28.559l5.1-5.084 5.1 5.084"/><path fill="#23212C" fill-rule="nonzero" d="M23.895 42.624l-1.185-1.216 7.151-6.925 1.185 1.216z"/><path fill="#23212C" fill-rule="nonzero" d="M35.95 33.644a3.395 3.395 0 0 1-3.4 3.39 3.395 3.395 0 0 1-3.4-3.39 3.395 3.395 0 0 1 3.4-3.39c1.878 0 3.4 1.518 3.4 3.39zm-1.7 0c0-.936-.761-1.695-1.7-1.695s-1.7.759-1.7 1.695.761 1.695 1.7 1.695 1.7-.759 1.7-1.695zm-9.35 10.17a3.395 3.395 0 0 1-3.4 3.39 3.395 3.395 0 0 1-3.4-3.39 3.395 3.395 0 0 1 3.4-3.39c1.878 0 3.4 1.517 3.4 3.39zm-1.7 0c0-.937-.761-1.695-1.7-1.695s-1.7.758-1.7 1.695c0 .936.761 1.694 1.7 1.694s1.7-.758 1.7-1.694zm25.5-4.238a3.395 3.395 0 0 1-3.4 3.39 3.395 3.395 0 0 1-3.4-3.39 3.395 3.395 0 0 1 3.4-3.39c1.878 0 3.4 1.518 3.4 3.39zm-1.7 0c0-.936-.761-1.695-1.7-1.695s-1.7.76-1.7 1.695c0 .936.761 1.695 1.7 1.695s1.7-.759 1.7-1.695zm11.9-10.17a3.395 3.395 0 0 1-3.4 3.39 3.395 3.395 0 0 1-3.4-3.39 3.395 3.395 0 0 1 3.4-3.39c1.878 0 3.4 1.519 3.4 3.39zm-1.7 0c0-.935-.761-1.694-1.7-1.694s-1.7.759-1.7 1.695.761 1.695 1.7 1.695 1.7-.759 1.7-1.695z"/><path fill="#23212C" fill-rule="nonzero" d="M34.444 35.549l.763-1.515 8.041 4.025-.763 1.514zM47.701 38.367l-1.211-1.19 6.55-6.622 1.21 1.19z"/></g></symbol><symbol id="info-f" viewBox="0 0 80 80"><g fill="#23212C" fill-rule="evenodd"><path fill-rule="nonzero" d="M62.44 26.202v-3.489c0-.465-.312-.775-.78-.775H14.34c-.468 0-.78.31-.78.775v3.489h48.88zm0 1.55H13.56v29.864c0 .465.312.775.78.775h47.32c.468 0 .78-.31.78-.775V27.752zm-.78 32.19H14.34c-1.326 0-2.34-1.008-2.34-2.326V22.713c0-1.318 1.014-2.325 2.34-2.325h47.32c1.326 0 2.34 1.007 2.34 2.325v34.903c0 1.318-1.014 2.326-2.34 2.326zM16.212 25.349c-.56 0-1.014-.451-1.014-1.008 0-.556.454-1.008 1.014-1.008s1.014.452 1.014 1.008c0 .557-.454 1.008-1.014 1.008zm3.745 0c-.56 0-1.014-.451-1.014-1.008 0-.556.454-1.008 1.014-1.008s1.014.452 1.014 1.008c0 .557-.454 1.008-1.014 1.008zm3.667 0c-.56 0-1.014-.451-1.014-1.008 0-.556.454-1.008 1.014-1.008s1.014.452 1.014 1.008c0 .557-.454 1.008-1.014 1.008z"/><path d="M34.36 37.422h-7.27c-.335 0-.559-.31-.559-.775s.224-.775.56-.775h7.268c.336 0 .56.31.56.775s-.224.775-.56.775zm-2.61 2.326h-4.567c-.39 0-.652-.31-.652-.775s.261-.775.652-.775h4.567c.391 0 .652.31.652.775s-.26.775-.652.775zm-10.212 1.705c-2.029 0-3.667-1.627-3.667-3.643 0-2.015 1.638-3.643 3.667-3.643 2.028 0 3.667 1.628 3.667 3.643-.078 2.016-1.639 3.643-3.667 3.643zm0-5.736c-1.17 0-2.107.93-2.107 2.093 0 1.163.937 2.093 2.107 2.093 1.17 0 2.106-.93 2.106-2.093 0-1.163-1.014-2.093-2.106-2.093zM34.359 47.5H27.09c-.335 0-.559-.31-.559-.775s.224-.775.56-.775h7.268c.336 0 .56.31.56.775s-.224.775-.56.775zm-2.61 2.326h-4.566c-.39 0-.652-.31-.652-.776 0-.465.261-.775.652-.775h4.567c.391 0 .652.31.652.775 0 .466-.26.776-.652.776zm-10.211 1.783c-2.029 0-3.667-1.628-3.667-3.644 0-2.015 1.638-3.643 3.667-3.643 2.028 0 3.667 1.628 3.667 3.643 0 2.016-1.639 3.644-3.667 3.644zm0-5.737c-1.17 0-2.107.93-2.107 2.093 0 1.163.937 2.093 2.107 2.093 1.17 0 2.106-.93 2.106-2.093 0-1.163-1.014-2.093-2.106-2.093z"/><path fill-rule="nonzero" d="M49.742 51.667c5.074 0 9.226-4.087 9.226-9.167s-4.113-9.167-9.226-9.167-9.226 4.087-9.226 9.167 4.152 9.167 9.226 9.167zm-4.805-3.056c2.037-.726 2.883-1.566 3.267-2.177.423.153.884.267 1.423.267h.153c.577 0 1.077-.114 1.5-.305.346.65 1.23 1.49 3.305 2.215a7.85 7.85 0 0 1-4.805 1.642c-1.845.039-3.536-.572-4.843-1.642zm6.535-4.01c-.423.496-1 .725-1.769.725h-.038c-.769 0-1.345-.229-1.768-.725-1.115-1.26-.884-3.705-.884-3.743v-.039c.115-2.559 1.999-2.788 2.575-2.788H49.703c.423 0 2.538.038 2.653 2.75v.038c.077.726.038 2.712-.884 3.782zm-1.73-9.854c4.305 0 7.842 3.475 7.842 7.791 0 1.91-.73 3.667-1.884 5.042-2.69-.802-3.19-1.719-3.267-1.948l.077-.076c1.499-1.643 1.268-4.47 1.23-4.775-.154-3.284-2.614-4.125-4.037-4.048-1.46-.039-3.882.764-4.036 4.048-.038.306-.269 3.094 1.23 4.775.077.076.116.152.193.19-.154.306-.808 1.108-3.23 1.834-1.153-1.375-1.883-3.132-1.883-5.042-.077-4.316 3.46-7.791 7.765-7.791z"/></g></symbol><symbol id="info-g" viewBox="0 0 80 80"><path fill="#23212C" fill-rule="nonzero" d="M15.467 59C13.552 59 12 57.474 12 55.593v-2.556a.86.86 0 0 1 .867-.852H14.6V26.63c.003-2.352 1.941-4.257 4.333-4.26h17.334v1.704H18.933c-1.436 0-2.6 1.144-2.6 2.556v25.555h1.734V26.63a.86.86 0 0 1 .866-.852h17.334v1.703H19.8v24.704h11.164a2.426 2.426 0 0 1 2.177 1.323.699.699 0 0 0 .628.38h4.995a.699.699 0 0 0 .628-.38 2.426 2.426 0 0 1 2.177-1.323h11.164V40.26h1.734v11.926H56.2V39.407h1.733v12.778h1.734a.86.86 0 0 1 .866.852v2.556c0 1.881-1.552 3.407-3.466 3.407h-41.6zm-1.734-5.111v1.704c0 .94.776 1.703 1.734 1.703h41.6c.957 0 1.733-.762 1.733-1.703v-1.704H41.569a.699.699 0 0 0-.628.38 2.426 2.426 0 0 1-2.177 1.324H33.77a2.426 2.426 0 0 1-2.177-1.323.699.699 0 0 0-.628-.381h-17.23zm23.105-18.82h-4.045c-.346 0-.577-.317-.577-.793 0-.475.23-.792.577-.792h4.045c.346 0 .578.317.578.792 0 .476-.232.793-.578.793zm1.637 2.377H32.89c-.405 0-.674-.317-.674-.792 0-.476.27-.793.674-.793h5.585c.404 0 .674.317.674.793 0 .475-.27.792-.674.792zm-11.42 1.743c-2.095 0-3.788-1.664-3.788-3.724 0-2.06 1.693-3.724 3.789-3.724s3.789 1.664 3.789 3.724c-.08 2.06-1.693 3.724-3.79 3.724zm0-5.863c-1.208 0-2.176.95-2.176 2.14 0 1.188.968 2.139 2.177 2.139 1.21 0 2.177-.951 2.177-2.14s-1.049-2.14-2.177-2.14zm9.783 12.044h-4.045c-.346 0-.577-.317-.577-.792 0-.476.23-.792.577-.792h4.045c.346 0 .578.316.578.792 0 .475-.232.792-.578.792zm1.637 2.378H32.89c-.405 0-.674-.317-.674-.793 0-.475.27-.792.674-.792h5.585c.404 0 .674.317.674.792 0 .476-.27.793-.674.793zm-11.42 1.822c-2.095 0-3.788-1.664-3.788-3.724 0-2.06 1.693-3.725 3.789-3.725s3.789 1.665 3.789 3.725-1.693 3.724-3.79 3.724zm0-5.864c-1.208 0-2.176.951-2.176 2.14 0 1.188.968 2.14 2.177 2.14 1.21 0 2.177-.952 2.177-2.14 0-1.189-1.049-2.14-2.177-2.14zM51 13c7.176.008 12.992 5.724 13 12.778 0 7.057-5.82 12.778-13 12.778s-13-5.721-13-12.778S43.82 13 51 13zm0 23.852c6.22-.007 11.26-4.961 11.267-11.074 0-6.116-5.045-11.074-11.267-11.074-6.222 0-11.267 4.958-11.267 11.074S44.778 36.852 51 36.852zm0-17.037c-2.263 0-4.338 1.237-5.383 3.21a5.877 5.877 0 0 0 .414 6.176l-1.418.978a7.527 7.527 0 0 1-1.413-4.401 7.58 7.58 0 0 1 2.683-5.805 7.861 7.861 0 0 1 6.229-1.78l-.693-.93 1.401-1.002 2.13 2.875a.84.84 0 0 1-.238 1.222l-2.925 1.81-.924-1.442 1.281-.792a6.197 6.197 0 0 0-1.144-.12zm4.932 2.441l1.415-.979a7.558 7.558 0 0 1 .254 8.41c-1.627 2.604-4.672 4.008-7.75 3.575l.694.93-1.401 1.004-2.13-2.875a.84.84 0 0 1 .239-1.223l2.925-1.81.923 1.442-1.28.793c.376.075.759.115 1.143.119 2.263 0 4.338-1.237 5.382-3.21a5.877 5.877 0 0 0-.414-6.176z"/></symbol><symbol id="info-h" viewBox="0 0 80 80"><g fill="#23212C" fill-rule="nonzero"><path d="M38.5 44.365c6.972 0 12.645-5.697 12.645-12.698 0-7.002-5.673-12.699-12.645-12.699-6.972 0-12.645 5.697-12.645 12.699 0 7.001 5.673 12.698 12.645 12.698zm0-23.81c6.101 0 11.065 4.985 11.065 11.112S44.6 42.777 38.5 42.777c-6.101 0-11.065-4.983-11.065-11.11S32.4 20.556 38.5 20.556z"/><path d="M63 53.889c0-4.188-9.736-5.938-14.223-6.522l2.919-5.246a20.759 20.759 0 0 0 2.61-10.067v-.387c0-4.438-1.868-8.703-5.126-11.703-3.305-3.042-7.602-4.503-12.092-4.108-8.072.704-14.394 7.808-14.394 16.198 0 3.517.903 6.997 2.61 10.067l2.925 5.254c-.991.127-1.952.27-2.872.432a4.743 4.743 0 0 0-4.244-2.648c-2.615 0-4.742 2.135-4.742 4.762 0 .242.024.477.058.71-1.607.967-2.429 2.06-2.429 3.258 0 4.289 10.789 6.75 21.803 7.098l2.007 3.607a.79.79 0 0 0 1.38 0l2.007-3.607c3.735-.112 7.292-.457 10.448-1.013a4.741 4.741 0 0 0 4.242 2.645c2.615 0 4.742-2.136 4.742-4.762 0-.242-.024-.478-.058-.71C62.177 56.179 63 55.086 63 53.889zM24.274 32.028c0-7.548 5.689-13.957 12.951-14.591.433-.039.862-.057 1.29-.057 3.573 0 6.94 1.309 9.597 3.754a14.356 14.356 0 0 1 4.614 10.533v.387c0 3.246-.834 6.459-2.41 9.292L40.254 59.427a90.764 90.764 0 0 1-3.51-.002L26.684 41.346a19.186 19.186 0 0 1-2.41-9.318zm-3.161 14.718a3.171 3.171 0 0 1 3.161 3.175 3.171 3.171 0 0 1-3.161 3.174 3.171 3.171 0 0 1-3.161-3.174 3.171 3.171 0 0 1 3.16-3.175zm-5.532 7.143c0-.532.48-1.125 1.359-1.709a4.743 4.743 0 0 0 4.173 2.503c2.615 0 4.742-2.136 4.742-4.762 0-.197-.016-.39-.039-.581a61.22 61.22 0 0 1 3.244-.47l5.844 10.502c-12.06-.488-19.323-3.366-19.323-5.483zm22.919 8.69l-.865-1.553c.289.003.577.006.865.006.29 0 .577-.007.866-.009l-.866 1.556zm17.387-1.547a3.171 3.171 0 0 1-3.161-3.175 3.171 3.171 0 0 1 3.161-3.174 3.171 3.171 0 0 1 3.161 3.174 3.171 3.171 0 0 1-3.16 3.175zm4.172-5.435a4.743 4.743 0 0 0-4.172-2.502c-2.615 0-4.742 2.136-4.742 4.762 0 .2.016.394.04.587-2.77.478-5.849.795-9.089.927l5.846-10.504c8.844 1.04 13.477 3.295 13.477 5.022 0 .53-.481 1.124-1.36 1.708z"/><path d="M32.968 38.016h11.064c.437 0 .79-.355.79-.794V30.08a.792.792 0 0 0-.231-.56l-5.532-5.556a.787.787 0 0 0-1.118 0l-2.602 2.613V23.73h-1.58v4.433l-1.35 1.355a.792.792 0 0 0-.232.561v7.143c0 .44.354.794.79.794zm7.113-1.587h-3.162v-4.762h3.162v4.762zm-6.323-6.021l4.742-4.762 4.742 4.762v6.02h-1.58v-5.555a.791.791 0 0 0-.791-.794h-4.742a.791.791 0 0 0-.79.794v5.556h-1.58v-6.021z"/></g></symbol><symbol id="info-i" viewBox="0 0 80 80"><g fill="#23212C" fill-rule="nonzero"><path d="M41.74 46.452l7.091 6.526a2.608 2.608 0 0 1-3.523 3.848l-6.127-5.508c-.71-.644-1.584-.65-2.307.01l-6.174 5.49a2.609 2.609 0 0 1-3.528-3.842l7.15-6.518a5.456 5.456 0 0 1 7.419-.006zm-6.286 1.23l-7.153 6.52a.942.942 0 1 0 1.283 1.379l6.175-5.492c1.354-1.234 3.198-1.224 4.539-.008l6.126 5.508a.942.942 0 0 0 1.276-1.387l-7.09-6.526a3.79 3.79 0 0 0-5.156.006z"/><path d="M40.304 50.086l5.196 4.761V65h-15V54.832l5.26-4.745c1.355-1.232 3.198-1.221 4.544 0zm-1.123 1.232c-.71-.644-1.584-.65-2.3.003l-.003.003-4.711 4.249v7.76h11.666v-7.752l-4.652-4.263z"/><path d="M35.5 65v-6.667h5V65h-5zm1.667-1.667h1.666V60h-1.666v3.333zm-15 1.667v-6.667h5V65h-5zm1.666-1.667H25.5V60h-1.667v3.333zm25 1.667v-6.667h5V65h-5zm1.667-1.667h1.667V60H50.5v3.333zM32.585 50.297l-3.91 3.563-.561-.504-2.267-2.038c-.71-.644-1.583-.65-2.306.01l-6.175 5.491a2.609 2.609 0 0 1-3.528-3.844l7.147-6.514a5.455 5.455 0 0 1 7.422-.009l4.178 3.845zm-5.309-2.62a3.79 3.79 0 0 0-5.162.01l-7.147 6.514a.943.943 0 0 0-.025 1.356.944.944 0 0 0 1.309.024l6.174-5.491c1.354-1.235 3.198-1.225 4.539-.01l1.703 1.532 1.45-1.321-2.84-2.614z"/><path d="M29.576 55.588l.008-.007 1.717-1.527.865.794V65h-15V54.832l.276-.248 4.984-4.495c1.353-1.234 3.198-1.224 4.544-.002l2.915 2.67-.674.615-.91.83a.942.942 0 0 0 1.275 1.386zm-2.479 1.148a2.61 2.61 0 0 1 .075-3.76l.243-.222-1.568-1.436c-.71-.644-1.583-.649-2.302.006l-4.712 4.25v7.76H30.5v-6.35a2.61 2.61 0 0 1-3.403-.248zm35.383-.244l-.245.245a2.608 2.608 0 0 1-3.594.089l-6.127-5.508c-.71-.644-1.584-.65-2.306.01l-2.864 2.546-3.893-3.583.672-.613 3.529-3.217a5.455 5.455 0 0 1 7.422-.009l7.088 6.523.002.002a2.61 2.61 0 0 1 .316 3.478v.037zm-8.537-8.815a3.79 3.79 0 0 0-5.162.01l-2.863 2.61 1.446 1.33 1.728-1.537c1.353-1.235 3.198-1.225 4.539-.01l6.127 5.509a.942.942 0 0 0 1.275-.008l.024-.024a.942.942 0 0 0-.025-1.356l-7.089-6.524z"/><path d="M53.634 50.083l5.2 4.765V65h-15V54.837l.867-.797.563.506 1.16 1.043a.942.942 0 0 0 1.276-1.387l-1.567-1.444.679-.612 2.28-2.057c1.354-1.234 3.199-1.224 4.542-.006zm-3.423 1.24l-1.604 1.448.224.207a2.608 2.608 0 0 1-3.331 4.006v6.35h11.666V55.58l-4.653-4.265c-.71-.643-1.583-.647-2.302.007zM38 15.003c5.524.001 10 4.475 10 9.997 0 2.14-.739 4.168-2.077 6.094-.89 1.28-1.732 2.543-2.59 3.874a102.476 102.476 0 0 0-4.595 7.919L38 44.296l-.738-1.41a102.474 102.474 0 0 0-4.595-7.917c-.858-1.332-1.7-2.594-2.59-3.875C28.74 29.168 28 27.14 28 25c0-5.522 4.476-9.996 10-9.997zM29.667 25c0 1.77.622 3.478 1.78 5.144.9 1.296 1.753 2.575 2.621 3.922 1.371 2.131 2.68 4.35 3.932 6.661 1.252-2.31 2.56-4.53 3.932-6.66a134.251 134.251 0 0 1 2.622-3.923c1.157-1.666 1.78-3.374 1.78-5.144 0-4.601-3.73-8.33-8.334-8.33A8.331 8.331 0 0 0 29.667 25z"/><path d="M34 27.167l1.333-1 2.5 3.333-1.333 1-2.5-3.333zm1.333-1l2.5 3.333-1.333 1-2.5-3.333 1.333-1zm6.12-4.93l1.428.858-5 8.334-1.429-.858 5-8.333zm1.428.858l-5 8.334-1.429-.858 5-8.333 1.43.857z"/></g></symbol><symbol id="info-j" viewBox="0 0 80 80"><path fill="#23212C" d="M33.39 20.167c.215-4.143 3.265-5.165 4.923-5.165 1.82-.054 4.87.968 5.083 5.11.054.431.321 3.874-1.498 5.972-.107.162-.321.323-.482.485.429.538 1.606 1.398 4.388 2.098 1.659.376 2.568 1.99 2.408 4.25 0 .538-.428.914-.963.914h-.054c-.535-.053-.963-.538-.91-1.075.054-.7 0-1.991-.91-2.206-3.637-.915-5.082-2.152-5.67-3.12-.375.107-.75.16-1.178.16h-.107-.053c-.375 0-.75-.053-1.07-.107-.589.969-2.087 2.206-5.672 3.12-.91.216-.963 1.453-.91 2.206.054.592-.374 1.022-.91 1.076h-.053c-.481 0-.91-.376-.963-.914-.16-2.206.696-3.82 2.355-4.25 2.621-.7 3.852-1.507 4.333-2.045-.214-.161-.428-.323-.588-.538-1.82-2.098-1.552-5.541-1.498-5.971zm1.927.161c-.054.86-.054 3.282.91 4.52.535.59 1.177.86 2.086.86h.054c.91 0 1.605-.323 2.086-.86 1.07-1.292 1.124-3.713 1.017-4.52v-.054c-.107-3.174-2.354-3.335-3.05-3.281h-.053-.107c-.803 0-2.783.322-2.943 3.281v.054zm8.9 27.391l-3.799-2.205a3.204 3.204 0 0 1-2.193.86 3.204 3.204 0 0 1-2.194-.86l-3.799 2.205c-.16.054-.32.108-.481.108-.321 0-.696-.161-.856-.484a.98.98 0 0 1 .374-1.345l3.799-2.206c0-.215-.054-.484-.054-.7 0-1.452.963-2.69 2.248-3.12v-4.411c0-.538.428-.968.963-.968.535 0 .963.43.963.968v4.411a3.313 3.313 0 0 1 2.247 3.12c0 .216 0 .485-.054.7l3.8 2.206a.98.98 0 0 1 .374 1.345c-.214.323-.535.484-.856.484-.16 0-.321 0-.482-.108zm-5.992-3.335c.695 0 1.284-.592 1.284-1.291 0-.7-.589-1.291-1.284-1.291-.696 0-1.284.591-1.284 1.29 0 .7.588 1.292 1.284 1.292zm10.689 11.398c2.675-.7 3.852-1.507 4.173-2.099-.214-.161-.428-.322-.588-.538-1.82-2.098-1.552-5.54-1.499-5.971.214-4.143 3.264-5.165 5.083-5.111 1.82-.054 4.87.968 5.083 5.11.054.431.321 3.874-1.498 5.972-.107.162-.32.323-.481.485.428.538 1.605 1.398 4.387 2.098 1.659.376 2.568 1.99 2.408 4.25 0 .538-.428.914-.963.914h-.054c-.535-.053-.963-.538-.91-1.076.054-.699 0-1.99-.909-2.205-3.638-.915-5.083-2.152-5.671-3.12-.375.107-.75.16-1.178.16h-.107-.053c-.375 0-.75-.053-1.07-.107-.589.969-2.087 2.206-5.672 3.12-.91.216-.963 1.453-.91 2.206.054.592-.374 1.022-.909 1.076h-.053c-.482 0-.91-.376-.963-.914-.161-2.206.695-3.82 2.354-4.25zm4.173-8.393c-.053.807-.053 3.228.91 4.519.535.592 1.177.86 2.086.86h.054c.91 0 1.605-.322 2.087-.86 1.07-1.291 1.123-3.712 1.016-4.519v-.054c-.107-3.174-2.354-3.335-3.05-3.282h-.053-.107c-.803 0-2.782.323-2.943 3.282v.054zm-39.714 8.393c2.783-.7 4.013-1.56 4.227-2.045l-.481-.484c-1.82-2.098-1.552-5.541-1.498-5.972.214-4.142 3.263-5.164 5.082-5.11 1.82-.054 4.87.968 5.083 5.11.054.43.321 3.874-1.498 5.972a5.87 5.87 0 0 1-.588.538c.481.538 1.712 1.399 4.334 2.044 1.658.377 2.568 1.99 2.407 4.25 0 .538-.428.915-.963.915h-.053c-.535-.054-.963-.538-.91-1.076.054-.7 0-1.99-.91-2.206-3.584-.914-5.082-2.152-5.67-3.12-.375.054-.696.108-1.071.108h-.053-.054-.054c-.428 0-.802-.054-1.177-.162-.588.915-2.033 2.206-5.671 3.12-.91.216-.963 1.453-.91 2.206.054.592-.374 1.022-.91 1.076h-.053c-.481 0-.91-.376-.963-.914-.16-2.206.696-3.82 2.354-4.25zm4.334-8.393c-.053.807-.053 3.228.91 4.465.535.592 1.177.861 2.086.861h.054c.91 0 1.605-.269 2.087-.86 1.07-1.238 1.123-3.66 1.016-4.466v-.054c-.107-3.174-2.354-3.335-3.05-3.282h-.053-.107c-.803 0-2.782.323-2.943 3.282v.054z"/></symbol><symbol id="info-k" viewBox="0 0 80 80"><g fill="#23212C" fill-rule="evenodd"><path d="M27.441 21.438a.81.81 0 0 1 .807.814.81.81 0 0 1-.807.814h-6.12a.81.81 0 0 1-.807-.814.81.81 0 0 1 .807-.814h6.12zm-9.834.147c.365 0 .66.299.66.667a.664.664 0 0 1-.66.667.664.664 0 0 1-.661-.667c0-.368.296-.667.66-.667zm2.095 33.865a.81.81 0 0 1 .807.813.81.81 0 0 1-.807.814H16.94a.81.81 0 0 1-.807-.814.81.81 0 0 1 .807-.813h2.762zm4.68 1.729a.911.911 0 0 1-.908-.915c0-.506.406-.916.907-.916s.908.41.908.916a.911.911 0 0 1-.908.915zM60.05 21.436c1.627 0 2.95 1.335 2.95 2.976v26.259a.81.81 0 0 1-.806.814H45.823v2.457a.81.81 0 0 1-.807.814h-.872a8.28 8.28 0 0 1-.546 1.444l.585.59a.817.817 0 0 1 0 1.152l-2.39 2.404a.74.74 0 0 1-.571.238.804.804 0 0 1-.57-.24l-.504-.511c-.48.266-.982.483-1.505.647v.706a.81.81 0 0 1-.806.814h-3.37a.81.81 0 0 1-.806-.814v-.723a8.145 8.145 0 0 1-1.49-.648l-.526.53a.801.801 0 0 1-1.14 0l-.823-.829H16.008c-1.658 0-3.008-1.362-3.008-3.035V22.473C13 20.558 14.544 19 16.442 19H32.32c1.519 0 2.832 1.025 3.272 2.436H60.05zm1.337 2.976c0-.744-.6-1.349-1.337-1.349H35.762v1.616l.002.01v3.124h25.623v-3.4zM33.87 42.766c.018-.02.034-.042.054-.06a.798.798 0 0 1 .228-.156V28.638l-.002-.011v-3.123H14.613v27.508h11.869v-2.47a.81.81 0 0 1 .806-.813h1.087c.146-.419.328-.829.543-1.227l-.798-.81a.82.82 0 0 1 .001-1.149l2.383-2.404a.801.801 0 0 1 1.14 0l.876.883a8.12 8.12 0 0 1 1.141-.463v-1.26c0-.102.024-.197.057-.286.01-.027.023-.05.036-.076a.802.802 0 0 1 .115-.171zM14.613 22.473v1.403h19.536v-1.399a.921.921 0 0 0-.007-.119v-.006c-.083-.986-.88-1.725-1.822-1.725H16.442a1.84 1.84 0 0 0-1.83 1.846zm1.395 35.416h12.065c-.036-.044-.057-.096-.083-.146-.015-.028-.035-.052-.047-.082a.816.816 0 0 1-.058-.295c0-.216.085-.423.236-.576l.62-.625a8.343 8.343 0 0 1-.536-1.41h-.917a.787.787 0 0 1-.346-.085c-.022-.011-.047-.017-.069-.03h-12.26v1.84c0 .777.626 1.409 1.395 1.409zm28.202-4.76v-1.773h-.827a.808.808 0 0 1-.779-.602 6.748 6.748 0 0 0-.88-1.96.82.82 0 0 1 .103-1.024l.645-.65-1.246-1.255-.707.717a.8.8 0 0 1-.98.127 6.5 6.5 0 0 0-1.88-.75.812.812 0 0 1-.629-.793v-1.054h-1.756v1.066a.812.812 0 0 1-.623.793c-.66.155-1.288.41-1.864.755a.802.802 0 0 1-.982-.125l-.73-.736-1.244 1.255.672.682a.82.82 0 0 1 .105 1.016 6.78 6.78 0 0 0-.859 1.934.808.808 0 0 1-.78.604h-.874v1.772h.748c.387 0 .72.278.792.661a6.734 6.734 0 0 0 .792 2.114.821.821 0 0 1-.125.989l-.47.474 1.243 1.254.403-.407a.8.8 0 0 1 1.017-.102c.656.44 1.381.757 2.157.94a.812.812 0 0 1 .622.793v.529h1.756v-.517c0-.38.261-.71.629-.794a6.507 6.507 0 0 0 2.17-.935.8.8 0 0 1 1.017.105l.38.387 1.246-1.254-.44-.443a.82.82 0 0 1-.124-.99c.391-.666.662-1.387.804-2.142a.808.808 0 0 1 .792-.662h.706zm1.241-3.272h15.936V29.441H35.764v13.043h2.073a.81.81 0 0 1 .806.814v1.244c.398.124.784.28 1.156.463l.853-.865a.74.74 0 0 1 .572-.24c.213 0 .418.086.57.238l2.389 2.405a.816.816 0 0 1 0 1.151l-.769.776c.223.406.41.826.562 1.259h1.04c.1 0 .193.023.282.057.025.01.047.021.07.033.028.013.058.022.083.038zm-9.277-2.417a5.026 5.026 0 0 1 4.526 2.882c.327.666.496 1.406.496 2.186 0 2.794-2.253 5.067-5.022 5.067-.508 0-1-.074-1.463-.22a5.043 5.043 0 0 1-3.314-3.277 5.135 5.135 0 0 1-.246-1.57c0-2.251 1.436-4.202 3.572-4.856a5.04 5.04 0 0 1 1.45-.212zm0 8.508c1.88 0 3.409-1.543 3.409-3.44 0-.528-.113-1.024-.334-1.476a3.412 3.412 0 0 0-4.062-1.821 3.423 3.423 0 0 0-2.423 3.297 3.425 3.425 0 0 0 2.421 3.292c.314.099.645.148.989.148z"/><path d="M55.426 36.9h-6.705c-.574 0-.958-.32-.958-.8 0-.48.384-.8.958-.8h6.705c.575 0 .958.32.958.8 0 .48-.383.8-.958.8zm.12 2.4h-6.944c-.503 0-.839-.32-.839-.8 0-.48.336-.8.839-.8h6.944c.503 0 .838.32.838.8 0 .48-.335.8-.838.8zm-12.915 1.84a3.76 3.76 0 1 1 0-7.52 3.76 3.76 0 1 1 0 7.52zm0-5.92c-1.203 0-2.165.96-2.165 2.16 0 1.2.962 2.16 2.165 2.16s2.165-.96 2.165-2.16c0-1.2-1.042-2.16-2.165-2.16zM27.56 42.1h-6.705c-.574 0-.957-.32-.957-.8 0-.48.383-.8.957-.8h6.705c.575 0 .958.32.958.8 0 .48-.383.8-.958.8zm.12 2.58h-6.944c-.503 0-.838-.32-.838-.8 0-.48.335-.8.838-.8h6.944c.503 0 .838.32.838.8 0 .48-.335.8-.838.8zm-3.151-6.12a3.76 3.76 0 1 1 0-7.52 3.76 3.76 0 0 1 3.769 3.76c-.08 2.08-1.684 3.76-3.77 3.76zm0-5.92c-1.203 0-2.166.96-2.166 2.16 0 1.2.963 2.16 2.166 2.16 1.203 0 2.165-.96 2.165-2.16 0-1.2-1.043-2.16-2.165-2.16z"/></g></symbol><symbol id="info-l" viewBox="0 0 80 80"><g fill="none" fill-rule="evenodd"><path fill="#23212C" fill-rule="nonzero" d="M29.06 61.357h27.574c.408 0 .74-.341.74-.767V19.41a.754.754 0 0 0-.74-.767H29.06v42.714zm27.574 1.517H27.56V17.126h29.074c1.24 0 2.241 1.024 2.241 2.284v41.18c0 1.26-1 2.284-2.24 2.284z"/><path fill="#23212C" fill-rule="nonzero" d="M27.56 18.643h-5.213a.754.754 0 0 0-.74.767v41.18c0 .426.333.767.74.767h5.213V18.643zm-5.213 44.23c-1.24 0-2.24-1.023-2.24-2.283V19.41c0-1.26 1-2.284 2.24-2.284h6.713v45.748h-6.713z"/><path fill="#23212C" fill-rule="nonzero" d="M24.588 23.223h-1.5c0-1.268-1.001-2.292-2.232-2.292-1.23 0-2.23 1.024-2.23 2.292 0 1.268 1 2.292 2.23 2.292v1.517c-2.062 0-3.731-1.708-3.731-3.81 0-2.1 1.669-3.808 3.731-3.808 2.063 0 3.732 1.707 3.732 3.809zm0 8.388h-1.5c0-1.267-1.001-2.292-2.232-2.292-1.23 0-2.23 1.025-2.23 2.292 0 1.268 1 2.292 2.23 2.292v1.517c-2.062 0-3.731-1.707-3.731-3.809 0-2.101 1.669-3.808 3.731-3.808 2.063 0 3.732 1.707 3.732 3.808zm0 8.389h-1.5c0-1.268-1.001-2.292-2.232-2.292-1.23 0-2.23 1.024-2.23 2.292 0 1.268 1 2.292 2.23 2.292v1.517c-2.062 0-3.731-1.708-3.731-3.809s1.669-3.809 3.731-3.809c2.063 0 3.732 1.708 3.732 3.809zm0 8.389h-1.5c0-1.268-1.001-2.292-2.232-2.292-1.23 0-2.23 1.024-2.23 2.292 0 1.267 1 2.292 2.23 2.292v1.516c-2.062 0-3.731-1.707-3.731-3.808 0-2.102 1.669-3.81 3.731-3.81 2.063 0 3.732 1.708 3.732 3.81zm0 8.388h-1.5c0-1.268-1.001-2.292-2.232-2.292-1.23 0-2.23 1.024-2.23 2.292 0 1.268 1 2.292 2.23 2.292v1.517c-2.062 0-3.731-1.707-3.731-3.809 0-2.101 1.669-3.809 3.731-3.809 2.063 0 3.732 1.708 3.732 3.81z"/><path stroke="#23212C" stroke-width="1.505" d="M31.875 47.962h21-21zm0-3.539h21-21zm21 7.077h-21 21zm-21 3.538h21-21z"/><path fill="#23212C" fill-rule="nonzero" d="M37.026 38.231h10.867a.78.78 0 0 0 .776-.786v-7.077a.788.788 0 0 0-.227-.556l-5.434-5.504a.768.768 0 0 0-1.097 0l-2.556 2.589v-2.82h-1.553v4.393l-1.325 1.342a.788.788 0 0 0-.227.556v7.077a.78.78 0 0 0 .776.786zm6.986-1.573h-3.105V31.94h3.105v4.718zm-6.21-5.965l4.658-4.718 4.657 4.718v5.965h-1.552v-5.504a.78.78 0 0 0-.777-.786h-4.657a.78.78 0 0 0-.776.786v5.504h-1.553v-5.965z"/></g></symbol><symbol id="info-m" viewBox="0 0 445.39 364.31"><title>info-m</title><path d="M17.2 305.8h164.4c7.57 0 13.7-4.61 13.7-10.3v-20.62c0-5.68-6.13-10.3-13.7-10.3H17.2c-7.58 0-13.7 4.61-13.7 10.3v20.62c0 5.69 6.12 10.3 13.7 10.3zm0 55h164.4c7.57 0 13.7-4.62 13.7-10.31v-20.64c0-5.69-6.13-10.3-13.7-10.3H17.2c-7.58 0-13.7 4.61-13.7 10.3v20.65c0 5.69 6.12 10.31 13.7 10.31zm0-109.94h164.4c7.57 0 13.7-4.61 13.7-10.3v-20.63c0-5.7-6.13-10.32-13.7-10.32H17.2c-7.58 0-13.7 4.62-13.7 10.32v20.57c0 5.69 6.12 10.3 13.7 10.3zm204.89-5.49a35.75 35.75 0 0 0 .6-4.84v-20.6c0-21.21-18.05-37.8-41.1-37.8h-54.8a68.5 68.5 0 1 1 95.3 63.24zM3.5 58.5h383.59v247.3h-166a35.6 35.6 0 0 0 1.64-10.3v-17.18h82.2a54.88 54.88 0 0 1 54.76-55v-82.41a54.88 54.88 0 0 1-54.79-55H85.7a54.89 54.89 0 0 1-54.78 55v41.22H17.2a45.58 45.58 0 0 0-13.7 2.23zm438.39-55v274.82H414.5V31.03H30.9V3.5z" fill="none" stroke="#24212c" stroke-miterlimit="10" stroke-width="7"/></symbol><symbol id="info-n" viewBox="0 0 479 479.01"><title>info-n</title><path d="M202.63 417.43a9.22 9.22 0 1 0 9.21 9.23 9.22 9.22 0 0 0-9.21-9.23zM257.94 325.24h-9.22v-64.53a9.22 9.22 0 0 0-9.22-9.2h-18.44a9.22 9.22 0 0 0 0 18.44h9.22v55.31h-9.22a9.22 9.22 0 1 0 0 18.44h36.88a9.22 9.22 0 1 0 0-18.44zM107.67 380.56a9.22 9.22 0 0 0 9.22-9.22v-36.83a9.22 9.22 0 0 0-9.22-9.22H70.8a9.22 9.22 0 0 0 0 18.44h27.7v18.44H70.8a9.22 9.22 0 0 0-9.22 9.22v36.82a9.22 9.22 0 0 0 9.22 9.22h36.87a9.22 9.22 0 0 0 0-18.44H80v-18.43zM408.2 343.68h-36.87a9.22 9.22 0 1 0 0 18.44H399v18.44h-27.67a9.22 9.22 0 1 0-.61 18.43H399v18.44h-27.67a9.22 9.22 0 1 0 0 18.44h36.87a9.22 9.22 0 0 0 9.22-9.22V352.9a9.22 9.22 0 0 0-9.22-9.22z" fill="none" stroke="#24212c" stroke-miterlimit="10" stroke-width="7"/><path d="M466.28 306.81H322.5v-85.74a9.22 9.22 0 0 0-9.22-9.22H165.75a9.22 9.22 0 0 0-9.22 9.22v48.86H12.72a9.22 9.22 0 0 0-9.22 9.22v187.14a9.22 9.22 0 0 0 9.22 9.22h453.56a9.22 9.22 0 0 0 9.22-9.22V316a9.22 9.22 0 0 0-9.22-9.22zM156.5 457.07H21.94v-168.7H156.5zm147.5 0H175V230.29h129zm153 0H322.5V325.24h134.56zM331 73.77a9.23 9.23 0 0 0-7.45-6.26l-52.48-7.62-23.59-51a9.22 9.22 0 0 0-16.74 0l-23.58 51-52.46 7.62a9.23 9.23 0 0 0-5.11 15.73l38.12 37.15-9 55.23a9.21 9.21 0 0 0 13.38 9.65l47-24.76 47.06 24.75a9.22 9.22 0 0 0 13.39-9.65l-9-55.23 38.12-37.15a9.21 9.21 0 0 0 2.34-9.46zm-56.77 36.74a9.25 9.25 0 0 0-2.66 8.09l6.82 41.71-35-18.4a9.23 9.23 0 0 0-8.58 0l-35 18.4 6.82-41.71a9.22 9.22 0 0 0-2.66-8.09l-28.13-27.46 38.94-5.66a9.17 9.17 0 0 0 7-5.25L239.1 34.7l17.4 37.44a9.17 9.17 0 0 0 7 5.25l39 5.66z" fill="none" stroke="#24212c" stroke-miterlimit="10" stroke-width="7"/><path d="M276.38 417.43H239.5a9.22 9.22 0 1 0 0 18.44h36.88a9.22 9.22 0 1 0 0-18.44z" fill="none" stroke="#24212c" stroke-miterlimit="10" stroke-width="7"/></symbol><symbol id="info-o" viewBox="0 0 18.34 22.46"><title>info-o</title><path d="M11.87 14.4a2 2 0 0 1 1.82-1.05 1.08 1.08 0 0 0 1.21-.95 1.22 1.22 0 0 0 0-.27 2 2 0 0 1 1-1.8 1.08 1.08 0 0 0 .59-1.41 1 1 0 0 0-.13-.23 2 2 0 0 1 0-2.09 1.1 1.1 0 0 0-.26-1.53 1 1 0 0 0-.23-.13 2 2 0 0 1-1-1.81 1.08 1.08 0 0 0-.94-1.22 1.22 1.22 0 0 0-.27 0 2 2 0 0 1-1.82-1 1.08 1.08 0 0 0-1.36-.65.94.94 0 0 0-.26.14 2 2 0 0 1-2.13 0A1.11 1.11 0 0 0 6.6.61a.82.82 0 0 0-.12.2 2 2 0 0 1-1.81 1 1.11 1.11 0 0 0-1.2 1 1.22 1.22 0 0 0 0 .27 2 2 0 0 1-1 1.81 1.08 1.08 0 0 0-.59 1.41 1 1 0 0 0 .13.25 2 2 0 0 1 0 2.09 1.1 1.1 0 0 0 .22 1.53 1 1 0 0 0 .23.13 2 2 0 0 1 1 1.8 1.11 1.11 0 0 0 1 1.22h.28A2 2 0 0 1 6.5 14.4a1.08 1.08 0 0 0 1.42.6 1 1 0 0 0 .23-.13 2 2 0 0 1 2.09 0 1.06 1.06 0 0 0 1.5-.21 1.19 1.19 0 0 0 .13-.26zm-2.7-2.42a4.37 4.37 0 1 1 4.38-4.37 4.37 4.37 0 0 1-4.38 4.37z" fill="none" stroke="#000" stroke-miterlimit="10" stroke-width=".4"/><path d="M4.59 13.98c-.84 0-1-.39-1-.39L.35 19.98l2.66-.27L4.5 21.9s3-6.32 3-6.28c-1.6-.04-.97-1.64-2.91-1.64zM14.67 13.81c-2.4.25-1.91.85-2.46 1.31a1.72 1.72 0 0 1-1.42.54l3.69 6.32.91-2.36 2.62.36zM10.08 6.62l-.91-1.86-.92 1.86-2.05.29 1.48 1.45-.34 2.04 1.83-.96 1.83.96-.35-2.04 1.48-1.45-2.05-.29z" fill="none" stroke="#000" stroke-miterlimit="10" stroke-width=".4"/></symbol><symbol id="info-p" viewBox="0 0 533.74 487.8"><title>info-p</title><path d="M524.41 190l-74.61-23v-55.54a8.25 8.25 0 0 0-4.62-7.43L243.7 4.29h-.15a8 8 0 0 0-4.05-.77A8.22 8.22 0 0 0 235.26 5L91.5 107.52a8.27 8.27 0 0 0-3.5 6.74v71.54l-26.7-3.18h-.23a12.31 12.31 0 0 0-1.92 0 9.13 9.13 0 0 0-2.11.56H57L8.43 204.75a8.26 8.26 0 0 0-4.93 7.54v138.6a8.3 8.3 0 0 0 4.3 7.27l48.7 26.69a8.46 8.46 0 0 0 2.81.93 8.55 8.55 0 0 0 2.37 0L88 382v15.34a8.33 8.33 0 0 0 4.3 7.27L236 483.29a8.38 8.38 0 0 0 6.87.49h.05l201.49-76.61 80.47-30.6a8.28 8.28 0 0 0 5.35-7.74V197.89a8.22 8.22 0 0 0-5.82-7.89zM26.62 316.52a2.79 2.79 0 0 1-2.77 2.81 2.64 2.64 0 0 1-.74-.1l-9.22-2.57a2.77 2.77 0 0 1-2-2.67V288.2a2.8 2.8 0 0 1 .9-2.05 2.75 2.75 0 0 1 2.12-.69l9.23.89a2.78 2.78 0 0 1 2.5 2.75v27.42zm0-54.75a2.78 2.78 0 0 1-2.55 2.75l-9.22.76h-.22a2.85 2.85 0 0 1-1.88-.72 2.77 2.77 0 0 1-.89-2v-25.78a2.77 2.77 0 0 1 2.06-2.67l9.22-2.43a2.77 2.77 0 0 1 2.39.5 2.72 2.72 0 0 1 1.08 2.17v27.42zm27 62.25a2.8 2.8 0 0 1-2.79 2.71 2.64 2.64 0 0 1-.74-.1l-12.65-3.51a2.76 2.76 0 0 1-2-2.66v-30a2.74 2.74 0 0 1 2.72-2.76h.28l12.65 1.24a2.74 2.74 0 0 1 2.49 2.74v32.25zm0-64.47a2.77 2.77 0 0 1-2.57 2.78l-12.65 1h-.23a2.77 2.77 0 0 1-2.76-2.78V230.6a2.76 2.76 0 0 1 2.09-2.68l12.65-3.32a2.76 2.76 0 0 1 3.35 1.92 3.06 3.06 0 0 1 .09.74zm69.21 83.68a2.8 2.8 0 0 1-2.76 2.77 3.07 3.07 0 0 1-.74-.1L103 341.33a2.78 2.78 0 0 1-2-2.66V296.9a2.76 2.76 0 0 1 .91-2 2.82 2.82 0 0 1 2.11-.72l16.31 1.61a2.75 2.75 0 0 1 2.5 2.74v44.75zm0-89.39a2.74 2.74 0 0 1-2.53 2.68l-16.3 1.35h-.22a2.79 2.79 0 0 1-2.77-2.73v-41.8a2.77 2.77 0 0 1 2.06-2.67l16.31-4.29a2.76 2.76 0 0 1 3.46 2.67zm0-89.42a2.74 2.74 0 0 1-1.63 2.58l-16.31 7.22a2.69 2.69 0 0 1-1.12.25 2.77 2.77 0 0 1-2.77-2.77v-41.86a2.77 2.77 0 0 1 1.3-2.35l16.31-10.15a2.73 2.73 0 0 1 2.8-.08 2.79 2.79 0 0 1 1.42 2.42v44.74zm40.67 190.1a2.77 2.77 0 0 1-2.75 2.77 2.71 2.71 0 0 1-.75-.1l-21.84-6.07a2.77 2.77 0 0 1-2-2.66v-48.17a2.74 2.74 0 0 1 .91-2 2.8 2.8 0 0 1 2.12-.7l21.81 2.13a2.77 2.77 0 0 1 2.46 2.8zm0-104a2.76 2.76 0 0 1-2.53 2.76l-21.85 1.8h-.23a2.79 2.79 0 0 1-2.77-2.78v-48.1a2.75 2.75 0 0 1 2.06-2.67l21.82-5.75a2.68 2.68 0 0 1 2.38.48 2.76 2.76 0 0 1 1.08 2.19v52.07zm0-104a2.78 2.78 0 0 1-1.64 2.54L140 158.73a2.53 2.53 0 0 1-1.12.23 2.75 2.75 0 0 1-2.76-2.74V108a2.81 2.81 0 0 1 1.3-2.34L159.24 92a2.78 2.78 0 0 1 2.8-.08 2.81 2.81 0 0 1 1.46 2.43zM220 370.31a3 3 0 0 1-.89 2.16 3.9 3.9 0 0 1-2.84 1c-5.45 0-26.59-7.61-30.76-9.12a2.77 2.77 0 0 1-1.81-2.6V305a2.73 2.73 0 0 1 2.7-2.76h.3l30.79 3A2.77 2.77 0 0 1 220 308v62.36zm0-124.41a2.77 2.77 0 0 1-2.54 2.75l-30.79 2.54h-.22a2.78 2.78 0 0 1-2.77-2.78v-56.78a2.75 2.75 0 0 1 2.06-2.67l30.73-8.09a2.68 2.68 0 0 1 2.38.48 2.74 2.74 0 0 1 1.08 2.18v62.32zm0-124.42a2.76 2.76 0 0 1-1.65 2.53l-30.75 13.64a2.82 2.82 0 0 1-2.64-.22 2.78 2.78 0 0 1-1.25-2.32V78.29a2.79 2.79 0 0 1 1.3-2.36l30.79-19.17a2.75 2.75 0 0 1 3.79.85 2.78 2.78 0 0 1 .41 1.49v62.38zm122.39-31a2.77 2.77 0 0 1 2.76-2.76 2.68 2.68 0 0 1 1.08.22l32.86 14.21a2.78 2.78 0 0 1 1.67 2.54v49a2.75 2.75 0 0 1-2.75 2.77 2.86 2.86 0 0 1-.82-.12l-32.86-10.1a2.78 2.78 0 0 1-1.95-2.63V90.48zm0 106.38a2.72 2.72 0 0 1 1-2.12 2.8 2.8 0 0 1 2.26-.6l32.87 6a2.76 2.76 0 0 1 2.27 2.71v49.49a2.77 2.77 0 0 1-.89 2 2.73 2.73 0 0 1-1.88.74h-.19L345 252.74a2.75 2.75 0 0 1-2.57-2.74v-53.14zm-85.6-143.5a2.77 2.77 0 0 1 2.76-2.76 2.68 2.68 0 0 1 1.08.22L307.33 71a2.8 2.8 0 0 1 1.67 2.52v58.05a2.79 2.79 0 0 1-2.76 2.77 2.87 2.87 0 0 1-.82-.13l-46.68-14.34a2.77 2.77 0 0 1-1.95-2.64zm0 191.65v-63.89a2.74 2.74 0 0 1 1-2.11 2.8 2.8 0 0 1 2.26-.6l46.68 8.51a2.79 2.79 0 0 1 2.28 2.72v58a2.79 2.79 0 0 1-2.77 2.76h-.16l-46.68-2.66a2.79 2.79 0 0 1-2.61-2.73zm91.08 191.06a2.79 2.79 0 0 1-1.78 2.58L285 461.87a2.85 2.85 0 0 1-1 .18 2.75 2.75 0 0 1-2.75-2.75V307.22a2.76 2.76 0 0 1 2.58-2.75l61.11-4.18a2.77 2.77 0 0 1 2.94 2.58v133.2zm73.62-28a2.76 2.76 0 0 1-1.78 2.58l-40.77 15.5a2.86 2.86 0 0 1-1 .19 2.94 2.94 0 0 1-1.57-.49 2.79 2.79 0 0 1-1.19-2.28v-122.7a2.76 2.76 0 0 1 2.58-2.76l40.74-2.76a2.79 2.79 0 0 1 2.08.73 2.75 2.75 0 0 1 .87 2zm11.75-153.28a2.75 2.75 0 0 1-.87 2 2.81 2.81 0 0 1-1.9.75h-.16l-24.38-1.4a2.76 2.76 0 0 1-2.6-2.76v-45.55a2.74 2.74 0 0 1 2.71-2.77 2.56 2.56 0 0 1 .55.05l24.41 4.41a2.76 2.76 0 0 1 2.28 2.73zm0-85a2.79 2.79 0 0 1-2.74 2.73 2.87 2.87 0 0 1-.82-.13l-24.37-7.49a2.75 2.75 0 0 1-2-2.63v-45.6a2.76 2.76 0 0 1 1.24-2.3 2.73 2.73 0 0 1 2.61-.23l24.39 10.54a2.75 2.75 0 0 1 1.66 2.57v42.51zM482 330.45a2.77 2.77 0 0 1-2.24 2.72L462 336.58a2.29 2.29 0 0 1-.52.05 2.76 2.76 0 0 1-2.75-2.76v-38.65a2.76 2.76 0 0 1 2.57-2.76l17.72-1.2a2.9 2.9 0 0 1 2.08.74 2.75 2.75 0 0 1 .87 2v36.45zm0-72.84a2.75 2.75 0 0 1-.87 2 2.79 2.79 0 0 1-1.9.75h-.15l-17.72-1a2.76 2.76 0 0 1-2.6-2.76v-38.66a2.76 2.76 0 0 1 1-2.12 2.81 2.81 0 0 1 2.27-.6l17.7 3.23a2.77 2.77 0 0 1 2.28 2.72v36.44zm30 67.06a2.75 2.75 0 0 1-2.24 2.71l-14.18 2.74H495a2.77 2.77 0 0 1-2.8-2.72v-34.47a2.76 2.76 0 0 1 2.58-2.74l14.16-1a2.89 2.89 0 0 1 2.08.73 2.79 2.79 0 0 1 .87 2v32.67zm0-65.35a2.75 2.75 0 0 1-2.73 2.77h-.18l-14.18-.8a2.76 2.76 0 0 1-2.6-2.76v-34a2.77 2.77 0 0 1 2.74-2.78 3.09 3.09 0 0 1 .43 0l14.18 2.14a2.76 2.76 0 0 1 2.34 2.74v32.7z" fill="none" stroke="#000" stroke-miterlimit="10" stroke-width="7"/></symbol><symbol id="menu-images" viewBox="0 0 24 24"><path d="M17.21 19h-2.784c-.994 0-1.79-.795-1.79-1.79v-2.784c0-.994.796-1.79 1.79-1.79h2.784c.995 0 1.79.796 1.79 1.79v2.784c0 .995-.795 1.79-1.79 1.79zm-2.784-5.17a.612.612 0 0 0-.596.596v2.784c0 .318.278.597.596.597h2.784a.612.612 0 0 0 .597-.597v-2.784a.612.612 0 0 0-.597-.596h-2.784zm-4.852-2.466H6.79c-.995 0-1.79-.796-1.79-1.79V6.79C5 5.795 5.795 5 6.79 5h2.784c.994 0 1.79.795 1.79 1.79v2.784c0 .994-.796 1.79-1.79 1.79zM6.79 6.194a.612.612 0 0 0-.597.596v2.784c0 .318.279.596.597.596h2.784a.612.612 0 0 0 .596-.596V6.79a.612.612 0 0 0-.596-.597H6.79zM9.574 19H6.79C5.795 19 5 18.205 5 17.21v-2.784c0-.994.795-1.79 1.79-1.79h2.784c.994 0 1.79.796 1.79 1.79v2.784c0 .995-.796 1.79-1.79 1.79zM6.79 13.83a.612.612 0 0 0-.597.596v2.784c0 .318.279.597.597.597h2.784a.612.612 0 0 0 .596-.597v-2.784a.612.612 0 0 0-.596-.596H6.79zm10.42-2.466h-2.784c-.994 0-1.79-.796-1.79-1.79V6.79c0-.995.796-1.79 1.79-1.79h2.784c.995 0 1.79.795 1.79 1.79v2.784c0 .994-.795 1.79-1.79 1.79zm-2.784-5.17a.612.612 0 0 0-.596.596v2.784c0 .318.278.596.596.596h2.784a.612.612 0 0 0 .597-.596V6.79a.612.612 0 0 0-.597-.597h-2.784z"/></symbol><symbol id="menu-map" viewBox="0 0 24 24"><path d="M12.5 20a.678.678 0 0 1-.363-.114c-.243-.19-6.137-4.42-6.137-9.79v-.458C6.242 5.752 9.553 4 12.5 4s6.258 1.752 6.5 5.638v.457c0 5.372-5.894 9.638-6.137 9.79A.678.678 0 0 1 12.5 20zM7.211 9.676v.381c0 4.114 4.037 7.62 5.289 8.61 1.252-.99 5.289-4.534 5.289-8.61v-.38c-.202-3.163-2.786-4.572-5.289-4.572-2.503 0-5.087 1.41-5.289 4.571zm5.289 3.2c-1.655 0-2.947-1.257-2.947-2.819s1.332-2.819 2.947-2.819c1.655 0 2.988 1.257 2.988 2.82 0 1.561-1.333 2.818-2.988 2.818zm0-4.457c-.969 0-1.736.762-1.736 1.676 0 .915.807 1.676 1.736 1.676.969 0 1.776-.761 1.776-1.676 0-.914-.807-1.676-1.776-1.676z"/></symbol><symbol id="menu-overview" viewBox="0 0 24 24"><path d="M12 18.88a6.88 6.88 0 1 0 0-13.76 6.88 6.88 0 0 0 0 13.76zM12 20a8 8 0 1 1 0-16 8 8 0 0 1 0 16zm.337-10.834c-.24 0-.43-.06-.573-.18a.604.604 0 0 1-.213-.486c0-.276.106-.511.32-.707.213-.196.466-.293.76-.293.258 0 .444.077.56.233a.788.788 0 0 1 .173.473c0 .285-.1.516-.3.694-.2.178-.442.266-.727.266zm-.32 5.787c-.026.107-.04.187-.04.24 0 .08.04.12.12.12a.525.525 0 0 0 .194-.047c.075-.03.149-.066.22-.106.07-.04.138-.076.2-.107a.36.36 0 0 1 .146-.047c.072 0 .127.038.167.114.04.075.065.149.073.22-.142.098-.308.204-.5.32a7.498 7.498 0 0 1-.586.32c-.2.098-.396.18-.587.246-.19.067-.358.1-.5.1a.719.719 0 0 1-.38-.093c-.102-.062-.153-.169-.153-.32 0-.053.004-.104.013-.153.01-.05.018-.091.027-.127l.853-4.067c.027-.133.005-.2-.067-.2a.352.352 0 0 0-.12.034l-.18.073a3.626 3.626 0 0 1-.2.073.548.548 0 0 1-.166.034c-.08 0-.14-.04-.18-.12a1.117 1.117 0 0 1-.087-.227c.17-.089.371-.191.607-.307.235-.115.466-.22.693-.313.227-.093.433-.173.62-.24s.32-.1.4-.1c.071 0 .138.018.2.053.062.036.093.098.093.187a1.38 1.38 0 0 1-.027.24l-.853 4.2z"/></symbol><symbol id="menu-plan" viewBox="0 0 363 356"><path d="M1.74 1.75c70.02 0 140.04-.02 210.06.01-.01 9.46-.1 18.91.04 28.37-13.33.2-26.68.05-40.02.07-.05 7.59-.1 15.19.02 22.78-9.42.41-18.87.06-28.3.18-.11-7.64-.05-15.28-.04-22.92-37.78-.03-75.55-.03-113.33-.01.02 32.09.05 64.17-.02 96.25 37.78.06 75.56.02 113.34.03-.02-7.68 0-15.36-.02-23.04h28.32c.05 7.51-.13 15.03.07 22.55.5 5.66.27 11.35-.08 17.01.03 16.94-.05 33.88.04 50.82-9.41.25-18.89.21-28.33-.04.01-12.91-.06-25.81.04-38.71-4.18-.38-8.37-.15-12.55-.21-33.59.04-67.19-.07-100.78.06-.05 57.18.03 114.36-.04 171.54 37.78 0 75.56.03 113.33-.01-.03-27.36.02-54.72-.03-82.08 9.45-.04 18.89-.01 28.33-.01-.02 27.35-.02 54.7 0 82.06 53.92.11 107.84.02 161.76.04-.03-98.75-.03-197.5 0-296.26-14.35 0-28.69-.07-43.04.05-.19-9.52-.08-19.05-.05-28.57 23.82.1 47.65-.02 71.47.06-.06 117.71-.01 235.42-.02 353.13-120.05.02-240.1-.02-360.15.02-.03-117.72 0-235.44-.02-353.17z"/></symbol><symbol id="menu-share" viewBox="0 0 24 24"><path d="M12.924 18.981c-.09 0-.18 0-.27-.043-.27-.085-.406-.341-.406-.597V15.01a7.716 7.716 0 0 0-5.318 2.092L5.127 18.81c-.18.171-.496.256-.721.128-.27-.085-.406-.341-.406-.597v-.385c0-4.44 3.65-8.113 8.248-8.455v-2.86c0-.257.18-.47.406-.598.225-.086.54-.043.72.128l6.4 5.636a.67.67 0 0 1 .226.47c0 .17-.09.342-.18.47l-6.4 6.063c-.135.128-.316.171-.496.171zm-.631-5.252h.63c.362 0 .677.299.677.64v2.434l4.732-4.483L13.6 8.135v2.007c0 .342-.315.64-.676.64-3.74 0-6.806 2.563-7.482 5.893l.496-.47a9.35 9.35 0 0 1 6.355-2.476z"/></symbol><symbol id="menu-video" viewBox="0 0 24 24"><path d="M12 18.88a6.88 6.88 0 1 0 0-13.76 6.88 6.88 0 0 0 0 13.76zM12 20a8 8 0 1 1 0-16 8 8 0 0 1 0 16zm-1.015-4.227a.873.873 0 0 1-.433-.098 1.112 1.112 0 0 1-.592-1.001v-5.79c0-.439.227-.805.592-1 .365-.196.775-.123 1.094.146l3.282 2.907c.228.22.365.513.365.855 0 .317-.137.635-.365.854l-3.282 2.883a.934.934 0 0 1-.66.244zm.33-6.46c-.095 0-.095.02-.11.02a.32.32 0 0 0-.142.28v4.414c0 .18.11.26.141.28.032.02.142.081.252-.04l2.457-2.29c.078-.08.078-.181.078-.241s-.015-.161-.078-.241l-2.457-2.122c-.047-.04-.047-.06-.142-.06z"/></symbol><symbol id="net-email" viewBox="0 0 24 24"><path fill="#30294E" d="M19.869 17.105a.527.527 0 0 1-.12.244.67.67 0 0 1-.07.058 1.625 1.625 0 0 1-1.255.593H5.61c-.507 0-.957-.22-1.251-.566a.666.666 0 0 1-.11-.085.465.465 0 0 1-.144-.335A1.495 1.495 0 0 1 4 16.458V8.542C4 7.685 4.716 7 5.61 7h12.778c.418 0 .797.15 1.082.396a.427.427 0 0 1 .14.137c.243.27.389.622.389 1.01v7.915c.01.231-.038.45-.13.647zm-1.347-.15l-4.511-4.076-1.636 1.386c-.107.068-.25.137-.358.137a.47.47 0 0 1-.358-.137l-1.654-1.402-4.503 4.098a.52.52 0 0 0 .109.011h12.777c.046 0 .09-.006.134-.018zm.403-1.037V8.715L14.811 12.2l4.114 3.717zm-13.851 0l4.131-3.733-4.131-3.5v7.233zm.831-7.89l6.112 5.174 6.113-5.174H5.905z"/></symbol><symbol id="net-facebook" viewBox="0 0 24 24"><path opacity=".01" fill="#D8D8D8" d="M0 0h24v24H0z"/><path d="M22 12c0-5.523-4.477-10-10-10S2 6.477 2 12c0 4.991 3.657 9.128 8.438 9.878v-6.987h-2.54V12h2.54V9.797c0-2.506 1.492-3.89 3.777-3.89 1.094 0 2.238.195 2.238.195v2.46h-1.26c-1.243 0-1.63.771-1.63 1.562V12h2.773l-.443 2.89h-2.33v6.988C18.343 21.128 22 16.991 22 12z" fill="#1877F2"/></symbol><symbol id="net-linked-in" viewBox="0 0 24 24"><path fill="#0077B5" d="M5.455 4h13.09C19.349 4 20 4.651 20 5.455v13.09c0 .804-.651 1.455-1.455 1.455H5.455A1.455 1.455 0 0 1 4 18.545V5.455C4 4.651 4.651 4 5.455 4zm2.13 2.218a1.386 1.386 0 1 0-.001 2.772 1.386 1.386 0 0 0 0-2.772zM6.388 17.73h2.39V10.04h-2.39v7.69zm3.888-7.689v7.69h2.388v-3.804c0-1.003.19-1.975 1.434-1.975 1.226 0 1.242 1.147 1.242 2.04v3.738h2.388v-4.217c0-2.07-.446-3.663-2.866-3.663-1.163 0-1.942.637-2.261 1.242h-.032v-1.05h-2.293z"/></symbol><symbol id="net-twitter" viewBox="0 0 24 24"><path fill="#1DA1F2" d="M9.032 19.333c6.037 0 9.34-5.13 9.34-9.579 0-.145 0-.29-.01-.435A6.776 6.776 0 0 0 20 7.577c-.6.272-1.235.45-1.885.53a3.365 3.365 0 0 0 1.443-1.863 6.48 6.48 0 0 1-2.085.817A3.227 3.227 0 0 0 13.53 6.4c-1.31.719-1.986 2.249-1.65 3.733-2.64-.136-5.099-1.414-6.765-3.518-.872 1.539-.427 3.507 1.016 4.494a3.196 3.196 0 0 1-1.49-.42v.042c0 1.602 1.102 2.983 2.634 3.3-.484.135-.99.155-1.483.058.43 1.371 1.663 2.31 3.067 2.338A6.483 6.483 0 0 1 4 17.82a9.125 9.125 0 0 0 5.032 1.51"/></symbol><symbol id="net-whatsapp" viewBox="0 0 24 24"><path fill="#00E677" d="M2.39 21.626l1.362-4.944a9.505 9.505 0 0 1-1.28-4.767c0-5.261 4.304-9.54 9.585-9.54 2.567 0 4.972.995 6.781 2.796a9.459 9.459 0 0 1 2.805 6.748c0 5.261-4.305 9.54-9.586 9.54h-.005a9.626 9.626 0 0 1-4.58-1.16L2.39 21.626z"/><path fill="#FFF" d="M2.043 21.972l1.41-5.119a9.805 9.805 0 0 1-1.324-4.938c0-5.45 4.457-9.882 9.933-9.882a9.877 9.877 0 0 1 7.024 2.896 9.775 9.775 0 0 1 2.904 6.99c0 5.45-4.457 9.882-9.933 9.882h-.005a9.975 9.975 0 0 1-4.747-1.204l-5.262 1.375zm5.51-3.162l.3.18a8.306 8.306 0 0 0 4.2 1.147h.004c4.548 0 8.253-3.682 8.253-8.213a8.155 8.155 0 0 0-2.415-5.81 8.21 8.21 0 0 0-5.838-2.408C7.505 3.706 3.8 7.39 3.8 11.92c0 1.55.433 3.062 1.262 4.37l.195.313-.828 3.024 3.123-.816z"/><path fill="#FFF" d="M9.576 7.782c-.186-.412-.38-.422-.557-.427-.143-.004-.31-.004-.476-.004a.915.915 0 0 0-.662.308c-.229.246-.867.843-.867 2.061 0 1.214.89 2.389 1.015 2.555.123.166 1.719 2.74 4.238 3.73 2.095.824 2.523.659 2.976.616.452-.043 1.467-.597 1.676-1.176.205-.578.205-1.07.143-1.175-.062-.104-.229-.166-.476-.289-.248-.123-1.467-.72-1.696-.806-.228-.08-.395-.123-.557.124-.166.246-.643.8-.785.966-.143.166-.29.185-.538.062-.248-.123-1.048-.384-1.996-1.227-.738-.655-1.238-1.465-1.38-1.711-.144-.247-.015-.38.109-.503.11-.109.247-.289.371-.431.124-.142.167-.246.248-.412.08-.166.043-.308-.02-.432-.061-.118-.542-1.34-.766-1.829z"/></symbol><symbol id="next" viewBox="0 0 12 12"><path fill="#FF492D" d="M4.777 2.272a.701.701 0 0 0-.505.501l-.019.107a.696.696 0 0 0 .218.576l2.578 2.547-2.583 2.553A.696.696 0 0 0 4.96 9.75a.706.706 0 0 0 .497-.204L8.543 6.5a.696.696 0 0 0 0-.99L5.458 2.46a.702.702 0 0 0-.574-.208l-.107.02z"/></symbol><symbol id="notification-negative" viewBox="0 0 20 20"><g fill="#FF492D"><path d="M9.917 19.217C4.458 19.217 0 14.942 0 9.67 0 4.395 4.458.159 9.917.159c5.458 0 9.916 4.276 9.916 9.51 0 5.233-4.416 9.548-9.916 9.548zm0-17.859c-4.792 0-8.667 3.716-8.667 8.31 0 4.595 3.875 8.31 8.667 8.31 4.791 0 8.666-3.715 8.666-8.31.042-4.594-3.875-8.31-8.666-8.31z" opacity=".3"/><path d="M9.917 10.547l-2.5 2.398c-.084.08-.25.12-.417.12a.643.643 0 0 1-.458-.16.563.563 0 0 1 0-.84L9 9.709 6.542 7.351a.563.563 0 0 1 0-.839c.25-.24.625-.24.875 0L9.875 8.87l2.5-2.397c.25-.24.625-.24.875 0s.25.6 0 .84l-2.458 2.357 2.458 2.357c.25.24.25.599 0 .839-.083.16-.25.2-.417.2a.643.643 0 0 1-.458-.16l-2.458-2.358z"/></g></symbol><symbol id="notification-positive" viewBox="0 0 20 20"><g fill="#309250" fill-rule="evenodd"><path fill-rule="nonzero" d="M9.96 19.633c-5.348 0-9.715-4.368-9.715-9.715C.245 4.571 4.612.204 9.959.204s9.714 4.367 9.714 9.714-4.326 9.715-9.714 9.715zm0-18.245a8.483 8.483 0 0 0-8.49 8.49 8.483 8.483 0 0 0 8.49 8.49 8.483 8.483 0 0 0 8.489-8.49c.04-4.694-3.796-8.49-8.49-8.49z" opacity=".3"/><path d="M9.061 12.776c-.163 0-.326-.082-.449-.164l-2-2a.592.592 0 0 1 0-.857.592.592 0 0 1 .857 0l1.551 1.551 3.633-3.55a.592.592 0 0 1 .857 0 .592.592 0 0 1 0 .856l-4 4a.614.614 0 0 1-.449.164z"/></g></symbol><symbol id="pin" viewBox="0 0 16 16"><path d="M7.75 15l-.22-.14C7.344 14.745 3 11.005 3 6.306c0-2.732 2.127-4.946 4.75-4.946s4.75 2.214 4.75 4.946c0 4.699-4.344 8.439-4.53 8.556L7.75 15zm0-10.494c-.954 0-1.727.806-1.727 1.799 0 .993.773 1.799 1.727 1.799.954 0 1.727-.806 1.727-1.799 0-.993-.773-1.799-1.727-1.799z"/></symbol><symbol id="popup-cross" viewBox="0 0 24 24"><path fill="#30294E" d="M10.536 11.95L6.293 7.707a1 1 0 0 1 1.414-1.414l4.243 4.243 4.242-4.243a1 1 0 1 1 1.415 1.414l-4.243 4.243 4.243 4.242a1 1 0 1 1-1.415 1.415l-4.242-4.243-4.243 4.243a1 1 0 0 1-1.414-1.415l4.243-4.242z" fill-rule="evenodd"/></symbol><symbol id="search-submit" viewBox="0 0 24 24"><path d="M15.416 14.289l4.35 4.35a.797.797 0 1 1-1.127 1.127l-4.35-4.35a6.347 6.347 0 0 1-3.91 1.342A6.386 6.386 0 0 1 4 10.379 6.386 6.386 0 0 1 10.379 4a6.386 6.386 0 0 1 6.379 6.379c0 1.472-.501 2.83-1.342 3.91zM10.38 5.595a4.79 4.79 0 0 0-4.784 4.784 4.79 4.79 0 0 0 4.784 4.784 4.79 4.79 0 0 0 4.784-4.784 4.79 4.79 0 0 0-4.784-4.784z"/></symbol><symbol id="search" viewBox="0 0 24 24"><path fill-rule="evenodd" clip-rule="evenodd" d="M10.379 16.758A6.386 6.386 0 0 1 4 10.379 6.386 6.386 0 0 1 10.379 4a6.386 6.386 0 0 1 6.379 6.379c0 1.472-.501 2.83-1.342 3.91l4.35 4.35a.798.798 0 0 1-1.127 1.128l-4.35-4.35a6.347 6.347 0 0 1-3.91 1.341zm0-11.163a4.79 4.79 0 0 0-4.784 4.784 4.79 4.79 0 0 0 4.784 4.784 4.79 4.79 0 0 0 4.784-4.784 4.79 4.79 0 0 0-4.784-4.784z" fill="#C0C0D1"/></symbol><symbol id="suggest-building-outdated" viewBox="0 0 16 16"><path fill-rule="evenodd" clip-rule="evenodd" d="M13 12.403V13H3v-.597h1.1L4.111 3h7.778v9.403H13zM8.714 4.429h1.429v1.428H8.714V4.43zm-2.857 0h1.429v1.428H5.857V4.43zm0 2.857h1.428v1.428H5.857V7.286zm1.428 2.857H5.857v1.428h1.428v-1.428zm2.858-2.857H8.714v1.428h1.429V7.286zm-1.429 2.857h1.429v1.428H8.714v-1.428z" fill="#D6D4DC"/></symbol><symbol id="suggest-building" viewBox="0 0 16 16"><path fill-rule="evenodd" clip-rule="evenodd" d="M14 13.284V14H2v-.716h1.32L3.333 2h9.334v11.284H14zm-5.143-9.57h1.714V5.43H8.857V3.714zm-3.429 0h1.715V5.43H5.428V3.714zm0 3.429h1.715v1.714H5.428V7.143zm1.715 3.428H5.428v1.715h1.715V10.57zm3.428-3.428H8.857v1.714h1.714V7.143zM8.857 10.57h1.714v1.715H8.857V10.57z" fill="#30294E" fill-opacity=".2"/></symbol><symbol id="suggest-developer-outdated" viewBox="0 0 16 16"><path d="M8.253 9.995c-.608-.36-1.433-.719-2.037-1.38v-.31A3.312 3.312 0 0 0 6.91 6.97c.147-.076.267-.276.294-.523a.893.893 0 0 0-.004-.234.598.598 0 0 0-.128-.3c.013-.232.013-.479.002-.739a9.977 9.977 0 0 0-.046-.63 2.353 2.353 0 0 0-.022-.158C6.786 3.126 5.639 3.001 5.203 3h-.336c-.436.001-1.583.126-1.802 1.386-.009.05-.016.103-.022.157-.023.22-.038.43-.046.631-.012.26-.011.507.002.74a.593.593 0 0 0-.127.299.892.892 0 0 0-.005.234c.027.247.146.447.293.523.036.13.077.256.124.376.14.362.33.68.57.96v.308C2.778 9.794 1 10.01 1 10.99v1.068c0 .132.106.238.238.238h4.116c.168-.947 1.672-1.325 2.899-2.3z" fill="#D6D4DC"/><path d="M11.323 9.755l-.001-.461c.651.085 1.98-.39 1.98-.39-.45-.46-.553-.997-.848-3.106-.296-2.11-2.129-2.09-2.267-2.09-.137 0-1.97-.02-2.266 2.09-.296 2.108-.398 2.646-.848 3.107 0 0 1.329.474 1.98.389l-.002.46c-1.16 1.272-3.081 1.504-3.081 2.56v1.152c0 .142.114.257.256.257h7.923a.256.256 0 0 0 .256-.257v-1.152c0-1.056-1.922-1.288-3.082-2.56z" fill="#D6D4DC"/></symbol><symbol id="suggest-developer" viewBox="0 0 16 16"><path fill-rule="evenodd" clip-rule="evenodd" d="M8.458 9.382c.165.09.324.178.471.265-.485.386-1.01.686-1.49.961-.85.486-1.561.893-1.679 1.554h-4.5a.26.26 0 0 1-.26-.26v-1.168c0-.603.617-.942 1.365-1.352.58-.319 1.241-.68 1.755-1.244V7.8a3.565 3.565 0 0 1-.623-1.048 4.143 4.143 0 0 1-.135-.412c-.16-.082-.291-.302-.32-.571a.975.975 0 0 1 .004-.256.648.648 0 0 1 .14-.327 8.34 8.34 0 0 1-.003-.809c.01-.22.026-.45.051-.69.006-.06.014-.116.024-.171C3.497 2.137 4.75 2 5.228 2h.367c.477.001 1.73.137 1.97 1.516.01.055.017.112.024.171.025.24.042.47.05.69a8.49 8.49 0 0 1-.002.809c.07.079.119.193.14.327.012.08.014.166.004.256-.029.27-.16.489-.32.571-.02.071-.04.141-.063.21a3.62 3.62 0 0 1-.695 1.25v.338c.514.563 1.174.925 1.755 1.244zm3.826-.501l.002.504c.554.607 1.268.997 1.895 1.34.808.443 1.474.808 1.474 1.458v1.26a.28.28 0 0 1-.28.28H6.713a.28.28 0 0 1-.28-.28v-1.26c0-.65.666-1.015 1.474-1.457.628-.344 1.341-.734 1.895-1.341l.002-.504c-.712.093-2.165-.426-2.165-.426.493-.503.604-1.091.927-3.397.32-2.286 2.294-2.284 2.474-2.284h.008c.18 0 2.154-.002 2.474 2.284.323 2.306.435 2.894.927 3.397 0 0-1.452.519-2.165.426z" fill="#30294E" fill-opacity=".2"/></symbol><symbol id="suggest-place-outdated" viewBox="0 0 16 16"><path fill-rule="evenodd" clip-rule="evenodd" d="M7.625 13l-.191-.121C7.272 12.777 3.5 10.376 3.5 6.295 3.5 3.923 5.347 2 7.625 2s4.125 1.923 4.125 4.295c0 4.08-3.772 6.482-3.934 6.584L7.625 13zm0-8.267c-.829 0-1.5.7-1.5 1.562 0 .863.671 1.562 1.5 1.562.828 0 1.5-.699 1.5-1.562 0-.862-.672-1.562-1.5-1.562z" fill="#D6D4DC"/></symbol><symbol id="suggest-place" viewBox="0 0 16 16"><path fill-rule="evenodd" clip-rule="evenodd" d="M7.75 15l-.22-.14C7.344 14.745 3 11.005 3 6.306c0-2.732 2.127-4.946 4.75-4.946s4.75 2.214 4.75 4.946c0 4.699-4.344 8.439-4.53 8.556L7.75 15zm0-10.494c-.954 0-1.727.806-1.727 1.799 0 .993.773 1.799 1.727 1.799.954 0 1.727-.806 1.727-1.799 0-.993-.773-1.799-1.727-1.799z" fill="#30294E" fill-opacity=".2"/></symbol><symbol id="unit-bath" viewBox="0 0 22 22"><title>bath (2) copy 2</title><g fill="#3C4044" fill-rule="evenodd"><path d="M21.982 12.801a.665.665 0 0 0-.673-.656h-1.346V3.19c0-1.759-1.465-3.19-3.266-3.19-1.802 0-3.277 1.547-3.277 2.879l1.355.86c0-1.035.862-2.425 1.922-2.425s1.921.841 1.921 1.876v8.955H.691a.665.665 0 0 0-.673.656c0 2.965 1.92 5.499 4.609 6.48a2.947 2.947 0 0 0-.837 2.062c0 .363.3.657.672.657a.665.665 0 0 0 .673-.657c0-.897.7-1.626 1.562-1.626h8.606c.861 0 1.562.73 1.562 1.626 0 .363.301.657.673.657a.665.665 0 0 0 .672-.657c0-.802-.32-1.53-.837-2.062 2.689-.981 4.609-3.515 4.609-6.48zM14.9 18.403H7.1c-2.936 0-5.364-2.164-5.697-4.945h19.194c-.333 2.78-2.761 4.945-5.697 4.945z" fill-rule="nonzero"/><path d="M14.872 2.334l-.44-.344c-.108-.112-.729-.027-.88 0l-2.554.45a.472.472 0 0 0-.37.327.498.498 0 0 0 .109.491l2.815 3.01a.455.455 0 0 0 .47.128.479.479 0 0 0 .328-.37l.469-2.435c.03-.16.053-.956.053-1.257zm-1.27 2.59L12.036 3.25l1.222-.208.59.613-.244 1.27zM8.486 6.461a.46.46 0 0 0-.67 0l-.946.989a.51.51 0 0 0 0 .699.461.461 0 0 0 .669 0l.947-.989a.51.51 0 0 0 0-.699zM10.378 8.352a.46.46 0 0 0-.67 0l-.946.988a.51.51 0 0 0 0 .7.461.461 0 0 0 .669 0l.947-.99a.51.51 0 0 0 0-.698zM11.302 5.43a.46.46 0 0 0-.67 0l-.946.988a.51.51 0 0 0 0 .7.461.461 0 0 0 .669 0l.947-.99a.51.51 0 0 0 0-.698z" fill-rule="nonzero"/></g></symbol><symbol id="unit-bed" viewBox="0 0 23 22"><title>bed (2) copy 2</title><path d="M19.998 9.488V2.77c0-1.29-.88-2.771-1.963-2.771H4.008C2.926 0 2.045 1.48 2.045 2.771v6.717C.867 9.877 0 11.166 0 12.693v4.02c0 .432.293.781.654.781h1.391v3.725c0 .431.293.781.655.781.361 0 .654-.35.654-.78v-3.726h15.335v3.725c0 .431.293.781.654.781.362 0 .655-.35.655-.78v-3.726h1.39c.362 0 .655-.35.655-.78v-4.02c0-1.528-.867-2.817-2.045-3.206zM3.358 2.325c0-.432.293-.782.654-.782h14.02c.36 0 .653.35.653.782v7.037h-1.533v-2c0-1.366-.928-2.477-2.07-2.477h-2.644c-.548 0-1.046.256-1.416.673-.371-.417-.87-.673-1.417-.673H6.961c-1.142 0-2.07 1.111-2.07 2.477v2H3.358V2.325zm12.485 5.204v1.833h-4.176V7.53c0-.587.343-1.065.764-1.065h2.649c.42 0 .763.478.763 1.065zm-5.467 0v1.833H6.2V7.53c0-.587.342-1.065.763-1.065h2.649c.421 0 .764.478.764 1.065zm10.332 8.541H1.292v-3.488c0-.925.663-1.677 1.478-1.677h16.46c.815 0 1.478.752 1.478 1.677v3.488z" fill="#3C4044" fill-rule="nonzero"/></symbol><symbol id="unit-ppsf" viewBox="0 0 22 22"><title>square copy 3</title><g fill="#3C4044" fill-rule="evenodd"><path d="M12.074 9.09c-.936 0-1.727-.529-1.727-1.155s.791-1.155 1.727-1.155c.53 0 1.02.166 1.345.455a.578.578 0 0 0 .765-.864c-.403-.36-.944-.602-1.534-.698v-.627a.577.577 0 1 0-1.152 0v.624c-1.312.215-2.303 1.149-2.303 2.265 0 1.274 1.292 2.31 2.88 2.31.935 0 1.727.53 1.727 1.156 0 .626-.792 1.155-1.728 1.155-.53 0-1.02-.166-1.345-.455a.578.578 0 0 0-.765.864c.404.36.945.602 1.534.7v.624a.577.577 0 1 0 1.152 0v-.623c1.313-.215 2.303-1.149 2.303-2.265 0-1.274-1.292-2.31-2.879-2.31z" fill-rule="nonzero"/><path d="M0 0h22v22H0V0zm1.332 1.332v19.336h19.336V1.332H1.332z" fill-rule="nonzero"/><path d="M5.672 17.918H4.469V7.305H3.48l1.59-2.407 1.59 2.407h-.988v9.41h8.765v-.988l2.407 1.59-2.407 1.59v-.989H5.672z" fill-rule="nonzero"/></g></symbol><symbol id="unit-size" viewBox="0 0 22 21"><title>plan copy 3</title><g fill-rule="nonzero" fill="none"><path d="M0 5.445h22V21H0V5.445zm1.332 1.313v13.009h19.336V6.758H1.332z" fill="#3C4044"/><path fill="#FFF" d="M7.219 2.867H22V7.25H7.219z"/><path d="M5.887.59h1.332V9.1c0 1.2-1.332 1.2-1.332 0V.59zM11.902 6.517c0-1.257 1.332-1.257 1.332 0v5.027c0 1.332-1.332 1.16-1.332 0V6.517zM20.668.59H22v11.902h-1.332zM5.887 15.33c0-1.09 1.332-1.09 1.332 0V21H5.887v-5.67z" fill="#3C4044"/><path fill="#3C4044" d="M5.887.59H22v1.246H5.887zM11.902 8.41H22v1.246H11.902z"/></g></symbol><symbol id="verified" viewBox="0 0 20 20"><g fill="none" fill-rule="evenodd"><path fill="#FFF" d="M1.5 8.007a3 3 0 0 1 1.304-2.475l5.644-3.869a3 3 0 0 1 3.394.001l5.636 3.868a3 3 0 0 1 1.302 2.474V15.5a3 3 0 0 1-3 3H4.5a3 3 0 0 1-3-3V8.007z"/><path fill="#5838E0" fill-opacity=".45" fill-rule="nonzero" d="M7.883.839L2.238 4.707A4 4 0 0 0 .5 8.007V15.5a4 4 0 0 0 4 4h11.28a4 4 0 0 0 4-4V8.006a4 4 0 0 0-1.737-3.298L12.408.84A4 4 0 0 0 7.883.839zm3.96.825l5.635 3.868a3 3 0 0 1 1.302 2.474V15.5a3 3 0 0 1-3 3H4.5a3 3 0 0 1-3-3V8.007a3 3 0 0 1 1.304-2.475l5.644-3.869a3 3 0 0 1 3.394.001z"/><path fill="#6C5CB4" d="M3.837 6.373a2 2 0 0 0-.892 1.665v6.985a2 2 0 0 0 2 2h10.39a2 2 0 0 0 2-2V8.037c0-.07-.004-.14-.011-.208l-6.007 6.057c-.218.22-.51.294-.8.294-.292 0-.583-.147-.802-.294l-3.567-3.597a1.07 1.07 0 0 1 0-1.542 1.05 1.05 0 0 1 1.529 0l2.766 2.79L15.99 6.07l-4.737-3.155a2 2 0 0 0-2.216 0L3.837 6.373z"/></g></symbol><symbol id="video" viewBox="0 0 30 30"><path fill-rule="evenodd" clip-rule="evenodd" d="M2.5 15c0 6.904 5.596 12.5 12.5 12.5S27.5 21.904 27.5 15 21.904 2.5 15 2.5 2.5 8.096 2.5 15zm10.485-4.596c.024-.011.065-.03.208-.03.164 0 .194.025.255.075l.047.037 5.243 3.957c.135.15.168.337.168.449 0 .112 0 .3-.168.449l-5.243 4.272a.433.433 0 0 1-.537.075.586.586 0 0 1-.302-.525v-8.228c0-.337.235-.486.302-.524a.06.06 0 0 0 .027-.007z" fill="#FF492D"/></symbol><symbol id="welcome-interaction-application" viewBox="0 0 60 60"><path fill="#23212C" fill-rule="nonzero" d="M45.4 12a.6.6 0 0 1 .6.6v34.8a.6.6 0 0 1-.6.6h-24a.6.6 0 0 1-.6-.6v-6.6h-1.62a5.624 5.624 0 0 1-4.567-2.351A4.426 4.426 0 0 0 11.02 36.6H10v-1.2h1.02a5.624 5.624 0 0 1 4.567 2.351A4.426 4.426 0 0 0 19.18 39.6h1.62V28.33a5.275 5.275 0 0 1-4.71 2.87H14.8V30h1.29a4.085 4.085 0 0 0 3.674-2.271l.499-.997a.6.6 0 0 1 .692-.312l6.812 1.817a1.14 1.14 0 0 0 .587-2.201L20.721 24h-2.378c-1.306 0-2.544.58-3.38 1.584A5.587 5.587 0 0 1 10.66 27.6H10v-1.2h.66c1.305 0 2.542-.58 3.376-1.584A5.587 5.587 0 0 1 18.34 22.8h2.46V12.6a.6.6 0 0 1 .6-.6h24zm-.6 34.8V13.2H22v9.9l6.664 1.776a2.34 2.34 0 0 1-1.204 4.52L22 27.941V46.8h22.8zM27.4 15h12v1.2h-12V15zm0 7.2H31v1.2h-3.6v-1.2zm4.8 0h6.6v1.2h-6.6v-1.2zm-1.2 3h6v1.2h-6v-1.2zm0 3h10.8v1.2H31v-1.2zm-6 3h16.8v1.2H25v-1.2zm15-9h1.8v1.2H40v-1.2zm-1.8 3h3.6v1.2h-3.6v-1.2zm-13.2 9h12v1.2H25v-1.2zm0 3h16.8v1.2H25v-1.2zm0 3h3.6v1.2H25v-1.2zm4.8 0h12v1.2h-12v-1.2zm8.4-6h3.6v1.2h-3.6v-1.2zM25 19.2h16.8v1.2H25v-1.2z"/></symbol><symbol id="welcome-interaction-question" viewBox="0 0 60 60"><path fill="#23212C" d="M13.503 25.504a.706.706 0 0 1-.705-.918A18.007 18.007 0 0 1 24.62 12.819a.707.707 0 0 1 .424 1.348A16.588 16.588 0 0 0 14.174 25.01a.706.706 0 0 1-.67.494zM30 48a18.014 18.014 0 0 1-17.81-20.626.706.706 0 0 1 .798-.593.706.706 0 0 1 .593.798 16.807 16.807 0 0 0-.17 2.421A16.588 16.588 0 1 0 27.58 13.588a.713.713 0 1 1-.205-1.411A18.24 18.24 0 0 1 30 12c9.941 0 18 8.06 18 18 0 9.941-8.059 18-18 18zm-.106-4.687a3.473 3.473 0 1 1 0-6.946 3.473 3.473 0 0 1 0 6.946zm0-5.527a2.061 2.061 0 1 0 2.061 2.061 2.061 2.061 0 0 0-2.06-2.068v.007zm.099-2.195c-.141.009-.283.009-.424 0a3.162 3.162 0 0 1-2.64-3.318c.134-2.93 2.365-5.478 4.236-7.101a2.118 2.118 0 0 0 .6-2.259 1.821 1.821 0 0 0-1.553-1.32h-.332a2.76 2.76 0 0 0-2.753 2.753 3.07 3.07 0 0 1-6.141 0 8.908 8.908 0 0 1 8.908-8.915c4.108 0 8.47 2.562 8.47 6.353 0 2.244-.458 3.254-1.206 4.15-.269.325-.593.706-.932 1.06-1.412 1.573-3.184 3.528-3.184 5.512a3.07 3.07 0 0 1-3.077 3.07l.028.015zm-.106-15.43c.165-.01.33-.01.494 0a3.24 3.24 0 0 1 2.732 2.3 3.53 3.53 0 0 1-1.038 3.713c-1.348 1.18-3.621 3.53-3.734 6.106a1.744 1.744 0 0 0 1.412 1.85c.467.073.942-.058 1.306-.36.361-.315.57-.77.572-1.25 0-2.527 1.969-4.708 3.529-6.459.325-.36.635-.706.89-1.01.48-.578.882-1.227.882-3.246 0-2.922-3.734-4.941-7.06-4.941a7.496 7.496 0 0 0-7.467 7.46 1.659 1.659 0 0 0 3.317 0 4.172 4.172 0 0 1 4.172-4.164h-.007z" fill-rule="evenodd"/></symbol></svg>