<svg xmlns="http://www.w3.org/2000/svg" width="340" height="168" viewBox="0 0 340 168">
    <g fill="none" transform="translate(97 11)" style="mix-blend-mode:multiply">
        <rect width="146" height="146" fill="#000"/>
        <path fill="#FFF" d="M114.46209 50.2537563C110.85041 46.2353923 105.794057 44.0567613 100.256148 44.0567613 92.9846311 44.0567613 89.2766393 47.3489149 87.0614754 50.0116861L87.0614754 29 73 29 73 36.8430718 76.4672131 36.8430718 76.4672131 85.9833055 86.579918 85.9833055 86.579918 80.3672788C89.4211066 84.7245409 93.9959016 87 99.8709016 87 105.890369 87 110.994877 84.869783 114.654713 80.803005 118.121926 76.9782972 120 71.5559265 120 65.5525876 119.951844 59.5976628 118.025615 54.1752922 114.46209 50.2537563zM109.357582 65.5041736C109.357582 68.6510851 108.25 71.5559265 106.275615 73.7345576 104.156762 76.1068447 101.219262 77.3171953 97.8002049 77.3171953 92.454918 77.3171953 86.6762295 73.6377295 86.6762295 65.5041736 86.6762295 57.3706177 92.4067623 53.6911519 97.8002049 53.6911519 101.219262 53.6911519 104.108607 54.9499165 106.275615 57.2737896 108.25 59.4524207 109.357582 62.4056761 109.357582 65.5041736zM65.7592801 77.8138163C63.6794151 77.8138163 62.1316085 76.6899747 61.1642295 75.5661331 60.632171 74.9309183 51.3937008 63.9368155 51.3937008 63.9368155L69 45.1246841 55.2632171 45.1246841 40.0753656 61.6402696 40.0753656 29 26 29 26 36.915754 29.4825647 36.915754 29.4825647 86.4625105 40.0753656 86.4625105 40.0753656 66.1844987 51.5871766 80.4035383C55.2148481 85.3875316 57.9718785 87 62.9538808 87 63.9696288 87 67.1136108 86.9022746 68.4195726 86.5602359L68.6130484 86.5113732 68.6130484 77.862679C68.6614173 77.8138163 66.1946007 77.8138163 65.7592801 77.8138163z"/>
        <polygon fill="#FFF" points="42.536 95 42.536 103.381 33.415 103.381 33.415 95 29 95 29 116 33.415 116 33.415 107.619 42.536 107.619 42.536 116 47 116 47 95"/>
        <path fill="#FFF" d="M61.4998208,94 C55.7249194,94 51,98.9276018 51,105 C51,111.072398 55.7249194,116 61.4998208,116 C67.3224487,116 71.9996416,111.072398 71.9996416,105 C72.047368,98.9276018 67.3224487,94 61.4998208,94 Z M67.7042604,104.950226 C67.7042604,108.533937 64.9361258,111.420814 61.5475473,111.420814 C58.1589687,111.420814 55.3908342,108.533937 55.3908342,104.950226 C55.3908342,101.366516 58.1589687,98.479638 61.5475473,98.479638 C64.9361258,98.479638 67.7042604,101.41629 67.7042604,104.950226 Z"/>
        <polygon fill="#FFF" points="92.857 95 86.476 104.111 80.381 95 76 95 76 116 80.381 116 80.381 102.845 86.476 111.907 92.619 102.796 92.619 116 97 116 97 95"/>
        <polygon fill="#FFF" points="117 99.239 117 95 102 95 102 116 117 116 117 111.81 106.306 111.81 106.306 107.619 114.35 107.619 114.35 103.381 106.306 103.381 106.306 99.239"/>
    </g>
</svg>
