<svg xmlns="http://www.w3.org/2000/svg" width="340" height="168" viewBox="0 0 340 168">
    <g transform="translate(73)" style="mix-blend-mode:multiply">
        <path d="M53.038919,115.132296 C44.4940602,114.864336 37.3381368,121.681988 37.0144632,130.399253 L37.0144632,131.457621 C36.6482421,140.198582 43.2813283,147.59432 51.8461602,147.994619 L53.038919,147.994619 C61.5441258,148.218498 68.6480941,141.429116 68.9855862,132.754121 C68.9855862,132.330774 68.9855862,131.933886 68.9855862,131.536998 C69.3515778,122.786163 62.7030811,115.38618 54.1279597,115 L52.9611304,115 M52.9611304,143.126127 C47.2329346,143.126127 42.5893144,138.387652 42.5893144,132.542448 C42.5634778,132.190151 42.5634778,131.836377 42.5893144,131.48408 C43.0960729,125.929521 47.740947,121.730002 53.2057265,121.885579 C58.6705061,122.041156 63.0786984,126.498407 63.2811745,132.073157 C63.4836505,137.647907 59.4108841,142.425901 53.9723825,142.993831 C53.6184815,143.020153 53.2631723,143.020153 52.9092713,142.993831"/>
        <polygon points="103.395 116 94.487 137.386 85.579 116 78 116 78 148 83.637 148 83.637 124.258 93.503 148 95.471 148 105.336 124.258 105.336 148 111 148 111 116"/>
        <polygon points="22.489 129.075 5.537 129.075 5.537 116 0 116 0 148 5.537 148 5.537 134.051 22.489 134.051 22.489 148 28 148 28 116 22.489 116"/>
        <polygon points="122 148 144 148 144 143.05 127.606 143.05 127.606 134.184 143.655 134.184 143.655 129.208 127.606 129.208 127.606 120.923 144 120.923 144 116 122 116"/>
        <path d="M161.837161 124.968957C161.837161 122.567706 163.924843 120.984463 167.056367 120.984463 170.435518 120.91399 173.709874 122.172136 176.189979 124.493984L179.530271 120.324779C176.283825 117.336019 171.988575 115.786911 167.604384 116.023636 160.662839 116.023636 156.096033 120.087293 156.096033 125.338381 156.096033 137.133538 174.363257 132.964332 174.363257 139.640339 174.363257 141.751329 172.56263 143.994256 168.021921 143.994256 164.247098 143.970909 160.645734 142.388446 158.053236 139.613951L155 143.888706C158.347836 147.35438 163.001129 149.20767 167.787056 148.98147 176.320459 148.98147 180 144.416454 180 139.112591 180 127.211884 161.732777 130.87973 161.732777 125.100894M45.9843796 70.6750605C46.2032301 65.26424 44.1140045 60.018449 40.2464607 56.2678447 36.3789168 52.5172403 31.1044944 50.6220315 25.7606106 51.0627797L0 51.0627797 0 112 12.8153189 112 12.8153189 90.2348317 25.8125998 90.2348317C36.191628 90.9868645 45.2100131 83.1005409 45.9583851 72.6179102 45.9969962 71.9708807 45.9969962 71.32209 45.9583851 70.6750605M24.2269315 78.8665351L12.8933026 78.8665351 12.8933026 62.4048216 24.1749424 62.4048216C28.5366801 62.3184939 32.1945843 65.7116189 32.4797012 70.1084363 32.7648181 74.5052536 29.5763447 78.3512713 25.2407194 78.8402804 24.8859343 78.8665351 24.5297274 78.8665351 24.1749424 78.8402804M77.9869707 66L77.9869707 96.5565523C75.8705899 99.8016058 72.4626914 101.978431 68.6319218 102.532172 64.0716612 102.532172 61.7003257 99.922731 61.7003257 94.7038493L61.7003257 66 50 66 50 97.9134615C50 106.942127 55.0553746 112.99603 64.2801303 112.99603 69.3339077 113.094702 74.2513499 111.351297 78.1172638 108.090281L78.1172638 111.926159 90 111.926159 90 66 77.9869707 66zM177.607276 71.9932901C173.60862 67.4171059 167.787285 64.8571838 161.718343 65.0061591 155.675465 65.0339613 149.891119 67.4655809 145.637827 71.7660757 141.384535 76.0665704 139.010716 81.8836562 139.038595 87.9376076 139.038595 88.2790839 139.038595 88.6205603 139.038595 88.9620366 138.687754 94.9819067 140.73991 100.894597 144.743049 105.397759 148.746188 109.900921 154.371939 112.625168 160.381156 112.970449 161.071039 113.00985 161.762602 113.00985 162.452485 112.970449 169.100297 113.221364 175.598045 110.951427 180.648722 106.613736L180.648722 106.613736 175.40485 98.7335129 175.40485 98.9173848C172.221713 101.708513 168.150545 103.272918 163.92077 103.33031 157.756991 103.754303 152.336182 99.2805693 151.57145 93.1385547L183.978581 93.1385547 183.978581 90.2754071C184.240875 83.6790292 182.086759 77.2141823 177.921909 72.0983597M172.678036 84.6541814L151.204379 84.6541814C151.603679 79.1507649 156.1843 74.894453 161.692124 74.9089725 167.262318 74.731057 171.93852 79.0761822 172.179869 84.6541814"/>
        <polygon points="98 47.598 98 112 110 112 110 42"/>
        <path d="M137.321513,101.083979 C136.20948,101.844952 134.892796,102.240312 133.550827,102.216202 C131.236407,102.216202 129.702128,100.373048 129.702128,97.5293241 L129.702128,75.8854281 L138.101655,75.8854281 L138.101655,65.3531186 L129.702128,65.3531186 L129.702128,51.5031317 L118,46 L118,100.768009 C118,108.667241 122.420804,112.959157 130.508274,112.959157 C133.87705,113.212381 137.229109,112.282495 140,110.32608 L137.321513,101.083979 Z"/>
        <polygon points="151.578 43.773 151.578 30.564 139.678 30.564 139.678 38.112 109.837 24 49 52.782 49 62.535 109.837 33.753 180 67 180 57.273"/>
        <path d="M109.973022,24.0667022 L139.599502,38.165862 L139.599502,30.7982559 L151.423991,30.7982559 L151.423991,44.049346 L168,52 L168,51.2844411 C168.151158,24.3817804 147.691075,1.98771066 121.257213,0.124218756 C94.8233506,-1.73927314 71.5113774,17.5690245 68,44.2348612 L102.272747,27.8565139 L109.973022,24.0667022 Z"/>
        <text font-family="Helvetica" font-size="6.53">
            <tspan x="174" y="43">™</tspan>
        </text>
    </g>
</svg>
