<svg xmlns="http://www.w3.org/2000/svg" width="340" height="168" viewBox="0 0 340 168">
    <g opacity=".795" transform="translate(18 24)" style="mix-blend-mode:multiply">
        <path d="M35.5985076,40.2614032 L35.5985076,12.4330584 C36.3742005,12.3112674 37.1517057,12.3112674 37.9273987,12.3112674 C47.2574626,12.3112674 52.8486142,17.0102203 52.8486142,24.4776474 C52.8486142,32.4322385 46.9402986,37.9691867 35.5985076,40.2614032 Z M41.6626865,81.699443 C35.7507464,77.3622276 35.5985076,73.0213765 35.5985076,67.2372107 L35.5985076,46.6472532 L49.2764393,67.366273 C56.1108741,77.6058097 62.3327292,82.0539095 73.989872,82.0539095 C75.3853945,82.0539095 76.7899787,82.0539095 78.1836887,81.9430251 L95.7473348,80.6178658 C89.2210022,75.4317485 84.7118337,70.858222 81.7594884,67.0008999 L62.639019,41.7047181 C75.6953092,36.8876095 81.9153517,30.6199153 81.9153517,21.8309644 C81.9153517,7.12878574 68.2410448,0.0267318299 41.0356078,0.0267318299 L0,0.0267318299 C6.06417911,4.24215621 6.06417911,8.45758057 6.06417911,14.3599018 L6.06417911,67.2372107 C6.06417911,73.0213765 5.90469082,77.3622276 0,81.699443 L41.6626865,81.699443 Z"/>
        <path d="M68.8688487 118.764821C73.0354799 118.882976 76.7417698 118.792087 80.1327078 119.008403 101.08548 120.30266 113.081535 114.711179 120.488678 99.2873423L158.927164 24.4803743 135.926418 24.4803743C138.084947 27.0089018 137.936332 28.9357452 137.936332 30.866224 137.936332 33.3947516 136.705736 36.0450703 135.31565 39.2970729L126.8229 58.2110404 111.693262 24.4803743 77.7295095 24.4803743C82.0520043 28.6921631 85.2979531 32.7930676 87.3006183 36.5285987L102.276205 64.9549921C106.442836 72.9059478 108.302324 78.0884296 113.703177 80.3788283 109.844648 90.618365 101.853923 111.811825 85.3813221 107.798173 84.1851599 107.507329 82.7570149 107.680018 81.3669297 107.561862L68.8688487 118.764821zM185.722281 54.8365196L185.722281 64.954265C185.722281 75.6773304 192.433476 82.790291 211.039233 82.790291 212.895096 82.790291 214.248934 82.6612287 218.263326 82.4249179L224.13177 72.3035367C215.327292 71.347386 213.96983 69.5386982 213.96983 63.2710038L213.96983 49.8976199 213.96983 48.8196785C213.96983 40.5033496 213.813966 33.9957085 207.332943 28.820498 201.776226 24.3578561 193.131237 22.4310127 181.091685 22.4310127 175.226866 22.4310127 169.670149 23.2726433 163.801706 24.6014382L156.548614 37.4876578C163.495416 35.3245033 169.976439 34.1174996 176.14936 34.1174996 182.635821 34.1174996 185.878145 36.0443432 185.878145 39.661719 185.878145 45.4458848 177.077292 45.1986669 163.495416 47.73083 149.288273 50.3847841 142.036994 56.0435234 142.036994 64.954265 142.036994 75.1938017 152.376546 82.9084463 167.663859 82.9084463 169.512473 82.9084463 172.452132 82.790291 176.772815 82.5430731L183.253838 71.820008 182.012367 71.820008C175.226866 71.820008 171.361087 68.929743 171.361087 64.7179541 171.361087 59.89721 176.14936 57.7304201 185.722281 54.8365196"/>
        <path d="M220.603273 81.6983524L258.262441 81.6983524C254.251674 78.8117228 253.01564 75.6851467 253.01564 70.9825582L253.01564 52.5484839C253.01564 41.3455256 253.637282 35.4432042 261.818305 35.4432042 269.689414 35.4432042 271.538028 41.3455256 271.538028 52.5484839L271.538028 70.9825582C271.538028 75.6851467 270.309243 78.8117228 266.294851 81.6983524L303.954019 81.6983524C299.943252 78.8117228 298.70903 75.6851467 298.70903 70.9825582L298.70903 44.4757372C298.70903 31.3459355 288.217239 23.2768242 272.007431 23.2768242 265.053379 23.2768242 259.188561 25.2000321 253.01564 29.0609899L252.40306 22.4424647C243.547836 24.0402905 236.269371 24.6637879 227.867239 24.483828L220.603273 24.4801925C224.61404 27.3740931 225.851887 30.6260959 225.851887 35.3214132L225.851887 70.9825582C225.851887 75.6851467 224.61404 78.8117228 220.603273 81.6983524M153.674925 98.1515954L140.932175 98.1515954 140.932175 90.6569019C140.932175 88.162912 140.984733 86.3814909 143.190384 84.5964339L127.660213 84.5964339C129.920235 86.3814909 129.920235 88.162912 129.920235 90.6569019L129.920235 113.039187C129.920235 115.484097 129.864051 117.31278 127.660213 119.154189L143.190384 119.154189C140.984733 117.31278 140.932175 115.484097 140.932175 113.039187L140.932175 103.559481 153.674925 103.559481 153.674925 113.039187C153.674925 115.484097 153.562559 117.31278 151.356908 119.154189L167.001258 119.154189C164.801045 117.31278 164.683241 115.484097 164.683241 113.039187L164.683241 90.6569019C164.683241 88.162912 164.801045 86.3814909 167.001258 84.5964339L151.356908 84.5964339C153.562559 86.3814909 153.674925 88.162912 153.674925 90.6569019L153.674925 98.1515954z"/>
        <path d="M182.249788,94.1246738 C172.680491,94.1246738 165.525268,99.888844 165.525268,107.329004 C165.525268,114.056596 171.910236,119.968006 181.47772,119.968006 C191.119511,119.968006 198.207677,114.254734 198.207677,106.814574 C198.207677,100.039719 191.764713,94.1246738 182.249788,94.1246738 M181.898189,114.718267 C178.65224,114.718267 176.57708,111.866175 176.57708,106.358312 C176.57708,101.670265 178.413007,99.2726176 181.834756,99.2726176 C185.087954,99.2726176 187.096056,102.082901 187.096056,107.52896 C187.096056,112.267904 185.323562,114.718267 181.898189,114.718267"/>
        <path d="M197.253102,119.154552 L211.672292,119.154552 C210.129968,117.934824 209.662377,116.606029 209.662377,114.617381 L209.662377,105.599391 C209.662377,101.511211 210.492441,99.5789137 213.502783,99.5789137 C216.514936,99.5789137 217.457367,101.671175 217.457367,105.957493 L217.457367,114.617381 C217.457367,116.606029 216.986151,117.934824 215.449264,119.154552 L229.872079,119.154552 C228.337004,117.934824 227.860352,116.606029 227.860352,114.617381 L227.860352,105.599391 C227.860352,101.511211 228.688603,99.5789137 231.702569,99.5789137 C234.714723,99.5789137 235.660778,101.671175 235.660778,105.957493 L235.660778,114.617381 C235.660778,116.606029 235.189563,117.934824 233.656301,119.154552 L248.071866,119.154552 C246.533166,117.934824 246.063763,116.606029 246.063763,114.617381 L246.063763,103.249005 C246.063763,97.5430038 241.632527,94.2837299 235.784019,94.2837299 C232.351397,94.2837299 229.457047,95.4507426 226.086045,97.6884259 C223.606727,95.3453118 220.828369,94.2837299 217.28338,94.2837299 C214.38903,94.2837299 212.023891,95.041743 209.662377,96.7250043 L209.423145,94.3818901 C206.175384,94.8381519 203.038177,94.9435831 199.973465,94.9435831 L197.253102,94.9435831 C198.786365,96.1633113 199.259392,97.5430038 199.259392,99.5243805 L199.259392,114.617381 C199.259392,116.606029 198.786365,117.934824 197.253102,119.154552"/>
        <path d="M266.61854,114.823154 C261.24306,114.823154 257.933678,112.274631 257.933678,107.890153 C257.933678,107.632028 257.989861,107.32846 257.989861,107.01762 L276.133465,107.01762 L276.133465,106.357767 C276.133465,98.8139932 270.281332,94.0259692 262.428348,94.0259692 C253.558625,94.0259692 247.059478,99.4247664 247.059478,107.072153 C247.059478,114.717722 253.266834,119.867484 263.845618,119.867484 C267.562783,119.867484 270.877601,119.153098 274.362782,118.133325 L276.490501,112.216462 C272.470672,113.852461 269.279094,114.823154 266.61854,114.823154 M262.129307,98.7667312 C264.492633,98.7667312 265.790288,100.040993 265.790288,102.534982 L258.229094,102.534982 C258.346898,100.093708 259.823976,98.7667312 262.129307,98.7667312"/>
        <path d="M276.230789,112.52512 L277.532068,118.538326 C281.133241,119.354507 284.562239,119.812587 287.987612,119.812587 C297.382921,119.812587 302.582601,116.453336 302.582601,111.152699 C302.582601,107.586221 299.983667,105.030426 294.722367,103.354436 C291.469168,102.32921 288.640064,102.32921 288.640064,100.493255 C288.640064,99.577096 289.879723,98.7118342 292.005629,98.7118342 C294.309147,98.7118342 296.850085,99.3280607 299.392836,100.602322 L299.454456,95.1453561 C296.322687,94.3818901 293.189104,94.0237879 289.999339,94.0237879 C281.782068,94.0237879 276.941237,97.2866972 276.941237,102.383744 C276.941237,107.224483 280.600405,108.702335 287.636013,110.689166 C289.879723,111.35629 291.233561,111.916165 291.233561,113.397653 C291.233561,114.617381 289.999339,115.537176 287.87162,115.537176 C285.508294,115.537176 281.367036,114.715541 276.230789,112.52512"/>
    </g>
</svg>
