<svg version="1" xmlns="http://www.w3.org/2000/svg" width="682.667" height="682.667" viewBox="0 0 512.000000 512.000000"><path d="M242.5 60.6c-3.8.8-9.7 2.8-13 4.3-8.2 3.8-143.6 94.2-149.7 99.9-9.6 9-17.6 24-19.7 37.2-1.7 10.4-1.4 189.8.4 197.5 1.9 8.4 2.8 11.3 5.8 17.1 7.8 15.5 21.3 27.1 38.3 33.1l7.9 2.8 50.8.3 50.7.3v-72c0-49.5.4-73.7 1.1-77.3 2.5-11.5 10.7-22.7 20.7-28.3 21.7-12.1 49.9-1.9 59 21.5 1.2 3 2.3 6.8 2.6 8.5.2 1.6.5 35.5.5 75.3l.1 72.3 50.8-.3 50.7-.3 8-2.8c18.2-6.4 31.7-18.8 39.5-36.1 1.6-3.5 3.1-7.4 3.4-8.7.2-1.3.9-4.4 1.5-6.9.7-3.1 1-35.1.8-100.5-.3-104.5 0-99.5-5.9-112.2-5.1-11.1-14.6-22-25.3-28.9-3.3-2.1-6.2-4.1-6.5-4.4-.3-.3-5.7-3.9-12-8s-11.7-7.7-12-8c-1.5-1.5-105-69.8-107.5-70.9-11.9-5.4-28.7-7.2-41-4.5zm24.3 79.8c11.9 3.2 21.2 11.3 27 23.4 3.4 7.1 3.7 8.4 3.7 16.7 0 11.2-2.2 18.5-7.9 26.3-5 6.7-9.4 10.3-17.4 14-5 2.4-6.9 2.7-16.2 2.7-9.7 0-11-.2-17.1-3.1-35.1-16.7-32-67.7 4.9-79.5 6.9-2.2 15.8-2.4 23-.5z"/></svg>